G04 #@! TF.GenerationSoftware,KiCad,Pcbnew,(5.1.4)-1*
G04 #@! TF.CreationDate,2021-07-20T22:26:21+09:00*
G04 #@! TF.ProjectId,UAV2021_ver3_panelizing,55415632-3032-4315-9f76-6572335f7061,rev?*
G04 #@! TF.SameCoordinates,Original*
G04 #@! TF.FileFunction,Copper,L2,Bot*
G04 #@! TF.FilePolarity,Positive*
%FSLAX46Y46*%
G04 Gerber Fmt 4.6, Leading zero omitted, Abs format (unit mm)*
G04 Created by KiCad (PCBNEW (5.1.4)-1) date 2021-07-20 22:26:21*
%MOMM*%
%LPD*%
G04 APERTURE LIST*
%ADD10C,4.400000*%
%ADD11C,0.700000*%
%ADD12R,0.650000X1.060000*%
%ADD13O,1.700000X1.700000*%
%ADD14R,1.700000X1.700000*%
%ADD15C,0.100000*%
%ADD16C,0.600000*%
%ADD17C,1.200000*%
%ADD18C,0.590000*%
%ADD19C,0.800000*%
%ADD20C,0.800000*%
%ADD21C,0.500000*%
%ADD22C,0.250000*%
%ADD23C,1.000000*%
%ADD24C,0.254000*%
G04 APERTURE END LIST*
D10*
X-3500000Y-33000000D03*
D11*
X-1850000Y-33000000D03*
X-2333274Y-34166726D03*
X-3500000Y-34650000D03*
X-4666726Y-34166726D03*
X-5150000Y-33000000D03*
X-4666726Y-31833274D03*
X-3500000Y-31350000D03*
X-2333274Y-31833274D03*
D10*
X3500000Y-33000000D03*
D11*
X5150000Y-33000000D03*
X4666726Y-34166726D03*
X3500000Y-34650000D03*
X2333274Y-34166726D03*
X1850000Y-33000000D03*
X2333274Y-31833274D03*
X3500000Y-31350000D03*
X4666726Y-31833274D03*
D12*
X-950000Y23960000D03*
X0Y23960000D03*
X950000Y23960000D03*
X950000Y21760000D03*
X-950000Y21760000D03*
D13*
X-12700000Y-29210000D03*
X-12700000Y-26670000D03*
X-12700000Y-24130000D03*
X-12700000Y-21590000D03*
X-12700000Y-19050000D03*
D14*
X-12700000Y-16510000D03*
X12700000Y-16510000D03*
D13*
X12700000Y-19050000D03*
X12700000Y-21590000D03*
X12700000Y-24130000D03*
X12700000Y-26670000D03*
X12700000Y-29210000D03*
D14*
X-12700000Y29210000D03*
D13*
X-12700000Y26670000D03*
X-12700000Y24130000D03*
X-12700000Y21590000D03*
X-12700000Y19050000D03*
X-12700000Y16510000D03*
X12700000Y16510000D03*
X12700000Y19050000D03*
X12700000Y21590000D03*
X12700000Y24130000D03*
X12700000Y26670000D03*
D14*
X12700000Y29210000D03*
X-12700000Y2540000D03*
D13*
X-12700000Y0D03*
X-12700000Y-2540000D03*
D15*
G36*
X2664703Y28659278D02*
G01*
X2679264Y28657118D01*
X2693543Y28653541D01*
X2707403Y28648582D01*
X2720710Y28642288D01*
X2733336Y28634720D01*
X2745159Y28625952D01*
X2756066Y28616066D01*
X2765952Y28605159D01*
X2774720Y28593336D01*
X2782288Y28580710D01*
X2788582Y28567403D01*
X2793541Y28553543D01*
X2797118Y28539264D01*
X2799278Y28524703D01*
X2800000Y28510000D01*
X2800000Y27260000D01*
X2799278Y27245297D01*
X2797118Y27230736D01*
X2793541Y27216457D01*
X2788582Y27202597D01*
X2782288Y27189290D01*
X2774720Y27176664D01*
X2765952Y27164841D01*
X2756066Y27153934D01*
X2745159Y27144048D01*
X2733336Y27135280D01*
X2720710Y27127712D01*
X2707403Y27121418D01*
X2693543Y27116459D01*
X2679264Y27112882D01*
X2664703Y27110722D01*
X2650000Y27110000D01*
X2350000Y27110000D01*
X2335297Y27110722D01*
X2320736Y27112882D01*
X2306457Y27116459D01*
X2292597Y27121418D01*
X2279290Y27127712D01*
X2266664Y27135280D01*
X2254841Y27144048D01*
X2243934Y27153934D01*
X2234048Y27164841D01*
X2225280Y27176664D01*
X2217712Y27189290D01*
X2211418Y27202597D01*
X2206459Y27216457D01*
X2202882Y27230736D01*
X2200722Y27245297D01*
X2200000Y27260000D01*
X2200000Y28510000D01*
X2200722Y28524703D01*
X2202882Y28539264D01*
X2206459Y28553543D01*
X2211418Y28567403D01*
X2217712Y28580710D01*
X2225280Y28593336D01*
X2234048Y28605159D01*
X2243934Y28616066D01*
X2254841Y28625952D01*
X2266664Y28634720D01*
X2279290Y28642288D01*
X2292597Y28648582D01*
X2306457Y28653541D01*
X2320736Y28657118D01*
X2335297Y28659278D01*
X2350000Y28660000D01*
X2650000Y28660000D01*
X2664703Y28659278D01*
X2664703Y28659278D01*
G37*
D16*
X2500000Y27885000D03*
D15*
G36*
X1664703Y28659278D02*
G01*
X1679264Y28657118D01*
X1693543Y28653541D01*
X1707403Y28648582D01*
X1720710Y28642288D01*
X1733336Y28634720D01*
X1745159Y28625952D01*
X1756066Y28616066D01*
X1765952Y28605159D01*
X1774720Y28593336D01*
X1782288Y28580710D01*
X1788582Y28567403D01*
X1793541Y28553543D01*
X1797118Y28539264D01*
X1799278Y28524703D01*
X1800000Y28510000D01*
X1800000Y27260000D01*
X1799278Y27245297D01*
X1797118Y27230736D01*
X1793541Y27216457D01*
X1788582Y27202597D01*
X1782288Y27189290D01*
X1774720Y27176664D01*
X1765952Y27164841D01*
X1756066Y27153934D01*
X1745159Y27144048D01*
X1733336Y27135280D01*
X1720710Y27127712D01*
X1707403Y27121418D01*
X1693543Y27116459D01*
X1679264Y27112882D01*
X1664703Y27110722D01*
X1650000Y27110000D01*
X1350000Y27110000D01*
X1335297Y27110722D01*
X1320736Y27112882D01*
X1306457Y27116459D01*
X1292597Y27121418D01*
X1279290Y27127712D01*
X1266664Y27135280D01*
X1254841Y27144048D01*
X1243934Y27153934D01*
X1234048Y27164841D01*
X1225280Y27176664D01*
X1217712Y27189290D01*
X1211418Y27202597D01*
X1206459Y27216457D01*
X1202882Y27230736D01*
X1200722Y27245297D01*
X1200000Y27260000D01*
X1200000Y28510000D01*
X1200722Y28524703D01*
X1202882Y28539264D01*
X1206459Y28553543D01*
X1211418Y28567403D01*
X1217712Y28580710D01*
X1225280Y28593336D01*
X1234048Y28605159D01*
X1243934Y28616066D01*
X1254841Y28625952D01*
X1266664Y28634720D01*
X1279290Y28642288D01*
X1292597Y28648582D01*
X1306457Y28653541D01*
X1320736Y28657118D01*
X1335297Y28659278D01*
X1350000Y28660000D01*
X1650000Y28660000D01*
X1664703Y28659278D01*
X1664703Y28659278D01*
G37*
D16*
X1500000Y27885000D03*
D15*
G36*
X664703Y28659278D02*
G01*
X679264Y28657118D01*
X693543Y28653541D01*
X707403Y28648582D01*
X720710Y28642288D01*
X733336Y28634720D01*
X745159Y28625952D01*
X756066Y28616066D01*
X765952Y28605159D01*
X774720Y28593336D01*
X782288Y28580710D01*
X788582Y28567403D01*
X793541Y28553543D01*
X797118Y28539264D01*
X799278Y28524703D01*
X800000Y28510000D01*
X800000Y27260000D01*
X799278Y27245297D01*
X797118Y27230736D01*
X793541Y27216457D01*
X788582Y27202597D01*
X782288Y27189290D01*
X774720Y27176664D01*
X765952Y27164841D01*
X756066Y27153934D01*
X745159Y27144048D01*
X733336Y27135280D01*
X720710Y27127712D01*
X707403Y27121418D01*
X693543Y27116459D01*
X679264Y27112882D01*
X664703Y27110722D01*
X650000Y27110000D01*
X350000Y27110000D01*
X335297Y27110722D01*
X320736Y27112882D01*
X306457Y27116459D01*
X292597Y27121418D01*
X279290Y27127712D01*
X266664Y27135280D01*
X254841Y27144048D01*
X243934Y27153934D01*
X234048Y27164841D01*
X225280Y27176664D01*
X217712Y27189290D01*
X211418Y27202597D01*
X206459Y27216457D01*
X202882Y27230736D01*
X200722Y27245297D01*
X200000Y27260000D01*
X200000Y28510000D01*
X200722Y28524703D01*
X202882Y28539264D01*
X206459Y28553543D01*
X211418Y28567403D01*
X217712Y28580710D01*
X225280Y28593336D01*
X234048Y28605159D01*
X243934Y28616066D01*
X254841Y28625952D01*
X266664Y28634720D01*
X279290Y28642288D01*
X292597Y28648582D01*
X306457Y28653541D01*
X320736Y28657118D01*
X335297Y28659278D01*
X350000Y28660000D01*
X650000Y28660000D01*
X664703Y28659278D01*
X664703Y28659278D01*
G37*
D16*
X500000Y27885000D03*
D15*
G36*
X-335297Y28659278D02*
G01*
X-320736Y28657118D01*
X-306457Y28653541D01*
X-292597Y28648582D01*
X-279290Y28642288D01*
X-266664Y28634720D01*
X-254841Y28625952D01*
X-243934Y28616066D01*
X-234048Y28605159D01*
X-225280Y28593336D01*
X-217712Y28580710D01*
X-211418Y28567403D01*
X-206459Y28553543D01*
X-202882Y28539264D01*
X-200722Y28524703D01*
X-200000Y28510000D01*
X-200000Y27260000D01*
X-200722Y27245297D01*
X-202882Y27230736D01*
X-206459Y27216457D01*
X-211418Y27202597D01*
X-217712Y27189290D01*
X-225280Y27176664D01*
X-234048Y27164841D01*
X-243934Y27153934D01*
X-254841Y27144048D01*
X-266664Y27135280D01*
X-279290Y27127712D01*
X-292597Y27121418D01*
X-306457Y27116459D01*
X-320736Y27112882D01*
X-335297Y27110722D01*
X-350000Y27110000D01*
X-650000Y27110000D01*
X-664703Y27110722D01*
X-679264Y27112882D01*
X-693543Y27116459D01*
X-707403Y27121418D01*
X-720710Y27127712D01*
X-733336Y27135280D01*
X-745159Y27144048D01*
X-756066Y27153934D01*
X-765952Y27164841D01*
X-774720Y27176664D01*
X-782288Y27189290D01*
X-788582Y27202597D01*
X-793541Y27216457D01*
X-797118Y27230736D01*
X-799278Y27245297D01*
X-800000Y27260000D01*
X-800000Y28510000D01*
X-799278Y28524703D01*
X-797118Y28539264D01*
X-793541Y28553543D01*
X-788582Y28567403D01*
X-782288Y28580710D01*
X-774720Y28593336D01*
X-765952Y28605159D01*
X-756066Y28616066D01*
X-745159Y28625952D01*
X-733336Y28634720D01*
X-720710Y28642288D01*
X-707403Y28648582D01*
X-693543Y28653541D01*
X-679264Y28657118D01*
X-664703Y28659278D01*
X-650000Y28660000D01*
X-350000Y28660000D01*
X-335297Y28659278D01*
X-335297Y28659278D01*
G37*
D16*
X-500000Y27885000D03*
D15*
G36*
X-1335297Y28659278D02*
G01*
X-1320736Y28657118D01*
X-1306457Y28653541D01*
X-1292597Y28648582D01*
X-1279290Y28642288D01*
X-1266664Y28634720D01*
X-1254841Y28625952D01*
X-1243934Y28616066D01*
X-1234048Y28605159D01*
X-1225280Y28593336D01*
X-1217712Y28580710D01*
X-1211418Y28567403D01*
X-1206459Y28553543D01*
X-1202882Y28539264D01*
X-1200722Y28524703D01*
X-1200000Y28510000D01*
X-1200000Y27260000D01*
X-1200722Y27245297D01*
X-1202882Y27230736D01*
X-1206459Y27216457D01*
X-1211418Y27202597D01*
X-1217712Y27189290D01*
X-1225280Y27176664D01*
X-1234048Y27164841D01*
X-1243934Y27153934D01*
X-1254841Y27144048D01*
X-1266664Y27135280D01*
X-1279290Y27127712D01*
X-1292597Y27121418D01*
X-1306457Y27116459D01*
X-1320736Y27112882D01*
X-1335297Y27110722D01*
X-1350000Y27110000D01*
X-1650000Y27110000D01*
X-1664703Y27110722D01*
X-1679264Y27112882D01*
X-1693543Y27116459D01*
X-1707403Y27121418D01*
X-1720710Y27127712D01*
X-1733336Y27135280D01*
X-1745159Y27144048D01*
X-1756066Y27153934D01*
X-1765952Y27164841D01*
X-1774720Y27176664D01*
X-1782288Y27189290D01*
X-1788582Y27202597D01*
X-1793541Y27216457D01*
X-1797118Y27230736D01*
X-1799278Y27245297D01*
X-1800000Y27260000D01*
X-1800000Y28510000D01*
X-1799278Y28524703D01*
X-1797118Y28539264D01*
X-1793541Y28553543D01*
X-1788582Y28567403D01*
X-1782288Y28580710D01*
X-1774720Y28593336D01*
X-1765952Y28605159D01*
X-1756066Y28616066D01*
X-1745159Y28625952D01*
X-1733336Y28634720D01*
X-1720710Y28642288D01*
X-1707403Y28648582D01*
X-1693543Y28653541D01*
X-1679264Y28657118D01*
X-1664703Y28659278D01*
X-1650000Y28660000D01*
X-1350000Y28660000D01*
X-1335297Y28659278D01*
X-1335297Y28659278D01*
G37*
D16*
X-1500000Y27885000D03*
D15*
G36*
X-2335297Y28659278D02*
G01*
X-2320736Y28657118D01*
X-2306457Y28653541D01*
X-2292597Y28648582D01*
X-2279290Y28642288D01*
X-2266664Y28634720D01*
X-2254841Y28625952D01*
X-2243934Y28616066D01*
X-2234048Y28605159D01*
X-2225280Y28593336D01*
X-2217712Y28580710D01*
X-2211418Y28567403D01*
X-2206459Y28553543D01*
X-2202882Y28539264D01*
X-2200722Y28524703D01*
X-2200000Y28510000D01*
X-2200000Y27260000D01*
X-2200722Y27245297D01*
X-2202882Y27230736D01*
X-2206459Y27216457D01*
X-2211418Y27202597D01*
X-2217712Y27189290D01*
X-2225280Y27176664D01*
X-2234048Y27164841D01*
X-2243934Y27153934D01*
X-2254841Y27144048D01*
X-2266664Y27135280D01*
X-2279290Y27127712D01*
X-2292597Y27121418D01*
X-2306457Y27116459D01*
X-2320736Y27112882D01*
X-2335297Y27110722D01*
X-2350000Y27110000D01*
X-2650000Y27110000D01*
X-2664703Y27110722D01*
X-2679264Y27112882D01*
X-2693543Y27116459D01*
X-2707403Y27121418D01*
X-2720710Y27127712D01*
X-2733336Y27135280D01*
X-2745159Y27144048D01*
X-2756066Y27153934D01*
X-2765952Y27164841D01*
X-2774720Y27176664D01*
X-2782288Y27189290D01*
X-2788582Y27202597D01*
X-2793541Y27216457D01*
X-2797118Y27230736D01*
X-2799278Y27245297D01*
X-2800000Y27260000D01*
X-2800000Y28510000D01*
X-2799278Y28524703D01*
X-2797118Y28539264D01*
X-2793541Y28553543D01*
X-2788582Y28567403D01*
X-2782288Y28580710D01*
X-2774720Y28593336D01*
X-2765952Y28605159D01*
X-2756066Y28616066D01*
X-2745159Y28625952D01*
X-2733336Y28634720D01*
X-2720710Y28642288D01*
X-2707403Y28648582D01*
X-2693543Y28653541D01*
X-2679264Y28657118D01*
X-2664703Y28659278D01*
X-2650000Y28660000D01*
X-2350000Y28660000D01*
X-2335297Y28659278D01*
X-2335297Y28659278D01*
G37*
D16*
X-2500000Y27885000D03*
D15*
G36*
X4174505Y31308796D02*
G01*
X4198773Y31305196D01*
X4222572Y31299235D01*
X4245671Y31290970D01*
X4267850Y31280480D01*
X4288893Y31267868D01*
X4308599Y31253253D01*
X4326777Y31236777D01*
X4343253Y31218599D01*
X4357868Y31198893D01*
X4370480Y31177850D01*
X4380970Y31155671D01*
X4389235Y31132572D01*
X4395196Y31108773D01*
X4398796Y31084505D01*
X4400000Y31060001D01*
X4400000Y29759999D01*
X4398796Y29735495D01*
X4395196Y29711227D01*
X4389235Y29687428D01*
X4380970Y29664329D01*
X4370480Y29642150D01*
X4357868Y29621107D01*
X4343253Y29601401D01*
X4326777Y29583223D01*
X4308599Y29566747D01*
X4288893Y29552132D01*
X4267850Y29539520D01*
X4245671Y29529030D01*
X4222572Y29520765D01*
X4198773Y29514804D01*
X4174505Y29511204D01*
X4150001Y29510000D01*
X3449999Y29510000D01*
X3425495Y29511204D01*
X3401227Y29514804D01*
X3377428Y29520765D01*
X3354329Y29529030D01*
X3332150Y29539520D01*
X3311107Y29552132D01*
X3291401Y29566747D01*
X3273223Y29583223D01*
X3256747Y29601401D01*
X3242132Y29621107D01*
X3229520Y29642150D01*
X3219030Y29664329D01*
X3210765Y29687428D01*
X3204804Y29711227D01*
X3201204Y29735495D01*
X3200000Y29759999D01*
X3200000Y31060001D01*
X3201204Y31084505D01*
X3204804Y31108773D01*
X3210765Y31132572D01*
X3219030Y31155671D01*
X3229520Y31177850D01*
X3242132Y31198893D01*
X3256747Y31218599D01*
X3273223Y31236777D01*
X3291401Y31253253D01*
X3311107Y31267868D01*
X3332150Y31280480D01*
X3354329Y31290970D01*
X3377428Y31299235D01*
X3401227Y31305196D01*
X3425495Y31308796D01*
X3449999Y31310000D01*
X4150001Y31310000D01*
X4174505Y31308796D01*
X4174505Y31308796D01*
G37*
D17*
X3800000Y30410000D03*
D15*
G36*
X-3425495Y31308796D02*
G01*
X-3401227Y31305196D01*
X-3377428Y31299235D01*
X-3354329Y31290970D01*
X-3332150Y31280480D01*
X-3311107Y31267868D01*
X-3291401Y31253253D01*
X-3273223Y31236777D01*
X-3256747Y31218599D01*
X-3242132Y31198893D01*
X-3229520Y31177850D01*
X-3219030Y31155671D01*
X-3210765Y31132572D01*
X-3204804Y31108773D01*
X-3201204Y31084505D01*
X-3200000Y31060001D01*
X-3200000Y29759999D01*
X-3201204Y29735495D01*
X-3204804Y29711227D01*
X-3210765Y29687428D01*
X-3219030Y29664329D01*
X-3229520Y29642150D01*
X-3242132Y29621107D01*
X-3256747Y29601401D01*
X-3273223Y29583223D01*
X-3291401Y29566747D01*
X-3311107Y29552132D01*
X-3332150Y29539520D01*
X-3354329Y29529030D01*
X-3377428Y29520765D01*
X-3401227Y29514804D01*
X-3425495Y29511204D01*
X-3449999Y29510000D01*
X-4150001Y29510000D01*
X-4174505Y29511204D01*
X-4198773Y29514804D01*
X-4222572Y29520765D01*
X-4245671Y29529030D01*
X-4267850Y29539520D01*
X-4288893Y29552132D01*
X-4308599Y29566747D01*
X-4326777Y29583223D01*
X-4343253Y29601401D01*
X-4357868Y29621107D01*
X-4370480Y29642150D01*
X-4380970Y29664329D01*
X-4389235Y29687428D01*
X-4395196Y29711227D01*
X-4398796Y29735495D01*
X-4400000Y29759999D01*
X-4400000Y31060001D01*
X-4398796Y31084505D01*
X-4395196Y31108773D01*
X-4389235Y31132572D01*
X-4380970Y31155671D01*
X-4370480Y31177850D01*
X-4357868Y31198893D01*
X-4343253Y31218599D01*
X-4326777Y31236777D01*
X-4308599Y31253253D01*
X-4288893Y31267868D01*
X-4267850Y31280480D01*
X-4245671Y31290970D01*
X-4222572Y31299235D01*
X-4198773Y31305196D01*
X-4174505Y31308796D01*
X-4150001Y31310000D01*
X-3449999Y31310000D01*
X-3425495Y31308796D01*
X-3425495Y31308796D01*
G37*
D17*
X-3800000Y30410000D03*
D15*
G36*
X-623042Y20639290D02*
G01*
X-608724Y20637166D01*
X-594683Y20633649D01*
X-581054Y20628772D01*
X-567969Y20622583D01*
X-555553Y20615142D01*
X-543927Y20606519D01*
X-533202Y20596798D01*
X-523481Y20586073D01*
X-514858Y20574447D01*
X-507417Y20562031D01*
X-501228Y20548946D01*
X-496351Y20535317D01*
X-492834Y20521276D01*
X-490710Y20506958D01*
X-490000Y20492500D01*
X-490000Y20147500D01*
X-490710Y20133042D01*
X-492834Y20118724D01*
X-496351Y20104683D01*
X-501228Y20091054D01*
X-507417Y20077969D01*
X-514858Y20065553D01*
X-523481Y20053927D01*
X-533202Y20043202D01*
X-543927Y20033481D01*
X-555553Y20024858D01*
X-567969Y20017417D01*
X-581054Y20011228D01*
X-594683Y20006351D01*
X-608724Y20002834D01*
X-623042Y20000710D01*
X-637500Y20000000D01*
X-932500Y20000000D01*
X-946958Y20000710D01*
X-961276Y20002834D01*
X-975317Y20006351D01*
X-988946Y20011228D01*
X-1002031Y20017417D01*
X-1014447Y20024858D01*
X-1026073Y20033481D01*
X-1036798Y20043202D01*
X-1046519Y20053927D01*
X-1055142Y20065553D01*
X-1062583Y20077969D01*
X-1068772Y20091054D01*
X-1073649Y20104683D01*
X-1077166Y20118724D01*
X-1079290Y20133042D01*
X-1080000Y20147500D01*
X-1080000Y20492500D01*
X-1079290Y20506958D01*
X-1077166Y20521276D01*
X-1073649Y20535317D01*
X-1068772Y20548946D01*
X-1062583Y20562031D01*
X-1055142Y20574447D01*
X-1046519Y20586073D01*
X-1036798Y20596798D01*
X-1026073Y20606519D01*
X-1014447Y20615142D01*
X-1002031Y20622583D01*
X-988946Y20628772D01*
X-975317Y20633649D01*
X-961276Y20637166D01*
X-946958Y20639290D01*
X-932500Y20640000D01*
X-637500Y20640000D01*
X-623042Y20639290D01*
X-623042Y20639290D01*
G37*
D18*
X-785000Y20320000D03*
D15*
G36*
X-1593042Y20639290D02*
G01*
X-1578724Y20637166D01*
X-1564683Y20633649D01*
X-1551054Y20628772D01*
X-1537969Y20622583D01*
X-1525553Y20615142D01*
X-1513927Y20606519D01*
X-1503202Y20596798D01*
X-1493481Y20586073D01*
X-1484858Y20574447D01*
X-1477417Y20562031D01*
X-1471228Y20548946D01*
X-1466351Y20535317D01*
X-1462834Y20521276D01*
X-1460710Y20506958D01*
X-1460000Y20492500D01*
X-1460000Y20147500D01*
X-1460710Y20133042D01*
X-1462834Y20118724D01*
X-1466351Y20104683D01*
X-1471228Y20091054D01*
X-1477417Y20077969D01*
X-1484858Y20065553D01*
X-1493481Y20053927D01*
X-1503202Y20043202D01*
X-1513927Y20033481D01*
X-1525553Y20024858D01*
X-1537969Y20017417D01*
X-1551054Y20011228D01*
X-1564683Y20006351D01*
X-1578724Y20002834D01*
X-1593042Y20000710D01*
X-1607500Y20000000D01*
X-1902500Y20000000D01*
X-1916958Y20000710D01*
X-1931276Y20002834D01*
X-1945317Y20006351D01*
X-1958946Y20011228D01*
X-1972031Y20017417D01*
X-1984447Y20024858D01*
X-1996073Y20033481D01*
X-2006798Y20043202D01*
X-2016519Y20053927D01*
X-2025142Y20065553D01*
X-2032583Y20077969D01*
X-2038772Y20091054D01*
X-2043649Y20104683D01*
X-2047166Y20118724D01*
X-2049290Y20133042D01*
X-2050000Y20147500D01*
X-2050000Y20492500D01*
X-2049290Y20506958D01*
X-2047166Y20521276D01*
X-2043649Y20535317D01*
X-2038772Y20548946D01*
X-2032583Y20562031D01*
X-2025142Y20574447D01*
X-2016519Y20586073D01*
X-2006798Y20596798D01*
X-1996073Y20606519D01*
X-1984447Y20615142D01*
X-1972031Y20622583D01*
X-1958946Y20628772D01*
X-1945317Y20633649D01*
X-1931276Y20637166D01*
X-1916958Y20639290D01*
X-1902500Y20640000D01*
X-1607500Y20640000D01*
X-1593042Y20639290D01*
X-1593042Y20639290D01*
G37*
D18*
X-1755000Y20320000D03*
D15*
G36*
X1916958Y20639290D02*
G01*
X1931276Y20637166D01*
X1945317Y20633649D01*
X1958946Y20628772D01*
X1972031Y20622583D01*
X1984447Y20615142D01*
X1996073Y20606519D01*
X2006798Y20596798D01*
X2016519Y20586073D01*
X2025142Y20574447D01*
X2032583Y20562031D01*
X2038772Y20548946D01*
X2043649Y20535317D01*
X2047166Y20521276D01*
X2049290Y20506958D01*
X2050000Y20492500D01*
X2050000Y20147500D01*
X2049290Y20133042D01*
X2047166Y20118724D01*
X2043649Y20104683D01*
X2038772Y20091054D01*
X2032583Y20077969D01*
X2025142Y20065553D01*
X2016519Y20053927D01*
X2006798Y20043202D01*
X1996073Y20033481D01*
X1984447Y20024858D01*
X1972031Y20017417D01*
X1958946Y20011228D01*
X1945317Y20006351D01*
X1931276Y20002834D01*
X1916958Y20000710D01*
X1902500Y20000000D01*
X1607500Y20000000D01*
X1593042Y20000710D01*
X1578724Y20002834D01*
X1564683Y20006351D01*
X1551054Y20011228D01*
X1537969Y20017417D01*
X1525553Y20024858D01*
X1513927Y20033481D01*
X1503202Y20043202D01*
X1493481Y20053927D01*
X1484858Y20065553D01*
X1477417Y20077969D01*
X1471228Y20091054D01*
X1466351Y20104683D01*
X1462834Y20118724D01*
X1460710Y20133042D01*
X1460000Y20147500D01*
X1460000Y20492500D01*
X1460710Y20506958D01*
X1462834Y20521276D01*
X1466351Y20535317D01*
X1471228Y20548946D01*
X1477417Y20562031D01*
X1484858Y20574447D01*
X1493481Y20586073D01*
X1503202Y20596798D01*
X1513927Y20606519D01*
X1525553Y20615142D01*
X1537969Y20622583D01*
X1551054Y20628772D01*
X1564683Y20633649D01*
X1578724Y20637166D01*
X1593042Y20639290D01*
X1607500Y20640000D01*
X1902500Y20640000D01*
X1916958Y20639290D01*
X1916958Y20639290D01*
G37*
D18*
X1755000Y20320000D03*
D15*
G36*
X946958Y20639290D02*
G01*
X961276Y20637166D01*
X975317Y20633649D01*
X988946Y20628772D01*
X1002031Y20622583D01*
X1014447Y20615142D01*
X1026073Y20606519D01*
X1036798Y20596798D01*
X1046519Y20586073D01*
X1055142Y20574447D01*
X1062583Y20562031D01*
X1068772Y20548946D01*
X1073649Y20535317D01*
X1077166Y20521276D01*
X1079290Y20506958D01*
X1080000Y20492500D01*
X1080000Y20147500D01*
X1079290Y20133042D01*
X1077166Y20118724D01*
X1073649Y20104683D01*
X1068772Y20091054D01*
X1062583Y20077969D01*
X1055142Y20065553D01*
X1046519Y20053927D01*
X1036798Y20043202D01*
X1026073Y20033481D01*
X1014447Y20024858D01*
X1002031Y20017417D01*
X988946Y20011228D01*
X975317Y20006351D01*
X961276Y20002834D01*
X946958Y20000710D01*
X932500Y20000000D01*
X637500Y20000000D01*
X623042Y20000710D01*
X608724Y20002834D01*
X594683Y20006351D01*
X581054Y20011228D01*
X567969Y20017417D01*
X555553Y20024858D01*
X543927Y20033481D01*
X533202Y20043202D01*
X523481Y20053927D01*
X514858Y20065553D01*
X507417Y20077969D01*
X501228Y20091054D01*
X496351Y20104683D01*
X492834Y20118724D01*
X490710Y20133042D01*
X490000Y20147500D01*
X490000Y20492500D01*
X490710Y20506958D01*
X492834Y20521276D01*
X496351Y20535317D01*
X501228Y20548946D01*
X507417Y20562031D01*
X514858Y20574447D01*
X523481Y20586073D01*
X533202Y20596798D01*
X543927Y20606519D01*
X555553Y20615142D01*
X567969Y20622583D01*
X581054Y20628772D01*
X594683Y20633649D01*
X608724Y20637166D01*
X623042Y20639290D01*
X637500Y20640000D01*
X932500Y20640000D01*
X946958Y20639290D01*
X946958Y20639290D01*
G37*
D18*
X785000Y20320000D03*
D13*
X-17470000Y-3390000D03*
X-17470000Y-850000D03*
X-17470000Y1690000D03*
D14*
X-17470000Y4230000D03*
D13*
X-25090000Y-3390000D03*
X-25090000Y-850000D03*
X-25090000Y1690000D03*
D14*
X-25090000Y4230000D03*
D19*
X-12700000Y-5080000D03*
X-12700000Y-7620000D03*
X-12700000Y-10160000D03*
X-12700000Y-12700000D03*
X-6350000Y-6350000D03*
X-3810000Y-6350000D03*
X3810000Y-6350000D03*
X6350000Y-6350000D03*
X-12700000Y10109998D03*
X0Y22860000D03*
X-3175000Y20320000D03*
X-6350000Y8890000D03*
X-3810000Y8890000D03*
X-1270000Y8890000D03*
X-1270000Y6350000D03*
X-3810000Y6350000D03*
X-8890000Y6350000D03*
X-8890000Y11430000D03*
X2159000Y13208000D03*
X2159000Y9652000D03*
X12700000Y13970000D03*
X12065000Y9525000D03*
X-1905000Y29845000D03*
X0Y29845000D03*
X1905000Y29845000D03*
X-8890000Y22225000D03*
X-7620000Y23495000D03*
X-8890000Y17780000D03*
X9525000Y26670000D03*
X5080000Y8255000D03*
X-9525000Y-8890000D03*
X-9525000Y-12700000D03*
X-2540000Y-11430000D03*
X8890000Y-13970000D03*
X11430000Y-13970000D03*
X13970000Y-13970000D03*
X-18740000Y420000D03*
X-19908400Y2858400D03*
X-19756000Y-2374000D03*
X-19756000Y-3771000D03*
X-21280000Y4357000D03*
X9270000Y24130000D03*
X-23035000Y4230000D03*
X-9270000Y3810000D03*
X5460000Y-1270000D03*
X-2160000Y-3810000D03*
X5970000Y-3810000D03*
X14350000Y-1270000D03*
X-5460000Y-1270000D03*
X14350000Y3810000D03*
X-1905000Y3810000D03*
X-5970000Y1270000D03*
X2160000Y1270000D03*
X-5970000Y6350000D03*
X11050000Y6350000D03*
X-5460000Y19050000D03*
X-2160000Y16510000D03*
X2160000Y-19050000D03*
X5460000Y-16510000D03*
X5970000Y1270000D03*
X3620000Y3620000D03*
X-2160000Y21590000D03*
X-5460000Y24130000D03*
X2160000Y-24130000D03*
X5460000Y-21590000D03*
X8890000Y16510000D03*
X5970000Y16510000D03*
X9525000Y21590000D03*
X5969999Y21589999D03*
X500000Y27885000D03*
X-500000Y27885000D03*
X5970000Y11430000D03*
X8890000Y6475014D03*
X-22550000Y2325012D03*
X-22550000Y3325015D03*
D20*
X-950000Y24945002D02*
X-950000Y23960000D01*
X-805001Y25090001D02*
X-950000Y24945002D01*
X-1500000Y27885000D02*
X-1500000Y25785000D01*
X-1500000Y25785000D02*
X-805001Y25090001D01*
X925001Y24970001D02*
X805001Y25090001D01*
X805001Y25090001D02*
X-805001Y25090001D01*
X925001Y23984999D02*
X925001Y24970001D01*
X950000Y23960000D02*
X925001Y23984999D01*
D21*
X0Y23960000D02*
X0Y22860000D01*
X565685Y22860000D02*
X0Y22860000D01*
X1515002Y22860000D02*
X565685Y22860000D01*
X1755000Y22620002D02*
X1515002Y22860000D01*
X1755000Y20320000D02*
X1755000Y22620002D01*
D20*
X-12700000Y24130000D02*
X-12700000Y23736002D01*
D21*
X-8890000Y20320000D02*
X-12700000Y24130000D01*
X-5080000Y20320000D02*
X-8890000Y20320000D01*
X-3810000Y19050000D02*
X-5080000Y20320000D01*
X-1635000Y19050000D02*
X-3810000Y19050000D01*
X-785000Y20320000D02*
X-785000Y19900000D01*
X-785000Y19900000D02*
X-1635000Y19050000D01*
X-785000Y20320000D02*
X-785000Y19835000D01*
X-785000Y19835000D02*
X0Y19050000D01*
X0Y19050000D02*
X2540000Y19050000D01*
X2540000Y19050000D02*
X3810000Y20320000D01*
X11430000Y20320000D02*
X12700000Y21590000D01*
X3810000Y20320000D02*
X11430000Y20320000D01*
X-11850001Y-20740001D02*
X-12700000Y-21590000D01*
X-11749990Y-20639990D02*
X-11850001Y-20740001D01*
X9209990Y-20639990D02*
X-11749990Y-20639990D01*
X12700000Y-24130000D02*
X9209990Y-20639990D01*
X11810000Y21590000D02*
X9270000Y24130000D01*
X12700000Y21590000D02*
X11810000Y21590000D01*
X-785000Y21595000D02*
X-950000Y21760000D01*
X-785000Y20320000D02*
X-785000Y21595000D01*
D22*
X-9270000Y3810000D02*
X-9270000Y2285000D01*
X-9270000Y2285000D02*
X-6985000Y0D01*
X-6985000Y0D02*
X4190000Y0D01*
X4190000Y0D02*
X5460000Y-1270000D01*
X4700000Y-5080000D02*
X5970000Y-3810000D01*
X-2160000Y-3810000D02*
X-890000Y-5080000D01*
X-890000Y-5080000D02*
X4700000Y-5080000D01*
X-4190000Y-2540000D02*
X-5460000Y-1270000D01*
X13335000Y-2540000D02*
X-4190000Y-2540000D01*
X14350000Y-1270000D02*
X14350000Y-1525000D01*
X14350000Y-1525000D02*
X13335000Y-2540000D01*
X-889000Y4826000D02*
X-1905000Y3810000D01*
X14350000Y3810000D02*
X13334000Y4826000D01*
X13334000Y4826000D02*
X-889000Y4826000D01*
X890000Y2540000D02*
X2160000Y1270000D01*
X-5970000Y1270000D02*
X-4700000Y2540000D01*
X-4700000Y2540000D02*
X890000Y2540000D01*
X10034000Y5334000D02*
X11050000Y6350000D01*
X-5970000Y6350000D02*
X-4954000Y5334000D01*
X-4954000Y5334000D02*
X10034000Y5334000D01*
D21*
X785000Y21595000D02*
X950000Y21760000D01*
X785000Y20320000D02*
X785000Y21595000D01*
D23*
X-4190000Y17780000D02*
X-5460000Y19050000D01*
X11430000Y17780000D02*
X-4190000Y17780000D01*
X12700000Y19050000D02*
X11430000Y17780000D01*
X-890000Y15240000D02*
X-2160000Y16510000D01*
X11430000Y15240000D02*
X-890000Y15240000D01*
X12700000Y16510000D02*
X11430000Y15240000D01*
X-11430000Y-19050000D02*
X-12700000Y-19050000D01*
X-10160000Y-17780000D02*
X-11430000Y-19050000D01*
X2160000Y-19050000D02*
X890000Y-17780000D01*
X890000Y-17780000D02*
X-10160000Y-17780000D01*
X4190000Y-15240000D02*
X5460000Y-16510000D01*
X-12700000Y-16510000D02*
X-11430000Y-15240000D01*
X-11430000Y-15240000D02*
X4190000Y-15240000D01*
D22*
X5970000Y1270000D02*
X3620000Y3620000D01*
D23*
X-3810000Y23240000D02*
X-2160000Y21590000D01*
X-3810000Y26670000D02*
X-3810000Y23240000D01*
X-12700000Y29210000D02*
X-6350000Y29210000D01*
X-6350000Y29210000D02*
X-3810000Y26670000D01*
X-6350000Y24130000D02*
X-5460000Y24130000D01*
X-12700000Y26670000D02*
X-8890000Y26670000D01*
X-8890000Y26670000D02*
X-6350000Y24130000D01*
X2160000Y-26385000D02*
X2160000Y-24130000D01*
X3715000Y-27940000D02*
X2160000Y-26385000D01*
X12700000Y-29210000D02*
X11430000Y-27940000D01*
X11430000Y-27940000D02*
X3715000Y-27940000D01*
X12700000Y-26670000D02*
X11430000Y-26670000D01*
X6350000Y-21590000D02*
X5460000Y-21590000D01*
X11430000Y-26670000D02*
X6350000Y-21590000D01*
D22*
X8890000Y16510000D02*
X5970000Y16510000D01*
X2500000Y27885000D02*
X3230000Y27885000D01*
X3230000Y27885000D02*
X9125001Y21989999D01*
X9125001Y21989999D02*
X9525000Y21590000D01*
X1500000Y26059998D02*
X5570000Y21989998D01*
X5570000Y21989998D02*
X5969999Y21589999D01*
X1500000Y27885000D02*
X1500000Y26059998D01*
X5970000Y9395014D02*
X8490001Y6875013D01*
X8490001Y6875013D02*
X8890000Y6475014D01*
X5970000Y11430000D02*
X5970000Y9395014D01*
X-22550012Y2325000D02*
X-22550000Y2325012D01*
X-25090000Y1690000D02*
X-24455000Y2325000D01*
X-24455000Y2325000D02*
X-22550012Y2325000D01*
X-19375000Y3595000D02*
X-17470000Y1690000D01*
X-22550000Y3325015D02*
X-22280015Y3595000D01*
X-22280015Y3595000D02*
X-19375000Y3595000D01*
D24*
G36*
X14478000Y23904304D02*
G01*
X14448575Y23868450D01*
X14402423Y23782104D01*
X14387290Y23753792D01*
X14349550Y23629382D01*
X14340000Y23532418D01*
X14340000Y23532409D01*
X14336808Y23500000D01*
X14340000Y23467591D01*
X14340001Y13532419D01*
X14336808Y13500000D01*
X14349551Y13370618D01*
X14387290Y13246208D01*
X14448575Y13131550D01*
X14478000Y13095696D01*
X14478000Y4839816D01*
X14451939Y4845000D01*
X14389802Y4845000D01*
X13897804Y5336998D01*
X13874001Y5366001D01*
X13758276Y5460974D01*
X13626247Y5531546D01*
X13482986Y5575003D01*
X13371333Y5586000D01*
X13371322Y5586000D01*
X13334000Y5589676D01*
X13296678Y5586000D01*
X11749711Y5586000D01*
X11853937Y5690226D01*
X11967205Y5859744D01*
X12045226Y6048102D01*
X12085000Y6248061D01*
X12085000Y6451939D01*
X12045226Y6651898D01*
X11967205Y6840256D01*
X11853937Y7009774D01*
X11709774Y7153937D01*
X11540256Y7267205D01*
X11351898Y7345226D01*
X11151939Y7385000D01*
X10948061Y7385000D01*
X10748102Y7345226D01*
X10559744Y7267205D01*
X10390226Y7153937D01*
X10246063Y7009774D01*
X10132795Y6840256D01*
X10054774Y6651898D01*
X10015000Y6451939D01*
X10015000Y6389802D01*
X9906806Y6281608D01*
X9925000Y6373075D01*
X9925000Y6576953D01*
X9885226Y6776912D01*
X9807205Y6965270D01*
X9693937Y7134788D01*
X9549774Y7278951D01*
X9380256Y7392219D01*
X9191898Y7470240D01*
X8991939Y7510014D01*
X8929802Y7510014D01*
X6730000Y9709815D01*
X6730000Y10726289D01*
X6773937Y10770226D01*
X6887205Y10939744D01*
X6965226Y11128102D01*
X7005000Y11328061D01*
X7005000Y11531939D01*
X6965226Y11731898D01*
X6887205Y11920256D01*
X6773937Y12089774D01*
X6629774Y12233937D01*
X6460256Y12347205D01*
X6271898Y12425226D01*
X6071939Y12465000D01*
X5868061Y12465000D01*
X5668102Y12425226D01*
X5479744Y12347205D01*
X5310226Y12233937D01*
X5166063Y12089774D01*
X5052795Y11920256D01*
X4974774Y11731898D01*
X4935000Y11531939D01*
X4935000Y11328061D01*
X4974774Y11128102D01*
X5052795Y10939744D01*
X5166063Y10770226D01*
X5210000Y10726289D01*
X5210001Y9432346D01*
X5206324Y9395014D01*
X5220998Y9246029D01*
X5264454Y9102768D01*
X5335026Y8970738D01*
X5406201Y8884012D01*
X5430000Y8855013D01*
X5458998Y8831215D01*
X7855000Y6435212D01*
X7855000Y6373075D01*
X7894774Y6173116D01*
X7927545Y6094000D01*
X-4639198Y6094000D01*
X-4935000Y6389801D01*
X-4935000Y6451939D01*
X-4974774Y6651898D01*
X-5052795Y6840256D01*
X-5166063Y7009774D01*
X-5310226Y7153937D01*
X-5479744Y7267205D01*
X-5668102Y7345226D01*
X-5868061Y7385000D01*
X-6071939Y7385000D01*
X-6271898Y7345226D01*
X-6460256Y7267205D01*
X-6629774Y7153937D01*
X-6773937Y7009774D01*
X-6887205Y6840256D01*
X-6965226Y6651898D01*
X-7005000Y6451939D01*
X-7005000Y6382606D01*
X-8708203Y4679403D01*
X-8779744Y4727205D01*
X-8968102Y4805226D01*
X-9168061Y4845000D01*
X-9371939Y4845000D01*
X-9571898Y4805226D01*
X-9760256Y4727205D01*
X-9929774Y4613937D01*
X-10073937Y4469774D01*
X-10187205Y4300256D01*
X-10265226Y4111898D01*
X-10305000Y3911939D01*
X-10305000Y3708061D01*
X-10265226Y3508102D01*
X-10187205Y3319744D01*
X-10073937Y3150226D01*
X-10030000Y3106289D01*
X-10029999Y2322332D01*
X-10033676Y2285000D01*
X-10019002Y2136015D01*
X-9975546Y1992754D01*
X-9904974Y1860724D01*
X-9847750Y1790997D01*
X-9810000Y1744999D01*
X-9781002Y1721201D01*
X-7548800Y-511002D01*
X-7525001Y-540001D01*
X-7496003Y-563799D01*
X-7409277Y-634974D01*
X-7277247Y-705546D01*
X-7133986Y-749003D01*
X-7022333Y-760000D01*
X-7022323Y-760000D01*
X-6985000Y-763676D01*
X-6947678Y-760000D01*
X-6364013Y-760000D01*
X-6377205Y-779744D01*
X-6455226Y-968102D01*
X-6495000Y-1168061D01*
X-6495000Y-1371939D01*
X-6455226Y-1571898D01*
X-6377205Y-1760256D01*
X-6263937Y-1929774D01*
X-6119774Y-2073937D01*
X-5950256Y-2187205D01*
X-5761898Y-2265226D01*
X-5561939Y-2305000D01*
X-5499801Y-2305000D01*
X-4753799Y-3051003D01*
X-4730001Y-3080001D01*
X-4614276Y-3174974D01*
X-4482247Y-3245546D01*
X-4338986Y-3289003D01*
X-4227333Y-3300000D01*
X-4227324Y-3300000D01*
X-4190001Y-3303676D01*
X-4152678Y-3300000D01*
X-3064013Y-3300000D01*
X-3077205Y-3319744D01*
X-3155226Y-3508102D01*
X-3195000Y-3708061D01*
X-3195000Y-3911939D01*
X-3155226Y-4111898D01*
X-3077205Y-4300256D01*
X-2963937Y-4469774D01*
X-2819774Y-4613937D01*
X-2650256Y-4727205D01*
X-2461898Y-4805226D01*
X-2261939Y-4845000D01*
X-2199801Y-4845000D01*
X-1453799Y-5591003D01*
X-1430001Y-5620001D01*
X-1314276Y-5714974D01*
X-1182247Y-5785546D01*
X-1038986Y-5829003D01*
X-927333Y-5840000D01*
X-927324Y-5840000D01*
X-890001Y-5843676D01*
X-852678Y-5840000D01*
X4662678Y-5840000D01*
X4700000Y-5843676D01*
X4737322Y-5840000D01*
X4737333Y-5840000D01*
X4848986Y-5829003D01*
X4992247Y-5785546D01*
X5124276Y-5714974D01*
X5240001Y-5620001D01*
X5263804Y-5590997D01*
X6009802Y-4845000D01*
X6071939Y-4845000D01*
X6271898Y-4805226D01*
X6460256Y-4727205D01*
X6629774Y-4613937D01*
X6773937Y-4469774D01*
X6887205Y-4300256D01*
X6965226Y-4111898D01*
X7005000Y-3911939D01*
X7005000Y-3708061D01*
X6965226Y-3508102D01*
X6887205Y-3319744D01*
X6874013Y-3300000D01*
X13297678Y-3300000D01*
X13335000Y-3303676D01*
X13372322Y-3300000D01*
X13372333Y-3300000D01*
X13483986Y-3289003D01*
X13627247Y-3245546D01*
X13759276Y-3174974D01*
X13875001Y-3080001D01*
X13898804Y-3050998D01*
X14478000Y-2471802D01*
X14478000Y-13095696D01*
X14448575Y-13131550D01*
X14387291Y-13246207D01*
X14387290Y-13246208D01*
X14349550Y-13370618D01*
X14340000Y-13467582D01*
X14340000Y-13467591D01*
X14336808Y-13500000D01*
X14340000Y-13532409D01*
X14340001Y-23467581D01*
X14336808Y-23500000D01*
X14349551Y-23629382D01*
X14387290Y-23753792D01*
X14448575Y-23868450D01*
X14478000Y-23904304D01*
X14478000Y-31940448D01*
X14475344Y-31943751D01*
X14442596Y-31993796D01*
X14409139Y-32043397D01*
X14404813Y-32051534D01*
X14230481Y-32385000D01*
X6268209Y-32385000D01*
X6226052Y-32173061D01*
X6012344Y-31657124D01*
X5702088Y-31192793D01*
X5307207Y-30797912D01*
X4842876Y-30487656D01*
X4326939Y-30273948D01*
X3779223Y-30165000D01*
X3220777Y-30165000D01*
X2673061Y-30273948D01*
X2157124Y-30487656D01*
X1692793Y-30797912D01*
X1297912Y-31192793D01*
X987656Y-31657124D01*
X773948Y-32173061D01*
X665000Y-32720777D01*
X665000Y-33279223D01*
X773948Y-33826939D01*
X987656Y-34342876D01*
X1297912Y-34807207D01*
X1692793Y-35202088D01*
X1899193Y-35340000D01*
X-1907020Y-35340000D01*
X-1689830Y-34989775D01*
X-3500000Y-33179605D01*
X-5310170Y-34989775D01*
X-5092980Y-35340000D01*
X-5726619Y-35340000D01*
X-8051445Y-33015174D01*
X-6348678Y-33015174D01*
X-6290981Y-33570632D01*
X-6126028Y-34104161D01*
X-5877018Y-34570024D01*
X-5489775Y-34810170D01*
X-3679605Y-33000000D01*
X-3320395Y-33000000D01*
X-1510225Y-34810170D01*
X-1122982Y-34570024D01*
X-862359Y-34076123D01*
X-703099Y-33540867D01*
X-651322Y-32984826D01*
X-709019Y-32429368D01*
X-873972Y-31895839D01*
X-1122982Y-31429976D01*
X-1510225Y-31189830D01*
X-3320395Y-33000000D01*
X-3679605Y-33000000D01*
X-5489775Y-31189830D01*
X-5877018Y-31429976D01*
X-6137641Y-31923877D01*
X-6296901Y-32459133D01*
X-6348678Y-33015174D01*
X-8051445Y-33015174D01*
X-8056234Y-33010386D01*
X-8260394Y-32806226D01*
X-8281053Y-32781053D01*
X-8306226Y-32760394D01*
X-8306234Y-32760386D01*
X-8381550Y-32698575D01*
X-8496208Y-32637290D01*
X-8509000Y-32633410D01*
X-8509000Y-32512000D01*
X-8511440Y-32487224D01*
X-8518667Y-32463399D01*
X-8530403Y-32441443D01*
X-8546197Y-32422197D01*
X-8565443Y-32406403D01*
X-8587399Y-32394667D01*
X-8611224Y-32387440D01*
X-8636000Y-32385000D01*
X-13155394Y-32385000D01*
X-14478000Y-31062394D01*
X-14478000Y-31010225D01*
X-5310170Y-31010225D01*
X-3500000Y-32820395D01*
X-1689830Y-31010225D01*
X-1929976Y-30622982D01*
X-2423877Y-30362359D01*
X-2959133Y-30203099D01*
X-3515174Y-30151322D01*
X-4070632Y-30209019D01*
X-4604161Y-30373972D01*
X-5070024Y-30622982D01*
X-5310170Y-31010225D01*
X-14478000Y-31010225D01*
X-14478000Y-29566890D01*
X-14141476Y-29566890D01*
X-14096825Y-29714099D01*
X-13971641Y-29976920D01*
X-13797588Y-30210269D01*
X-13581355Y-30405178D01*
X-13331252Y-30554157D01*
X-13056891Y-30651481D01*
X-12827000Y-30530814D01*
X-12827000Y-29337000D01*
X-12573000Y-29337000D01*
X-12573000Y-30530814D01*
X-12343109Y-30651481D01*
X-12068748Y-30554157D01*
X-11818645Y-30405178D01*
X-11602412Y-30210269D01*
X-11428359Y-29976920D01*
X-11303175Y-29714099D01*
X-11258524Y-29566890D01*
X-11379845Y-29337000D01*
X-12573000Y-29337000D01*
X-12827000Y-29337000D01*
X-14020155Y-29337000D01*
X-14141476Y-29566890D01*
X-14478000Y-29566890D01*
X-14478000Y-23904305D01*
X-14448575Y-23868451D01*
X-14387290Y-23753793D01*
X-14387290Y-23753792D01*
X-14349550Y-23629383D01*
X-14340000Y-23532419D01*
X-14340000Y-23532410D01*
X-14336808Y-23500001D01*
X-14340000Y-23467592D01*
X-14340000Y-19050000D01*
X-14192185Y-19050000D01*
X-14163513Y-19341111D01*
X-14078599Y-19621034D01*
X-13940706Y-19879014D01*
X-13755134Y-20105134D01*
X-13529014Y-20290706D01*
X-13474209Y-20320000D01*
X-13529014Y-20349294D01*
X-13755134Y-20534866D01*
X-13940706Y-20760986D01*
X-14078599Y-21018966D01*
X-14163513Y-21298889D01*
X-14192185Y-21590000D01*
X-14163513Y-21881111D01*
X-14078599Y-22161034D01*
X-13940706Y-22419014D01*
X-13755134Y-22645134D01*
X-13529014Y-22830706D01*
X-13474209Y-22860000D01*
X-13529014Y-22889294D01*
X-13755134Y-23074866D01*
X-13940706Y-23300986D01*
X-14078599Y-23558966D01*
X-14163513Y-23838889D01*
X-14192185Y-24130000D01*
X-14163513Y-24421111D01*
X-14078599Y-24701034D01*
X-13940706Y-24959014D01*
X-13755134Y-25185134D01*
X-13529014Y-25370706D01*
X-13474209Y-25400000D01*
X-13529014Y-25429294D01*
X-13755134Y-25614866D01*
X-13940706Y-25840986D01*
X-14078599Y-26098966D01*
X-14163513Y-26378889D01*
X-14192185Y-26670000D01*
X-14163513Y-26961111D01*
X-14078599Y-27241034D01*
X-13940706Y-27499014D01*
X-13755134Y-27725134D01*
X-13529014Y-27910706D01*
X-13464477Y-27945201D01*
X-13581355Y-28014822D01*
X-13797588Y-28209731D01*
X-13971641Y-28443080D01*
X-14096825Y-28705901D01*
X-14141476Y-28853110D01*
X-14020155Y-29083000D01*
X-12827000Y-29083000D01*
X-12827000Y-29063000D01*
X-12573000Y-29063000D01*
X-12573000Y-29083000D01*
X-11379845Y-29083000D01*
X-11258524Y-28853110D01*
X-11303175Y-28705901D01*
X-11428359Y-28443080D01*
X-11602412Y-28209731D01*
X-11818645Y-28014822D01*
X-11935523Y-27945201D01*
X-11870986Y-27910706D01*
X-11644866Y-27725134D01*
X-11459294Y-27499014D01*
X-11321401Y-27241034D01*
X-11236487Y-26961111D01*
X-11207815Y-26670000D01*
X-11236487Y-26378889D01*
X-11321401Y-26098966D01*
X-11459294Y-25840986D01*
X-11644866Y-25614866D01*
X-11870986Y-25429294D01*
X-11925791Y-25400000D01*
X-11870986Y-25370706D01*
X-11644866Y-25185134D01*
X-11459294Y-24959014D01*
X-11321401Y-24701034D01*
X-11236487Y-24421111D01*
X-11207815Y-24130000D01*
X-11236487Y-23838889D01*
X-11321401Y-23558966D01*
X-11459294Y-23300986D01*
X-11644866Y-23074866D01*
X-11870986Y-22889294D01*
X-11925791Y-22860000D01*
X-11870986Y-22830706D01*
X-11644866Y-22645134D01*
X-11459294Y-22419014D01*
X-11321401Y-22161034D01*
X-11236487Y-21881111D01*
X-11207815Y-21590000D01*
X-11214218Y-21524990D01*
X889000Y-21524990D01*
X889000Y-24384000D01*
X891440Y-24408776D01*
X898667Y-24432601D01*
X910403Y-24454557D01*
X926197Y-24473803D01*
X945443Y-24489597D01*
X967399Y-24501333D01*
X991224Y-24508560D01*
X1016000Y-24511000D01*
X1025001Y-24511000D01*
X1025000Y-26329248D01*
X1019509Y-26385000D01*
X1025000Y-26440751D01*
X1041423Y-26607498D01*
X1106324Y-26821446D01*
X1211716Y-27018623D01*
X1353551Y-27191449D01*
X1396865Y-27226996D01*
X2873009Y-28703140D01*
X2908551Y-28746449D01*
X3081377Y-28888284D01*
X3278553Y-28993676D01*
X3492501Y-29058577D01*
X3714999Y-29080491D01*
X3770751Y-29075000D01*
X10959869Y-29075000D01*
X11220155Y-29335286D01*
X11236487Y-29501111D01*
X11321401Y-29781034D01*
X11459294Y-30039014D01*
X11644866Y-30265134D01*
X11870986Y-30450706D01*
X12128966Y-30588599D01*
X12408889Y-30673513D01*
X12627050Y-30695000D01*
X12772950Y-30695000D01*
X12991111Y-30673513D01*
X13271034Y-30588599D01*
X13529014Y-30450706D01*
X13755134Y-30265134D01*
X13940706Y-30039014D01*
X14078599Y-29781034D01*
X14163513Y-29501111D01*
X14192185Y-29210000D01*
X14163513Y-28918889D01*
X14078599Y-28638966D01*
X13940706Y-28380986D01*
X13755134Y-28154866D01*
X13529014Y-27969294D01*
X13474209Y-27940000D01*
X13529014Y-27910706D01*
X13755134Y-27725134D01*
X13940706Y-27499014D01*
X14078599Y-27241034D01*
X14163513Y-26961111D01*
X14192185Y-26670000D01*
X14163513Y-26378889D01*
X14078599Y-26098966D01*
X13940706Y-25840986D01*
X13755134Y-25614866D01*
X13529014Y-25429294D01*
X13474209Y-25400000D01*
X13529014Y-25370706D01*
X13755134Y-25185134D01*
X13940706Y-24959014D01*
X14078599Y-24701034D01*
X14163513Y-24421111D01*
X14192185Y-24130000D01*
X14163513Y-23838889D01*
X14078599Y-23558966D01*
X13940706Y-23300986D01*
X13755134Y-23074866D01*
X13529014Y-22889294D01*
X13474209Y-22860000D01*
X13529014Y-22830706D01*
X13755134Y-22645134D01*
X13940706Y-22419014D01*
X14078599Y-22161034D01*
X14163513Y-21881111D01*
X14192185Y-21590000D01*
X14163513Y-21298889D01*
X14078599Y-21018966D01*
X13940706Y-20760986D01*
X13755134Y-20534866D01*
X13529014Y-20349294D01*
X13474209Y-20320000D01*
X13529014Y-20290706D01*
X13755134Y-20105134D01*
X13940706Y-19879014D01*
X14078599Y-19621034D01*
X14163513Y-19341111D01*
X14192185Y-19050000D01*
X14163513Y-18758889D01*
X14078599Y-18478966D01*
X13940706Y-18220986D01*
X13755134Y-17994866D01*
X13725313Y-17970393D01*
X13794180Y-17949502D01*
X13904494Y-17890537D01*
X14001185Y-17811185D01*
X14080537Y-17714494D01*
X14139502Y-17604180D01*
X14175812Y-17484482D01*
X14188072Y-17360000D01*
X14185000Y-16795750D01*
X14026250Y-16637000D01*
X12827000Y-16637000D01*
X12827000Y-16657000D01*
X12573000Y-16657000D01*
X12573000Y-16637000D01*
X11373750Y-16637000D01*
X11215000Y-16795750D01*
X11211928Y-17360000D01*
X11224188Y-17484482D01*
X11260498Y-17604180D01*
X11319463Y-17714494D01*
X11398815Y-17811185D01*
X11495506Y-17890537D01*
X11605820Y-17949502D01*
X11674687Y-17970393D01*
X11644866Y-17994866D01*
X11459294Y-18220986D01*
X11321401Y-18478966D01*
X11236487Y-18758889D01*
X11207815Y-19050000D01*
X11236487Y-19341111D01*
X11321401Y-19621034D01*
X11459294Y-19879014D01*
X11644866Y-20105134D01*
X11870986Y-20290706D01*
X11925791Y-20320000D01*
X11870986Y-20349294D01*
X11644866Y-20534866D01*
X11459294Y-20760986D01*
X11321401Y-21018966D01*
X11236487Y-21298889D01*
X11226085Y-21404506D01*
X9866524Y-20044946D01*
X9838807Y-20011173D01*
X9704049Y-19900579D01*
X9550303Y-19818401D01*
X9383480Y-19767795D01*
X9253467Y-19754990D01*
X9253459Y-19754990D01*
X9209990Y-19750709D01*
X9166521Y-19754990D01*
X6223000Y-19754990D01*
X6223000Y-17352105D01*
X6266448Y-17316448D01*
X6408283Y-17143622D01*
X6513675Y-16946446D01*
X6578577Y-16732498D01*
X6600490Y-16509999D01*
X6578577Y-16287500D01*
X6513675Y-16073553D01*
X6408283Y-15876377D01*
X6301988Y-15746856D01*
X6215132Y-15660000D01*
X11211928Y-15660000D01*
X11215000Y-16224250D01*
X11373750Y-16383000D01*
X12573000Y-16383000D01*
X12573000Y-15183750D01*
X12827000Y-15183750D01*
X12827000Y-16383000D01*
X14026250Y-16383000D01*
X14185000Y-16224250D01*
X14188072Y-15660000D01*
X14175812Y-15535518D01*
X14139502Y-15415820D01*
X14080537Y-15305506D01*
X14001185Y-15208815D01*
X13904494Y-15129463D01*
X13794180Y-15070498D01*
X13674482Y-15034188D01*
X13550000Y-15021928D01*
X12985750Y-15025000D01*
X12827000Y-15183750D01*
X12573000Y-15183750D01*
X12414250Y-15025000D01*
X11850000Y-15021928D01*
X11725518Y-15034188D01*
X11605820Y-15070498D01*
X11495506Y-15129463D01*
X11398815Y-15208815D01*
X11319463Y-15305506D01*
X11260498Y-15415820D01*
X11224188Y-15535518D01*
X11211928Y-15660000D01*
X6215132Y-15660000D01*
X5031996Y-14476865D01*
X4996449Y-14433551D01*
X4823623Y-14291716D01*
X4626447Y-14186324D01*
X4412499Y-14121423D01*
X4245752Y-14105000D01*
X4245751Y-14105000D01*
X4190000Y-14099509D01*
X4134249Y-14105000D01*
X-11374257Y-14105000D01*
X-11430001Y-14099510D01*
X-11485745Y-14105000D01*
X-11485752Y-14105000D01*
X-11631507Y-14119356D01*
X-11652500Y-14121423D01*
X-11702295Y-14136529D01*
X-11866447Y-14186324D01*
X-12063623Y-14291716D01*
X-12236449Y-14433551D01*
X-12271992Y-14476860D01*
X-12817060Y-15021928D01*
X-13550000Y-15021928D01*
X-13674482Y-15034188D01*
X-13794180Y-15070498D01*
X-13904494Y-15129463D01*
X-14001185Y-15208815D01*
X-14080537Y-15305506D01*
X-14139502Y-15415820D01*
X-14175812Y-15535518D01*
X-14188072Y-15660000D01*
X-14188072Y-17360000D01*
X-14175812Y-17484482D01*
X-14139502Y-17604180D01*
X-14080537Y-17714494D01*
X-14001185Y-17811185D01*
X-13904494Y-17890537D01*
X-13794180Y-17949502D01*
X-13725313Y-17970393D01*
X-13755134Y-17994866D01*
X-13940706Y-18220986D01*
X-14078599Y-18478966D01*
X-14163513Y-18758889D01*
X-14192185Y-19050000D01*
X-14340000Y-19050000D01*
X-14340000Y-2896890D01*
X-14141476Y-2896890D01*
X-14096825Y-3044099D01*
X-13971641Y-3306920D01*
X-13797588Y-3540269D01*
X-13581355Y-3735178D01*
X-13331252Y-3884157D01*
X-13056891Y-3981481D01*
X-12827000Y-3860814D01*
X-12827000Y-2667000D01*
X-12573000Y-2667000D01*
X-12573000Y-3860814D01*
X-12343109Y-3981481D01*
X-12068748Y-3884157D01*
X-11818645Y-3735178D01*
X-11602412Y-3540269D01*
X-11428359Y-3306920D01*
X-11303175Y-3044099D01*
X-11258524Y-2896890D01*
X-11379845Y-2667000D01*
X-12573000Y-2667000D01*
X-12827000Y-2667000D01*
X-14020155Y-2667000D01*
X-14141476Y-2896890D01*
X-14340000Y-2896890D01*
X-14340000Y0D01*
X-14192185Y0D01*
X-14163513Y-291111D01*
X-14078599Y-571034D01*
X-13940706Y-829014D01*
X-13755134Y-1055134D01*
X-13529014Y-1240706D01*
X-13464477Y-1275201D01*
X-13581355Y-1344822D01*
X-13797588Y-1539731D01*
X-13971641Y-1773080D01*
X-14096825Y-2035901D01*
X-14141476Y-2183110D01*
X-14020155Y-2413000D01*
X-12827000Y-2413000D01*
X-12827000Y-2393000D01*
X-12573000Y-2393000D01*
X-12573000Y-2413000D01*
X-11379845Y-2413000D01*
X-11258524Y-2183110D01*
X-11303175Y-2035901D01*
X-11428359Y-1773080D01*
X-11602412Y-1539731D01*
X-11818645Y-1344822D01*
X-11935523Y-1275201D01*
X-11870986Y-1240706D01*
X-11644866Y-1055134D01*
X-11459294Y-829014D01*
X-11321401Y-571034D01*
X-11236487Y-291111D01*
X-11207815Y0D01*
X-11236487Y291111D01*
X-11321401Y571034D01*
X-11459294Y829014D01*
X-11644866Y1055134D01*
X-11674687Y1079607D01*
X-11605820Y1100498D01*
X-11495506Y1159463D01*
X-11398815Y1238815D01*
X-11319463Y1335506D01*
X-11260498Y1445820D01*
X-11224188Y1565518D01*
X-11211928Y1690000D01*
X-11211928Y3390000D01*
X-11224188Y3514482D01*
X-11260498Y3634180D01*
X-11319463Y3744494D01*
X-11398815Y3841185D01*
X-11495506Y3920537D01*
X-11605820Y3979502D01*
X-11725518Y4015812D01*
X-11850000Y4028072D01*
X-13550000Y4028072D01*
X-13674482Y4015812D01*
X-13794180Y3979502D01*
X-13904494Y3920537D01*
X-14001185Y3841185D01*
X-14080537Y3744494D01*
X-14139502Y3634180D01*
X-14175812Y3514482D01*
X-14188072Y3390000D01*
X-14188072Y1690000D01*
X-14175812Y1565518D01*
X-14139502Y1445820D01*
X-14080537Y1335506D01*
X-14001185Y1238815D01*
X-13904494Y1159463D01*
X-13794180Y1100498D01*
X-13725313Y1079607D01*
X-13755134Y1055134D01*
X-13940706Y829014D01*
X-14078599Y571034D01*
X-14163513Y291111D01*
X-14192185Y0D01*
X-14340000Y0D01*
X-14340000Y16153110D01*
X-14141476Y16153110D01*
X-14096825Y16005901D01*
X-13971641Y15743080D01*
X-13797588Y15509731D01*
X-13581355Y15314822D01*
X-13331252Y15165843D01*
X-13056891Y15068519D01*
X-12827000Y15189186D01*
X-12827000Y16383000D01*
X-12573000Y16383000D01*
X-12573000Y15189186D01*
X-12343109Y15068519D01*
X-12068748Y15165843D01*
X-11818645Y15314822D01*
X-11602412Y15509731D01*
X-11428359Y15743080D01*
X-11303175Y16005901D01*
X-11258524Y16153110D01*
X-11379845Y16383000D01*
X-12573000Y16383000D01*
X-12827000Y16383000D01*
X-14020155Y16383000D01*
X-14141476Y16153110D01*
X-14340000Y16153110D01*
X-14340000Y17653000D01*
X-13639242Y17653000D01*
X-13797588Y17510269D01*
X-13971641Y17276920D01*
X-14096825Y17014099D01*
X-14141476Y16866890D01*
X-14020155Y16637000D01*
X-12827000Y16637000D01*
X-12827000Y16657000D01*
X-12573000Y16657000D01*
X-12573000Y16637000D01*
X-11379845Y16637000D01*
X-11258524Y16866890D01*
X-11303175Y17014099D01*
X-11428359Y17276920D01*
X-11602412Y17510269D01*
X-11818645Y17705178D01*
X-11935523Y17774799D01*
X-11870986Y17809294D01*
X-11644866Y17994866D01*
X-11459294Y18220986D01*
X-11321401Y18478966D01*
X-11236487Y18758889D01*
X-11207815Y19050000D01*
X-11236487Y19341111D01*
X-11321401Y19621034D01*
X-11459294Y19879014D01*
X-11644866Y20105134D01*
X-11870986Y20290706D01*
X-11925791Y20320000D01*
X-11870986Y20349294D01*
X-11644866Y20534866D01*
X-11459294Y20760986D01*
X-11321401Y21018966D01*
X-11236487Y21298889D01*
X-11226085Y21404506D01*
X-9546532Y19724953D01*
X-9518817Y19691183D01*
X-9485049Y19663470D01*
X-9485047Y19663468D01*
X-9384059Y19580589D01*
X-9230314Y19498411D01*
X-9134886Y19469463D01*
X-9063490Y19447805D01*
X-8933477Y19435000D01*
X-8933469Y19435000D01*
X-8890000Y19430719D01*
X-8846531Y19435000D01*
X-6529282Y19435000D01*
X-6578577Y19272498D01*
X-6600491Y19050000D01*
X-6578577Y18827502D01*
X-6513676Y18613554D01*
X-6408283Y18416378D01*
X-6301988Y18286857D01*
X-5031992Y17016860D01*
X-4996449Y16973551D01*
X-4823623Y16831716D01*
X-4626447Y16726324D01*
X-4462295Y16676529D01*
X-4412500Y16661423D01*
X-4391507Y16659356D01*
X-4245752Y16645000D01*
X-4245745Y16645000D01*
X-4190001Y16639510D01*
X-4134257Y16645000D01*
X-3287195Y16645000D01*
X-3300491Y16510000D01*
X-3278577Y16287502D01*
X-3213676Y16073554D01*
X-3108283Y15876378D01*
X-3001988Y15746857D01*
X-1731992Y14476860D01*
X-1696449Y14433551D01*
X-1523623Y14291716D01*
X-1326447Y14186324D01*
X-1162295Y14136529D01*
X-1112500Y14121423D01*
X-1091507Y14119356D01*
X-945752Y14105000D01*
X-945745Y14105000D01*
X-890001Y14099510D01*
X-834257Y14105000D01*
X11374249Y14105000D01*
X11430000Y14099509D01*
X11485751Y14105000D01*
X11485752Y14105000D01*
X11652499Y14121423D01*
X11866447Y14186324D01*
X12063623Y14291716D01*
X12236449Y14433551D01*
X12271996Y14476865D01*
X12825286Y15030155D01*
X12991111Y15046487D01*
X13271034Y15131401D01*
X13529014Y15269294D01*
X13755134Y15454866D01*
X13940706Y15680986D01*
X14078599Y15938966D01*
X14163513Y16218889D01*
X14192185Y16510000D01*
X14163513Y16801111D01*
X14078599Y17081034D01*
X13940706Y17339014D01*
X13755134Y17565134D01*
X13529014Y17750706D01*
X13474209Y17780000D01*
X13529014Y17809294D01*
X13755134Y17994866D01*
X13940706Y18220986D01*
X14078599Y18478966D01*
X14163513Y18758889D01*
X14192185Y19050000D01*
X14163513Y19341111D01*
X14078599Y19621034D01*
X13940706Y19879014D01*
X13755134Y20105134D01*
X13529014Y20290706D01*
X13474209Y20320000D01*
X13529014Y20349294D01*
X13755134Y20534866D01*
X13940706Y20760986D01*
X14078599Y21018966D01*
X14163513Y21298889D01*
X14192185Y21590000D01*
X14163513Y21881111D01*
X14078599Y22161034D01*
X13940706Y22419014D01*
X13755134Y22645134D01*
X13529014Y22830706D01*
X13474209Y22860000D01*
X13529014Y22889294D01*
X13755134Y23074866D01*
X13940706Y23300986D01*
X14078599Y23558966D01*
X14163513Y23838889D01*
X14192185Y24130000D01*
X14163513Y24421111D01*
X14078599Y24701034D01*
X13940706Y24959014D01*
X13755134Y25185134D01*
X13529014Y25370706D01*
X13474209Y25400000D01*
X13529014Y25429294D01*
X13755134Y25614866D01*
X13940706Y25840986D01*
X14078599Y26098966D01*
X14163513Y26378889D01*
X14192185Y26670000D01*
X14163513Y26961111D01*
X14078599Y27241034D01*
X13940706Y27499014D01*
X13755134Y27725134D01*
X13725313Y27749607D01*
X13794180Y27770498D01*
X13904494Y27829463D01*
X14001185Y27908815D01*
X14080537Y28005506D01*
X14139502Y28115820D01*
X14175812Y28235518D01*
X14188072Y28360000D01*
X14185000Y28924250D01*
X14026250Y29083000D01*
X12827000Y29083000D01*
X12827000Y29063000D01*
X12573000Y29063000D01*
X12573000Y29083000D01*
X11373750Y29083000D01*
X11215000Y28924250D01*
X11211928Y28360000D01*
X11224188Y28235518D01*
X11260498Y28115820D01*
X11319463Y28005506D01*
X11398815Y27908815D01*
X11495506Y27829463D01*
X11605820Y27770498D01*
X11674687Y27749607D01*
X11644866Y27725134D01*
X11459294Y27499014D01*
X11321401Y27241034D01*
X11236487Y26961111D01*
X11207815Y26670000D01*
X11236487Y26378889D01*
X11321401Y26098966D01*
X11459294Y25840986D01*
X11644866Y25614866D01*
X11870986Y25429294D01*
X11925791Y25400000D01*
X11870986Y25370706D01*
X11644866Y25185134D01*
X11459294Y24959014D01*
X11321401Y24701034D01*
X11236487Y24421111D01*
X11207815Y24130000D01*
X11236487Y23838889D01*
X11321401Y23558966D01*
X11459294Y23300986D01*
X11644866Y23074866D01*
X11870986Y22889294D01*
X11925791Y22860000D01*
X11870986Y22830706D01*
X11843462Y22808117D01*
X10276535Y24375043D01*
X10265226Y24431898D01*
X10187205Y24620256D01*
X10073937Y24789774D01*
X9929774Y24933937D01*
X9760256Y25047205D01*
X9571898Y25125226D01*
X9371939Y25165000D01*
X9168061Y25165000D01*
X8968102Y25125226D01*
X8779744Y25047205D01*
X8610226Y24933937D01*
X8466063Y24789774D01*
X8352795Y24620256D01*
X8274774Y24431898D01*
X8235000Y24231939D01*
X8235000Y24028061D01*
X8253190Y23936611D01*
X3793804Y28395997D01*
X3770001Y28425001D01*
X3654276Y28519974D01*
X3522247Y28590546D01*
X3427302Y28619347D01*
X3422929Y28663745D01*
X3378084Y28811582D01*
X3340039Y28882758D01*
X3449999Y28871928D01*
X4150001Y28871928D01*
X4323255Y28888992D01*
X4489851Y28939528D01*
X4643387Y29021595D01*
X4777962Y29132038D01*
X4888405Y29266613D01*
X4970472Y29420149D01*
X5021008Y29586745D01*
X5038072Y29759999D01*
X5038072Y30060000D01*
X11211928Y30060000D01*
X11215000Y29495750D01*
X11373750Y29337000D01*
X12573000Y29337000D01*
X12573000Y30536250D01*
X12827000Y30536250D01*
X12827000Y29337000D01*
X14026250Y29337000D01*
X14185000Y29495750D01*
X14188072Y30060000D01*
X14175812Y30184482D01*
X14139502Y30304180D01*
X14080537Y30414494D01*
X14001185Y30511185D01*
X13904494Y30590537D01*
X13794180Y30649502D01*
X13674482Y30685812D01*
X13550000Y30698072D01*
X12985750Y30695000D01*
X12827000Y30536250D01*
X12573000Y30536250D01*
X12414250Y30695000D01*
X11850000Y30698072D01*
X11725518Y30685812D01*
X11605820Y30649502D01*
X11495506Y30590537D01*
X11398815Y30511185D01*
X11319463Y30414494D01*
X11260498Y30304180D01*
X11224188Y30184482D01*
X11211928Y30060000D01*
X5038072Y30060000D01*
X5038072Y30840000D01*
X6967591Y30840000D01*
X7000000Y30836808D01*
X7032409Y30840000D01*
X7032419Y30840000D01*
X7129383Y30849550D01*
X7253793Y30887290D01*
X7368450Y30948575D01*
X7416489Y30988000D01*
X14478000Y30988000D01*
X14478000Y23904304D01*
X14478000Y23904304D01*
G37*
X14478000Y23904304D02*
X14448575Y23868450D01*
X14402423Y23782104D01*
X14387290Y23753792D01*
X14349550Y23629382D01*
X14340000Y23532418D01*
X14340000Y23532409D01*
X14336808Y23500000D01*
X14340000Y23467591D01*
X14340001Y13532419D01*
X14336808Y13500000D01*
X14349551Y13370618D01*
X14387290Y13246208D01*
X14448575Y13131550D01*
X14478000Y13095696D01*
X14478000Y4839816D01*
X14451939Y4845000D01*
X14389802Y4845000D01*
X13897804Y5336998D01*
X13874001Y5366001D01*
X13758276Y5460974D01*
X13626247Y5531546D01*
X13482986Y5575003D01*
X13371333Y5586000D01*
X13371322Y5586000D01*
X13334000Y5589676D01*
X13296678Y5586000D01*
X11749711Y5586000D01*
X11853937Y5690226D01*
X11967205Y5859744D01*
X12045226Y6048102D01*
X12085000Y6248061D01*
X12085000Y6451939D01*
X12045226Y6651898D01*
X11967205Y6840256D01*
X11853937Y7009774D01*
X11709774Y7153937D01*
X11540256Y7267205D01*
X11351898Y7345226D01*
X11151939Y7385000D01*
X10948061Y7385000D01*
X10748102Y7345226D01*
X10559744Y7267205D01*
X10390226Y7153937D01*
X10246063Y7009774D01*
X10132795Y6840256D01*
X10054774Y6651898D01*
X10015000Y6451939D01*
X10015000Y6389802D01*
X9906806Y6281608D01*
X9925000Y6373075D01*
X9925000Y6576953D01*
X9885226Y6776912D01*
X9807205Y6965270D01*
X9693937Y7134788D01*
X9549774Y7278951D01*
X9380256Y7392219D01*
X9191898Y7470240D01*
X8991939Y7510014D01*
X8929802Y7510014D01*
X6730000Y9709815D01*
X6730000Y10726289D01*
X6773937Y10770226D01*
X6887205Y10939744D01*
X6965226Y11128102D01*
X7005000Y11328061D01*
X7005000Y11531939D01*
X6965226Y11731898D01*
X6887205Y11920256D01*
X6773937Y12089774D01*
X6629774Y12233937D01*
X6460256Y12347205D01*
X6271898Y12425226D01*
X6071939Y12465000D01*
X5868061Y12465000D01*
X5668102Y12425226D01*
X5479744Y12347205D01*
X5310226Y12233937D01*
X5166063Y12089774D01*
X5052795Y11920256D01*
X4974774Y11731898D01*
X4935000Y11531939D01*
X4935000Y11328061D01*
X4974774Y11128102D01*
X5052795Y10939744D01*
X5166063Y10770226D01*
X5210000Y10726289D01*
X5210001Y9432346D01*
X5206324Y9395014D01*
X5220998Y9246029D01*
X5264454Y9102768D01*
X5335026Y8970738D01*
X5406201Y8884012D01*
X5430000Y8855013D01*
X5458998Y8831215D01*
X7855000Y6435212D01*
X7855000Y6373075D01*
X7894774Y6173116D01*
X7927545Y6094000D01*
X-4639198Y6094000D01*
X-4935000Y6389801D01*
X-4935000Y6451939D01*
X-4974774Y6651898D01*
X-5052795Y6840256D01*
X-5166063Y7009774D01*
X-5310226Y7153937D01*
X-5479744Y7267205D01*
X-5668102Y7345226D01*
X-5868061Y7385000D01*
X-6071939Y7385000D01*
X-6271898Y7345226D01*
X-6460256Y7267205D01*
X-6629774Y7153937D01*
X-6773937Y7009774D01*
X-6887205Y6840256D01*
X-6965226Y6651898D01*
X-7005000Y6451939D01*
X-7005000Y6382606D01*
X-8708203Y4679403D01*
X-8779744Y4727205D01*
X-8968102Y4805226D01*
X-9168061Y4845000D01*
X-9371939Y4845000D01*
X-9571898Y4805226D01*
X-9760256Y4727205D01*
X-9929774Y4613937D01*
X-10073937Y4469774D01*
X-10187205Y4300256D01*
X-10265226Y4111898D01*
X-10305000Y3911939D01*
X-10305000Y3708061D01*
X-10265226Y3508102D01*
X-10187205Y3319744D01*
X-10073937Y3150226D01*
X-10030000Y3106289D01*
X-10029999Y2322332D01*
X-10033676Y2285000D01*
X-10019002Y2136015D01*
X-9975546Y1992754D01*
X-9904974Y1860724D01*
X-9847750Y1790997D01*
X-9810000Y1744999D01*
X-9781002Y1721201D01*
X-7548800Y-511002D01*
X-7525001Y-540001D01*
X-7496003Y-563799D01*
X-7409277Y-634974D01*
X-7277247Y-705546D01*
X-7133986Y-749003D01*
X-7022333Y-760000D01*
X-7022323Y-760000D01*
X-6985000Y-763676D01*
X-6947678Y-760000D01*
X-6364013Y-760000D01*
X-6377205Y-779744D01*
X-6455226Y-968102D01*
X-6495000Y-1168061D01*
X-6495000Y-1371939D01*
X-6455226Y-1571898D01*
X-6377205Y-1760256D01*
X-6263937Y-1929774D01*
X-6119774Y-2073937D01*
X-5950256Y-2187205D01*
X-5761898Y-2265226D01*
X-5561939Y-2305000D01*
X-5499801Y-2305000D01*
X-4753799Y-3051003D01*
X-4730001Y-3080001D01*
X-4614276Y-3174974D01*
X-4482247Y-3245546D01*
X-4338986Y-3289003D01*
X-4227333Y-3300000D01*
X-4227324Y-3300000D01*
X-4190001Y-3303676D01*
X-4152678Y-3300000D01*
X-3064013Y-3300000D01*
X-3077205Y-3319744D01*
X-3155226Y-3508102D01*
X-3195000Y-3708061D01*
X-3195000Y-3911939D01*
X-3155226Y-4111898D01*
X-3077205Y-4300256D01*
X-2963937Y-4469774D01*
X-2819774Y-4613937D01*
X-2650256Y-4727205D01*
X-2461898Y-4805226D01*
X-2261939Y-4845000D01*
X-2199801Y-4845000D01*
X-1453799Y-5591003D01*
X-1430001Y-5620001D01*
X-1314276Y-5714974D01*
X-1182247Y-5785546D01*
X-1038986Y-5829003D01*
X-927333Y-5840000D01*
X-927324Y-5840000D01*
X-890001Y-5843676D01*
X-852678Y-5840000D01*
X4662678Y-5840000D01*
X4700000Y-5843676D01*
X4737322Y-5840000D01*
X4737333Y-5840000D01*
X4848986Y-5829003D01*
X4992247Y-5785546D01*
X5124276Y-5714974D01*
X5240001Y-5620001D01*
X5263804Y-5590997D01*
X6009802Y-4845000D01*
X6071939Y-4845000D01*
X6271898Y-4805226D01*
X6460256Y-4727205D01*
X6629774Y-4613937D01*
X6773937Y-4469774D01*
X6887205Y-4300256D01*
X6965226Y-4111898D01*
X7005000Y-3911939D01*
X7005000Y-3708061D01*
X6965226Y-3508102D01*
X6887205Y-3319744D01*
X6874013Y-3300000D01*
X13297678Y-3300000D01*
X13335000Y-3303676D01*
X13372322Y-3300000D01*
X13372333Y-3300000D01*
X13483986Y-3289003D01*
X13627247Y-3245546D01*
X13759276Y-3174974D01*
X13875001Y-3080001D01*
X13898804Y-3050998D01*
X14478000Y-2471802D01*
X14478000Y-13095696D01*
X14448575Y-13131550D01*
X14387291Y-13246207D01*
X14387290Y-13246208D01*
X14349550Y-13370618D01*
X14340000Y-13467582D01*
X14340000Y-13467591D01*
X14336808Y-13500000D01*
X14340000Y-13532409D01*
X14340001Y-23467581D01*
X14336808Y-23500000D01*
X14349551Y-23629382D01*
X14387290Y-23753792D01*
X14448575Y-23868450D01*
X14478000Y-23904304D01*
X14478000Y-31940448D01*
X14475344Y-31943751D01*
X14442596Y-31993796D01*
X14409139Y-32043397D01*
X14404813Y-32051534D01*
X14230481Y-32385000D01*
X6268209Y-32385000D01*
X6226052Y-32173061D01*
X6012344Y-31657124D01*
X5702088Y-31192793D01*
X5307207Y-30797912D01*
X4842876Y-30487656D01*
X4326939Y-30273948D01*
X3779223Y-30165000D01*
X3220777Y-30165000D01*
X2673061Y-30273948D01*
X2157124Y-30487656D01*
X1692793Y-30797912D01*
X1297912Y-31192793D01*
X987656Y-31657124D01*
X773948Y-32173061D01*
X665000Y-32720777D01*
X665000Y-33279223D01*
X773948Y-33826939D01*
X987656Y-34342876D01*
X1297912Y-34807207D01*
X1692793Y-35202088D01*
X1899193Y-35340000D01*
X-1907020Y-35340000D01*
X-1689830Y-34989775D01*
X-3500000Y-33179605D01*
X-5310170Y-34989775D01*
X-5092980Y-35340000D01*
X-5726619Y-35340000D01*
X-8051445Y-33015174D01*
X-6348678Y-33015174D01*
X-6290981Y-33570632D01*
X-6126028Y-34104161D01*
X-5877018Y-34570024D01*
X-5489775Y-34810170D01*
X-3679605Y-33000000D01*
X-3320395Y-33000000D01*
X-1510225Y-34810170D01*
X-1122982Y-34570024D01*
X-862359Y-34076123D01*
X-703099Y-33540867D01*
X-651322Y-32984826D01*
X-709019Y-32429368D01*
X-873972Y-31895839D01*
X-1122982Y-31429976D01*
X-1510225Y-31189830D01*
X-3320395Y-33000000D01*
X-3679605Y-33000000D01*
X-5489775Y-31189830D01*
X-5877018Y-31429976D01*
X-6137641Y-31923877D01*
X-6296901Y-32459133D01*
X-6348678Y-33015174D01*
X-8051445Y-33015174D01*
X-8056234Y-33010386D01*
X-8260394Y-32806226D01*
X-8281053Y-32781053D01*
X-8306226Y-32760394D01*
X-8306234Y-32760386D01*
X-8381550Y-32698575D01*
X-8496208Y-32637290D01*
X-8509000Y-32633410D01*
X-8509000Y-32512000D01*
X-8511440Y-32487224D01*
X-8518667Y-32463399D01*
X-8530403Y-32441443D01*
X-8546197Y-32422197D01*
X-8565443Y-32406403D01*
X-8587399Y-32394667D01*
X-8611224Y-32387440D01*
X-8636000Y-32385000D01*
X-13155394Y-32385000D01*
X-14478000Y-31062394D01*
X-14478000Y-31010225D01*
X-5310170Y-31010225D01*
X-3500000Y-32820395D01*
X-1689830Y-31010225D01*
X-1929976Y-30622982D01*
X-2423877Y-30362359D01*
X-2959133Y-30203099D01*
X-3515174Y-30151322D01*
X-4070632Y-30209019D01*
X-4604161Y-30373972D01*
X-5070024Y-30622982D01*
X-5310170Y-31010225D01*
X-14478000Y-31010225D01*
X-14478000Y-29566890D01*
X-14141476Y-29566890D01*
X-14096825Y-29714099D01*
X-13971641Y-29976920D01*
X-13797588Y-30210269D01*
X-13581355Y-30405178D01*
X-13331252Y-30554157D01*
X-13056891Y-30651481D01*
X-12827000Y-30530814D01*
X-12827000Y-29337000D01*
X-12573000Y-29337000D01*
X-12573000Y-30530814D01*
X-12343109Y-30651481D01*
X-12068748Y-30554157D01*
X-11818645Y-30405178D01*
X-11602412Y-30210269D01*
X-11428359Y-29976920D01*
X-11303175Y-29714099D01*
X-11258524Y-29566890D01*
X-11379845Y-29337000D01*
X-12573000Y-29337000D01*
X-12827000Y-29337000D01*
X-14020155Y-29337000D01*
X-14141476Y-29566890D01*
X-14478000Y-29566890D01*
X-14478000Y-23904305D01*
X-14448575Y-23868451D01*
X-14387290Y-23753793D01*
X-14387290Y-23753792D01*
X-14349550Y-23629383D01*
X-14340000Y-23532419D01*
X-14340000Y-23532410D01*
X-14336808Y-23500001D01*
X-14340000Y-23467592D01*
X-14340000Y-19050000D01*
X-14192185Y-19050000D01*
X-14163513Y-19341111D01*
X-14078599Y-19621034D01*
X-13940706Y-19879014D01*
X-13755134Y-20105134D01*
X-13529014Y-20290706D01*
X-13474209Y-20320000D01*
X-13529014Y-20349294D01*
X-13755134Y-20534866D01*
X-13940706Y-20760986D01*
X-14078599Y-21018966D01*
X-14163513Y-21298889D01*
X-14192185Y-21590000D01*
X-14163513Y-21881111D01*
X-14078599Y-22161034D01*
X-13940706Y-22419014D01*
X-13755134Y-22645134D01*
X-13529014Y-22830706D01*
X-13474209Y-22860000D01*
X-13529014Y-22889294D01*
X-13755134Y-23074866D01*
X-13940706Y-23300986D01*
X-14078599Y-23558966D01*
X-14163513Y-23838889D01*
X-14192185Y-24130000D01*
X-14163513Y-24421111D01*
X-14078599Y-24701034D01*
X-13940706Y-24959014D01*
X-13755134Y-25185134D01*
X-13529014Y-25370706D01*
X-13474209Y-25400000D01*
X-13529014Y-25429294D01*
X-13755134Y-25614866D01*
X-13940706Y-25840986D01*
X-14078599Y-26098966D01*
X-14163513Y-26378889D01*
X-14192185Y-26670000D01*
X-14163513Y-26961111D01*
X-14078599Y-27241034D01*
X-13940706Y-27499014D01*
X-13755134Y-27725134D01*
X-13529014Y-27910706D01*
X-13464477Y-27945201D01*
X-13581355Y-28014822D01*
X-13797588Y-28209731D01*
X-13971641Y-28443080D01*
X-14096825Y-28705901D01*
X-14141476Y-28853110D01*
X-14020155Y-29083000D01*
X-12827000Y-29083000D01*
X-12827000Y-29063000D01*
X-12573000Y-29063000D01*
X-12573000Y-29083000D01*
X-11379845Y-29083000D01*
X-11258524Y-28853110D01*
X-11303175Y-28705901D01*
X-11428359Y-28443080D01*
X-11602412Y-28209731D01*
X-11818645Y-28014822D01*
X-11935523Y-27945201D01*
X-11870986Y-27910706D01*
X-11644866Y-27725134D01*
X-11459294Y-27499014D01*
X-11321401Y-27241034D01*
X-11236487Y-26961111D01*
X-11207815Y-26670000D01*
X-11236487Y-26378889D01*
X-11321401Y-26098966D01*
X-11459294Y-25840986D01*
X-11644866Y-25614866D01*
X-11870986Y-25429294D01*
X-11925791Y-25400000D01*
X-11870986Y-25370706D01*
X-11644866Y-25185134D01*
X-11459294Y-24959014D01*
X-11321401Y-24701034D01*
X-11236487Y-24421111D01*
X-11207815Y-24130000D01*
X-11236487Y-23838889D01*
X-11321401Y-23558966D01*
X-11459294Y-23300986D01*
X-11644866Y-23074866D01*
X-11870986Y-22889294D01*
X-11925791Y-22860000D01*
X-11870986Y-22830706D01*
X-11644866Y-22645134D01*
X-11459294Y-22419014D01*
X-11321401Y-22161034D01*
X-11236487Y-21881111D01*
X-11207815Y-21590000D01*
X-11214218Y-21524990D01*
X889000Y-21524990D01*
X889000Y-24384000D01*
X891440Y-24408776D01*
X898667Y-24432601D01*
X910403Y-24454557D01*
X926197Y-24473803D01*
X945443Y-24489597D01*
X967399Y-24501333D01*
X991224Y-24508560D01*
X1016000Y-24511000D01*
X1025001Y-24511000D01*
X1025000Y-26329248D01*
X1019509Y-26385000D01*
X1025000Y-26440751D01*
X1041423Y-26607498D01*
X1106324Y-26821446D01*
X1211716Y-27018623D01*
X1353551Y-27191449D01*
X1396865Y-27226996D01*
X2873009Y-28703140D01*
X2908551Y-28746449D01*
X3081377Y-28888284D01*
X3278553Y-28993676D01*
X3492501Y-29058577D01*
X3714999Y-29080491D01*
X3770751Y-29075000D01*
X10959869Y-29075000D01*
X11220155Y-29335286D01*
X11236487Y-29501111D01*
X11321401Y-29781034D01*
X11459294Y-30039014D01*
X11644866Y-30265134D01*
X11870986Y-30450706D01*
X12128966Y-30588599D01*
X12408889Y-30673513D01*
X12627050Y-30695000D01*
X12772950Y-30695000D01*
X12991111Y-30673513D01*
X13271034Y-30588599D01*
X13529014Y-30450706D01*
X13755134Y-30265134D01*
X13940706Y-30039014D01*
X14078599Y-29781034D01*
X14163513Y-29501111D01*
X14192185Y-29210000D01*
X14163513Y-28918889D01*
X14078599Y-28638966D01*
X13940706Y-28380986D01*
X13755134Y-28154866D01*
X13529014Y-27969294D01*
X13474209Y-27940000D01*
X13529014Y-27910706D01*
X13755134Y-27725134D01*
X13940706Y-27499014D01*
X14078599Y-27241034D01*
X14163513Y-26961111D01*
X14192185Y-26670000D01*
X14163513Y-26378889D01*
X14078599Y-26098966D01*
X13940706Y-25840986D01*
X13755134Y-25614866D01*
X13529014Y-25429294D01*
X13474209Y-25400000D01*
X13529014Y-25370706D01*
X13755134Y-25185134D01*
X13940706Y-24959014D01*
X14078599Y-24701034D01*
X14163513Y-24421111D01*
X14192185Y-24130000D01*
X14163513Y-23838889D01*
X14078599Y-23558966D01*
X13940706Y-23300986D01*
X13755134Y-23074866D01*
X13529014Y-22889294D01*
X13474209Y-22860000D01*
X13529014Y-22830706D01*
X13755134Y-22645134D01*
X13940706Y-22419014D01*
X14078599Y-22161034D01*
X14163513Y-21881111D01*
X14192185Y-21590000D01*
X14163513Y-21298889D01*
X14078599Y-21018966D01*
X13940706Y-20760986D01*
X13755134Y-20534866D01*
X13529014Y-20349294D01*
X13474209Y-20320000D01*
X13529014Y-20290706D01*
X13755134Y-20105134D01*
X13940706Y-19879014D01*
X14078599Y-19621034D01*
X14163513Y-19341111D01*
X14192185Y-19050000D01*
X14163513Y-18758889D01*
X14078599Y-18478966D01*
X13940706Y-18220986D01*
X13755134Y-17994866D01*
X13725313Y-17970393D01*
X13794180Y-17949502D01*
X13904494Y-17890537D01*
X14001185Y-17811185D01*
X14080537Y-17714494D01*
X14139502Y-17604180D01*
X14175812Y-17484482D01*
X14188072Y-17360000D01*
X14185000Y-16795750D01*
X14026250Y-16637000D01*
X12827000Y-16637000D01*
X12827000Y-16657000D01*
X12573000Y-16657000D01*
X12573000Y-16637000D01*
X11373750Y-16637000D01*
X11215000Y-16795750D01*
X11211928Y-17360000D01*
X11224188Y-17484482D01*
X11260498Y-17604180D01*
X11319463Y-17714494D01*
X11398815Y-17811185D01*
X11495506Y-17890537D01*
X11605820Y-17949502D01*
X11674687Y-17970393D01*
X11644866Y-17994866D01*
X11459294Y-18220986D01*
X11321401Y-18478966D01*
X11236487Y-18758889D01*
X11207815Y-19050000D01*
X11236487Y-19341111D01*
X11321401Y-19621034D01*
X11459294Y-19879014D01*
X11644866Y-20105134D01*
X11870986Y-20290706D01*
X11925791Y-20320000D01*
X11870986Y-20349294D01*
X11644866Y-20534866D01*
X11459294Y-20760986D01*
X11321401Y-21018966D01*
X11236487Y-21298889D01*
X11226085Y-21404506D01*
X9866524Y-20044946D01*
X9838807Y-20011173D01*
X9704049Y-19900579D01*
X9550303Y-19818401D01*
X9383480Y-19767795D01*
X9253467Y-19754990D01*
X9253459Y-19754990D01*
X9209990Y-19750709D01*
X9166521Y-19754990D01*
X6223000Y-19754990D01*
X6223000Y-17352105D01*
X6266448Y-17316448D01*
X6408283Y-17143622D01*
X6513675Y-16946446D01*
X6578577Y-16732498D01*
X6600490Y-16509999D01*
X6578577Y-16287500D01*
X6513675Y-16073553D01*
X6408283Y-15876377D01*
X6301988Y-15746856D01*
X6215132Y-15660000D01*
X11211928Y-15660000D01*
X11215000Y-16224250D01*
X11373750Y-16383000D01*
X12573000Y-16383000D01*
X12573000Y-15183750D01*
X12827000Y-15183750D01*
X12827000Y-16383000D01*
X14026250Y-16383000D01*
X14185000Y-16224250D01*
X14188072Y-15660000D01*
X14175812Y-15535518D01*
X14139502Y-15415820D01*
X14080537Y-15305506D01*
X14001185Y-15208815D01*
X13904494Y-15129463D01*
X13794180Y-15070498D01*
X13674482Y-15034188D01*
X13550000Y-15021928D01*
X12985750Y-15025000D01*
X12827000Y-15183750D01*
X12573000Y-15183750D01*
X12414250Y-15025000D01*
X11850000Y-15021928D01*
X11725518Y-15034188D01*
X11605820Y-15070498D01*
X11495506Y-15129463D01*
X11398815Y-15208815D01*
X11319463Y-15305506D01*
X11260498Y-15415820D01*
X11224188Y-15535518D01*
X11211928Y-15660000D01*
X6215132Y-15660000D01*
X5031996Y-14476865D01*
X4996449Y-14433551D01*
X4823623Y-14291716D01*
X4626447Y-14186324D01*
X4412499Y-14121423D01*
X4245752Y-14105000D01*
X4245751Y-14105000D01*
X4190000Y-14099509D01*
X4134249Y-14105000D01*
X-11374257Y-14105000D01*
X-11430001Y-14099510D01*
X-11485745Y-14105000D01*
X-11485752Y-14105000D01*
X-11631507Y-14119356D01*
X-11652500Y-14121423D01*
X-11702295Y-14136529D01*
X-11866447Y-14186324D01*
X-12063623Y-14291716D01*
X-12236449Y-14433551D01*
X-12271992Y-14476860D01*
X-12817060Y-15021928D01*
X-13550000Y-15021928D01*
X-13674482Y-15034188D01*
X-13794180Y-15070498D01*
X-13904494Y-15129463D01*
X-14001185Y-15208815D01*
X-14080537Y-15305506D01*
X-14139502Y-15415820D01*
X-14175812Y-15535518D01*
X-14188072Y-15660000D01*
X-14188072Y-17360000D01*
X-14175812Y-17484482D01*
X-14139502Y-17604180D01*
X-14080537Y-17714494D01*
X-14001185Y-17811185D01*
X-13904494Y-17890537D01*
X-13794180Y-17949502D01*
X-13725313Y-17970393D01*
X-13755134Y-17994866D01*
X-13940706Y-18220986D01*
X-14078599Y-18478966D01*
X-14163513Y-18758889D01*
X-14192185Y-19050000D01*
X-14340000Y-19050000D01*
X-14340000Y-2896890D01*
X-14141476Y-2896890D01*
X-14096825Y-3044099D01*
X-13971641Y-3306920D01*
X-13797588Y-3540269D01*
X-13581355Y-3735178D01*
X-13331252Y-3884157D01*
X-13056891Y-3981481D01*
X-12827000Y-3860814D01*
X-12827000Y-2667000D01*
X-12573000Y-2667000D01*
X-12573000Y-3860814D01*
X-12343109Y-3981481D01*
X-12068748Y-3884157D01*
X-11818645Y-3735178D01*
X-11602412Y-3540269D01*
X-11428359Y-3306920D01*
X-11303175Y-3044099D01*
X-11258524Y-2896890D01*
X-11379845Y-2667000D01*
X-12573000Y-2667000D01*
X-12827000Y-2667000D01*
X-14020155Y-2667000D01*
X-14141476Y-2896890D01*
X-14340000Y-2896890D01*
X-14340000Y0D01*
X-14192185Y0D01*
X-14163513Y-291111D01*
X-14078599Y-571034D01*
X-13940706Y-829014D01*
X-13755134Y-1055134D01*
X-13529014Y-1240706D01*
X-13464477Y-1275201D01*
X-13581355Y-1344822D01*
X-13797588Y-1539731D01*
X-13971641Y-1773080D01*
X-14096825Y-2035901D01*
X-14141476Y-2183110D01*
X-14020155Y-2413000D01*
X-12827000Y-2413000D01*
X-12827000Y-2393000D01*
X-12573000Y-2393000D01*
X-12573000Y-2413000D01*
X-11379845Y-2413000D01*
X-11258524Y-2183110D01*
X-11303175Y-2035901D01*
X-11428359Y-1773080D01*
X-11602412Y-1539731D01*
X-11818645Y-1344822D01*
X-11935523Y-1275201D01*
X-11870986Y-1240706D01*
X-11644866Y-1055134D01*
X-11459294Y-829014D01*
X-11321401Y-571034D01*
X-11236487Y-291111D01*
X-11207815Y0D01*
X-11236487Y291111D01*
X-11321401Y571034D01*
X-11459294Y829014D01*
X-11644866Y1055134D01*
X-11674687Y1079607D01*
X-11605820Y1100498D01*
X-11495506Y1159463D01*
X-11398815Y1238815D01*
X-11319463Y1335506D01*
X-11260498Y1445820D01*
X-11224188Y1565518D01*
X-11211928Y1690000D01*
X-11211928Y3390000D01*
X-11224188Y3514482D01*
X-11260498Y3634180D01*
X-11319463Y3744494D01*
X-11398815Y3841185D01*
X-11495506Y3920537D01*
X-11605820Y3979502D01*
X-11725518Y4015812D01*
X-11850000Y4028072D01*
X-13550000Y4028072D01*
X-13674482Y4015812D01*
X-13794180Y3979502D01*
X-13904494Y3920537D01*
X-14001185Y3841185D01*
X-14080537Y3744494D01*
X-14139502Y3634180D01*
X-14175812Y3514482D01*
X-14188072Y3390000D01*
X-14188072Y1690000D01*
X-14175812Y1565518D01*
X-14139502Y1445820D01*
X-14080537Y1335506D01*
X-14001185Y1238815D01*
X-13904494Y1159463D01*
X-13794180Y1100498D01*
X-13725313Y1079607D01*
X-13755134Y1055134D01*
X-13940706Y829014D01*
X-14078599Y571034D01*
X-14163513Y291111D01*
X-14192185Y0D01*
X-14340000Y0D01*
X-14340000Y16153110D01*
X-14141476Y16153110D01*
X-14096825Y16005901D01*
X-13971641Y15743080D01*
X-13797588Y15509731D01*
X-13581355Y15314822D01*
X-13331252Y15165843D01*
X-13056891Y15068519D01*
X-12827000Y15189186D01*
X-12827000Y16383000D01*
X-12573000Y16383000D01*
X-12573000Y15189186D01*
X-12343109Y15068519D01*
X-12068748Y15165843D01*
X-11818645Y15314822D01*
X-11602412Y15509731D01*
X-11428359Y15743080D01*
X-11303175Y16005901D01*
X-11258524Y16153110D01*
X-11379845Y16383000D01*
X-12573000Y16383000D01*
X-12827000Y16383000D01*
X-14020155Y16383000D01*
X-14141476Y16153110D01*
X-14340000Y16153110D01*
X-14340000Y17653000D01*
X-13639242Y17653000D01*
X-13797588Y17510269D01*
X-13971641Y17276920D01*
X-14096825Y17014099D01*
X-14141476Y16866890D01*
X-14020155Y16637000D01*
X-12827000Y16637000D01*
X-12827000Y16657000D01*
X-12573000Y16657000D01*
X-12573000Y16637000D01*
X-11379845Y16637000D01*
X-11258524Y16866890D01*
X-11303175Y17014099D01*
X-11428359Y17276920D01*
X-11602412Y17510269D01*
X-11818645Y17705178D01*
X-11935523Y17774799D01*
X-11870986Y17809294D01*
X-11644866Y17994866D01*
X-11459294Y18220986D01*
X-11321401Y18478966D01*
X-11236487Y18758889D01*
X-11207815Y19050000D01*
X-11236487Y19341111D01*
X-11321401Y19621034D01*
X-11459294Y19879014D01*
X-11644866Y20105134D01*
X-11870986Y20290706D01*
X-11925791Y20320000D01*
X-11870986Y20349294D01*
X-11644866Y20534866D01*
X-11459294Y20760986D01*
X-11321401Y21018966D01*
X-11236487Y21298889D01*
X-11226085Y21404506D01*
X-9546532Y19724953D01*
X-9518817Y19691183D01*
X-9485049Y19663470D01*
X-9485047Y19663468D01*
X-9384059Y19580589D01*
X-9230314Y19498411D01*
X-9134886Y19469463D01*
X-9063490Y19447805D01*
X-8933477Y19435000D01*
X-8933469Y19435000D01*
X-8890000Y19430719D01*
X-8846531Y19435000D01*
X-6529282Y19435000D01*
X-6578577Y19272498D01*
X-6600491Y19050000D01*
X-6578577Y18827502D01*
X-6513676Y18613554D01*
X-6408283Y18416378D01*
X-6301988Y18286857D01*
X-5031992Y17016860D01*
X-4996449Y16973551D01*
X-4823623Y16831716D01*
X-4626447Y16726324D01*
X-4462295Y16676529D01*
X-4412500Y16661423D01*
X-4391507Y16659356D01*
X-4245752Y16645000D01*
X-4245745Y16645000D01*
X-4190001Y16639510D01*
X-4134257Y16645000D01*
X-3287195Y16645000D01*
X-3300491Y16510000D01*
X-3278577Y16287502D01*
X-3213676Y16073554D01*
X-3108283Y15876378D01*
X-3001988Y15746857D01*
X-1731992Y14476860D01*
X-1696449Y14433551D01*
X-1523623Y14291716D01*
X-1326447Y14186324D01*
X-1162295Y14136529D01*
X-1112500Y14121423D01*
X-1091507Y14119356D01*
X-945752Y14105000D01*
X-945745Y14105000D01*
X-890001Y14099510D01*
X-834257Y14105000D01*
X11374249Y14105000D01*
X11430000Y14099509D01*
X11485751Y14105000D01*
X11485752Y14105000D01*
X11652499Y14121423D01*
X11866447Y14186324D01*
X12063623Y14291716D01*
X12236449Y14433551D01*
X12271996Y14476865D01*
X12825286Y15030155D01*
X12991111Y15046487D01*
X13271034Y15131401D01*
X13529014Y15269294D01*
X13755134Y15454866D01*
X13940706Y15680986D01*
X14078599Y15938966D01*
X14163513Y16218889D01*
X14192185Y16510000D01*
X14163513Y16801111D01*
X14078599Y17081034D01*
X13940706Y17339014D01*
X13755134Y17565134D01*
X13529014Y17750706D01*
X13474209Y17780000D01*
X13529014Y17809294D01*
X13755134Y17994866D01*
X13940706Y18220986D01*
X14078599Y18478966D01*
X14163513Y18758889D01*
X14192185Y19050000D01*
X14163513Y19341111D01*
X14078599Y19621034D01*
X13940706Y19879014D01*
X13755134Y20105134D01*
X13529014Y20290706D01*
X13474209Y20320000D01*
X13529014Y20349294D01*
X13755134Y20534866D01*
X13940706Y20760986D01*
X14078599Y21018966D01*
X14163513Y21298889D01*
X14192185Y21590000D01*
X14163513Y21881111D01*
X14078599Y22161034D01*
X13940706Y22419014D01*
X13755134Y22645134D01*
X13529014Y22830706D01*
X13474209Y22860000D01*
X13529014Y22889294D01*
X13755134Y23074866D01*
X13940706Y23300986D01*
X14078599Y23558966D01*
X14163513Y23838889D01*
X14192185Y24130000D01*
X14163513Y24421111D01*
X14078599Y24701034D01*
X13940706Y24959014D01*
X13755134Y25185134D01*
X13529014Y25370706D01*
X13474209Y25400000D01*
X13529014Y25429294D01*
X13755134Y25614866D01*
X13940706Y25840986D01*
X14078599Y26098966D01*
X14163513Y26378889D01*
X14192185Y26670000D01*
X14163513Y26961111D01*
X14078599Y27241034D01*
X13940706Y27499014D01*
X13755134Y27725134D01*
X13725313Y27749607D01*
X13794180Y27770498D01*
X13904494Y27829463D01*
X14001185Y27908815D01*
X14080537Y28005506D01*
X14139502Y28115820D01*
X14175812Y28235518D01*
X14188072Y28360000D01*
X14185000Y28924250D01*
X14026250Y29083000D01*
X12827000Y29083000D01*
X12827000Y29063000D01*
X12573000Y29063000D01*
X12573000Y29083000D01*
X11373750Y29083000D01*
X11215000Y28924250D01*
X11211928Y28360000D01*
X11224188Y28235518D01*
X11260498Y28115820D01*
X11319463Y28005506D01*
X11398815Y27908815D01*
X11495506Y27829463D01*
X11605820Y27770498D01*
X11674687Y27749607D01*
X11644866Y27725134D01*
X11459294Y27499014D01*
X11321401Y27241034D01*
X11236487Y26961111D01*
X11207815Y26670000D01*
X11236487Y26378889D01*
X11321401Y26098966D01*
X11459294Y25840986D01*
X11644866Y25614866D01*
X11870986Y25429294D01*
X11925791Y25400000D01*
X11870986Y25370706D01*
X11644866Y25185134D01*
X11459294Y24959014D01*
X11321401Y24701034D01*
X11236487Y24421111D01*
X11207815Y24130000D01*
X11236487Y23838889D01*
X11321401Y23558966D01*
X11459294Y23300986D01*
X11644866Y23074866D01*
X11870986Y22889294D01*
X11925791Y22860000D01*
X11870986Y22830706D01*
X11843462Y22808117D01*
X10276535Y24375043D01*
X10265226Y24431898D01*
X10187205Y24620256D01*
X10073937Y24789774D01*
X9929774Y24933937D01*
X9760256Y25047205D01*
X9571898Y25125226D01*
X9371939Y25165000D01*
X9168061Y25165000D01*
X8968102Y25125226D01*
X8779744Y25047205D01*
X8610226Y24933937D01*
X8466063Y24789774D01*
X8352795Y24620256D01*
X8274774Y24431898D01*
X8235000Y24231939D01*
X8235000Y24028061D01*
X8253190Y23936611D01*
X3793804Y28395997D01*
X3770001Y28425001D01*
X3654276Y28519974D01*
X3522247Y28590546D01*
X3427302Y28619347D01*
X3422929Y28663745D01*
X3378084Y28811582D01*
X3340039Y28882758D01*
X3449999Y28871928D01*
X4150001Y28871928D01*
X4323255Y28888992D01*
X4489851Y28939528D01*
X4643387Y29021595D01*
X4777962Y29132038D01*
X4888405Y29266613D01*
X4970472Y29420149D01*
X5021008Y29586745D01*
X5038072Y29759999D01*
X5038072Y30060000D01*
X11211928Y30060000D01*
X11215000Y29495750D01*
X11373750Y29337000D01*
X12573000Y29337000D01*
X12573000Y30536250D01*
X12827000Y30536250D01*
X12827000Y29337000D01*
X14026250Y29337000D01*
X14185000Y29495750D01*
X14188072Y30060000D01*
X14175812Y30184482D01*
X14139502Y30304180D01*
X14080537Y30414494D01*
X14001185Y30511185D01*
X13904494Y30590537D01*
X13794180Y30649502D01*
X13674482Y30685812D01*
X13550000Y30698072D01*
X12985750Y30695000D01*
X12827000Y30536250D01*
X12573000Y30536250D01*
X12414250Y30695000D01*
X11850000Y30698072D01*
X11725518Y30685812D01*
X11605820Y30649502D01*
X11495506Y30590537D01*
X11398815Y30511185D01*
X11319463Y30414494D01*
X11260498Y30304180D01*
X11224188Y30184482D01*
X11211928Y30060000D01*
X5038072Y30060000D01*
X5038072Y30840000D01*
X6967591Y30840000D01*
X7000000Y30836808D01*
X7032409Y30840000D01*
X7032419Y30840000D01*
X7129383Y30849550D01*
X7253793Y30887290D01*
X7368450Y30948575D01*
X7416489Y30988000D01*
X14478000Y30988000D01*
X14478000Y23904304D01*
G36*
X-7191991Y23366859D02*
G01*
X-7156449Y23323551D01*
X-6983623Y23181716D01*
X-6786447Y23076324D01*
X-6572499Y23011423D01*
X-6405752Y22995000D01*
X-6405743Y22995000D01*
X-6350001Y22989510D01*
X-6294259Y22995000D01*
X-5404248Y22995000D01*
X-5237501Y23011423D01*
X-5023553Y23076324D01*
X-4938831Y23121609D01*
X-4928577Y23017502D01*
X-4863676Y22803554D01*
X-4829171Y22739000D01*
X-4758283Y22606377D01*
X-4616448Y22433551D01*
X-4573140Y22398009D01*
X-2923144Y20748012D01*
X-2793624Y20641717D01*
X-2637538Y20558288D01*
X-2526250Y20447000D01*
X-1882000Y20447000D01*
X-1882000Y20467000D01*
X-1718072Y20467000D01*
X-1718072Y20218507D01*
X-1763579Y20173000D01*
X-1882000Y20173000D01*
X-1882000Y20193000D01*
X-2526250Y20193000D01*
X-2685000Y20034250D01*
X-2688072Y20000000D01*
X-2681670Y19935000D01*
X-3443421Y19935000D01*
X-4423468Y20915046D01*
X-4451183Y20948817D01*
X-4585941Y21059411D01*
X-4739687Y21141589D01*
X-4906510Y21192195D01*
X-5036523Y21205000D01*
X-5036531Y21205000D01*
X-5080000Y21209281D01*
X-5123469Y21205000D01*
X-8523421Y21205000D01*
X-11229388Y23910966D01*
X-11207815Y24130000D01*
X-11236487Y24421111D01*
X-11321401Y24701034D01*
X-11459294Y24959014D01*
X-11644866Y25185134D01*
X-11870986Y25370706D01*
X-11925791Y25400000D01*
X-11870986Y25429294D01*
X-11742183Y25535000D01*
X-9360131Y25535000D01*
X-7191991Y23366859D01*
X-7191991Y23366859D01*
G37*
X-7191991Y23366859D02*
X-7156449Y23323551D01*
X-6983623Y23181716D01*
X-6786447Y23076324D01*
X-6572499Y23011423D01*
X-6405752Y22995000D01*
X-6405743Y22995000D01*
X-6350001Y22989510D01*
X-6294259Y22995000D01*
X-5404248Y22995000D01*
X-5237501Y23011423D01*
X-5023553Y23076324D01*
X-4938831Y23121609D01*
X-4928577Y23017502D01*
X-4863676Y22803554D01*
X-4829171Y22739000D01*
X-4758283Y22606377D01*
X-4616448Y22433551D01*
X-4573140Y22398009D01*
X-2923144Y20748012D01*
X-2793624Y20641717D01*
X-2637538Y20558288D01*
X-2526250Y20447000D01*
X-1882000Y20447000D01*
X-1882000Y20467000D01*
X-1718072Y20467000D01*
X-1718072Y20218507D01*
X-1763579Y20173000D01*
X-1882000Y20173000D01*
X-1882000Y20193000D01*
X-2526250Y20193000D01*
X-2685000Y20034250D01*
X-2688072Y20000000D01*
X-2681670Y19935000D01*
X-3443421Y19935000D01*
X-4423468Y20915046D01*
X-4451183Y20948817D01*
X-4585941Y21059411D01*
X-4739687Y21141589D01*
X-4906510Y21192195D01*
X-5036523Y21205000D01*
X-5036531Y21205000D01*
X-5080000Y21209281D01*
X-5123469Y21205000D01*
X-8523421Y21205000D01*
X-11229388Y23910966D01*
X-11207815Y24130000D01*
X-11236487Y24421111D01*
X-11321401Y24701034D01*
X-11459294Y24959014D01*
X-11644866Y25185134D01*
X-11870986Y25370706D01*
X-11925791Y25400000D01*
X-11870986Y25429294D01*
X-11742183Y25535000D01*
X-9360131Y25535000D01*
X-7191991Y23366859D01*
G36*
X1882000Y20447000D02*
G01*
X1902000Y20447000D01*
X1902000Y20193000D01*
X1882000Y20193000D01*
X1882000Y20173000D01*
X1718072Y20173000D01*
X1718072Y20467000D01*
X1882000Y20467000D01*
X1882000Y20447000D01*
X1882000Y20447000D01*
G37*
X1882000Y20447000D02*
X1902000Y20447000D01*
X1902000Y20193000D01*
X1882000Y20193000D01*
X1882000Y20173000D01*
X1718072Y20173000D01*
X1718072Y20467000D01*
X1882000Y20467000D01*
X1882000Y20447000D01*
G36*
X4934999Y21550197D02*
G01*
X4934999Y21488060D01*
X4974773Y21288101D01*
X5009195Y21205000D01*
X3853465Y21205000D01*
X3809999Y21209281D01*
X3766533Y21205000D01*
X3766523Y21205000D01*
X3636510Y21192195D01*
X3469687Y21141589D01*
X3315941Y21059411D01*
X3315939Y21059410D01*
X3315940Y21059410D01*
X3214953Y20976532D01*
X3214951Y20976530D01*
X3181183Y20948817D01*
X3153470Y20915049D01*
X2685000Y20446578D01*
X2685000Y20447002D01*
X2526252Y20447002D01*
X2685000Y20605750D01*
X2688072Y20640000D01*
X2675812Y20764482D01*
X2639502Y20884180D01*
X2580537Y20994494D01*
X2501185Y21091185D01*
X2404494Y21170537D01*
X2294180Y21229502D01*
X2174482Y21265812D01*
X2050000Y21278072D01*
X2040750Y21275000D01*
X1904040Y21138290D01*
X1913072Y21230000D01*
X1913072Y22290000D01*
X1900812Y22414482D01*
X1864502Y22534180D01*
X1805537Y22644494D01*
X1726185Y22741185D01*
X1629494Y22820537D01*
X1555665Y22860000D01*
X1629494Y22899463D01*
X1726185Y22978815D01*
X1805537Y23075506D01*
X1864502Y23185820D01*
X1900812Y23305518D01*
X1913072Y23430000D01*
X1913072Y23569365D01*
X1970023Y23757105D01*
X1990007Y23960000D01*
X1970023Y24162895D01*
X1960001Y24195933D01*
X1960001Y24525196D01*
X4934999Y21550197D01*
X4934999Y21550197D01*
G37*
X4934999Y21550197D02*
X4934999Y21488060D01*
X4974773Y21288101D01*
X5009195Y21205000D01*
X3853465Y21205000D01*
X3809999Y21209281D01*
X3766533Y21205000D01*
X3766523Y21205000D01*
X3636510Y21192195D01*
X3469687Y21141589D01*
X3315941Y21059411D01*
X3315939Y21059410D01*
X3315940Y21059410D01*
X3214953Y20976532D01*
X3214951Y20976530D01*
X3181183Y20948817D01*
X3153470Y20915049D01*
X2685000Y20446578D01*
X2685000Y20447002D01*
X2526252Y20447002D01*
X2685000Y20605750D01*
X2688072Y20640000D01*
X2675812Y20764482D01*
X2639502Y20884180D01*
X2580537Y20994494D01*
X2501185Y21091185D01*
X2404494Y21170537D01*
X2294180Y21229502D01*
X2174482Y21265812D01*
X2050000Y21278072D01*
X2040750Y21275000D01*
X1904040Y21138290D01*
X1913072Y21230000D01*
X1913072Y22290000D01*
X1900812Y22414482D01*
X1864502Y22534180D01*
X1805537Y22644494D01*
X1726185Y22741185D01*
X1629494Y22820537D01*
X1555665Y22860000D01*
X1629494Y22899463D01*
X1726185Y22978815D01*
X1805537Y23075506D01*
X1864502Y23185820D01*
X1900812Y23305518D01*
X1913072Y23430000D01*
X1913072Y23569365D01*
X1970023Y23757105D01*
X1990007Y23960000D01*
X1970023Y24162895D01*
X1960001Y24195933D01*
X1960001Y24525196D01*
X4934999Y21550197D01*
G36*
X35498Y23185820D02*
G01*
X94463Y23075506D01*
X127000Y23035859D01*
X127000Y22953750D01*
X264853Y22815897D01*
X173815Y22741185D01*
X94463Y22644494D01*
X35498Y22534180D01*
X0Y22417159D01*
X-35498Y22534180D01*
X-94463Y22644494D01*
X-173815Y22741185D01*
X-264853Y22815897D01*
X-127000Y22953750D01*
X-127000Y23035859D01*
X-94463Y23075506D01*
X-35498Y23185820D01*
X0Y23302841D01*
X35498Y23185820D01*
X35498Y23185820D01*
G37*
X35498Y23185820D02*
X94463Y23075506D01*
X127000Y23035859D01*
X127000Y22953750D01*
X264853Y22815897D01*
X173815Y22741185D01*
X94463Y22644494D01*
X35498Y22534180D01*
X0Y22417159D01*
X-35498Y22534180D01*
X-94463Y22644494D01*
X-173815Y22741185D01*
X-264853Y22815897D01*
X-127000Y22953750D01*
X-127000Y23035859D01*
X-94463Y23075506D01*
X-35498Y23185820D01*
X0Y23302841D01*
X35498Y23185820D01*
G36*
X2561928Y29759999D02*
G01*
X2578992Y29586745D01*
X2629528Y29420149D01*
X2697268Y29293416D01*
X2650000Y29298072D01*
X2350000Y29298072D01*
X2196255Y29282929D01*
X2048418Y29238084D01*
X2000000Y29212204D01*
X1951582Y29238084D01*
X1803745Y29282929D01*
X1650000Y29298072D01*
X1350000Y29298072D01*
X1196255Y29282929D01*
X1048418Y29238084D01*
X1000000Y29212204D01*
X951582Y29238084D01*
X803745Y29282929D01*
X650000Y29298072D01*
X350000Y29298072D01*
X196255Y29282929D01*
X48418Y29238084D01*
X0Y29212204D01*
X-48418Y29238084D01*
X-196255Y29282929D01*
X-350000Y29298072D01*
X-650000Y29298072D01*
X-803745Y29282929D01*
X-951582Y29238084D01*
X-1000000Y29212204D01*
X-1048418Y29238084D01*
X-1196255Y29282929D01*
X-1350000Y29298072D01*
X-1650000Y29298072D01*
X-1803745Y29282929D01*
X-1940658Y29241398D01*
X-1955820Y29249502D01*
X-2075518Y29285812D01*
X-2200000Y29298072D01*
X-2214250Y29295000D01*
X-2373000Y29136250D01*
X-2373000Y28821093D01*
X-2378084Y28811582D01*
X-2422929Y28663745D01*
X-2438072Y28510000D01*
X-2438072Y28325590D01*
X-2460841Y28282992D01*
X-2520024Y28087894D01*
X-2535000Y27935837D01*
X-2535000Y27738000D01*
X-2627000Y27738000D01*
X-2627000Y27758000D01*
X-2647000Y27758000D01*
X-2647000Y28012000D01*
X-2627000Y28012000D01*
X-2627000Y29136250D01*
X-2732225Y29241475D01*
X-2711595Y29266613D01*
X-2629528Y29420149D01*
X-2578992Y29586745D01*
X-2561928Y29759999D01*
X-2561928Y30840000D01*
X2561928Y30840000D01*
X2561928Y29759999D01*
X2561928Y29759999D01*
G37*
X2561928Y29759999D02*
X2578992Y29586745D01*
X2629528Y29420149D01*
X2697268Y29293416D01*
X2650000Y29298072D01*
X2350000Y29298072D01*
X2196255Y29282929D01*
X2048418Y29238084D01*
X2000000Y29212204D01*
X1951582Y29238084D01*
X1803745Y29282929D01*
X1650000Y29298072D01*
X1350000Y29298072D01*
X1196255Y29282929D01*
X1048418Y29238084D01*
X1000000Y29212204D01*
X951582Y29238084D01*
X803745Y29282929D01*
X650000Y29298072D01*
X350000Y29298072D01*
X196255Y29282929D01*
X48418Y29238084D01*
X0Y29212204D01*
X-48418Y29238084D01*
X-196255Y29282929D01*
X-350000Y29298072D01*
X-650000Y29298072D01*
X-803745Y29282929D01*
X-951582Y29238084D01*
X-1000000Y29212204D01*
X-1048418Y29238084D01*
X-1196255Y29282929D01*
X-1350000Y29298072D01*
X-1650000Y29298072D01*
X-1803745Y29282929D01*
X-1940658Y29241398D01*
X-1955820Y29249502D01*
X-2075518Y29285812D01*
X-2200000Y29298072D01*
X-2214250Y29295000D01*
X-2373000Y29136250D01*
X-2373000Y28821093D01*
X-2378084Y28811582D01*
X-2422929Y28663745D01*
X-2438072Y28510000D01*
X-2438072Y28325590D01*
X-2460841Y28282992D01*
X-2520024Y28087894D01*
X-2535000Y27935837D01*
X-2535000Y27738000D01*
X-2627000Y27738000D01*
X-2627000Y27758000D01*
X-2647000Y27758000D01*
X-2647000Y28012000D01*
X-2627000Y28012000D01*
X-2627000Y29136250D01*
X-2732225Y29241475D01*
X-2711595Y29266613D01*
X-2629528Y29420149D01*
X-2578992Y29586745D01*
X-2561928Y29759999D01*
X-2561928Y30840000D01*
X2561928Y30840000D01*
X2561928Y29759999D01*
G36*
X-18675563Y2114918D02*
G01*
X-18728522Y1940336D01*
X-18753178Y1690000D01*
X-18728522Y1439664D01*
X-18655502Y1198949D01*
X-18536924Y977104D01*
X-18377344Y782656D01*
X-18359000Y767601D01*
X-18359000Y72399D01*
X-18377344Y57344D01*
X-18536924Y-137104D01*
X-18624438Y-300832D01*
X-18829803Y-506197D01*
X-18845597Y-525443D01*
X-18857333Y-547399D01*
X-18864560Y-571224D01*
X-18867000Y-596000D01*
X-18867000Y-4208000D01*
X-23693000Y-4208000D01*
X-23693000Y1773000D01*
X-23167541Y1773000D01*
X-23077181Y1682640D01*
X-22941731Y1592135D01*
X-22791227Y1529794D01*
X-22631452Y1498012D01*
X-22468548Y1498012D01*
X-22308773Y1529794D01*
X-22158269Y1592135D01*
X-22022819Y1682640D01*
X-21907628Y1797831D01*
X-21817123Y1933281D01*
X-21754782Y2083785D01*
X-21723000Y2243560D01*
X-21723000Y2406464D01*
X-21754782Y2566239D01*
X-21817123Y2716743D01*
X-21889467Y2825014D01*
X-21817123Y2933284D01*
X-21771677Y3043000D01*
X-19603644Y3043000D01*
X-18675563Y2114918D01*
X-18675563Y2114918D01*
G37*
X-18675563Y2114918D02*
X-18728522Y1940336D01*
X-18753178Y1690000D01*
X-18728522Y1439664D01*
X-18655502Y1198949D01*
X-18536924Y977104D01*
X-18377344Y782656D01*
X-18359000Y767601D01*
X-18359000Y72399D01*
X-18377344Y57344D01*
X-18536924Y-137104D01*
X-18624438Y-300832D01*
X-18829803Y-506197D01*
X-18845597Y-525443D01*
X-18857333Y-547399D01*
X-18864560Y-571224D01*
X-18867000Y-596000D01*
X-18867000Y-4208000D01*
X-23693000Y-4208000D01*
X-23693000Y1773000D01*
X-23167541Y1773000D01*
X-23077181Y1682640D01*
X-22941731Y1592135D01*
X-22791227Y1529794D01*
X-22631452Y1498012D01*
X-22468548Y1498012D01*
X-22308773Y1529794D01*
X-22158269Y1592135D01*
X-22022819Y1682640D01*
X-21907628Y1797831D01*
X-21817123Y1933281D01*
X-21754782Y2083785D01*
X-21723000Y2243560D01*
X-21723000Y2406464D01*
X-21754782Y2566239D01*
X-21817123Y2716743D01*
X-21889467Y2825014D01*
X-21817123Y2933284D01*
X-21771677Y3043000D01*
X-19603644Y3043000D01*
X-18675563Y2114918D01*
G36*
X-16652000Y2670667D02*
G01*
X-16757104Y2756924D01*
X-16978949Y2875502D01*
X-17219664Y2948522D01*
X-17407274Y2967000D01*
X-17532726Y2967000D01*
X-17720336Y2948522D01*
X-17894918Y2895563D01*
X-18965500Y3966144D01*
X-18982789Y3987211D01*
X-19066842Y4056191D01*
X-19162737Y4107448D01*
X-19266789Y4139012D01*
X-19347891Y4147000D01*
X-19347894Y4147000D01*
X-19375000Y4149670D01*
X-19402106Y4147000D01*
X-22169000Y4147000D01*
X-22169000Y5048000D01*
X-16652000Y5048000D01*
X-16652000Y2670667D01*
X-16652000Y2670667D01*
G37*
X-16652000Y2670667D02*
X-16757104Y2756924D01*
X-16978949Y2875502D01*
X-17219664Y2948522D01*
X-17407274Y2967000D01*
X-17532726Y2967000D01*
X-17720336Y2948522D01*
X-17894918Y2895563D01*
X-18965500Y3966144D01*
X-18982789Y3987211D01*
X-19066842Y4056191D01*
X-19162737Y4107448D01*
X-19266789Y4139012D01*
X-19347891Y4147000D01*
X-19347894Y4147000D01*
X-19375000Y4149670D01*
X-19402106Y4147000D01*
X-22169000Y4147000D01*
X-22169000Y5048000D01*
X-16652000Y5048000D01*
X-16652000Y2670667D01*
M02*
