M48
; DRILL file {KiCad (5.1.4)-1} date 2021/07/20 22:26:51
; FORMAT={-:-/ absolute / metric / decimal}
; #@! TF.CreationDate,2021-07-20T22:26:51+09:00
; #@! TF.GenerationSoftware,Kicad,Pcbnew,(5.1.4)-1
FMAT,2
METRIC
T1C0.400
T2C1.000
T3C2.200
%
G90
G05
T1
X-23.035Y4.23
X-22.55Y3.325
X-22.55Y2.325
X-21.28Y4.357
X-19.908Y2.858
X-19.756Y-2.374
X-19.756Y-3.771
X-18.74Y0.42
X-12.7Y10.11
X-12.7Y-5.08
X-12.7Y-7.62
X-12.7Y-10.16
X-12.7Y-12.7
X-9.525Y-8.89
X-9.525Y-12.7
X-9.27Y3.81
X-8.89Y22.225
X-8.89Y17.78
X-8.89Y11.43
X-8.89Y6.35
X-7.62Y23.495
X-6.35Y8.89
X-6.35Y-6.35
X-5.97Y6.35
X-5.97Y1.27
X-5.46Y24.13
X-5.46Y19.05
X-5.46Y-1.27
X-3.81Y8.89
X-3.81Y6.35
X-3.81Y-6.35
X-3.175Y20.32
X-2.54Y-11.43
X-2.16Y21.59
X-2.16Y16.51
X-2.16Y-3.81
X-1.905Y29.845
X-1.905Y3.81
X-1.27Y8.89
X-1.27Y6.35
X-0.5Y27.885
X0.0Y29.845
X0.0Y22.86
X0.5Y27.885
X1.905Y29.845
X2.159Y13.208
X2.159Y9.652
X2.16Y1.27
X2.16Y-19.05
X2.16Y-24.13
X3.62Y3.62
X3.81Y-6.35
X5.08Y8.255
X5.46Y-1.27
X5.46Y-16.51
X5.46Y-21.59
X5.97Y21.59
X5.97Y16.51
X5.97Y11.43
X5.97Y1.27
X5.97Y-3.81
X6.35Y-6.35
X8.89Y16.51
X8.89Y6.475
X8.89Y-13.97
X9.27Y24.13
X9.525Y26.67
X9.525Y21.59
X11.05Y6.35
X11.43Y-13.97
X12.065Y9.525
X12.7Y13.97
X13.97Y-13.97
X14.35Y3.81
X14.35Y-1.27
X1.85Y-33.0
X2.333Y-31.833
X2.333Y-34.167
X3.5Y-31.35
X3.5Y-34.65
X4.667Y-31.833
X4.667Y-34.167
X5.15Y-33.0
X-5.15Y-33.0
X-4.667Y-31.833
X-4.667Y-34.167
X-3.5Y-31.35
X-3.5Y-34.65
X-2.333Y-31.833
X-2.333Y-34.167
X-1.85Y-33.0
T2
X-12.7Y-16.51
X-12.7Y-19.05
X-12.7Y-21.59
X-12.7Y-24.13
X-12.7Y-26.67
X-12.7Y-29.21
X-12.7Y2.54
X-12.7Y0.0
X-12.7Y-2.54
X12.7Y29.21
X12.7Y26.67
X12.7Y24.13
X12.7Y21.59
X12.7Y19.05
X12.7Y16.51
X-17.47Y4.23
X-17.47Y1.69
X-17.47Y-0.85
X-17.47Y-3.39
X12.7Y-16.51
X12.7Y-19.05
X12.7Y-21.59
X12.7Y-24.13
X12.7Y-26.67
X12.7Y-29.21
X-12.7Y29.21
X-12.7Y26.67
X-12.7Y24.13
X-12.7Y21.59
X-12.7Y19.05
X-12.7Y16.51
X-25.09Y4.23
X-25.09Y1.69
X-25.09Y-0.85
X-25.09Y-3.39
T3
X3.5Y-33.0
X-3.5Y-33.0
T0
M30
