G04 #@! TF.GenerationSoftware,KiCad,Pcbnew,(5.1.4)-1*
G04 #@! TF.CreationDate,2021-07-20T22:26:21+09:00*
G04 #@! TF.ProjectId,UAV2021_ver3_panelizing,55415632-3032-4315-9f76-6572335f7061,rev?*
G04 #@! TF.SameCoordinates,Original*
G04 #@! TF.FileFunction,Soldermask,Bot*
G04 #@! TF.FilePolarity,Negative*
%FSLAX46Y46*%
G04 Gerber Fmt 4.6, Leading zero omitted, Abs format (unit mm)*
G04 Created by KiCad (PCBNEW (5.1.4)-1) date 2021-07-20 22:26:21*
%MOMM*%
%LPD*%
G04 APERTURE LIST*
%ADD10C,0.100000*%
G04 APERTURE END LIST*
D10*
G36*
X3775880Y-30759776D02*
G01*
X4156593Y-30835504D01*
X4566249Y-31005189D01*
X4934929Y-31251534D01*
X5248466Y-31565071D01*
X5494811Y-31933751D01*
X5664496Y-32343407D01*
X5751000Y-32778296D01*
X5751000Y-33221704D01*
X5664496Y-33656593D01*
X5494811Y-34066249D01*
X5248466Y-34434929D01*
X4934929Y-34748466D01*
X4566249Y-34994811D01*
X4156593Y-35164496D01*
X3775880Y-35240224D01*
X3721705Y-35251000D01*
X3278295Y-35251000D01*
X3224120Y-35240224D01*
X2843407Y-35164496D01*
X2433751Y-34994811D01*
X2065071Y-34748466D01*
X1751534Y-34434929D01*
X1505189Y-34066249D01*
X1335504Y-33656593D01*
X1249000Y-33221704D01*
X1249000Y-32778296D01*
X1335504Y-32343407D01*
X1505189Y-31933751D01*
X1751534Y-31565071D01*
X2065071Y-31251534D01*
X2433751Y-31005189D01*
X2843407Y-30835504D01*
X3224120Y-30759776D01*
X3278295Y-30749000D01*
X3721705Y-30749000D01*
X3775880Y-30759776D01*
X3775880Y-30759776D01*
G37*
G36*
X-3224120Y-30759776D02*
G01*
X-2843407Y-30835504D01*
X-2433751Y-31005189D01*
X-2065071Y-31251534D01*
X-1751534Y-31565071D01*
X-1505189Y-31933751D01*
X-1335504Y-32343407D01*
X-1249000Y-32778296D01*
X-1249000Y-33221704D01*
X-1335504Y-33656593D01*
X-1505189Y-34066249D01*
X-1751534Y-34434929D01*
X-2065071Y-34748466D01*
X-2433751Y-34994811D01*
X-2843407Y-35164496D01*
X-3224120Y-35240224D01*
X-3278295Y-35251000D01*
X-3721705Y-35251000D01*
X-3775880Y-35240224D01*
X-4156593Y-35164496D01*
X-4566249Y-34994811D01*
X-4934929Y-34748466D01*
X-5248466Y-34434929D01*
X-5494811Y-34066249D01*
X-5664496Y-33656593D01*
X-5751000Y-33221704D01*
X-5751000Y-32778296D01*
X-5664496Y-32343407D01*
X-5494811Y-31933751D01*
X-5248466Y-31565071D01*
X-4934929Y-31251534D01*
X-4566249Y-31005189D01*
X-4156593Y-30835504D01*
X-3775880Y-30759776D01*
X-3721705Y-30749000D01*
X-3278295Y-30749000D01*
X-3224120Y-30759776D01*
X-3224120Y-30759776D01*
G37*
G36*
X-12589558Y-28315518D02*
G01*
X-12523373Y-28322037D01*
X-12353534Y-28373557D01*
X-12197009Y-28457222D01*
X-12161271Y-28486552D01*
X-12059814Y-28569814D01*
X-11976552Y-28671271D01*
X-11947222Y-28707009D01*
X-11863557Y-28863534D01*
X-11812037Y-29033373D01*
X-11794641Y-29210000D01*
X-11812037Y-29386627D01*
X-11863557Y-29556466D01*
X-11947222Y-29712991D01*
X-11976552Y-29748729D01*
X-12059814Y-29850186D01*
X-12161271Y-29933448D01*
X-12197009Y-29962778D01*
X-12353534Y-30046443D01*
X-12523373Y-30097963D01*
X-12589558Y-30104482D01*
X-12655740Y-30111000D01*
X-12744260Y-30111000D01*
X-12810442Y-30104482D01*
X-12876627Y-30097963D01*
X-13046466Y-30046443D01*
X-13202991Y-29962778D01*
X-13238729Y-29933448D01*
X-13340186Y-29850186D01*
X-13423448Y-29748729D01*
X-13452778Y-29712991D01*
X-13536443Y-29556466D01*
X-13587963Y-29386627D01*
X-13605359Y-29210000D01*
X-13587963Y-29033373D01*
X-13536443Y-28863534D01*
X-13452778Y-28707009D01*
X-13423448Y-28671271D01*
X-13340186Y-28569814D01*
X-13238729Y-28486552D01*
X-13202991Y-28457222D01*
X-13046466Y-28373557D01*
X-12876627Y-28322037D01*
X-12810442Y-28315518D01*
X-12744260Y-28309000D01*
X-12655740Y-28309000D01*
X-12589558Y-28315518D01*
X-12589558Y-28315518D01*
G37*
G36*
X12810442Y-28315518D02*
G01*
X12876627Y-28322037D01*
X13046466Y-28373557D01*
X13202991Y-28457222D01*
X13238729Y-28486552D01*
X13340186Y-28569814D01*
X13423448Y-28671271D01*
X13452778Y-28707009D01*
X13536443Y-28863534D01*
X13587963Y-29033373D01*
X13605359Y-29210000D01*
X13587963Y-29386627D01*
X13536443Y-29556466D01*
X13452778Y-29712991D01*
X13423448Y-29748729D01*
X13340186Y-29850186D01*
X13238729Y-29933448D01*
X13202991Y-29962778D01*
X13046466Y-30046443D01*
X12876627Y-30097963D01*
X12810442Y-30104482D01*
X12744260Y-30111000D01*
X12655740Y-30111000D01*
X12589558Y-30104482D01*
X12523373Y-30097963D01*
X12353534Y-30046443D01*
X12197009Y-29962778D01*
X12161271Y-29933448D01*
X12059814Y-29850186D01*
X11976552Y-29748729D01*
X11947222Y-29712991D01*
X11863557Y-29556466D01*
X11812037Y-29386627D01*
X11794641Y-29210000D01*
X11812037Y-29033373D01*
X11863557Y-28863534D01*
X11947222Y-28707009D01*
X11976552Y-28671271D01*
X12059814Y-28569814D01*
X12161271Y-28486552D01*
X12197009Y-28457222D01*
X12353534Y-28373557D01*
X12523373Y-28322037D01*
X12589558Y-28315518D01*
X12655740Y-28309000D01*
X12744260Y-28309000D01*
X12810442Y-28315518D01*
X12810442Y-28315518D01*
G37*
G36*
X-12589557Y-25775519D02*
G01*
X-12523373Y-25782037D01*
X-12353534Y-25833557D01*
X-12197009Y-25917222D01*
X-12161271Y-25946552D01*
X-12059814Y-26029814D01*
X-11976552Y-26131271D01*
X-11947222Y-26167009D01*
X-11863557Y-26323534D01*
X-11812037Y-26493373D01*
X-11794641Y-26670000D01*
X-11812037Y-26846627D01*
X-11863557Y-27016466D01*
X-11947222Y-27172991D01*
X-11976552Y-27208729D01*
X-12059814Y-27310186D01*
X-12161271Y-27393448D01*
X-12197009Y-27422778D01*
X-12353534Y-27506443D01*
X-12523373Y-27557963D01*
X-12589558Y-27564482D01*
X-12655740Y-27571000D01*
X-12744260Y-27571000D01*
X-12810442Y-27564482D01*
X-12876627Y-27557963D01*
X-13046466Y-27506443D01*
X-13202991Y-27422778D01*
X-13238729Y-27393448D01*
X-13340186Y-27310186D01*
X-13423448Y-27208729D01*
X-13452778Y-27172991D01*
X-13536443Y-27016466D01*
X-13587963Y-26846627D01*
X-13605359Y-26670000D01*
X-13587963Y-26493373D01*
X-13536443Y-26323534D01*
X-13452778Y-26167009D01*
X-13423448Y-26131271D01*
X-13340186Y-26029814D01*
X-13238729Y-25946552D01*
X-13202991Y-25917222D01*
X-13046466Y-25833557D01*
X-12876627Y-25782037D01*
X-12810442Y-25775518D01*
X-12744260Y-25769000D01*
X-12655740Y-25769000D01*
X-12589557Y-25775519D01*
X-12589557Y-25775519D01*
G37*
G36*
X12810442Y-25775518D02*
G01*
X12876627Y-25782037D01*
X13046466Y-25833557D01*
X13202991Y-25917222D01*
X13238729Y-25946552D01*
X13340186Y-26029814D01*
X13423448Y-26131271D01*
X13452778Y-26167009D01*
X13536443Y-26323534D01*
X13587963Y-26493373D01*
X13605359Y-26670000D01*
X13587963Y-26846627D01*
X13536443Y-27016466D01*
X13452778Y-27172991D01*
X13423448Y-27208729D01*
X13340186Y-27310186D01*
X13238729Y-27393448D01*
X13202991Y-27422778D01*
X13046466Y-27506443D01*
X12876627Y-27557963D01*
X12810442Y-27564482D01*
X12744260Y-27571000D01*
X12655740Y-27571000D01*
X12589558Y-27564482D01*
X12523373Y-27557963D01*
X12353534Y-27506443D01*
X12197009Y-27422778D01*
X12161271Y-27393448D01*
X12059814Y-27310186D01*
X11976552Y-27208729D01*
X11947222Y-27172991D01*
X11863557Y-27016466D01*
X11812037Y-26846627D01*
X11794641Y-26670000D01*
X11812037Y-26493373D01*
X11863557Y-26323534D01*
X11947222Y-26167009D01*
X11976552Y-26131271D01*
X12059814Y-26029814D01*
X12161271Y-25946552D01*
X12197009Y-25917222D01*
X12353534Y-25833557D01*
X12523373Y-25782037D01*
X12589557Y-25775519D01*
X12655740Y-25769000D01*
X12744260Y-25769000D01*
X12810442Y-25775518D01*
X12810442Y-25775518D01*
G37*
G36*
X-12589558Y-23235518D02*
G01*
X-12523373Y-23242037D01*
X-12353534Y-23293557D01*
X-12197009Y-23377222D01*
X-12161271Y-23406552D01*
X-12059814Y-23489814D01*
X-11976552Y-23591271D01*
X-11947222Y-23627009D01*
X-11863557Y-23783534D01*
X-11812037Y-23953373D01*
X-11794641Y-24130000D01*
X-11812037Y-24306627D01*
X-11863557Y-24476466D01*
X-11947222Y-24632991D01*
X-11976552Y-24668729D01*
X-12059814Y-24770186D01*
X-12161271Y-24853448D01*
X-12197009Y-24882778D01*
X-12353534Y-24966443D01*
X-12523373Y-25017963D01*
X-12589557Y-25024481D01*
X-12655740Y-25031000D01*
X-12744260Y-25031000D01*
X-12810443Y-25024481D01*
X-12876627Y-25017963D01*
X-13046466Y-24966443D01*
X-13202991Y-24882778D01*
X-13238729Y-24853448D01*
X-13340186Y-24770186D01*
X-13423448Y-24668729D01*
X-13452778Y-24632991D01*
X-13536443Y-24476466D01*
X-13587963Y-24306627D01*
X-13605359Y-24130000D01*
X-13587963Y-23953373D01*
X-13536443Y-23783534D01*
X-13452778Y-23627009D01*
X-13423448Y-23591271D01*
X-13340186Y-23489814D01*
X-13238729Y-23406552D01*
X-13202991Y-23377222D01*
X-13046466Y-23293557D01*
X-12876627Y-23242037D01*
X-12810442Y-23235518D01*
X-12744260Y-23229000D01*
X-12655740Y-23229000D01*
X-12589558Y-23235518D01*
X-12589558Y-23235518D01*
G37*
G36*
X12810442Y-23235518D02*
G01*
X12876627Y-23242037D01*
X13046466Y-23293557D01*
X13202991Y-23377222D01*
X13238729Y-23406552D01*
X13340186Y-23489814D01*
X13423448Y-23591271D01*
X13452778Y-23627009D01*
X13536443Y-23783534D01*
X13587963Y-23953373D01*
X13605359Y-24130000D01*
X13587963Y-24306627D01*
X13536443Y-24476466D01*
X13452778Y-24632991D01*
X13423448Y-24668729D01*
X13340186Y-24770186D01*
X13238729Y-24853448D01*
X13202991Y-24882778D01*
X13046466Y-24966443D01*
X12876627Y-25017963D01*
X12810443Y-25024481D01*
X12744260Y-25031000D01*
X12655740Y-25031000D01*
X12589557Y-25024481D01*
X12523373Y-25017963D01*
X12353534Y-24966443D01*
X12197009Y-24882778D01*
X12161271Y-24853448D01*
X12059814Y-24770186D01*
X11976552Y-24668729D01*
X11947222Y-24632991D01*
X11863557Y-24476466D01*
X11812037Y-24306627D01*
X11794641Y-24130000D01*
X11812037Y-23953373D01*
X11863557Y-23783534D01*
X11947222Y-23627009D01*
X11976552Y-23591271D01*
X12059814Y-23489814D01*
X12161271Y-23406552D01*
X12197009Y-23377222D01*
X12353534Y-23293557D01*
X12523373Y-23242037D01*
X12589558Y-23235518D01*
X12655740Y-23229000D01*
X12744260Y-23229000D01*
X12810442Y-23235518D01*
X12810442Y-23235518D01*
G37*
G36*
X12810443Y-20695519D02*
G01*
X12876627Y-20702037D01*
X13046466Y-20753557D01*
X13202991Y-20837222D01*
X13238729Y-20866552D01*
X13340186Y-20949814D01*
X13423448Y-21051271D01*
X13452778Y-21087009D01*
X13536443Y-21243534D01*
X13587963Y-21413373D01*
X13605359Y-21590000D01*
X13587963Y-21766627D01*
X13536443Y-21936466D01*
X13452778Y-22092991D01*
X13423448Y-22128729D01*
X13340186Y-22230186D01*
X13238729Y-22313448D01*
X13202991Y-22342778D01*
X13046466Y-22426443D01*
X12876627Y-22477963D01*
X12810442Y-22484482D01*
X12744260Y-22491000D01*
X12655740Y-22491000D01*
X12589558Y-22484482D01*
X12523373Y-22477963D01*
X12353534Y-22426443D01*
X12197009Y-22342778D01*
X12161271Y-22313448D01*
X12059814Y-22230186D01*
X11976552Y-22128729D01*
X11947222Y-22092991D01*
X11863557Y-21936466D01*
X11812037Y-21766627D01*
X11794641Y-21590000D01*
X11812037Y-21413373D01*
X11863557Y-21243534D01*
X11947222Y-21087009D01*
X11976552Y-21051271D01*
X12059814Y-20949814D01*
X12161271Y-20866552D01*
X12197009Y-20837222D01*
X12353534Y-20753557D01*
X12523373Y-20702037D01*
X12589557Y-20695519D01*
X12655740Y-20689000D01*
X12744260Y-20689000D01*
X12810443Y-20695519D01*
X12810443Y-20695519D01*
G37*
G36*
X-12589557Y-20695519D02*
G01*
X-12523373Y-20702037D01*
X-12353534Y-20753557D01*
X-12197009Y-20837222D01*
X-12161271Y-20866552D01*
X-12059814Y-20949814D01*
X-11976552Y-21051271D01*
X-11947222Y-21087009D01*
X-11863557Y-21243534D01*
X-11812037Y-21413373D01*
X-11794641Y-21590000D01*
X-11812037Y-21766627D01*
X-11863557Y-21936466D01*
X-11947222Y-22092991D01*
X-11976552Y-22128729D01*
X-12059814Y-22230186D01*
X-12161271Y-22313448D01*
X-12197009Y-22342778D01*
X-12353534Y-22426443D01*
X-12523373Y-22477963D01*
X-12589558Y-22484482D01*
X-12655740Y-22491000D01*
X-12744260Y-22491000D01*
X-12810442Y-22484482D01*
X-12876627Y-22477963D01*
X-13046466Y-22426443D01*
X-13202991Y-22342778D01*
X-13238729Y-22313448D01*
X-13340186Y-22230186D01*
X-13423448Y-22128729D01*
X-13452778Y-22092991D01*
X-13536443Y-21936466D01*
X-13587963Y-21766627D01*
X-13605359Y-21590000D01*
X-13587963Y-21413373D01*
X-13536443Y-21243534D01*
X-13452778Y-21087009D01*
X-13423448Y-21051271D01*
X-13340186Y-20949814D01*
X-13238729Y-20866552D01*
X-13202991Y-20837222D01*
X-13046466Y-20753557D01*
X-12876627Y-20702037D01*
X-12810443Y-20695519D01*
X-12744260Y-20689000D01*
X-12655740Y-20689000D01*
X-12589557Y-20695519D01*
X-12589557Y-20695519D01*
G37*
G36*
X-12589558Y-18155518D02*
G01*
X-12523373Y-18162037D01*
X-12353534Y-18213557D01*
X-12197009Y-18297222D01*
X-12161271Y-18326552D01*
X-12059814Y-18409814D01*
X-11976552Y-18511271D01*
X-11947222Y-18547009D01*
X-11863557Y-18703534D01*
X-11812037Y-18873373D01*
X-11794641Y-19050000D01*
X-11812037Y-19226627D01*
X-11863557Y-19396466D01*
X-11947222Y-19552991D01*
X-11976552Y-19588729D01*
X-12059814Y-19690186D01*
X-12161271Y-19773448D01*
X-12197009Y-19802778D01*
X-12353534Y-19886443D01*
X-12523373Y-19937963D01*
X-12589558Y-19944482D01*
X-12655740Y-19951000D01*
X-12744260Y-19951000D01*
X-12810442Y-19944482D01*
X-12876627Y-19937963D01*
X-13046466Y-19886443D01*
X-13202991Y-19802778D01*
X-13238729Y-19773448D01*
X-13340186Y-19690186D01*
X-13423448Y-19588729D01*
X-13452778Y-19552991D01*
X-13536443Y-19396466D01*
X-13587963Y-19226627D01*
X-13605359Y-19050000D01*
X-13587963Y-18873373D01*
X-13536443Y-18703534D01*
X-13452778Y-18547009D01*
X-13423448Y-18511271D01*
X-13340186Y-18409814D01*
X-13238729Y-18326552D01*
X-13202991Y-18297222D01*
X-13046466Y-18213557D01*
X-12876627Y-18162037D01*
X-12810442Y-18155518D01*
X-12744260Y-18149000D01*
X-12655740Y-18149000D01*
X-12589558Y-18155518D01*
X-12589558Y-18155518D01*
G37*
G36*
X12810442Y-18155518D02*
G01*
X12876627Y-18162037D01*
X13046466Y-18213557D01*
X13202991Y-18297222D01*
X13238729Y-18326552D01*
X13340186Y-18409814D01*
X13423448Y-18511271D01*
X13452778Y-18547009D01*
X13536443Y-18703534D01*
X13587963Y-18873373D01*
X13605359Y-19050000D01*
X13587963Y-19226627D01*
X13536443Y-19396466D01*
X13452778Y-19552991D01*
X13423448Y-19588729D01*
X13340186Y-19690186D01*
X13238729Y-19773448D01*
X13202991Y-19802778D01*
X13046466Y-19886443D01*
X12876627Y-19937963D01*
X12810442Y-19944482D01*
X12744260Y-19951000D01*
X12655740Y-19951000D01*
X12589558Y-19944482D01*
X12523373Y-19937963D01*
X12353534Y-19886443D01*
X12197009Y-19802778D01*
X12161271Y-19773448D01*
X12059814Y-19690186D01*
X11976552Y-19588729D01*
X11947222Y-19552991D01*
X11863557Y-19396466D01*
X11812037Y-19226627D01*
X11794641Y-19050000D01*
X11812037Y-18873373D01*
X11863557Y-18703534D01*
X11947222Y-18547009D01*
X11976552Y-18511271D01*
X12059814Y-18409814D01*
X12161271Y-18326552D01*
X12197009Y-18297222D01*
X12353534Y-18213557D01*
X12523373Y-18162037D01*
X12589558Y-18155518D01*
X12655740Y-18149000D01*
X12744260Y-18149000D01*
X12810442Y-18155518D01*
X12810442Y-18155518D01*
G37*
G36*
X-11799000Y-17411000D02*
G01*
X-13601000Y-17411000D01*
X-13601000Y-15609000D01*
X-11799000Y-15609000D01*
X-11799000Y-17411000D01*
X-11799000Y-17411000D01*
G37*
G36*
X13601000Y-17411000D02*
G01*
X11799000Y-17411000D01*
X11799000Y-15609000D01*
X13601000Y-15609000D01*
X13601000Y-17411000D01*
X13601000Y-17411000D01*
G37*
G36*
X-24979557Y-2495519D02*
G01*
X-24913373Y-2502037D01*
X-24743534Y-2553557D01*
X-24587009Y-2637222D01*
X-24551271Y-2666552D01*
X-24449814Y-2749814D01*
X-24366552Y-2851271D01*
X-24337222Y-2887009D01*
X-24253557Y-3043534D01*
X-24202037Y-3213373D01*
X-24184641Y-3390000D01*
X-24202037Y-3566627D01*
X-24253557Y-3736466D01*
X-24337222Y-3892991D01*
X-24366552Y-3928729D01*
X-24449814Y-4030186D01*
X-24551271Y-4113448D01*
X-24587009Y-4142778D01*
X-24743534Y-4226443D01*
X-24913373Y-4277963D01*
X-24979558Y-4284482D01*
X-25045740Y-4291000D01*
X-25134260Y-4291000D01*
X-25200442Y-4284482D01*
X-25266627Y-4277963D01*
X-25436466Y-4226443D01*
X-25592991Y-4142778D01*
X-25628729Y-4113448D01*
X-25730186Y-4030186D01*
X-25813448Y-3928729D01*
X-25842778Y-3892991D01*
X-25926443Y-3736466D01*
X-25977963Y-3566627D01*
X-25995359Y-3390000D01*
X-25977963Y-3213373D01*
X-25926443Y-3043534D01*
X-25842778Y-2887009D01*
X-25813448Y-2851271D01*
X-25730186Y-2749814D01*
X-25628729Y-2666552D01*
X-25592991Y-2637222D01*
X-25436466Y-2553557D01*
X-25266627Y-2502037D01*
X-25200443Y-2495519D01*
X-25134260Y-2489000D01*
X-25045740Y-2489000D01*
X-24979557Y-2495519D01*
X-24979557Y-2495519D01*
G37*
G36*
X-17359557Y-2495519D02*
G01*
X-17293373Y-2502037D01*
X-17123534Y-2553557D01*
X-16967009Y-2637222D01*
X-16931271Y-2666552D01*
X-16829814Y-2749814D01*
X-16746552Y-2851271D01*
X-16717222Y-2887009D01*
X-16633557Y-3043534D01*
X-16582037Y-3213373D01*
X-16564641Y-3390000D01*
X-16582037Y-3566627D01*
X-16633557Y-3736466D01*
X-16717222Y-3892991D01*
X-16746552Y-3928729D01*
X-16829814Y-4030186D01*
X-16931271Y-4113448D01*
X-16967009Y-4142778D01*
X-17123534Y-4226443D01*
X-17293373Y-4277963D01*
X-17359558Y-4284482D01*
X-17425740Y-4291000D01*
X-17514260Y-4291000D01*
X-17580442Y-4284482D01*
X-17646627Y-4277963D01*
X-17816466Y-4226443D01*
X-17972991Y-4142778D01*
X-18008729Y-4113448D01*
X-18110186Y-4030186D01*
X-18193448Y-3928729D01*
X-18222778Y-3892991D01*
X-18306443Y-3736466D01*
X-18357963Y-3566627D01*
X-18375359Y-3390000D01*
X-18357963Y-3213373D01*
X-18306443Y-3043534D01*
X-18222778Y-2887009D01*
X-18193448Y-2851271D01*
X-18110186Y-2749814D01*
X-18008729Y-2666552D01*
X-17972991Y-2637222D01*
X-17816466Y-2553557D01*
X-17646627Y-2502037D01*
X-17580443Y-2495519D01*
X-17514260Y-2489000D01*
X-17425740Y-2489000D01*
X-17359557Y-2495519D01*
X-17359557Y-2495519D01*
G37*
G36*
X-12589557Y-1645519D02*
G01*
X-12523373Y-1652037D01*
X-12353534Y-1703557D01*
X-12197009Y-1787222D01*
X-12161271Y-1816552D01*
X-12059814Y-1899814D01*
X-11976552Y-2001271D01*
X-11947222Y-2037009D01*
X-11863557Y-2193534D01*
X-11812037Y-2363373D01*
X-11794641Y-2540000D01*
X-11812037Y-2716627D01*
X-11863557Y-2886466D01*
X-11947222Y-3042991D01*
X-11947668Y-3043534D01*
X-12059814Y-3180186D01*
X-12161271Y-3263448D01*
X-12197009Y-3292778D01*
X-12353534Y-3376443D01*
X-12523373Y-3427963D01*
X-12589557Y-3434481D01*
X-12655740Y-3441000D01*
X-12744260Y-3441000D01*
X-12810443Y-3434481D01*
X-12876627Y-3427963D01*
X-13046466Y-3376443D01*
X-13202991Y-3292778D01*
X-13238729Y-3263448D01*
X-13340186Y-3180186D01*
X-13452332Y-3043534D01*
X-13452778Y-3042991D01*
X-13536443Y-2886466D01*
X-13587963Y-2716627D01*
X-13605359Y-2540000D01*
X-13587963Y-2363373D01*
X-13536443Y-2193534D01*
X-13452778Y-2037009D01*
X-13423448Y-2001271D01*
X-13340186Y-1899814D01*
X-13238729Y-1816552D01*
X-13202991Y-1787222D01*
X-13046466Y-1703557D01*
X-12876627Y-1652037D01*
X-12810443Y-1645519D01*
X-12744260Y-1639000D01*
X-12655740Y-1639000D01*
X-12589557Y-1645519D01*
X-12589557Y-1645519D01*
G37*
G36*
X-17359557Y44481D02*
G01*
X-17293373Y37963D01*
X-17123534Y-13557D01*
X-16967009Y-97222D01*
X-16931271Y-126552D01*
X-16829814Y-209814D01*
X-16746552Y-311271D01*
X-16717222Y-347009D01*
X-16633557Y-503534D01*
X-16582037Y-673373D01*
X-16564641Y-850000D01*
X-16582037Y-1026627D01*
X-16633557Y-1196466D01*
X-16717222Y-1352991D01*
X-16746552Y-1388729D01*
X-16829814Y-1490186D01*
X-16931271Y-1573448D01*
X-16967009Y-1602778D01*
X-17123534Y-1686443D01*
X-17293373Y-1737963D01*
X-17359557Y-1744481D01*
X-17425740Y-1751000D01*
X-17514260Y-1751000D01*
X-17580443Y-1744481D01*
X-17646627Y-1737963D01*
X-17816466Y-1686443D01*
X-17972991Y-1602778D01*
X-18008729Y-1573448D01*
X-18110186Y-1490186D01*
X-18193448Y-1388729D01*
X-18222778Y-1352991D01*
X-18306443Y-1196466D01*
X-18357963Y-1026627D01*
X-18375359Y-850000D01*
X-18357963Y-673373D01*
X-18306443Y-503534D01*
X-18222778Y-347009D01*
X-18193448Y-311271D01*
X-18110186Y-209814D01*
X-18008729Y-126552D01*
X-17972991Y-97222D01*
X-17816466Y-13557D01*
X-17646627Y37963D01*
X-17580443Y44481D01*
X-17514260Y51000D01*
X-17425740Y51000D01*
X-17359557Y44481D01*
X-17359557Y44481D01*
G37*
G36*
X-24979557Y44481D02*
G01*
X-24913373Y37963D01*
X-24743534Y-13557D01*
X-24587009Y-97222D01*
X-24551271Y-126552D01*
X-24449814Y-209814D01*
X-24366552Y-311271D01*
X-24337222Y-347009D01*
X-24253557Y-503534D01*
X-24202037Y-673373D01*
X-24184641Y-850000D01*
X-24202037Y-1026627D01*
X-24253557Y-1196466D01*
X-24337222Y-1352991D01*
X-24366552Y-1388729D01*
X-24449814Y-1490186D01*
X-24551271Y-1573448D01*
X-24587009Y-1602778D01*
X-24743534Y-1686443D01*
X-24913373Y-1737963D01*
X-24979557Y-1744481D01*
X-25045740Y-1751000D01*
X-25134260Y-1751000D01*
X-25200443Y-1744481D01*
X-25266627Y-1737963D01*
X-25436466Y-1686443D01*
X-25592991Y-1602778D01*
X-25628729Y-1573448D01*
X-25730186Y-1490186D01*
X-25813448Y-1388729D01*
X-25842778Y-1352991D01*
X-25926443Y-1196466D01*
X-25977963Y-1026627D01*
X-25995359Y-850000D01*
X-25977963Y-673373D01*
X-25926443Y-503534D01*
X-25842778Y-347009D01*
X-25813448Y-311271D01*
X-25730186Y-209814D01*
X-25628729Y-126552D01*
X-25592991Y-97222D01*
X-25436466Y-13557D01*
X-25266627Y37963D01*
X-25200443Y44481D01*
X-25134260Y51000D01*
X-25045740Y51000D01*
X-24979557Y44481D01*
X-24979557Y44481D01*
G37*
G36*
X-12589558Y894482D02*
G01*
X-12523373Y887963D01*
X-12353534Y836443D01*
X-12197009Y752778D01*
X-12161271Y723448D01*
X-12059814Y640186D01*
X-11976552Y538729D01*
X-11947222Y502991D01*
X-11863557Y346466D01*
X-11812037Y176627D01*
X-11794641Y0D01*
X-11812037Y-176627D01*
X-11863557Y-346466D01*
X-11947222Y-502991D01*
X-11947668Y-503534D01*
X-12059814Y-640186D01*
X-12161271Y-723448D01*
X-12197009Y-752778D01*
X-12353534Y-836443D01*
X-12523373Y-887963D01*
X-12589558Y-894482D01*
X-12655740Y-901000D01*
X-12744260Y-901000D01*
X-12810442Y-894482D01*
X-12876627Y-887963D01*
X-13046466Y-836443D01*
X-13202991Y-752778D01*
X-13238729Y-723448D01*
X-13340186Y-640186D01*
X-13452332Y-503534D01*
X-13452778Y-502991D01*
X-13536443Y-346466D01*
X-13587963Y-176627D01*
X-13605359Y0D01*
X-13587963Y176627D01*
X-13536443Y346466D01*
X-13452778Y502991D01*
X-13423448Y538729D01*
X-13340186Y640186D01*
X-13238729Y723448D01*
X-13202991Y752778D01*
X-13046466Y836443D01*
X-12876627Y887963D01*
X-12810442Y894482D01*
X-12744260Y901000D01*
X-12655740Y901000D01*
X-12589558Y894482D01*
X-12589558Y894482D01*
G37*
G36*
X-17359558Y2584482D02*
G01*
X-17293373Y2577963D01*
X-17123534Y2526443D01*
X-16967009Y2442778D01*
X-16931271Y2413448D01*
X-16829814Y2330186D01*
X-16746552Y2228729D01*
X-16717222Y2192991D01*
X-16633557Y2036466D01*
X-16582037Y1866627D01*
X-16564641Y1690000D01*
X-16582037Y1513373D01*
X-16633557Y1343534D01*
X-16717222Y1187009D01*
X-16746552Y1151271D01*
X-16829814Y1049814D01*
X-16931271Y966552D01*
X-16967009Y937222D01*
X-17123534Y853557D01*
X-17293373Y802037D01*
X-17359557Y795519D01*
X-17425740Y789000D01*
X-17514260Y789000D01*
X-17580443Y795519D01*
X-17646627Y802037D01*
X-17816466Y853557D01*
X-17972991Y937222D01*
X-18008729Y966552D01*
X-18110186Y1049814D01*
X-18193448Y1151271D01*
X-18222778Y1187009D01*
X-18306443Y1343534D01*
X-18357963Y1513373D01*
X-18375359Y1690000D01*
X-18357963Y1866627D01*
X-18306443Y2036466D01*
X-18222778Y2192991D01*
X-18193448Y2228729D01*
X-18110186Y2330186D01*
X-18008729Y2413448D01*
X-17972991Y2442778D01*
X-17816466Y2526443D01*
X-17646627Y2577963D01*
X-17580443Y2584481D01*
X-17514260Y2591000D01*
X-17425740Y2591000D01*
X-17359558Y2584482D01*
X-17359558Y2584482D01*
G37*
G36*
X-24979558Y2584482D02*
G01*
X-24913373Y2577963D01*
X-24743534Y2526443D01*
X-24587009Y2442778D01*
X-24551271Y2413448D01*
X-24449814Y2330186D01*
X-24366552Y2228729D01*
X-24337222Y2192991D01*
X-24253557Y2036466D01*
X-24202037Y1866627D01*
X-24184641Y1690000D01*
X-24202037Y1513373D01*
X-24253557Y1343534D01*
X-24337222Y1187009D01*
X-24366552Y1151271D01*
X-24449814Y1049814D01*
X-24551271Y966552D01*
X-24587009Y937222D01*
X-24743534Y853557D01*
X-24913373Y802037D01*
X-24979557Y795519D01*
X-25045740Y789000D01*
X-25134260Y789000D01*
X-25200443Y795519D01*
X-25266627Y802037D01*
X-25436466Y853557D01*
X-25592991Y937222D01*
X-25628729Y966552D01*
X-25730186Y1049814D01*
X-25813448Y1151271D01*
X-25842778Y1187009D01*
X-25926443Y1343534D01*
X-25977963Y1513373D01*
X-25995359Y1690000D01*
X-25977963Y1866627D01*
X-25926443Y2036466D01*
X-25842778Y2192991D01*
X-25813448Y2228729D01*
X-25730186Y2330186D01*
X-25628729Y2413448D01*
X-25592991Y2442778D01*
X-25436466Y2526443D01*
X-25266627Y2577963D01*
X-25200443Y2584481D01*
X-25134260Y2591000D01*
X-25045740Y2591000D01*
X-24979558Y2584482D01*
X-24979558Y2584482D01*
G37*
G36*
X-11799000Y1639000D02*
G01*
X-13601000Y1639000D01*
X-13601000Y3441000D01*
X-11799000Y3441000D01*
X-11799000Y1639000D01*
X-11799000Y1639000D01*
G37*
G36*
X-24189000Y3329000D02*
G01*
X-25991000Y3329000D01*
X-25991000Y5131000D01*
X-24189000Y5131000D01*
X-24189000Y3329000D01*
X-24189000Y3329000D01*
G37*
G36*
X-16569000Y3329000D02*
G01*
X-18371000Y3329000D01*
X-18371000Y5131000D01*
X-16569000Y5131000D01*
X-16569000Y3329000D01*
X-16569000Y3329000D01*
G37*
G36*
X-12589558Y17404482D02*
G01*
X-12523373Y17397963D01*
X-12353534Y17346443D01*
X-12197009Y17262778D01*
X-12161271Y17233448D01*
X-12059814Y17150186D01*
X-11976552Y17048729D01*
X-11947222Y17012991D01*
X-11863557Y16856466D01*
X-11812037Y16686627D01*
X-11794641Y16510000D01*
X-11812037Y16333373D01*
X-11863557Y16163534D01*
X-11947222Y16007009D01*
X-11976552Y15971271D01*
X-12059814Y15869814D01*
X-12161271Y15786552D01*
X-12197009Y15757222D01*
X-12353534Y15673557D01*
X-12523373Y15622037D01*
X-12589558Y15615518D01*
X-12655740Y15609000D01*
X-12744260Y15609000D01*
X-12810442Y15615518D01*
X-12876627Y15622037D01*
X-13046466Y15673557D01*
X-13202991Y15757222D01*
X-13238729Y15786552D01*
X-13340186Y15869814D01*
X-13423448Y15971271D01*
X-13452778Y16007009D01*
X-13536443Y16163534D01*
X-13587963Y16333373D01*
X-13605359Y16510000D01*
X-13587963Y16686627D01*
X-13536443Y16856466D01*
X-13452778Y17012991D01*
X-13423448Y17048729D01*
X-13340186Y17150186D01*
X-13238729Y17233448D01*
X-13202991Y17262778D01*
X-13046466Y17346443D01*
X-12876627Y17397963D01*
X-12810442Y17404482D01*
X-12744260Y17411000D01*
X-12655740Y17411000D01*
X-12589558Y17404482D01*
X-12589558Y17404482D01*
G37*
G36*
X12810442Y17404482D02*
G01*
X12876627Y17397963D01*
X13046466Y17346443D01*
X13202991Y17262778D01*
X13238729Y17233448D01*
X13340186Y17150186D01*
X13423448Y17048729D01*
X13452778Y17012991D01*
X13536443Y16856466D01*
X13587963Y16686627D01*
X13605359Y16510000D01*
X13587963Y16333373D01*
X13536443Y16163534D01*
X13452778Y16007009D01*
X13423448Y15971271D01*
X13340186Y15869814D01*
X13238729Y15786552D01*
X13202991Y15757222D01*
X13046466Y15673557D01*
X12876627Y15622037D01*
X12810442Y15615518D01*
X12744260Y15609000D01*
X12655740Y15609000D01*
X12589558Y15615518D01*
X12523373Y15622037D01*
X12353534Y15673557D01*
X12197009Y15757222D01*
X12161271Y15786552D01*
X12059814Y15869814D01*
X11976552Y15971271D01*
X11947222Y16007009D01*
X11863557Y16163534D01*
X11812037Y16333373D01*
X11794641Y16510000D01*
X11812037Y16686627D01*
X11863557Y16856466D01*
X11947222Y17012991D01*
X11976552Y17048729D01*
X12059814Y17150186D01*
X12161271Y17233448D01*
X12197009Y17262778D01*
X12353534Y17346443D01*
X12523373Y17397963D01*
X12589558Y17404482D01*
X12655740Y17411000D01*
X12744260Y17411000D01*
X12810442Y17404482D01*
X12810442Y17404482D01*
G37*
G36*
X-12589558Y19944482D02*
G01*
X-12523373Y19937963D01*
X-12353534Y19886443D01*
X-12197009Y19802778D01*
X-12161271Y19773448D01*
X-12059814Y19690186D01*
X-11976552Y19588729D01*
X-11947222Y19552991D01*
X-11863557Y19396466D01*
X-11812037Y19226627D01*
X-11794641Y19050000D01*
X-11812037Y18873373D01*
X-11863557Y18703534D01*
X-11947222Y18547009D01*
X-11976552Y18511271D01*
X-12059814Y18409814D01*
X-12161271Y18326552D01*
X-12197009Y18297222D01*
X-12353534Y18213557D01*
X-12523373Y18162037D01*
X-12589558Y18155518D01*
X-12655740Y18149000D01*
X-12744260Y18149000D01*
X-12810442Y18155518D01*
X-12876627Y18162037D01*
X-13046466Y18213557D01*
X-13202991Y18297222D01*
X-13238729Y18326552D01*
X-13340186Y18409814D01*
X-13423448Y18511271D01*
X-13452778Y18547009D01*
X-13536443Y18703534D01*
X-13587963Y18873373D01*
X-13605359Y19050000D01*
X-13587963Y19226627D01*
X-13536443Y19396466D01*
X-13452778Y19552991D01*
X-13423448Y19588729D01*
X-13340186Y19690186D01*
X-13238729Y19773448D01*
X-13202991Y19802778D01*
X-13046466Y19886443D01*
X-12876627Y19937963D01*
X-12810442Y19944482D01*
X-12744260Y19951000D01*
X-12655740Y19951000D01*
X-12589558Y19944482D01*
X-12589558Y19944482D01*
G37*
G36*
X12810442Y19944482D02*
G01*
X12876627Y19937963D01*
X13046466Y19886443D01*
X13202991Y19802778D01*
X13238729Y19773448D01*
X13340186Y19690186D01*
X13423448Y19588729D01*
X13452778Y19552991D01*
X13536443Y19396466D01*
X13587963Y19226627D01*
X13605359Y19050000D01*
X13587963Y18873373D01*
X13536443Y18703534D01*
X13452778Y18547009D01*
X13423448Y18511271D01*
X13340186Y18409814D01*
X13238729Y18326552D01*
X13202991Y18297222D01*
X13046466Y18213557D01*
X12876627Y18162037D01*
X12810442Y18155518D01*
X12744260Y18149000D01*
X12655740Y18149000D01*
X12589558Y18155518D01*
X12523373Y18162037D01*
X12353534Y18213557D01*
X12197009Y18297222D01*
X12161271Y18326552D01*
X12059814Y18409814D01*
X11976552Y18511271D01*
X11947222Y18547009D01*
X11863557Y18703534D01*
X11812037Y18873373D01*
X11794641Y19050000D01*
X11812037Y19226627D01*
X11863557Y19396466D01*
X11947222Y19552991D01*
X11976552Y19588729D01*
X12059814Y19690186D01*
X12161271Y19773448D01*
X12197009Y19802778D01*
X12353534Y19886443D01*
X12523373Y19937963D01*
X12589558Y19944482D01*
X12655740Y19951000D01*
X12744260Y19951000D01*
X12810442Y19944482D01*
X12810442Y19944482D01*
G37*
G36*
X2011938Y20688284D02*
G01*
X2032557Y20682029D01*
X2051553Y20671876D01*
X2068208Y20658208D01*
X2081876Y20641553D01*
X2092029Y20622557D01*
X2098284Y20601938D01*
X2101000Y20574360D01*
X2101000Y20065640D01*
X2098284Y20038062D01*
X2092029Y20017443D01*
X2081876Y19998447D01*
X2068208Y19981792D01*
X2051553Y19968124D01*
X2032557Y19957971D01*
X2011938Y19951716D01*
X1984360Y19949000D01*
X1525640Y19949000D01*
X1498062Y19951716D01*
X1477443Y19957971D01*
X1458447Y19968124D01*
X1441792Y19981792D01*
X1428124Y19998447D01*
X1417971Y20017443D01*
X1411716Y20038062D01*
X1409000Y20065640D01*
X1409000Y20574360D01*
X1411716Y20601938D01*
X1417971Y20622557D01*
X1428124Y20641553D01*
X1441792Y20658208D01*
X1458447Y20671876D01*
X1477443Y20682029D01*
X1498062Y20688284D01*
X1525640Y20691000D01*
X1984360Y20691000D01*
X2011938Y20688284D01*
X2011938Y20688284D01*
G37*
G36*
X1041938Y20688284D02*
G01*
X1062557Y20682029D01*
X1081553Y20671876D01*
X1098208Y20658208D01*
X1111876Y20641553D01*
X1122029Y20622557D01*
X1128284Y20601938D01*
X1131000Y20574360D01*
X1131000Y20065640D01*
X1128284Y20038062D01*
X1122029Y20017443D01*
X1111876Y19998447D01*
X1098208Y19981792D01*
X1081553Y19968124D01*
X1062557Y19957971D01*
X1041938Y19951716D01*
X1014360Y19949000D01*
X555640Y19949000D01*
X528062Y19951716D01*
X507443Y19957971D01*
X488447Y19968124D01*
X471792Y19981792D01*
X458124Y19998447D01*
X447971Y20017443D01*
X441716Y20038062D01*
X439000Y20065640D01*
X439000Y20574360D01*
X441716Y20601938D01*
X447971Y20622557D01*
X458124Y20641553D01*
X471792Y20658208D01*
X488447Y20671876D01*
X507443Y20682029D01*
X528062Y20688284D01*
X555640Y20691000D01*
X1014360Y20691000D01*
X1041938Y20688284D01*
X1041938Y20688284D01*
G37*
G36*
X-528062Y20688284D02*
G01*
X-507443Y20682029D01*
X-488447Y20671876D01*
X-471792Y20658208D01*
X-458124Y20641553D01*
X-447971Y20622557D01*
X-441716Y20601938D01*
X-439000Y20574360D01*
X-439000Y20065640D01*
X-441716Y20038062D01*
X-447971Y20017443D01*
X-458124Y19998447D01*
X-471792Y19981792D01*
X-488447Y19968124D01*
X-507443Y19957971D01*
X-528062Y19951716D01*
X-555640Y19949000D01*
X-1014360Y19949000D01*
X-1041938Y19951716D01*
X-1062557Y19957971D01*
X-1081553Y19968124D01*
X-1098208Y19981792D01*
X-1111876Y19998447D01*
X-1122029Y20017443D01*
X-1128284Y20038062D01*
X-1131000Y20065640D01*
X-1131000Y20574360D01*
X-1128284Y20601938D01*
X-1122029Y20622557D01*
X-1111876Y20641553D01*
X-1098208Y20658208D01*
X-1081553Y20671876D01*
X-1062557Y20682029D01*
X-1041938Y20688284D01*
X-1014360Y20691000D01*
X-555640Y20691000D01*
X-528062Y20688284D01*
X-528062Y20688284D01*
G37*
G36*
X-1498062Y20688284D02*
G01*
X-1477443Y20682029D01*
X-1458447Y20671876D01*
X-1441792Y20658208D01*
X-1428124Y20641553D01*
X-1417971Y20622557D01*
X-1411716Y20601938D01*
X-1409000Y20574360D01*
X-1409000Y20065640D01*
X-1411716Y20038062D01*
X-1417971Y20017443D01*
X-1428124Y19998447D01*
X-1441792Y19981792D01*
X-1458447Y19968124D01*
X-1477443Y19957971D01*
X-1498062Y19951716D01*
X-1525640Y19949000D01*
X-1984360Y19949000D01*
X-2011938Y19951716D01*
X-2032557Y19957971D01*
X-2051553Y19968124D01*
X-2068208Y19981792D01*
X-2081876Y19998447D01*
X-2092029Y20017443D01*
X-2098284Y20038062D01*
X-2101000Y20065640D01*
X-2101000Y20574360D01*
X-2098284Y20601938D01*
X-2092029Y20622557D01*
X-2081876Y20641553D01*
X-2068208Y20658208D01*
X-2051553Y20671876D01*
X-2032557Y20682029D01*
X-2011938Y20688284D01*
X-1984360Y20691000D01*
X-1525640Y20691000D01*
X-1498062Y20688284D01*
X-1498062Y20688284D01*
G37*
G36*
X12810442Y22484482D02*
G01*
X12876627Y22477963D01*
X13046466Y22426443D01*
X13202991Y22342778D01*
X13205157Y22341000D01*
X13340186Y22230186D01*
X13423448Y22128729D01*
X13452778Y22092991D01*
X13536443Y21936466D01*
X13587963Y21766627D01*
X13605359Y21590000D01*
X13587963Y21413373D01*
X13536443Y21243534D01*
X13452778Y21087009D01*
X13423448Y21051271D01*
X13340186Y20949814D01*
X13238729Y20866552D01*
X13202991Y20837222D01*
X13046466Y20753557D01*
X12876627Y20702037D01*
X12810443Y20695519D01*
X12744260Y20689000D01*
X12655740Y20689000D01*
X12589557Y20695519D01*
X12523373Y20702037D01*
X12353534Y20753557D01*
X12197009Y20837222D01*
X12161271Y20866552D01*
X12059814Y20949814D01*
X11976552Y21051271D01*
X11947222Y21087009D01*
X11863557Y21243534D01*
X11812037Y21413373D01*
X11794641Y21590000D01*
X11812037Y21766627D01*
X11863557Y21936466D01*
X11947222Y22092991D01*
X11976552Y22128729D01*
X12059814Y22230186D01*
X12194843Y22341000D01*
X12197009Y22342778D01*
X12353534Y22426443D01*
X12523373Y22477963D01*
X12589558Y22484482D01*
X12655740Y22491000D01*
X12744260Y22491000D01*
X12810442Y22484482D01*
X12810442Y22484482D01*
G37*
G36*
X-12589558Y22484482D02*
G01*
X-12523373Y22477963D01*
X-12353534Y22426443D01*
X-12197009Y22342778D01*
X-12194843Y22341000D01*
X-12059814Y22230186D01*
X-11976552Y22128729D01*
X-11947222Y22092991D01*
X-11863557Y21936466D01*
X-11812037Y21766627D01*
X-11794641Y21590000D01*
X-11812037Y21413373D01*
X-11863557Y21243534D01*
X-11947222Y21087009D01*
X-11976552Y21051271D01*
X-12059814Y20949814D01*
X-12161271Y20866552D01*
X-12197009Y20837222D01*
X-12353534Y20753557D01*
X-12523373Y20702037D01*
X-12589557Y20695519D01*
X-12655740Y20689000D01*
X-12744260Y20689000D01*
X-12810443Y20695519D01*
X-12876627Y20702037D01*
X-13046466Y20753557D01*
X-13202991Y20837222D01*
X-13238729Y20866552D01*
X-13340186Y20949814D01*
X-13423448Y21051271D01*
X-13452778Y21087009D01*
X-13536443Y21243534D01*
X-13587963Y21413373D01*
X-13605359Y21590000D01*
X-13587963Y21766627D01*
X-13536443Y21936466D01*
X-13452778Y22092991D01*
X-13423448Y22128729D01*
X-13340186Y22230186D01*
X-13205157Y22341000D01*
X-13202991Y22342778D01*
X-13046466Y22426443D01*
X-12876627Y22477963D01*
X-12810442Y22484482D01*
X-12744260Y22491000D01*
X-12655740Y22491000D01*
X-12589558Y22484482D01*
X-12589558Y22484482D01*
G37*
G36*
X-574000Y21179000D02*
G01*
X-1326000Y21179000D01*
X-1326000Y22341000D01*
X-574000Y22341000D01*
X-574000Y21179000D01*
X-574000Y21179000D01*
G37*
G36*
X1326000Y21179000D02*
G01*
X574000Y21179000D01*
X574000Y22341000D01*
X1326000Y22341000D01*
X1326000Y21179000D01*
X1326000Y21179000D01*
G37*
G36*
X-12589557Y25024481D02*
G01*
X-12523373Y25017963D01*
X-12353534Y24966443D01*
X-12197009Y24882778D01*
X-12161271Y24853448D01*
X-12059814Y24770186D01*
X-11976552Y24668729D01*
X-11947222Y24632991D01*
X-11863557Y24476466D01*
X-11812037Y24306627D01*
X-11794641Y24130000D01*
X-11812037Y23953373D01*
X-11863557Y23783534D01*
X-11947222Y23627009D01*
X-11976552Y23591271D01*
X-12059814Y23489814D01*
X-12161271Y23406552D01*
X-12197009Y23377222D01*
X-12353534Y23293557D01*
X-12523373Y23242037D01*
X-12589558Y23235518D01*
X-12655740Y23229000D01*
X-12744260Y23229000D01*
X-12810442Y23235518D01*
X-12876627Y23242037D01*
X-13046466Y23293557D01*
X-13202991Y23377222D01*
X-13238729Y23406552D01*
X-13340186Y23489814D01*
X-13423448Y23591271D01*
X-13452778Y23627009D01*
X-13536443Y23783534D01*
X-13587963Y23953373D01*
X-13605359Y24130000D01*
X-13587963Y24306627D01*
X-13536443Y24476466D01*
X-13452778Y24632991D01*
X-13423448Y24668729D01*
X-13340186Y24770186D01*
X-13238729Y24853448D01*
X-13202991Y24882778D01*
X-13046466Y24966443D01*
X-12876627Y25017963D01*
X-12810443Y25024481D01*
X-12744260Y25031000D01*
X-12655740Y25031000D01*
X-12589557Y25024481D01*
X-12589557Y25024481D01*
G37*
G36*
X12810443Y25024481D02*
G01*
X12876627Y25017963D01*
X13046466Y24966443D01*
X13202991Y24882778D01*
X13238729Y24853448D01*
X13340186Y24770186D01*
X13423448Y24668729D01*
X13452778Y24632991D01*
X13536443Y24476466D01*
X13587963Y24306627D01*
X13605359Y24130000D01*
X13587963Y23953373D01*
X13536443Y23783534D01*
X13452778Y23627009D01*
X13423448Y23591271D01*
X13340186Y23489814D01*
X13238729Y23406552D01*
X13202991Y23377222D01*
X13046466Y23293557D01*
X12876627Y23242037D01*
X12810442Y23235518D01*
X12744260Y23229000D01*
X12655740Y23229000D01*
X12589558Y23235518D01*
X12523373Y23242037D01*
X12353534Y23293557D01*
X12197009Y23377222D01*
X12161271Y23406552D01*
X12059814Y23489814D01*
X11976552Y23591271D01*
X11947222Y23627009D01*
X11863557Y23783534D01*
X11812037Y23953373D01*
X11794641Y24130000D01*
X11812037Y24306627D01*
X11863557Y24476466D01*
X11947222Y24632991D01*
X11976552Y24668729D01*
X12059814Y24770186D01*
X12161271Y24853448D01*
X12197009Y24882778D01*
X12353534Y24966443D01*
X12523373Y25017963D01*
X12589557Y25024481D01*
X12655740Y25031000D01*
X12744260Y25031000D01*
X12810443Y25024481D01*
X12810443Y25024481D01*
G37*
G36*
X1326000Y23379000D02*
G01*
X-1326000Y23379000D01*
X-1326000Y24541000D01*
X1326000Y24541000D01*
X1326000Y23379000D01*
X1326000Y23379000D01*
G37*
G36*
X-12589558Y27564482D02*
G01*
X-12523373Y27557963D01*
X-12353534Y27506443D01*
X-12197009Y27422778D01*
X-12161271Y27393448D01*
X-12059814Y27310186D01*
X-11997701Y27234500D01*
X-11947222Y27172991D01*
X-11863557Y27016466D01*
X-11812037Y26846627D01*
X-11794641Y26670000D01*
X-11812037Y26493373D01*
X-11863557Y26323534D01*
X-11947222Y26167009D01*
X-11976552Y26131271D01*
X-12059814Y26029814D01*
X-12161271Y25946552D01*
X-12197009Y25917222D01*
X-12353534Y25833557D01*
X-12523373Y25782037D01*
X-12589557Y25775519D01*
X-12655740Y25769000D01*
X-12744260Y25769000D01*
X-12810442Y25775518D01*
X-12876627Y25782037D01*
X-13046466Y25833557D01*
X-13202991Y25917222D01*
X-13238729Y25946552D01*
X-13340186Y26029814D01*
X-13423448Y26131271D01*
X-13452778Y26167009D01*
X-13536443Y26323534D01*
X-13587963Y26493373D01*
X-13605359Y26670000D01*
X-13587963Y26846627D01*
X-13536443Y27016466D01*
X-13452778Y27172991D01*
X-13402299Y27234500D01*
X-13340186Y27310186D01*
X-13238729Y27393448D01*
X-13202991Y27422778D01*
X-13046466Y27506443D01*
X-12876627Y27557963D01*
X-12810442Y27564482D01*
X-12744260Y27571000D01*
X-12655740Y27571000D01*
X-12589558Y27564482D01*
X-12589558Y27564482D01*
G37*
G36*
X12810442Y27564482D02*
G01*
X12876627Y27557963D01*
X13046466Y27506443D01*
X13202991Y27422778D01*
X13238729Y27393448D01*
X13340186Y27310186D01*
X13402299Y27234500D01*
X13452778Y27172991D01*
X13536443Y27016466D01*
X13587963Y26846627D01*
X13605359Y26670000D01*
X13587963Y26493373D01*
X13536443Y26323534D01*
X13452778Y26167009D01*
X13423448Y26131271D01*
X13340186Y26029814D01*
X13238729Y25946552D01*
X13202991Y25917222D01*
X13046466Y25833557D01*
X12876627Y25782037D01*
X12810442Y25775518D01*
X12744260Y25769000D01*
X12655740Y25769000D01*
X12589557Y25775519D01*
X12523373Y25782037D01*
X12353534Y25833557D01*
X12197009Y25917222D01*
X12161271Y25946552D01*
X12059814Y26029814D01*
X11976552Y26131271D01*
X11947222Y26167009D01*
X11863557Y26323534D01*
X11812037Y26493373D01*
X11794641Y26670000D01*
X11812037Y26846627D01*
X11863557Y27016466D01*
X11947222Y27172991D01*
X11997701Y27234500D01*
X12059814Y27310186D01*
X12161271Y27393448D01*
X12197009Y27422778D01*
X12353534Y27506443D01*
X12523373Y27557963D01*
X12589558Y27564482D01*
X12655740Y27571000D01*
X12744260Y27571000D01*
X12810442Y27564482D01*
X12810442Y27564482D01*
G37*
G36*
X2759928Y28708236D02*
G01*
X2781009Y28701840D01*
X2800445Y28691452D01*
X2817476Y28677476D01*
X2831452Y28660445D01*
X2841840Y28641009D01*
X2848236Y28619928D01*
X2851000Y28591860D01*
X2851000Y27178140D01*
X2848236Y27150072D01*
X2841840Y27128991D01*
X2831452Y27109555D01*
X2817476Y27092524D01*
X2800445Y27078548D01*
X2781009Y27068160D01*
X2759928Y27061764D01*
X2731860Y27059000D01*
X2268140Y27059000D01*
X2240072Y27061764D01*
X2218991Y27068160D01*
X2199555Y27078548D01*
X2182524Y27092524D01*
X2168548Y27109555D01*
X2158160Y27128991D01*
X2151764Y27150072D01*
X2149000Y27178140D01*
X2149000Y28591860D01*
X2151764Y28619928D01*
X2158160Y28641009D01*
X2168548Y28660445D01*
X2182524Y28677476D01*
X2199555Y28691452D01*
X2218991Y28701840D01*
X2240072Y28708236D01*
X2268140Y28711000D01*
X2731860Y28711000D01*
X2759928Y28708236D01*
X2759928Y28708236D01*
G37*
G36*
X-2240072Y28708236D02*
G01*
X-2218991Y28701840D01*
X-2199555Y28691452D01*
X-2182524Y28677476D01*
X-2168548Y28660445D01*
X-2158160Y28641009D01*
X-2151764Y28619928D01*
X-2149000Y28591860D01*
X-2149000Y27178140D01*
X-2151764Y27150072D01*
X-2158160Y27128991D01*
X-2168548Y27109555D01*
X-2182524Y27092524D01*
X-2199555Y27078548D01*
X-2218991Y27068160D01*
X-2240072Y27061764D01*
X-2268140Y27059000D01*
X-2731860Y27059000D01*
X-2759928Y27061764D01*
X-2781009Y27068160D01*
X-2800445Y27078548D01*
X-2817476Y27092524D01*
X-2831452Y27109555D01*
X-2841840Y27128991D01*
X-2848236Y27150072D01*
X-2851000Y27178140D01*
X-2851000Y28591860D01*
X-2848236Y28619928D01*
X-2841840Y28641009D01*
X-2831452Y28660445D01*
X-2817476Y28677476D01*
X-2800445Y28691452D01*
X-2781009Y28701840D01*
X-2759928Y28708236D01*
X-2731860Y28711000D01*
X-2268140Y28711000D01*
X-2240072Y28708236D01*
X-2240072Y28708236D01*
G37*
G36*
X-1240072Y28708236D02*
G01*
X-1218991Y28701840D01*
X-1199555Y28691452D01*
X-1182524Y28677476D01*
X-1168548Y28660445D01*
X-1158160Y28641009D01*
X-1151764Y28619928D01*
X-1149000Y28591860D01*
X-1149000Y27178140D01*
X-1151764Y27150072D01*
X-1158160Y27128991D01*
X-1168548Y27109555D01*
X-1182524Y27092524D01*
X-1199555Y27078548D01*
X-1218991Y27068160D01*
X-1240072Y27061764D01*
X-1268140Y27059000D01*
X-1731860Y27059000D01*
X-1759928Y27061764D01*
X-1781009Y27068160D01*
X-1800445Y27078548D01*
X-1817476Y27092524D01*
X-1831452Y27109555D01*
X-1841840Y27128991D01*
X-1848236Y27150072D01*
X-1851000Y27178140D01*
X-1851000Y28591860D01*
X-1848236Y28619928D01*
X-1841840Y28641009D01*
X-1831452Y28660445D01*
X-1817476Y28677476D01*
X-1800445Y28691452D01*
X-1781009Y28701840D01*
X-1759928Y28708236D01*
X-1731860Y28711000D01*
X-1268140Y28711000D01*
X-1240072Y28708236D01*
X-1240072Y28708236D01*
G37*
G36*
X-240072Y28708236D02*
G01*
X-218991Y28701840D01*
X-199555Y28691452D01*
X-182524Y28677476D01*
X-168548Y28660445D01*
X-158160Y28641009D01*
X-151764Y28619928D01*
X-149000Y28591860D01*
X-149000Y27178140D01*
X-151764Y27150072D01*
X-158160Y27128991D01*
X-168548Y27109555D01*
X-182524Y27092524D01*
X-199555Y27078548D01*
X-218991Y27068160D01*
X-240072Y27061764D01*
X-268140Y27059000D01*
X-731860Y27059000D01*
X-759928Y27061764D01*
X-781009Y27068160D01*
X-800445Y27078548D01*
X-817476Y27092524D01*
X-831452Y27109555D01*
X-841840Y27128991D01*
X-848236Y27150072D01*
X-851000Y27178140D01*
X-851000Y28591860D01*
X-848236Y28619928D01*
X-841840Y28641009D01*
X-831452Y28660445D01*
X-817476Y28677476D01*
X-800445Y28691452D01*
X-781009Y28701840D01*
X-759928Y28708236D01*
X-731860Y28711000D01*
X-268140Y28711000D01*
X-240072Y28708236D01*
X-240072Y28708236D01*
G37*
G36*
X759928Y28708236D02*
G01*
X781009Y28701840D01*
X800445Y28691452D01*
X817476Y28677476D01*
X831452Y28660445D01*
X841840Y28641009D01*
X848236Y28619928D01*
X851000Y28591860D01*
X851000Y27178140D01*
X848236Y27150072D01*
X841840Y27128991D01*
X831452Y27109555D01*
X817476Y27092524D01*
X800445Y27078548D01*
X781009Y27068160D01*
X759928Y27061764D01*
X731860Y27059000D01*
X268140Y27059000D01*
X240072Y27061764D01*
X218991Y27068160D01*
X199555Y27078548D01*
X182524Y27092524D01*
X168548Y27109555D01*
X158160Y27128991D01*
X151764Y27150072D01*
X149000Y27178140D01*
X149000Y28591860D01*
X151764Y28619928D01*
X158160Y28641009D01*
X168548Y28660445D01*
X182524Y28677476D01*
X199555Y28691452D01*
X218991Y28701840D01*
X240072Y28708236D01*
X268140Y28711000D01*
X731860Y28711000D01*
X759928Y28708236D01*
X759928Y28708236D01*
G37*
G36*
X1759928Y28708236D02*
G01*
X1781009Y28701840D01*
X1800445Y28691452D01*
X1817476Y28677476D01*
X1831452Y28660445D01*
X1841840Y28641009D01*
X1848236Y28619928D01*
X1851000Y28591860D01*
X1851000Y27178140D01*
X1848236Y27150072D01*
X1841840Y27128991D01*
X1831452Y27109555D01*
X1817476Y27092524D01*
X1800445Y27078548D01*
X1781009Y27068160D01*
X1759928Y27061764D01*
X1731860Y27059000D01*
X1268140Y27059000D01*
X1240072Y27061764D01*
X1218991Y27068160D01*
X1199555Y27078548D01*
X1182524Y27092524D01*
X1168548Y27109555D01*
X1158160Y27128991D01*
X1151764Y27150072D01*
X1149000Y27178140D01*
X1149000Y28591860D01*
X1151764Y28619928D01*
X1158160Y28641009D01*
X1168548Y28660445D01*
X1182524Y28677476D01*
X1199555Y28691452D01*
X1218991Y28701840D01*
X1240072Y28708236D01*
X1268140Y28711000D01*
X1731860Y28711000D01*
X1759928Y28708236D01*
X1759928Y28708236D01*
G37*
G36*
X13601000Y28309000D02*
G01*
X11799000Y28309000D01*
X11799000Y30111000D01*
X13601000Y30111000D01*
X13601000Y28309000D01*
X13601000Y28309000D01*
G37*
G36*
X-11799000Y28309000D02*
G01*
X-13601000Y28309000D01*
X-13601000Y30111000D01*
X-11799000Y30111000D01*
X-11799000Y28309000D01*
X-11799000Y28309000D01*
G37*
G36*
X4291242Y31356596D02*
G01*
X4328337Y31345343D01*
X4362515Y31327075D01*
X4392481Y31302481D01*
X4417075Y31272515D01*
X4435343Y31238337D01*
X4446596Y31201242D01*
X4451000Y31156526D01*
X4451000Y29663474D01*
X4446596Y29618758D01*
X4435343Y29581663D01*
X4417075Y29547485D01*
X4392481Y29517519D01*
X4362515Y29492925D01*
X4328337Y29474657D01*
X4291242Y29463404D01*
X4246526Y29459000D01*
X3353474Y29459000D01*
X3308758Y29463404D01*
X3271663Y29474657D01*
X3237485Y29492925D01*
X3207519Y29517519D01*
X3182925Y29547485D01*
X3164657Y29581663D01*
X3153404Y29618758D01*
X3149000Y29663474D01*
X3149000Y31156526D01*
X3153404Y31201242D01*
X3164657Y31238337D01*
X3182925Y31272515D01*
X3207519Y31302481D01*
X3237485Y31327075D01*
X3271663Y31345343D01*
X3308758Y31356596D01*
X3353474Y31361000D01*
X4246526Y31361000D01*
X4291242Y31356596D01*
X4291242Y31356596D01*
G37*
G36*
X-3308758Y31356596D02*
G01*
X-3271663Y31345343D01*
X-3237485Y31327075D01*
X-3207519Y31302481D01*
X-3182925Y31272515D01*
X-3164657Y31238337D01*
X-3153404Y31201242D01*
X-3149000Y31156526D01*
X-3149000Y29663474D01*
X-3153404Y29618758D01*
X-3164657Y29581663D01*
X-3182925Y29547485D01*
X-3207519Y29517519D01*
X-3237485Y29492925D01*
X-3271663Y29474657D01*
X-3308758Y29463404D01*
X-3353474Y29459000D01*
X-4246526Y29459000D01*
X-4291242Y29463404D01*
X-4328337Y29474657D01*
X-4362515Y29492925D01*
X-4392481Y29517519D01*
X-4417075Y29547485D01*
X-4435343Y29581663D01*
X-4446596Y29618758D01*
X-4451000Y29663474D01*
X-4451000Y31156526D01*
X-4446596Y31201242D01*
X-4435343Y31238337D01*
X-4417075Y31272515D01*
X-4392481Y31302481D01*
X-4362515Y31327075D01*
X-4328337Y31345343D01*
X-4291242Y31356596D01*
X-4246526Y31361000D01*
X-3353474Y31361000D01*
X-3308758Y31356596D01*
X-3308758Y31356596D01*
G37*
M02*
