G04 #@! TF.GenerationSoftware,KiCad,Pcbnew,(5.1.4)-1*
G04 #@! TF.CreationDate,2021-07-20T22:26:21+09:00*
G04 #@! TF.ProjectId,UAV2021_ver3_panelizing,55415632-3032-4315-9f76-6572335f7061,rev?*
G04 #@! TF.SameCoordinates,Original*
G04 #@! TF.FileFunction,Legend,Bot*
G04 #@! TF.FilePolarity,Positive*
%FSLAX46Y46*%
G04 Gerber Fmt 4.6, Leading zero omitted, Abs format (unit mm)*
G04 Created by KiCad (PCBNEW (5.1.4)-1) date 2021-07-20 22:26:21*
%MOMM*%
%LPD*%
G04 APERTURE LIST*
%ADD10C,0.100000*%
%ADD11C,0.120000*%
%ADD12C,0.150000*%
%ADD13C,4.502000*%
%ADD14C,0.802000*%
%ADD15R,0.752000X1.162000*%
%ADD16O,1.802000X1.802000*%
%ADD17R,1.802000X1.802000*%
%ADD18C,0.702000*%
%ADD19C,1.302000*%
%ADD20C,0.692000*%
G04 APERTURE END LIST*
D10*
X-19463761Y-1028571D02*
X-19439952Y-1052380D01*
X-19368523Y-1076190D01*
X-19320904Y-1076190D01*
X-19249476Y-1052380D01*
X-19201857Y-1004761D01*
X-19178047Y-957142D01*
X-19154238Y-861904D01*
X-19154238Y-790476D01*
X-19178047Y-695238D01*
X-19201857Y-647619D01*
X-19249476Y-600000D01*
X-19320904Y-576190D01*
X-19368523Y-576190D01*
X-19439952Y-600000D01*
X-19463761Y-623809D01*
X-19654238Y-1052380D02*
X-19725666Y-1076190D01*
X-19844714Y-1076190D01*
X-19892333Y-1052380D01*
X-19916142Y-1028571D01*
X-19939952Y-980952D01*
X-19939952Y-933333D01*
X-19916142Y-885714D01*
X-19892333Y-861904D01*
X-19844714Y-838095D01*
X-19749476Y-814285D01*
X-19701857Y-790476D01*
X-19678047Y-766666D01*
X-19654238Y-719047D01*
X-19654238Y-671428D01*
X-19678047Y-623809D01*
X-19701857Y-600000D01*
X-19749476Y-576190D01*
X-19868523Y-576190D01*
X-19939952Y-600000D01*
X-20035190Y-1123809D02*
X-20416142Y-1123809D01*
X-20797095Y-600000D02*
X-20749476Y-576190D01*
X-20678047Y-576190D01*
X-20606619Y-600000D01*
X-20559000Y-647619D01*
X-20535190Y-695238D01*
X-20511380Y-790476D01*
X-20511380Y-861904D01*
X-20535190Y-957142D01*
X-20559000Y-1004761D01*
X-20606619Y-1052380D01*
X-20678047Y-1076190D01*
X-20725666Y-1076190D01*
X-20797095Y-1052380D01*
X-20820904Y-1028571D01*
X-20820904Y-861904D01*
X-20725666Y-861904D01*
X-19463761Y1511428D02*
X-19439952Y1487619D01*
X-19368523Y1463809D01*
X-19320904Y1463809D01*
X-19249476Y1487619D01*
X-19201857Y1535238D01*
X-19178047Y1582857D01*
X-19154238Y1678095D01*
X-19154238Y1749523D01*
X-19178047Y1844761D01*
X-19201857Y1892380D01*
X-19249476Y1940000D01*
X-19320904Y1963809D01*
X-19368523Y1963809D01*
X-19439952Y1940000D01*
X-19463761Y1916190D01*
X-19654238Y1487619D02*
X-19725666Y1463809D01*
X-19844714Y1463809D01*
X-19892333Y1487619D01*
X-19916142Y1511428D01*
X-19939952Y1559047D01*
X-19939952Y1606666D01*
X-19916142Y1654285D01*
X-19892333Y1678095D01*
X-19844714Y1701904D01*
X-19749476Y1725714D01*
X-19701857Y1749523D01*
X-19678047Y1773333D01*
X-19654238Y1820952D01*
X-19654238Y1868571D01*
X-19678047Y1916190D01*
X-19701857Y1940000D01*
X-19749476Y1963809D01*
X-19868523Y1963809D01*
X-19939952Y1940000D01*
X-20035190Y1416190D02*
X-20416142Y1416190D01*
X-20511380Y1606666D02*
X-20749476Y1606666D01*
X-20463761Y1463809D02*
X-20630428Y1963809D01*
X-20797095Y1463809D01*
X-22096238Y1487619D02*
X-22167666Y1463809D01*
X-22286714Y1463809D01*
X-22334333Y1487619D01*
X-22358142Y1511428D01*
X-22381952Y1559047D01*
X-22381952Y1606666D01*
X-22358142Y1654285D01*
X-22334333Y1678095D01*
X-22286714Y1701904D01*
X-22191476Y1725714D01*
X-22143857Y1749523D01*
X-22120047Y1773333D01*
X-22096238Y1820952D01*
X-22096238Y1868571D01*
X-22120047Y1916190D01*
X-22143857Y1940000D01*
X-22191476Y1963809D01*
X-22310523Y1963809D01*
X-22381952Y1940000D01*
X-22596238Y1463809D02*
X-22596238Y1963809D01*
X-22715285Y1963809D01*
X-22786714Y1940000D01*
X-22834333Y1892380D01*
X-22858142Y1844761D01*
X-22881952Y1749523D01*
X-22881952Y1678095D01*
X-22858142Y1582857D01*
X-22834333Y1535238D01*
X-22786714Y1487619D01*
X-22715285Y1463809D01*
X-22596238Y1463809D01*
X-23191476Y1963809D02*
X-23286714Y1963809D01*
X-23334333Y1940000D01*
X-23381952Y1892380D01*
X-23405761Y1797142D01*
X-23405761Y1630476D01*
X-23381952Y1535238D01*
X-23334333Y1487619D01*
X-23286714Y1463809D01*
X-23191476Y1463809D01*
X-23143857Y1487619D01*
X-23096238Y1535238D01*
X-23072428Y1630476D01*
X-23072428Y1797142D01*
X-23096238Y1892380D01*
X-23143857Y1940000D01*
X-23191476Y1963809D01*
X-22120047Y-3592380D02*
X-22191476Y-3616190D01*
X-22310523Y-3616190D01*
X-22358142Y-3592380D01*
X-22381952Y-3568571D01*
X-22405761Y-3520952D01*
X-22405761Y-3473333D01*
X-22381952Y-3425714D01*
X-22358142Y-3401904D01*
X-22310523Y-3378095D01*
X-22215285Y-3354285D01*
X-22167666Y-3330476D01*
X-22143857Y-3306666D01*
X-22120047Y-3259047D01*
X-22120047Y-3211428D01*
X-22143857Y-3163809D01*
X-22167666Y-3140000D01*
X-22215285Y-3116190D01*
X-22334333Y-3116190D01*
X-22405761Y-3140000D01*
X-22905761Y-3568571D02*
X-22881952Y-3592380D01*
X-22810523Y-3616190D01*
X-22762904Y-3616190D01*
X-22691476Y-3592380D01*
X-22643857Y-3544761D01*
X-22620047Y-3497142D01*
X-22596238Y-3401904D01*
X-22596238Y-3330476D01*
X-22620047Y-3235238D01*
X-22643857Y-3187619D01*
X-22691476Y-3140000D01*
X-22762904Y-3116190D01*
X-22810523Y-3116190D01*
X-22881952Y-3140000D01*
X-22905761Y-3163809D01*
X-23120047Y-3616190D02*
X-23120047Y-3116190D01*
X-23405761Y-3616190D02*
X-23191476Y-3330476D01*
X-23405761Y-3116190D02*
X-23120047Y-3401904D01*
X-22381952Y-1052380D02*
X-22453380Y-1076190D01*
X-22572428Y-1076190D01*
X-22620047Y-1052380D01*
X-22643857Y-1028571D01*
X-22667666Y-980952D01*
X-22667666Y-933333D01*
X-22643857Y-885714D01*
X-22620047Y-861904D01*
X-22572428Y-838095D01*
X-22477190Y-814285D01*
X-22429571Y-790476D01*
X-22405761Y-766666D01*
X-22381952Y-719047D01*
X-22381952Y-671428D01*
X-22405761Y-623809D01*
X-22429571Y-600000D01*
X-22477190Y-576190D01*
X-22596238Y-576190D01*
X-22667666Y-600000D01*
X-22881952Y-1076190D02*
X-22881952Y-576190D01*
X-23001000Y-576190D01*
X-23072428Y-600000D01*
X-23120047Y-647619D01*
X-23143857Y-695238D01*
X-23167666Y-790476D01*
X-23167666Y-861904D01*
X-23143857Y-957142D01*
X-23120047Y-1004761D01*
X-23072428Y-1052380D01*
X-23001000Y-1076190D01*
X-22881952Y-1076190D01*
X-23381952Y-1076190D02*
X-23381952Y-576190D01*
X-19178047Y-3616190D02*
X-19178047Y-3116190D01*
X-19463761Y-3616190D01*
X-19463761Y-3116190D01*
X-19987571Y-3568571D02*
X-19963761Y-3592380D01*
X-19892333Y-3616190D01*
X-19844714Y-3616190D01*
X-19773285Y-3592380D01*
X-19725666Y-3544761D01*
X-19701857Y-3497142D01*
X-19678047Y-3401904D01*
X-19678047Y-3330476D01*
X-19701857Y-3235238D01*
X-19725666Y-3187619D01*
X-19773285Y-3140000D01*
X-19844714Y-3116190D01*
X-19892333Y-3116190D01*
X-19963761Y-3140000D01*
X-19987571Y-3163809D01*
X-19439952Y4480000D02*
X-19392333Y4503809D01*
X-19320904Y4503809D01*
X-19249476Y4480000D01*
X-19201857Y4432380D01*
X-19178047Y4384761D01*
X-19154238Y4289523D01*
X-19154238Y4218095D01*
X-19178047Y4122857D01*
X-19201857Y4075238D01*
X-19249476Y4027619D01*
X-19320904Y4003809D01*
X-19368523Y4003809D01*
X-19439952Y4027619D01*
X-19463761Y4051428D01*
X-19463761Y4218095D01*
X-19368523Y4218095D01*
X-19678047Y4003809D02*
X-19678047Y4503809D01*
X-19963761Y4003809D01*
X-19963761Y4503809D01*
X-20201857Y4003809D02*
X-20201857Y4503809D01*
X-20320904Y4503809D01*
X-20392333Y4480000D01*
X-20439952Y4432380D01*
X-20463761Y4384761D01*
X-20487571Y4289523D01*
X-20487571Y4218095D01*
X-20463761Y4122857D01*
X-20439952Y4075238D01*
X-20392333Y4027619D01*
X-20320904Y4003809D01*
X-20201857Y4003809D01*
X-22120047Y4503809D02*
X-22286714Y4003809D01*
X-22453380Y4503809D01*
X-22620047Y4003809D02*
X-22620047Y4503809D01*
X-22739095Y4503809D01*
X-22810523Y4480000D01*
X-22858142Y4432380D01*
X-22881952Y4384761D01*
X-22905761Y4289523D01*
X-22905761Y4218095D01*
X-22881952Y4122857D01*
X-22858142Y4075238D01*
X-22810523Y4027619D01*
X-22739095Y4003809D01*
X-22620047Y4003809D01*
X-23120047Y4003809D02*
X-23120047Y4503809D01*
X-23239095Y4503809D01*
X-23310523Y4480000D01*
X-23358142Y4432380D01*
X-23381952Y4384761D01*
X-23405761Y4289523D01*
X-23405761Y4218095D01*
X-23381952Y4122857D01*
X-23358142Y4075238D01*
X-23310523Y4027619D01*
X-23239095Y4003809D01*
X-23120047Y4003809D01*
D11*
X1610000Y23760000D02*
X1610000Y21960000D01*
X-1610000Y21960000D02*
X-1610000Y24410000D01*
X4110000Y29250000D02*
X4110000Y28100000D01*
X4110000Y28100000D02*
X3060000Y28100000D01*
X3060000Y28100000D02*
X3060000Y27110000D01*
X-4110000Y29250000D02*
X-4110000Y28100000D01*
X-4110000Y28100000D02*
X-3060000Y28100000D01*
X2940000Y31220000D02*
X-2940000Y31220000D01*
X-16140000Y5560000D02*
X-17470000Y5560000D01*
X-16140000Y4230000D02*
X-16140000Y5560000D01*
X-16140000Y2960000D02*
X-18800000Y2960000D01*
X-18800000Y2960000D02*
X-18800000Y-4720000D01*
X-16140000Y2960000D02*
X-16140000Y-4720000D01*
X-16140000Y-4720000D02*
X-18800000Y-4720000D01*
X-23760000Y5560000D02*
X-25090000Y5560000D01*
X-23760000Y4230000D02*
X-23760000Y5560000D01*
X-23760000Y2960000D02*
X-26420000Y2960000D01*
X-26420000Y2960000D02*
X-26420000Y-4720000D01*
X-23760000Y2960000D02*
X-23760000Y-4720000D01*
X-23760000Y-4720000D02*
X-26420000Y-4720000D01*
D12*
X-3447619Y23621904D02*
X-2638095Y23621904D01*
X-2542857Y23574285D01*
X-2495238Y23526666D01*
X-2447619Y23431428D01*
X-2447619Y23240952D01*
X-2495238Y23145714D01*
X-2542857Y23098095D01*
X-2638095Y23050476D01*
X-3447619Y23050476D01*
X-2447619Y22050476D02*
X-2447619Y22621904D01*
X-2447619Y22336190D02*
X-3447619Y22336190D01*
X-3304761Y22431428D01*
X-3209523Y22526666D01*
X-3161904Y22621904D01*
X333333Y33057619D02*
X333333Y32343333D01*
X380952Y32200476D01*
X476190Y32105238D01*
X619047Y32057619D01*
X714285Y32057619D01*
X-666666Y32057619D02*
X-95238Y32057619D01*
X-380952Y32057619D02*
X-380952Y33057619D01*
X-285714Y32914761D01*
X-190476Y32819523D01*
X-95238Y32771904D01*
X-1103333Y21132857D02*
X-1055714Y21085238D01*
X-912857Y21037619D01*
X-817619Y21037619D01*
X-674761Y21085238D01*
X-579523Y21180476D01*
X-531904Y21275714D01*
X-484285Y21466190D01*
X-484285Y21609047D01*
X-531904Y21799523D01*
X-579523Y21894761D01*
X-674761Y21990000D01*
X-817619Y22037619D01*
X-912857Y22037619D01*
X-1055714Y21990000D01*
X-1103333Y21942380D01*
X-1484285Y21942380D02*
X-1531904Y21990000D01*
X-1627142Y22037619D01*
X-1865238Y22037619D01*
X-1960476Y21990000D01*
X-2008095Y21942380D01*
X-2055714Y21847142D01*
X-2055714Y21751904D01*
X-2008095Y21609047D01*
X-1436666Y21037619D01*
X-2055714Y21037619D01*
X1436666Y18792857D02*
X1484285Y18745238D01*
X1627142Y18697619D01*
X1722380Y18697619D01*
X1865238Y18745238D01*
X1960476Y18840476D01*
X2008095Y18935714D01*
X2055714Y19126190D01*
X2055714Y19269047D01*
X2008095Y19459523D01*
X1960476Y19554761D01*
X1865238Y19650000D01*
X1722380Y19697619D01*
X1627142Y19697619D01*
X1484285Y19650000D01*
X1436666Y19602380D01*
X484285Y18697619D02*
X1055714Y18697619D01*
X770000Y18697619D02*
X770000Y19697619D01*
X865238Y19554761D01*
X960476Y19459523D01*
X1055714Y19411904D01*
%LPC*%
D13*
X-3500000Y-33000000D03*
D14*
X-1850000Y-33000000D03*
X-2333274Y-34166726D03*
X-3500000Y-34650000D03*
X-4666726Y-34166726D03*
X-5150000Y-33000000D03*
X-4666726Y-31833274D03*
X-3500000Y-31350000D03*
X-2333274Y-31833274D03*
D13*
X3500000Y-33000000D03*
D14*
X5150000Y-33000000D03*
X4666726Y-34166726D03*
X3500000Y-34650000D03*
X2333274Y-34166726D03*
X1850000Y-33000000D03*
X2333274Y-31833274D03*
X3500000Y-31350000D03*
X4666726Y-31833274D03*
D15*
X-950000Y23960000D03*
X0Y23960000D03*
X950000Y23960000D03*
X950000Y21760000D03*
X-950000Y21760000D03*
D16*
X-12700000Y-29210000D03*
X-12700000Y-26670000D03*
X-12700000Y-24130000D03*
X-12700000Y-21590000D03*
X-12700000Y-19050000D03*
D17*
X-12700000Y-16510000D03*
X12700000Y-16510000D03*
D16*
X12700000Y-19050000D03*
X12700000Y-21590000D03*
X12700000Y-24130000D03*
X12700000Y-26670000D03*
X12700000Y-29210000D03*
D17*
X-12700000Y29210000D03*
D16*
X-12700000Y26670000D03*
X-12700000Y24130000D03*
X-12700000Y21590000D03*
X-12700000Y19050000D03*
X-12700000Y16510000D03*
X12700000Y16510000D03*
X12700000Y19050000D03*
X12700000Y21590000D03*
X12700000Y24130000D03*
X12700000Y26670000D03*
D17*
X12700000Y29210000D03*
X-12700000Y2540000D03*
D16*
X-12700000Y0D03*
X-12700000Y-2540000D03*
D10*
G36*
X2692702Y28710155D02*
G01*
X2709738Y28707628D01*
X2726445Y28703443D01*
X2742661Y28697641D01*
X2758230Y28690277D01*
X2773003Y28681423D01*
X2786836Y28671163D01*
X2799597Y28659597D01*
X2811163Y28646836D01*
X2821423Y28633003D01*
X2830277Y28618230D01*
X2837641Y28602661D01*
X2843443Y28586445D01*
X2847628Y28569738D01*
X2850155Y28552702D01*
X2851000Y28535500D01*
X2851000Y27234500D01*
X2850155Y27217298D01*
X2847628Y27200262D01*
X2843443Y27183555D01*
X2837641Y27167339D01*
X2830277Y27151770D01*
X2821423Y27136997D01*
X2811163Y27123164D01*
X2799597Y27110403D01*
X2786836Y27098837D01*
X2773003Y27088577D01*
X2758230Y27079723D01*
X2742661Y27072359D01*
X2726445Y27066557D01*
X2709738Y27062372D01*
X2692702Y27059845D01*
X2675500Y27059000D01*
X2324500Y27059000D01*
X2307298Y27059845D01*
X2290262Y27062372D01*
X2273555Y27066557D01*
X2257339Y27072359D01*
X2241770Y27079723D01*
X2226997Y27088577D01*
X2213164Y27098837D01*
X2200403Y27110403D01*
X2188837Y27123164D01*
X2178577Y27136997D01*
X2169723Y27151770D01*
X2162359Y27167339D01*
X2156557Y27183555D01*
X2152372Y27200262D01*
X2149845Y27217298D01*
X2149000Y27234500D01*
X2149000Y28535500D01*
X2149845Y28552702D01*
X2152372Y28569738D01*
X2156557Y28586445D01*
X2162359Y28602661D01*
X2169723Y28618230D01*
X2178577Y28633003D01*
X2188837Y28646836D01*
X2200403Y28659597D01*
X2213164Y28671163D01*
X2226997Y28681423D01*
X2241770Y28690277D01*
X2257339Y28697641D01*
X2273555Y28703443D01*
X2290262Y28707628D01*
X2307298Y28710155D01*
X2324500Y28711000D01*
X2675500Y28711000D01*
X2692702Y28710155D01*
X2692702Y28710155D01*
G37*
D18*
X2500000Y27885000D03*
D10*
G36*
X1692702Y28710155D02*
G01*
X1709738Y28707628D01*
X1726445Y28703443D01*
X1742661Y28697641D01*
X1758230Y28690277D01*
X1773003Y28681423D01*
X1786836Y28671163D01*
X1799597Y28659597D01*
X1811163Y28646836D01*
X1821423Y28633003D01*
X1830277Y28618230D01*
X1837641Y28602661D01*
X1843443Y28586445D01*
X1847628Y28569738D01*
X1850155Y28552702D01*
X1851000Y28535500D01*
X1851000Y27234500D01*
X1850155Y27217298D01*
X1847628Y27200262D01*
X1843443Y27183555D01*
X1837641Y27167339D01*
X1830277Y27151770D01*
X1821423Y27136997D01*
X1811163Y27123164D01*
X1799597Y27110403D01*
X1786836Y27098837D01*
X1773003Y27088577D01*
X1758230Y27079723D01*
X1742661Y27072359D01*
X1726445Y27066557D01*
X1709738Y27062372D01*
X1692702Y27059845D01*
X1675500Y27059000D01*
X1324500Y27059000D01*
X1307298Y27059845D01*
X1290262Y27062372D01*
X1273555Y27066557D01*
X1257339Y27072359D01*
X1241770Y27079723D01*
X1226997Y27088577D01*
X1213164Y27098837D01*
X1200403Y27110403D01*
X1188837Y27123164D01*
X1178577Y27136997D01*
X1169723Y27151770D01*
X1162359Y27167339D01*
X1156557Y27183555D01*
X1152372Y27200262D01*
X1149845Y27217298D01*
X1149000Y27234500D01*
X1149000Y28535500D01*
X1149845Y28552702D01*
X1152372Y28569738D01*
X1156557Y28586445D01*
X1162359Y28602661D01*
X1169723Y28618230D01*
X1178577Y28633003D01*
X1188837Y28646836D01*
X1200403Y28659597D01*
X1213164Y28671163D01*
X1226997Y28681423D01*
X1241770Y28690277D01*
X1257339Y28697641D01*
X1273555Y28703443D01*
X1290262Y28707628D01*
X1307298Y28710155D01*
X1324500Y28711000D01*
X1675500Y28711000D01*
X1692702Y28710155D01*
X1692702Y28710155D01*
G37*
D18*
X1500000Y27885000D03*
D10*
G36*
X692702Y28710155D02*
G01*
X709738Y28707628D01*
X726445Y28703443D01*
X742661Y28697641D01*
X758230Y28690277D01*
X773003Y28681423D01*
X786836Y28671163D01*
X799597Y28659597D01*
X811163Y28646836D01*
X821423Y28633003D01*
X830277Y28618230D01*
X837641Y28602661D01*
X843443Y28586445D01*
X847628Y28569738D01*
X850155Y28552702D01*
X851000Y28535500D01*
X851000Y27234500D01*
X850155Y27217298D01*
X847628Y27200262D01*
X843443Y27183555D01*
X837641Y27167339D01*
X830277Y27151770D01*
X821423Y27136997D01*
X811163Y27123164D01*
X799597Y27110403D01*
X786836Y27098837D01*
X773003Y27088577D01*
X758230Y27079723D01*
X742661Y27072359D01*
X726445Y27066557D01*
X709738Y27062372D01*
X692702Y27059845D01*
X675500Y27059000D01*
X324500Y27059000D01*
X307298Y27059845D01*
X290262Y27062372D01*
X273555Y27066557D01*
X257339Y27072359D01*
X241770Y27079723D01*
X226997Y27088577D01*
X213164Y27098837D01*
X200403Y27110403D01*
X188837Y27123164D01*
X178577Y27136997D01*
X169723Y27151770D01*
X162359Y27167339D01*
X156557Y27183555D01*
X152372Y27200262D01*
X149845Y27217298D01*
X149000Y27234500D01*
X149000Y28535500D01*
X149845Y28552702D01*
X152372Y28569738D01*
X156557Y28586445D01*
X162359Y28602661D01*
X169723Y28618230D01*
X178577Y28633003D01*
X188837Y28646836D01*
X200403Y28659597D01*
X213164Y28671163D01*
X226997Y28681423D01*
X241770Y28690277D01*
X257339Y28697641D01*
X273555Y28703443D01*
X290262Y28707628D01*
X307298Y28710155D01*
X324500Y28711000D01*
X675500Y28711000D01*
X692702Y28710155D01*
X692702Y28710155D01*
G37*
D18*
X500000Y27885000D03*
D10*
G36*
X-307298Y28710155D02*
G01*
X-290262Y28707628D01*
X-273555Y28703443D01*
X-257339Y28697641D01*
X-241770Y28690277D01*
X-226997Y28681423D01*
X-213164Y28671163D01*
X-200403Y28659597D01*
X-188837Y28646836D01*
X-178577Y28633003D01*
X-169723Y28618230D01*
X-162359Y28602661D01*
X-156557Y28586445D01*
X-152372Y28569738D01*
X-149845Y28552702D01*
X-149000Y28535500D01*
X-149000Y27234500D01*
X-149845Y27217298D01*
X-152372Y27200262D01*
X-156557Y27183555D01*
X-162359Y27167339D01*
X-169723Y27151770D01*
X-178577Y27136997D01*
X-188837Y27123164D01*
X-200403Y27110403D01*
X-213164Y27098837D01*
X-226997Y27088577D01*
X-241770Y27079723D01*
X-257339Y27072359D01*
X-273555Y27066557D01*
X-290262Y27062372D01*
X-307298Y27059845D01*
X-324500Y27059000D01*
X-675500Y27059000D01*
X-692702Y27059845D01*
X-709738Y27062372D01*
X-726445Y27066557D01*
X-742661Y27072359D01*
X-758230Y27079723D01*
X-773003Y27088577D01*
X-786836Y27098837D01*
X-799597Y27110403D01*
X-811163Y27123164D01*
X-821423Y27136997D01*
X-830277Y27151770D01*
X-837641Y27167339D01*
X-843443Y27183555D01*
X-847628Y27200262D01*
X-850155Y27217298D01*
X-851000Y27234500D01*
X-851000Y28535500D01*
X-850155Y28552702D01*
X-847628Y28569738D01*
X-843443Y28586445D01*
X-837641Y28602661D01*
X-830277Y28618230D01*
X-821423Y28633003D01*
X-811163Y28646836D01*
X-799597Y28659597D01*
X-786836Y28671163D01*
X-773003Y28681423D01*
X-758230Y28690277D01*
X-742661Y28697641D01*
X-726445Y28703443D01*
X-709738Y28707628D01*
X-692702Y28710155D01*
X-675500Y28711000D01*
X-324500Y28711000D01*
X-307298Y28710155D01*
X-307298Y28710155D01*
G37*
D18*
X-500000Y27885000D03*
D10*
G36*
X-1307298Y28710155D02*
G01*
X-1290262Y28707628D01*
X-1273555Y28703443D01*
X-1257339Y28697641D01*
X-1241770Y28690277D01*
X-1226997Y28681423D01*
X-1213164Y28671163D01*
X-1200403Y28659597D01*
X-1188837Y28646836D01*
X-1178577Y28633003D01*
X-1169723Y28618230D01*
X-1162359Y28602661D01*
X-1156557Y28586445D01*
X-1152372Y28569738D01*
X-1149845Y28552702D01*
X-1149000Y28535500D01*
X-1149000Y27234500D01*
X-1149845Y27217298D01*
X-1152372Y27200262D01*
X-1156557Y27183555D01*
X-1162359Y27167339D01*
X-1169723Y27151770D01*
X-1178577Y27136997D01*
X-1188837Y27123164D01*
X-1200403Y27110403D01*
X-1213164Y27098837D01*
X-1226997Y27088577D01*
X-1241770Y27079723D01*
X-1257339Y27072359D01*
X-1273555Y27066557D01*
X-1290262Y27062372D01*
X-1307298Y27059845D01*
X-1324500Y27059000D01*
X-1675500Y27059000D01*
X-1692702Y27059845D01*
X-1709738Y27062372D01*
X-1726445Y27066557D01*
X-1742661Y27072359D01*
X-1758230Y27079723D01*
X-1773003Y27088577D01*
X-1786836Y27098837D01*
X-1799597Y27110403D01*
X-1811163Y27123164D01*
X-1821423Y27136997D01*
X-1830277Y27151770D01*
X-1837641Y27167339D01*
X-1843443Y27183555D01*
X-1847628Y27200262D01*
X-1850155Y27217298D01*
X-1851000Y27234500D01*
X-1851000Y28535500D01*
X-1850155Y28552702D01*
X-1847628Y28569738D01*
X-1843443Y28586445D01*
X-1837641Y28602661D01*
X-1830277Y28618230D01*
X-1821423Y28633003D01*
X-1811163Y28646836D01*
X-1799597Y28659597D01*
X-1786836Y28671163D01*
X-1773003Y28681423D01*
X-1758230Y28690277D01*
X-1742661Y28697641D01*
X-1726445Y28703443D01*
X-1709738Y28707628D01*
X-1692702Y28710155D01*
X-1675500Y28711000D01*
X-1324500Y28711000D01*
X-1307298Y28710155D01*
X-1307298Y28710155D01*
G37*
D18*
X-1500000Y27885000D03*
D10*
G36*
X-2307298Y28710155D02*
G01*
X-2290262Y28707628D01*
X-2273555Y28703443D01*
X-2257339Y28697641D01*
X-2241770Y28690277D01*
X-2226997Y28681423D01*
X-2213164Y28671163D01*
X-2200403Y28659597D01*
X-2188837Y28646836D01*
X-2178577Y28633003D01*
X-2169723Y28618230D01*
X-2162359Y28602661D01*
X-2156557Y28586445D01*
X-2152372Y28569738D01*
X-2149845Y28552702D01*
X-2149000Y28535500D01*
X-2149000Y27234500D01*
X-2149845Y27217298D01*
X-2152372Y27200262D01*
X-2156557Y27183555D01*
X-2162359Y27167339D01*
X-2169723Y27151770D01*
X-2178577Y27136997D01*
X-2188837Y27123164D01*
X-2200403Y27110403D01*
X-2213164Y27098837D01*
X-2226997Y27088577D01*
X-2241770Y27079723D01*
X-2257339Y27072359D01*
X-2273555Y27066557D01*
X-2290262Y27062372D01*
X-2307298Y27059845D01*
X-2324500Y27059000D01*
X-2675500Y27059000D01*
X-2692702Y27059845D01*
X-2709738Y27062372D01*
X-2726445Y27066557D01*
X-2742661Y27072359D01*
X-2758230Y27079723D01*
X-2773003Y27088577D01*
X-2786836Y27098837D01*
X-2799597Y27110403D01*
X-2811163Y27123164D01*
X-2821423Y27136997D01*
X-2830277Y27151770D01*
X-2837641Y27167339D01*
X-2843443Y27183555D01*
X-2847628Y27200262D01*
X-2850155Y27217298D01*
X-2851000Y27234500D01*
X-2851000Y28535500D01*
X-2850155Y28552702D01*
X-2847628Y28569738D01*
X-2843443Y28586445D01*
X-2837641Y28602661D01*
X-2830277Y28618230D01*
X-2821423Y28633003D01*
X-2811163Y28646836D01*
X-2799597Y28659597D01*
X-2786836Y28671163D01*
X-2773003Y28681423D01*
X-2758230Y28690277D01*
X-2742661Y28697641D01*
X-2726445Y28703443D01*
X-2709738Y28707628D01*
X-2692702Y28710155D01*
X-2675500Y28711000D01*
X-2324500Y28711000D01*
X-2307298Y28710155D01*
X-2307298Y28710155D01*
G37*
D18*
X-2500000Y27885000D03*
D10*
G36*
X4206338Y31359694D02*
G01*
X4232669Y31355788D01*
X4258490Y31349320D01*
X4283553Y31340352D01*
X4307617Y31328971D01*
X4330449Y31315286D01*
X4351830Y31299429D01*
X4371553Y31281553D01*
X4389429Y31261830D01*
X4405286Y31240449D01*
X4418971Y31217617D01*
X4430352Y31193553D01*
X4439320Y31168490D01*
X4445788Y31142669D01*
X4449694Y31116338D01*
X4451000Y31089751D01*
X4451000Y29730249D01*
X4449694Y29703662D01*
X4445788Y29677331D01*
X4439320Y29651510D01*
X4430352Y29626447D01*
X4418971Y29602383D01*
X4405286Y29579551D01*
X4389429Y29558170D01*
X4371553Y29538447D01*
X4351830Y29520571D01*
X4330449Y29504714D01*
X4307617Y29491029D01*
X4283553Y29479648D01*
X4258490Y29470680D01*
X4232669Y29464212D01*
X4206338Y29460306D01*
X4179751Y29459000D01*
X3420249Y29459000D01*
X3393662Y29460306D01*
X3367331Y29464212D01*
X3341510Y29470680D01*
X3316447Y29479648D01*
X3292383Y29491029D01*
X3269551Y29504714D01*
X3248170Y29520571D01*
X3228447Y29538447D01*
X3210571Y29558170D01*
X3194714Y29579551D01*
X3181029Y29602383D01*
X3169648Y29626447D01*
X3160680Y29651510D01*
X3154212Y29677331D01*
X3150306Y29703662D01*
X3149000Y29730249D01*
X3149000Y31089751D01*
X3150306Y31116338D01*
X3154212Y31142669D01*
X3160680Y31168490D01*
X3169648Y31193553D01*
X3181029Y31217617D01*
X3194714Y31240449D01*
X3210571Y31261830D01*
X3228447Y31281553D01*
X3248170Y31299429D01*
X3269551Y31315286D01*
X3292383Y31328971D01*
X3316447Y31340352D01*
X3341510Y31349320D01*
X3367331Y31355788D01*
X3393662Y31359694D01*
X3420249Y31361000D01*
X4179751Y31361000D01*
X4206338Y31359694D01*
X4206338Y31359694D01*
G37*
D19*
X3800000Y30410000D03*
D10*
G36*
X-3393662Y31359694D02*
G01*
X-3367331Y31355788D01*
X-3341510Y31349320D01*
X-3316447Y31340352D01*
X-3292383Y31328971D01*
X-3269551Y31315286D01*
X-3248170Y31299429D01*
X-3228447Y31281553D01*
X-3210571Y31261830D01*
X-3194714Y31240449D01*
X-3181029Y31217617D01*
X-3169648Y31193553D01*
X-3160680Y31168490D01*
X-3154212Y31142669D01*
X-3150306Y31116338D01*
X-3149000Y31089751D01*
X-3149000Y29730249D01*
X-3150306Y29703662D01*
X-3154212Y29677331D01*
X-3160680Y29651510D01*
X-3169648Y29626447D01*
X-3181029Y29602383D01*
X-3194714Y29579551D01*
X-3210571Y29558170D01*
X-3228447Y29538447D01*
X-3248170Y29520571D01*
X-3269551Y29504714D01*
X-3292383Y29491029D01*
X-3316447Y29479648D01*
X-3341510Y29470680D01*
X-3367331Y29464212D01*
X-3393662Y29460306D01*
X-3420249Y29459000D01*
X-4179751Y29459000D01*
X-4206338Y29460306D01*
X-4232669Y29464212D01*
X-4258490Y29470680D01*
X-4283553Y29479648D01*
X-4307617Y29491029D01*
X-4330449Y29504714D01*
X-4351830Y29520571D01*
X-4371553Y29538447D01*
X-4389429Y29558170D01*
X-4405286Y29579551D01*
X-4418971Y29602383D01*
X-4430352Y29626447D01*
X-4439320Y29651510D01*
X-4445788Y29677331D01*
X-4449694Y29703662D01*
X-4451000Y29730249D01*
X-4451000Y31089751D01*
X-4449694Y31116338D01*
X-4445788Y31142669D01*
X-4439320Y31168490D01*
X-4430352Y31193553D01*
X-4418971Y31217617D01*
X-4405286Y31240449D01*
X-4389429Y31261830D01*
X-4371553Y31281553D01*
X-4351830Y31299429D01*
X-4330449Y31315286D01*
X-4307617Y31328971D01*
X-4283553Y31340352D01*
X-4258490Y31349320D01*
X-4232669Y31355788D01*
X-4206338Y31359694D01*
X-4179751Y31361000D01*
X-3420249Y31361000D01*
X-3393662Y31359694D01*
X-3393662Y31359694D01*
G37*
D19*
X-3800000Y30410000D03*
D10*
G36*
X-595043Y20690167D02*
G01*
X-578249Y20687676D01*
X-561781Y20683551D01*
X-545796Y20677831D01*
X-530448Y20670572D01*
X-515886Y20661844D01*
X-502250Y20651731D01*
X-489671Y20640329D01*
X-478269Y20627750D01*
X-468156Y20614114D01*
X-459428Y20599552D01*
X-452169Y20584204D01*
X-446449Y20568219D01*
X-442324Y20551751D01*
X-439833Y20534957D01*
X-439000Y20518000D01*
X-439000Y20122000D01*
X-439833Y20105043D01*
X-442324Y20088249D01*
X-446449Y20071781D01*
X-452169Y20055796D01*
X-459428Y20040448D01*
X-468156Y20025886D01*
X-478269Y20012250D01*
X-489671Y19999671D01*
X-502250Y19988269D01*
X-515886Y19978156D01*
X-530448Y19969428D01*
X-545796Y19962169D01*
X-561781Y19956449D01*
X-578249Y19952324D01*
X-595043Y19949833D01*
X-612000Y19949000D01*
X-958000Y19949000D01*
X-974957Y19949833D01*
X-991751Y19952324D01*
X-1008219Y19956449D01*
X-1024204Y19962169D01*
X-1039552Y19969428D01*
X-1054114Y19978156D01*
X-1067750Y19988269D01*
X-1080329Y19999671D01*
X-1091731Y20012250D01*
X-1101844Y20025886D01*
X-1110572Y20040448D01*
X-1117831Y20055796D01*
X-1123551Y20071781D01*
X-1127676Y20088249D01*
X-1130167Y20105043D01*
X-1131000Y20122000D01*
X-1131000Y20518000D01*
X-1130167Y20534957D01*
X-1127676Y20551751D01*
X-1123551Y20568219D01*
X-1117831Y20584204D01*
X-1110572Y20599552D01*
X-1101844Y20614114D01*
X-1091731Y20627750D01*
X-1080329Y20640329D01*
X-1067750Y20651731D01*
X-1054114Y20661844D01*
X-1039552Y20670572D01*
X-1024204Y20677831D01*
X-1008219Y20683551D01*
X-991751Y20687676D01*
X-974957Y20690167D01*
X-958000Y20691000D01*
X-612000Y20691000D01*
X-595043Y20690167D01*
X-595043Y20690167D01*
G37*
D20*
X-785000Y20320000D03*
D10*
G36*
X-1565043Y20690167D02*
G01*
X-1548249Y20687676D01*
X-1531781Y20683551D01*
X-1515796Y20677831D01*
X-1500448Y20670572D01*
X-1485886Y20661844D01*
X-1472250Y20651731D01*
X-1459671Y20640329D01*
X-1448269Y20627750D01*
X-1438156Y20614114D01*
X-1429428Y20599552D01*
X-1422169Y20584204D01*
X-1416449Y20568219D01*
X-1412324Y20551751D01*
X-1409833Y20534957D01*
X-1409000Y20518000D01*
X-1409000Y20122000D01*
X-1409833Y20105043D01*
X-1412324Y20088249D01*
X-1416449Y20071781D01*
X-1422169Y20055796D01*
X-1429428Y20040448D01*
X-1438156Y20025886D01*
X-1448269Y20012250D01*
X-1459671Y19999671D01*
X-1472250Y19988269D01*
X-1485886Y19978156D01*
X-1500448Y19969428D01*
X-1515796Y19962169D01*
X-1531781Y19956449D01*
X-1548249Y19952324D01*
X-1565043Y19949833D01*
X-1582000Y19949000D01*
X-1928000Y19949000D01*
X-1944957Y19949833D01*
X-1961751Y19952324D01*
X-1978219Y19956449D01*
X-1994204Y19962169D01*
X-2009552Y19969428D01*
X-2024114Y19978156D01*
X-2037750Y19988269D01*
X-2050329Y19999671D01*
X-2061731Y20012250D01*
X-2071844Y20025886D01*
X-2080572Y20040448D01*
X-2087831Y20055796D01*
X-2093551Y20071781D01*
X-2097676Y20088249D01*
X-2100167Y20105043D01*
X-2101000Y20122000D01*
X-2101000Y20518000D01*
X-2100167Y20534957D01*
X-2097676Y20551751D01*
X-2093551Y20568219D01*
X-2087831Y20584204D01*
X-2080572Y20599552D01*
X-2071844Y20614114D01*
X-2061731Y20627750D01*
X-2050329Y20640329D01*
X-2037750Y20651731D01*
X-2024114Y20661844D01*
X-2009552Y20670572D01*
X-1994204Y20677831D01*
X-1978219Y20683551D01*
X-1961751Y20687676D01*
X-1944957Y20690167D01*
X-1928000Y20691000D01*
X-1582000Y20691000D01*
X-1565043Y20690167D01*
X-1565043Y20690167D01*
G37*
D20*
X-1755000Y20320000D03*
D10*
G36*
X1944957Y20690167D02*
G01*
X1961751Y20687676D01*
X1978219Y20683551D01*
X1994204Y20677831D01*
X2009552Y20670572D01*
X2024114Y20661844D01*
X2037750Y20651731D01*
X2050329Y20640329D01*
X2061731Y20627750D01*
X2071844Y20614114D01*
X2080572Y20599552D01*
X2087831Y20584204D01*
X2093551Y20568219D01*
X2097676Y20551751D01*
X2100167Y20534957D01*
X2101000Y20518000D01*
X2101000Y20122000D01*
X2100167Y20105043D01*
X2097676Y20088249D01*
X2093551Y20071781D01*
X2087831Y20055796D01*
X2080572Y20040448D01*
X2071844Y20025886D01*
X2061731Y20012250D01*
X2050329Y19999671D01*
X2037750Y19988269D01*
X2024114Y19978156D01*
X2009552Y19969428D01*
X1994204Y19962169D01*
X1978219Y19956449D01*
X1961751Y19952324D01*
X1944957Y19949833D01*
X1928000Y19949000D01*
X1582000Y19949000D01*
X1565043Y19949833D01*
X1548249Y19952324D01*
X1531781Y19956449D01*
X1515796Y19962169D01*
X1500448Y19969428D01*
X1485886Y19978156D01*
X1472250Y19988269D01*
X1459671Y19999671D01*
X1448269Y20012250D01*
X1438156Y20025886D01*
X1429428Y20040448D01*
X1422169Y20055796D01*
X1416449Y20071781D01*
X1412324Y20088249D01*
X1409833Y20105043D01*
X1409000Y20122000D01*
X1409000Y20518000D01*
X1409833Y20534957D01*
X1412324Y20551751D01*
X1416449Y20568219D01*
X1422169Y20584204D01*
X1429428Y20599552D01*
X1438156Y20614114D01*
X1448269Y20627750D01*
X1459671Y20640329D01*
X1472250Y20651731D01*
X1485886Y20661844D01*
X1500448Y20670572D01*
X1515796Y20677831D01*
X1531781Y20683551D01*
X1548249Y20687676D01*
X1565043Y20690167D01*
X1582000Y20691000D01*
X1928000Y20691000D01*
X1944957Y20690167D01*
X1944957Y20690167D01*
G37*
D20*
X1755000Y20320000D03*
D10*
G36*
X974957Y20690167D02*
G01*
X991751Y20687676D01*
X1008219Y20683551D01*
X1024204Y20677831D01*
X1039552Y20670572D01*
X1054114Y20661844D01*
X1067750Y20651731D01*
X1080329Y20640329D01*
X1091731Y20627750D01*
X1101844Y20614114D01*
X1110572Y20599552D01*
X1117831Y20584204D01*
X1123551Y20568219D01*
X1127676Y20551751D01*
X1130167Y20534957D01*
X1131000Y20518000D01*
X1131000Y20122000D01*
X1130167Y20105043D01*
X1127676Y20088249D01*
X1123551Y20071781D01*
X1117831Y20055796D01*
X1110572Y20040448D01*
X1101844Y20025886D01*
X1091731Y20012250D01*
X1080329Y19999671D01*
X1067750Y19988269D01*
X1054114Y19978156D01*
X1039552Y19969428D01*
X1024204Y19962169D01*
X1008219Y19956449D01*
X991751Y19952324D01*
X974957Y19949833D01*
X958000Y19949000D01*
X612000Y19949000D01*
X595043Y19949833D01*
X578249Y19952324D01*
X561781Y19956449D01*
X545796Y19962169D01*
X530448Y19969428D01*
X515886Y19978156D01*
X502250Y19988269D01*
X489671Y19999671D01*
X478269Y20012250D01*
X468156Y20025886D01*
X459428Y20040448D01*
X452169Y20055796D01*
X446449Y20071781D01*
X442324Y20088249D01*
X439833Y20105043D01*
X439000Y20122000D01*
X439000Y20518000D01*
X439833Y20534957D01*
X442324Y20551751D01*
X446449Y20568219D01*
X452169Y20584204D01*
X459428Y20599552D01*
X468156Y20614114D01*
X478269Y20627750D01*
X489671Y20640329D01*
X502250Y20651731D01*
X515886Y20661844D01*
X530448Y20670572D01*
X545796Y20677831D01*
X561781Y20683551D01*
X578249Y20687676D01*
X595043Y20690167D01*
X612000Y20691000D01*
X958000Y20691000D01*
X974957Y20690167D01*
X974957Y20690167D01*
G37*
D20*
X785000Y20320000D03*
D16*
X-17470000Y-3390000D03*
X-17470000Y-850000D03*
X-17470000Y1690000D03*
D17*
X-17470000Y4230000D03*
D16*
X-25090000Y-3390000D03*
X-25090000Y-850000D03*
X-25090000Y1690000D03*
D17*
X-25090000Y4230000D03*
M02*
