G04 #@! TF.GenerationSoftware,KiCad,Pcbnew,(5.1.4)-1*
G04 #@! TF.CreationDate,2021-07-20T22:26:21+09:00*
G04 #@! TF.ProjectId,UAV2021_ver3_panelizing,55415632-3032-4315-9f76-6572335f7061,rev?*
G04 #@! TF.SameCoordinates,Original*
G04 #@! TF.FileFunction,Profile,NP*
%FSLAX46Y46*%
G04 Gerber Fmt 4.6, Leading zero omitted, Abs format (unit mm)*
G04 Created by KiCad (PCBNEW (5.1.4)-1) date 2021-07-20 22:26:21*
%MOMM*%
%LPD*%
G04 APERTURE LIST*
%ADD10C,0.050000*%
G04 APERTURE END LIST*
D10*
X-15000000Y-23500000D02*
X-15000000Y-4660000D01*
X-16200000Y-4660000D02*
X-15000000Y-4660000D01*
X-16200000Y5500000D02*
X-15000000Y5500000D01*
X-15100000Y-3800000D02*
G75*
G03X-15100000Y-3800000I-500000J0D01*
G01*
X-15100000Y-2600000D02*
G75*
G03X-15100000Y-2600000I-500000J0D01*
G01*
X-15100000Y-1400000D02*
G75*
G03X-15100000Y-1400000I-500000J0D01*
G01*
X-15100000Y-200000D02*
G75*
G03X-15100000Y-200000I-500000J0D01*
G01*
X-15100000Y1000000D02*
G75*
G03X-15100000Y1000000I-500000J0D01*
G01*
X-15100000Y2200000D02*
G75*
G03X-15100000Y2200000I-500000J0D01*
G01*
X-15100000Y3400000D02*
G75*
G03X-15100000Y3400000I-500000J0D01*
G01*
X-15100000Y4600000D02*
G75*
G03X-15100000Y4600000I-500000J0D01*
G01*
X-7000000Y31500000D02*
X7000000Y31500000D01*
X15000000Y23500000D02*
X15000000Y13500000D01*
X-15000000Y5500000D02*
X-15000000Y23500000D01*
X-6000000Y-36000000D02*
X6000000Y-36000000D01*
X15000000Y-13500000D02*
X15000000Y-23500000D01*
X15000000Y-13500000D02*
X16000000Y-12500000D01*
X16000000Y-12500000D02*
X16000000Y12000000D01*
X15000000Y13500000D02*
X16000000Y12500000D01*
X16000000Y12500000D02*
X16000000Y12000000D01*
X-17500000Y37000000D02*
G75*
G02X-20500000Y34000000I0J-3000000D01*
G01*
X-20500000Y34000000D02*
X-21500000Y33000000D01*
X-21500000Y33000000D02*
X-21500000Y30000000D01*
X-21500000Y30000000D02*
X-15000000Y23500000D01*
X-17500000Y37000000D02*
X-16500000Y38000000D01*
X-16500000Y38000000D02*
X-13500000Y38000000D01*
X-13500000Y38000000D02*
X-7000000Y31500000D01*
X16500000Y38000000D02*
X13500000Y38000000D01*
X17500000Y37000000D02*
X16500000Y38000000D01*
X13500000Y38000000D02*
X7000000Y31500000D01*
X20500000Y34000000D02*
X21500000Y33000000D01*
X21500000Y30000000D02*
X15000000Y23500000D01*
X21500000Y33000000D02*
X21500000Y30000000D01*
X20500000Y34000000D02*
G75*
G02X17500000Y37000000I-3000000J0D01*
G01*
X-16500000Y-38000000D02*
X-13500000Y-38000000D01*
X-17500000Y-37000000D02*
X-16500000Y-38000000D01*
X-13500000Y-38000000D02*
X-8750000Y-33250000D01*
X-20500000Y-34000000D02*
X-21500000Y-33000000D01*
X-21500000Y-30000000D02*
X-15000000Y-23500000D01*
X-21500000Y-33000000D02*
X-21500000Y-30000000D01*
X-20500000Y-34000000D02*
G75*
G02X-17500000Y-37000000I3000000J0D01*
G01*
X21500000Y-33000000D02*
X21500000Y-30000000D01*
X20500000Y-34000000D02*
X21500000Y-33000000D01*
X21500000Y-30000000D02*
X15000000Y-23500000D01*
X17500000Y-37000000D02*
X16500000Y-38000000D01*
X13500000Y-38000000D02*
X8750000Y-33250000D01*
X16500000Y-38000000D02*
X13500000Y-38000000D01*
X17500000Y-37000000D02*
G75*
G02X20500000Y-34000000I0J3000000D01*
G01*
X6000000Y-36000000D02*
X8500000Y-33500000D01*
X8500000Y-33500000D02*
X8500000Y-33500000D01*
X-6000000Y-36000000D02*
X-8500000Y-33500000D01*
X-8500000Y-33500000D02*
X-8750000Y-33250000D01*
X8500000Y-33500000D02*
X8750000Y-33250000D01*
X-26360000Y-4660000D02*
X-26360000Y5500000D01*
X-16200000Y-4660000D02*
X-26360000Y-4660000D01*
X-26360000Y5500000D02*
X-16200000Y5500000D01*
M02*
