G04 #@! TF.GenerationSoftware,KiCad,Pcbnew,(5.1.4)-1*
G04 #@! TF.CreationDate,2021-07-20T22:26:21+09:00*
G04 #@! TF.ProjectId,UAV2021_ver3_panelizing,55415632-3032-4315-9f76-6572335f7061,rev?*
G04 #@! TF.SameCoordinates,Original*
G04 #@! TF.FileFunction,Soldermask,Top*
G04 #@! TF.FilePolarity,Negative*
%FSLAX46Y46*%
G04 Gerber Fmt 4.6, Leading zero omitted, Abs format (unit mm)*
G04 Created by KiCad (PCBNEW (5.1.4)-1) date 2021-07-20 22:26:21*
%MOMM*%
%LPD*%
G04 APERTURE LIST*
%ADD10C,0.100000*%
G04 APERTURE END LIST*
D10*
G36*
X3775880Y-30759776D02*
G01*
X4156593Y-30835504D01*
X4566249Y-31005189D01*
X4934929Y-31251534D01*
X5248466Y-31565071D01*
X5494811Y-31933751D01*
X5664496Y-32343407D01*
X5751000Y-32778296D01*
X5751000Y-33221704D01*
X5664496Y-33656593D01*
X5494811Y-34066249D01*
X5248466Y-34434929D01*
X4934929Y-34748466D01*
X4566249Y-34994811D01*
X4156593Y-35164496D01*
X3775880Y-35240224D01*
X3721705Y-35251000D01*
X3278295Y-35251000D01*
X3224120Y-35240224D01*
X2843407Y-35164496D01*
X2433751Y-34994811D01*
X2065071Y-34748466D01*
X1751534Y-34434929D01*
X1505189Y-34066249D01*
X1335504Y-33656593D01*
X1249000Y-33221704D01*
X1249000Y-32778296D01*
X1335504Y-32343407D01*
X1505189Y-31933751D01*
X1751534Y-31565071D01*
X2065071Y-31251534D01*
X2433751Y-31005189D01*
X2843407Y-30835504D01*
X3224120Y-30759776D01*
X3278295Y-30749000D01*
X3721705Y-30749000D01*
X3775880Y-30759776D01*
X3775880Y-30759776D01*
G37*
G36*
X-3224120Y-30759776D02*
G01*
X-2843407Y-30835504D01*
X-2433751Y-31005189D01*
X-2065071Y-31251534D01*
X-1751534Y-31565071D01*
X-1505189Y-31933751D01*
X-1335504Y-32343407D01*
X-1249000Y-32778296D01*
X-1249000Y-33221704D01*
X-1335504Y-33656593D01*
X-1505189Y-34066249D01*
X-1751534Y-34434929D01*
X-2065071Y-34748466D01*
X-2433751Y-34994811D01*
X-2843407Y-35164496D01*
X-3224120Y-35240224D01*
X-3278295Y-35251000D01*
X-3721705Y-35251000D01*
X-3775880Y-35240224D01*
X-4156593Y-35164496D01*
X-4566249Y-34994811D01*
X-4934929Y-34748466D01*
X-5248466Y-34434929D01*
X-5494811Y-34066249D01*
X-5664496Y-33656593D01*
X-5751000Y-33221704D01*
X-5751000Y-32778296D01*
X-5664496Y-32343407D01*
X-5494811Y-31933751D01*
X-5248466Y-31565071D01*
X-4934929Y-31251534D01*
X-4566249Y-31005189D01*
X-4156593Y-30835504D01*
X-3775880Y-30759776D01*
X-3721705Y-30749000D01*
X-3278295Y-30749000D01*
X-3224120Y-30759776D01*
X-3224120Y-30759776D01*
G37*
G36*
X-12589558Y-28315518D02*
G01*
X-12523373Y-28322037D01*
X-12353534Y-28373557D01*
X-12197009Y-28457222D01*
X-12161271Y-28486552D01*
X-12059814Y-28569814D01*
X-11986622Y-28659000D01*
X-11947222Y-28707009D01*
X-11863557Y-28863534D01*
X-11812037Y-29033373D01*
X-11794641Y-29210000D01*
X-11812037Y-29386627D01*
X-11863557Y-29556466D01*
X-11947222Y-29712991D01*
X-11976552Y-29748729D01*
X-12059814Y-29850186D01*
X-12161271Y-29933448D01*
X-12197009Y-29962778D01*
X-12353534Y-30046443D01*
X-12523373Y-30097963D01*
X-12589558Y-30104482D01*
X-12655740Y-30111000D01*
X-12744260Y-30111000D01*
X-12810442Y-30104482D01*
X-12876627Y-30097963D01*
X-13046466Y-30046443D01*
X-13202991Y-29962778D01*
X-13238729Y-29933448D01*
X-13340186Y-29850186D01*
X-13423448Y-29748729D01*
X-13452778Y-29712991D01*
X-13536443Y-29556466D01*
X-13587963Y-29386627D01*
X-13605359Y-29210000D01*
X-13587963Y-29033373D01*
X-13536443Y-28863534D01*
X-13452778Y-28707009D01*
X-13413378Y-28659000D01*
X-13340186Y-28569814D01*
X-13238729Y-28486552D01*
X-13202991Y-28457222D01*
X-13046466Y-28373557D01*
X-12876627Y-28322037D01*
X-12810442Y-28315518D01*
X-12744260Y-28309000D01*
X-12655740Y-28309000D01*
X-12589558Y-28315518D01*
X-12589558Y-28315518D01*
G37*
G36*
X12810442Y-28315518D02*
G01*
X12876627Y-28322037D01*
X13046466Y-28373557D01*
X13202991Y-28457222D01*
X13238729Y-28486552D01*
X13340186Y-28569814D01*
X13413378Y-28659000D01*
X13452778Y-28707009D01*
X13536443Y-28863534D01*
X13587963Y-29033373D01*
X13605359Y-29210000D01*
X13587963Y-29386627D01*
X13536443Y-29556466D01*
X13452778Y-29712991D01*
X13423448Y-29748729D01*
X13340186Y-29850186D01*
X13238729Y-29933448D01*
X13202991Y-29962778D01*
X13046466Y-30046443D01*
X12876627Y-30097963D01*
X12810442Y-30104482D01*
X12744260Y-30111000D01*
X12655740Y-30111000D01*
X12589558Y-30104482D01*
X12523373Y-30097963D01*
X12353534Y-30046443D01*
X12197009Y-29962778D01*
X12161271Y-29933448D01*
X12059814Y-29850186D01*
X11976552Y-29748729D01*
X11947222Y-29712991D01*
X11863557Y-29556466D01*
X11812037Y-29386627D01*
X11794641Y-29210000D01*
X11812037Y-29033373D01*
X11863557Y-28863534D01*
X11947222Y-28707009D01*
X11986622Y-28659000D01*
X12059814Y-28569814D01*
X12161271Y-28486552D01*
X12197009Y-28457222D01*
X12353534Y-28373557D01*
X12523373Y-28322037D01*
X12589558Y-28315518D01*
X12655740Y-28309000D01*
X12744260Y-28309000D01*
X12810442Y-28315518D01*
X12810442Y-28315518D01*
G37*
G36*
X6971000Y-29761000D02*
G01*
X4969000Y-29761000D01*
X4969000Y-28659000D01*
X6971000Y-28659000D01*
X6971000Y-29761000D01*
X6971000Y-29761000D01*
G37*
G36*
X-4969000Y-29761000D02*
G01*
X-6971000Y-29761000D01*
X-6971000Y-28659000D01*
X-4969000Y-28659000D01*
X-4969000Y-29761000D01*
X-4969000Y-29761000D01*
G37*
G36*
X12810442Y-25775518D02*
G01*
X12876627Y-25782037D01*
X13046466Y-25833557D01*
X13202991Y-25917222D01*
X13238729Y-25946552D01*
X13340186Y-26029814D01*
X13413378Y-26119000D01*
X13452778Y-26167009D01*
X13536443Y-26323534D01*
X13587963Y-26493373D01*
X13605359Y-26670000D01*
X13587963Y-26846627D01*
X13536443Y-27016466D01*
X13452778Y-27172991D01*
X13423448Y-27208729D01*
X13340186Y-27310186D01*
X13238729Y-27393448D01*
X13202991Y-27422778D01*
X13046466Y-27506443D01*
X12876627Y-27557963D01*
X12810442Y-27564482D01*
X12744260Y-27571000D01*
X12655740Y-27571000D01*
X12589558Y-27564482D01*
X12523373Y-27557963D01*
X12353534Y-27506443D01*
X12197009Y-27422778D01*
X12161271Y-27393448D01*
X12059814Y-27310186D01*
X11976552Y-27208729D01*
X11947222Y-27172991D01*
X11863557Y-27016466D01*
X11812037Y-26846627D01*
X11794641Y-26670000D01*
X11812037Y-26493373D01*
X11863557Y-26323534D01*
X11947222Y-26167009D01*
X11986622Y-26119000D01*
X12059814Y-26029814D01*
X12161271Y-25946552D01*
X12197009Y-25917222D01*
X12353534Y-25833557D01*
X12523373Y-25782037D01*
X12589557Y-25775519D01*
X12655740Y-25769000D01*
X12744260Y-25769000D01*
X12810442Y-25775518D01*
X12810442Y-25775518D01*
G37*
G36*
X-12589557Y-25775519D02*
G01*
X-12523373Y-25782037D01*
X-12353534Y-25833557D01*
X-12197009Y-25917222D01*
X-12161271Y-25946552D01*
X-12059814Y-26029814D01*
X-11986622Y-26119000D01*
X-11947222Y-26167009D01*
X-11863557Y-26323534D01*
X-11812037Y-26493373D01*
X-11794641Y-26670000D01*
X-11812037Y-26846627D01*
X-11863557Y-27016466D01*
X-11947222Y-27172991D01*
X-11976552Y-27208729D01*
X-12059814Y-27310186D01*
X-12161271Y-27393448D01*
X-12197009Y-27422778D01*
X-12353534Y-27506443D01*
X-12523373Y-27557963D01*
X-12589558Y-27564482D01*
X-12655740Y-27571000D01*
X-12744260Y-27571000D01*
X-12810442Y-27564482D01*
X-12876627Y-27557963D01*
X-13046466Y-27506443D01*
X-13202991Y-27422778D01*
X-13238729Y-27393448D01*
X-13340186Y-27310186D01*
X-13423448Y-27208729D01*
X-13452778Y-27172991D01*
X-13536443Y-27016466D01*
X-13587963Y-26846627D01*
X-13605359Y-26670000D01*
X-13587963Y-26493373D01*
X-13536443Y-26323534D01*
X-13452778Y-26167009D01*
X-13413378Y-26119000D01*
X-13340186Y-26029814D01*
X-13238729Y-25946552D01*
X-13202991Y-25917222D01*
X-13046466Y-25833557D01*
X-12876627Y-25782037D01*
X-12810442Y-25775518D01*
X-12744260Y-25769000D01*
X-12655740Y-25769000D01*
X-12589557Y-25775519D01*
X-12589557Y-25775519D01*
G37*
G36*
X-8269000Y-27221000D02*
G01*
X-10271000Y-27221000D01*
X-10271000Y-26119000D01*
X-8269000Y-26119000D01*
X-8269000Y-27221000D01*
X-8269000Y-27221000D01*
G37*
G36*
X-4459000Y-27221000D02*
G01*
X-6461000Y-27221000D01*
X-6461000Y-26119000D01*
X-4459000Y-26119000D01*
X-4459000Y-27221000D01*
X-4459000Y-27221000D01*
G37*
G36*
X6461000Y-27221000D02*
G01*
X4459000Y-27221000D01*
X4459000Y-26119000D01*
X6461000Y-26119000D01*
X6461000Y-27221000D01*
X6461000Y-27221000D01*
G37*
G36*
X10271000Y-27221000D02*
G01*
X8269000Y-27221000D01*
X8269000Y-26119000D01*
X10271000Y-26119000D01*
X10271000Y-27221000D01*
X10271000Y-27221000D01*
G37*
G36*
X-12589558Y-23235518D02*
G01*
X-12523373Y-23242037D01*
X-12353534Y-23293557D01*
X-12197009Y-23377222D01*
X-12161271Y-23406552D01*
X-12059814Y-23489814D01*
X-11986622Y-23579000D01*
X-11947222Y-23627009D01*
X-11863557Y-23783534D01*
X-11812037Y-23953373D01*
X-11794641Y-24130000D01*
X-11812037Y-24306627D01*
X-11863557Y-24476466D01*
X-11947222Y-24632991D01*
X-11976552Y-24668729D01*
X-12059814Y-24770186D01*
X-12161271Y-24853448D01*
X-12197009Y-24882778D01*
X-12353534Y-24966443D01*
X-12523373Y-25017963D01*
X-12589557Y-25024481D01*
X-12655740Y-25031000D01*
X-12744260Y-25031000D01*
X-12810443Y-25024481D01*
X-12876627Y-25017963D01*
X-13046466Y-24966443D01*
X-13202991Y-24882778D01*
X-13238729Y-24853448D01*
X-13340186Y-24770186D01*
X-13423448Y-24668729D01*
X-13452778Y-24632991D01*
X-13536443Y-24476466D01*
X-13587963Y-24306627D01*
X-13605359Y-24130000D01*
X-13587963Y-23953373D01*
X-13536443Y-23783534D01*
X-13452778Y-23627009D01*
X-13413378Y-23579000D01*
X-13340186Y-23489814D01*
X-13238729Y-23406552D01*
X-13202991Y-23377222D01*
X-13046466Y-23293557D01*
X-12876627Y-23242037D01*
X-12810442Y-23235518D01*
X-12744260Y-23229000D01*
X-12655740Y-23229000D01*
X-12589558Y-23235518D01*
X-12589558Y-23235518D01*
G37*
G36*
X12810442Y-23235518D02*
G01*
X12876627Y-23242037D01*
X13046466Y-23293557D01*
X13202991Y-23377222D01*
X13238729Y-23406552D01*
X13340186Y-23489814D01*
X13413378Y-23579000D01*
X13452778Y-23627009D01*
X13536443Y-23783534D01*
X13587963Y-23953373D01*
X13605359Y-24130000D01*
X13587963Y-24306627D01*
X13536443Y-24476466D01*
X13452778Y-24632991D01*
X13423448Y-24668729D01*
X13340186Y-24770186D01*
X13238729Y-24853448D01*
X13202991Y-24882778D01*
X13046466Y-24966443D01*
X12876627Y-25017963D01*
X12810443Y-25024481D01*
X12744260Y-25031000D01*
X12655740Y-25031000D01*
X12589557Y-25024481D01*
X12523373Y-25017963D01*
X12353534Y-24966443D01*
X12197009Y-24882778D01*
X12161271Y-24853448D01*
X12059814Y-24770186D01*
X11976552Y-24668729D01*
X11947222Y-24632991D01*
X11863557Y-24476466D01*
X11812037Y-24306627D01*
X11794641Y-24130000D01*
X11812037Y-23953373D01*
X11863557Y-23783534D01*
X11947222Y-23627009D01*
X11986622Y-23579000D01*
X12059814Y-23489814D01*
X12161271Y-23406552D01*
X12197009Y-23377222D01*
X12353534Y-23293557D01*
X12523373Y-23242037D01*
X12589558Y-23235518D01*
X12655740Y-23229000D01*
X12744260Y-23229000D01*
X12810442Y-23235518D01*
X12810442Y-23235518D01*
G37*
G36*
X3161000Y-24681000D02*
G01*
X1159000Y-24681000D01*
X1159000Y-23579000D01*
X3161000Y-23579000D01*
X3161000Y-24681000D01*
X3161000Y-24681000D01*
G37*
G36*
X6971000Y-24681000D02*
G01*
X4969000Y-24681000D01*
X4969000Y-23579000D01*
X6971000Y-23579000D01*
X6971000Y-24681000D01*
X6971000Y-24681000D01*
G37*
G36*
X-4969000Y-24681000D02*
G01*
X-6971000Y-24681000D01*
X-6971000Y-23579000D01*
X-4969000Y-23579000D01*
X-4969000Y-24681000D01*
X-4969000Y-24681000D01*
G37*
G36*
X-1159000Y-24681000D02*
G01*
X-3161000Y-24681000D01*
X-3161000Y-23579000D01*
X-1159000Y-23579000D01*
X-1159000Y-24681000D01*
X-1159000Y-24681000D01*
G37*
G36*
X12810443Y-20695519D02*
G01*
X12876627Y-20702037D01*
X13046466Y-20753557D01*
X13202991Y-20837222D01*
X13238729Y-20866552D01*
X13340186Y-20949814D01*
X13413378Y-21039000D01*
X13452778Y-21087009D01*
X13536443Y-21243534D01*
X13587963Y-21413373D01*
X13605359Y-21590000D01*
X13587963Y-21766627D01*
X13536443Y-21936466D01*
X13452778Y-22092991D01*
X13423448Y-22128729D01*
X13340186Y-22230186D01*
X13238729Y-22313448D01*
X13202991Y-22342778D01*
X13046466Y-22426443D01*
X12876627Y-22477963D01*
X12810442Y-22484482D01*
X12744260Y-22491000D01*
X12655740Y-22491000D01*
X12589558Y-22484482D01*
X12523373Y-22477963D01*
X12353534Y-22426443D01*
X12197009Y-22342778D01*
X12161271Y-22313448D01*
X12059814Y-22230186D01*
X11976552Y-22128729D01*
X11947222Y-22092991D01*
X11863557Y-21936466D01*
X11812037Y-21766627D01*
X11794641Y-21590000D01*
X11812037Y-21413373D01*
X11863557Y-21243534D01*
X11947222Y-21087009D01*
X11986622Y-21039000D01*
X12059814Y-20949814D01*
X12161271Y-20866552D01*
X12197009Y-20837222D01*
X12353534Y-20753557D01*
X12523373Y-20702037D01*
X12589557Y-20695519D01*
X12655740Y-20689000D01*
X12744260Y-20689000D01*
X12810443Y-20695519D01*
X12810443Y-20695519D01*
G37*
G36*
X-12589557Y-20695519D02*
G01*
X-12523373Y-20702037D01*
X-12353534Y-20753557D01*
X-12197009Y-20837222D01*
X-12161271Y-20866552D01*
X-12059814Y-20949814D01*
X-11986622Y-21039000D01*
X-11947222Y-21087009D01*
X-11863557Y-21243534D01*
X-11812037Y-21413373D01*
X-11794641Y-21590000D01*
X-11812037Y-21766627D01*
X-11863557Y-21936466D01*
X-11947222Y-22092991D01*
X-11976552Y-22128729D01*
X-12059814Y-22230186D01*
X-12161271Y-22313448D01*
X-12197009Y-22342778D01*
X-12353534Y-22426443D01*
X-12523373Y-22477963D01*
X-12589558Y-22484482D01*
X-12655740Y-22491000D01*
X-12744260Y-22491000D01*
X-12810442Y-22484482D01*
X-12876627Y-22477963D01*
X-13046466Y-22426443D01*
X-13202991Y-22342778D01*
X-13238729Y-22313448D01*
X-13340186Y-22230186D01*
X-13423448Y-22128729D01*
X-13452778Y-22092991D01*
X-13536443Y-21936466D01*
X-13587963Y-21766627D01*
X-13605359Y-21590000D01*
X-13587963Y-21413373D01*
X-13536443Y-21243534D01*
X-13452778Y-21087009D01*
X-13413378Y-21039000D01*
X-13340186Y-20949814D01*
X-13238729Y-20866552D01*
X-13202991Y-20837222D01*
X-13046466Y-20753557D01*
X-12876627Y-20702037D01*
X-12810443Y-20695519D01*
X-12744260Y-20689000D01*
X-12655740Y-20689000D01*
X-12589557Y-20695519D01*
X-12589557Y-20695519D01*
G37*
G36*
X10271000Y-22141000D02*
G01*
X8269000Y-22141000D01*
X8269000Y-21039000D01*
X10271000Y-21039000D01*
X10271000Y-22141000D01*
X10271000Y-22141000D01*
G37*
G36*
X-8269000Y-22141000D02*
G01*
X-10271000Y-22141000D01*
X-10271000Y-21039000D01*
X-8269000Y-21039000D01*
X-8269000Y-22141000D01*
X-8269000Y-22141000D01*
G37*
G36*
X6461000Y-22141000D02*
G01*
X4459000Y-22141000D01*
X4459000Y-21039000D01*
X6461000Y-21039000D01*
X6461000Y-22141000D01*
X6461000Y-22141000D01*
G37*
G36*
X-4459000Y-22141000D02*
G01*
X-6461000Y-22141000D01*
X-6461000Y-21039000D01*
X-4459000Y-21039000D01*
X-4459000Y-22141000D01*
X-4459000Y-22141000D01*
G37*
G36*
X12810442Y-18155518D02*
G01*
X12876627Y-18162037D01*
X13046466Y-18213557D01*
X13202991Y-18297222D01*
X13238729Y-18326552D01*
X13340186Y-18409814D01*
X13413378Y-18499000D01*
X13452778Y-18547009D01*
X13536443Y-18703534D01*
X13587963Y-18873373D01*
X13605359Y-19050000D01*
X13587963Y-19226627D01*
X13536443Y-19396466D01*
X13452778Y-19552991D01*
X13423448Y-19588729D01*
X13340186Y-19690186D01*
X13238729Y-19773448D01*
X13202991Y-19802778D01*
X13046466Y-19886443D01*
X12876627Y-19937963D01*
X12810442Y-19944482D01*
X12744260Y-19951000D01*
X12655740Y-19951000D01*
X12589558Y-19944482D01*
X12523373Y-19937963D01*
X12353534Y-19886443D01*
X12197009Y-19802778D01*
X12161271Y-19773448D01*
X12059814Y-19690186D01*
X11976552Y-19588729D01*
X11947222Y-19552991D01*
X11863557Y-19396466D01*
X11812037Y-19226627D01*
X11794641Y-19050000D01*
X11812037Y-18873373D01*
X11863557Y-18703534D01*
X11947222Y-18547009D01*
X11986622Y-18499000D01*
X12059814Y-18409814D01*
X12161271Y-18326552D01*
X12197009Y-18297222D01*
X12353534Y-18213557D01*
X12523373Y-18162037D01*
X12589558Y-18155518D01*
X12655740Y-18149000D01*
X12744260Y-18149000D01*
X12810442Y-18155518D01*
X12810442Y-18155518D01*
G37*
G36*
X-12589558Y-18155518D02*
G01*
X-12523373Y-18162037D01*
X-12353534Y-18213557D01*
X-12197009Y-18297222D01*
X-12161271Y-18326552D01*
X-12059814Y-18409814D01*
X-11986622Y-18499000D01*
X-11947222Y-18547009D01*
X-11863557Y-18703534D01*
X-11812037Y-18873373D01*
X-11794641Y-19050000D01*
X-11812037Y-19226627D01*
X-11863557Y-19396466D01*
X-11947222Y-19552991D01*
X-11976552Y-19588729D01*
X-12059814Y-19690186D01*
X-12161271Y-19773448D01*
X-12197009Y-19802778D01*
X-12353534Y-19886443D01*
X-12523373Y-19937963D01*
X-12589558Y-19944482D01*
X-12655740Y-19951000D01*
X-12744260Y-19951000D01*
X-12810442Y-19944482D01*
X-12876627Y-19937963D01*
X-13046466Y-19886443D01*
X-13202991Y-19802778D01*
X-13238729Y-19773448D01*
X-13340186Y-19690186D01*
X-13423448Y-19588729D01*
X-13452778Y-19552991D01*
X-13536443Y-19396466D01*
X-13587963Y-19226627D01*
X-13605359Y-19050000D01*
X-13587963Y-18873373D01*
X-13536443Y-18703534D01*
X-13452778Y-18547009D01*
X-13413378Y-18499000D01*
X-13340186Y-18409814D01*
X-13238729Y-18326552D01*
X-13202991Y-18297222D01*
X-13046466Y-18213557D01*
X-12876627Y-18162037D01*
X-12810442Y-18155518D01*
X-12744260Y-18149000D01*
X-12655740Y-18149000D01*
X-12589558Y-18155518D01*
X-12589558Y-18155518D01*
G37*
G36*
X-1159000Y-19601000D02*
G01*
X-3161000Y-19601000D01*
X-3161000Y-18499000D01*
X-1159000Y-18499000D01*
X-1159000Y-19601000D01*
X-1159000Y-19601000D01*
G37*
G36*
X6971000Y-19601000D02*
G01*
X4969000Y-19601000D01*
X4969000Y-18499000D01*
X6971000Y-18499000D01*
X6971000Y-19601000D01*
X6971000Y-19601000D01*
G37*
G36*
X-4969000Y-19601000D02*
G01*
X-6971000Y-19601000D01*
X-6971000Y-18499000D01*
X-4969000Y-18499000D01*
X-4969000Y-19601000D01*
X-4969000Y-19601000D01*
G37*
G36*
X3161000Y-19601000D02*
G01*
X1159000Y-19601000D01*
X1159000Y-18499000D01*
X3161000Y-18499000D01*
X3161000Y-19601000D01*
X3161000Y-19601000D01*
G37*
G36*
X-11799000Y-17411000D02*
G01*
X-13601000Y-17411000D01*
X-13601000Y-15609000D01*
X-11799000Y-15609000D01*
X-11799000Y-17411000D01*
X-11799000Y-17411000D01*
G37*
G36*
X13601000Y-17411000D02*
G01*
X11799000Y-17411000D01*
X11799000Y-15609000D01*
X13601000Y-15609000D01*
X13601000Y-17411000D01*
X13601000Y-17411000D01*
G37*
G36*
X6461000Y-17061000D02*
G01*
X4459000Y-17061000D01*
X4459000Y-15959000D01*
X6461000Y-15959000D01*
X6461000Y-17061000D01*
X6461000Y-17061000D01*
G37*
G36*
X10271000Y-17061000D02*
G01*
X8269000Y-17061000D01*
X8269000Y-15959000D01*
X10271000Y-15959000D01*
X10271000Y-17061000D01*
X10271000Y-17061000D01*
G37*
G36*
X-8269000Y-17061000D02*
G01*
X-10271000Y-17061000D01*
X-10271000Y-15959000D01*
X-8269000Y-15959000D01*
X-8269000Y-17061000D01*
X-8269000Y-17061000D01*
G37*
G36*
X-4459000Y-17061000D02*
G01*
X-6461000Y-17061000D01*
X-6461000Y-15959000D01*
X-4459000Y-15959000D01*
X-4459000Y-17061000D01*
X-4459000Y-17061000D01*
G37*
G36*
X-1159000Y-14521000D02*
G01*
X-3161000Y-14521000D01*
X-3161000Y-13419000D01*
X-1159000Y-13419000D01*
X-1159000Y-14521000D01*
X-1159000Y-14521000D01*
G37*
G36*
X3161000Y-14521000D02*
G01*
X1159000Y-14521000D01*
X1159000Y-13419000D01*
X3161000Y-13419000D01*
X3161000Y-14521000D01*
X3161000Y-14521000D01*
G37*
G36*
X-4969000Y-14521000D02*
G01*
X-6971000Y-14521000D01*
X-6971000Y-13419000D01*
X-4969000Y-13419000D01*
X-4969000Y-14521000D01*
X-4969000Y-14521000D01*
G37*
G36*
X6971000Y-14521000D02*
G01*
X4969000Y-14521000D01*
X4969000Y-13419000D01*
X6971000Y-13419000D01*
X6971000Y-14521000D01*
X6971000Y-14521000D01*
G37*
G36*
X-4459000Y-11981000D02*
G01*
X-6461000Y-11981000D01*
X-6461000Y-10879000D01*
X-4459000Y-10879000D01*
X-4459000Y-11981000D01*
X-4459000Y-11981000D01*
G37*
G36*
X6461000Y-11981000D02*
G01*
X4459000Y-11981000D01*
X4459000Y-10879000D01*
X6461000Y-10879000D01*
X6461000Y-11981000D01*
X6461000Y-11981000D01*
G37*
G36*
X-8269000Y-11981000D02*
G01*
X-10271000Y-11981000D01*
X-10271000Y-10879000D01*
X-8269000Y-10879000D01*
X-8269000Y-11981000D01*
X-8269000Y-11981000D01*
G37*
G36*
X10271000Y-11981000D02*
G01*
X8269000Y-11981000D01*
X8269000Y-10879000D01*
X10271000Y-10879000D01*
X10271000Y-11981000D01*
X10271000Y-11981000D01*
G37*
G36*
X15351000Y-11981000D02*
G01*
X13349000Y-11981000D01*
X13349000Y-10879000D01*
X15351000Y-10879000D01*
X15351000Y-11981000D01*
X15351000Y-11981000D01*
G37*
G36*
X12051000Y-9441000D02*
G01*
X10049000Y-9441000D01*
X10049000Y-8339000D01*
X12051000Y-8339000D01*
X12051000Y-9441000D01*
X12051000Y-9441000D01*
G37*
G36*
X-4969000Y-9441000D02*
G01*
X-6971000Y-9441000D01*
X-6971000Y-8339000D01*
X-4969000Y-8339000D01*
X-4969000Y-9441000D01*
X-4969000Y-9441000D01*
G37*
G36*
X6971000Y-9441000D02*
G01*
X4969000Y-9441000D01*
X4969000Y-8339000D01*
X6971000Y-8339000D01*
X6971000Y-9441000D01*
X6971000Y-9441000D01*
G37*
G36*
X-8269000Y-6901000D02*
G01*
X-10271000Y-6901000D01*
X-10271000Y-5799000D01*
X-8269000Y-5799000D01*
X-8269000Y-6901000D01*
X-8269000Y-6901000D01*
G37*
G36*
X15351000Y-6901000D02*
G01*
X13349000Y-6901000D01*
X13349000Y-5799000D01*
X15351000Y-5799000D01*
X15351000Y-6901000D01*
X15351000Y-6901000D01*
G37*
G36*
X10271000Y-6901000D02*
G01*
X8269000Y-6901000D01*
X8269000Y-5799000D01*
X10271000Y-5799000D01*
X10271000Y-6901000D01*
X10271000Y-6901000D01*
G37*
G36*
X3161000Y-4361000D02*
G01*
X1159000Y-4361000D01*
X1159000Y-3259000D01*
X3161000Y-3259000D01*
X3161000Y-4361000D01*
X3161000Y-4361000D01*
G37*
G36*
X12051000Y-4361000D02*
G01*
X10049000Y-4361000D01*
X10049000Y-3259000D01*
X12051000Y-3259000D01*
X12051000Y-4361000D01*
X12051000Y-4361000D01*
G37*
G36*
X-1159000Y-4361000D02*
G01*
X-3161000Y-4361000D01*
X-3161000Y-3259000D01*
X-1159000Y-3259000D01*
X-1159000Y-4361000D01*
X-1159000Y-4361000D01*
G37*
G36*
X6971000Y-4361000D02*
G01*
X4969000Y-4361000D01*
X4969000Y-3259000D01*
X6971000Y-3259000D01*
X6971000Y-4361000D01*
X6971000Y-4361000D01*
G37*
G36*
X-4969000Y-4361000D02*
G01*
X-6971000Y-4361000D01*
X-6971000Y-3259000D01*
X-4969000Y-3259000D01*
X-4969000Y-4361000D01*
X-4969000Y-4361000D01*
G37*
G36*
X-24979557Y-2495519D02*
G01*
X-24913373Y-2502037D01*
X-24743534Y-2553557D01*
X-24587009Y-2637222D01*
X-24551271Y-2666552D01*
X-24449814Y-2749814D01*
X-24366552Y-2851271D01*
X-24337222Y-2887009D01*
X-24253557Y-3043534D01*
X-24202037Y-3213373D01*
X-24184641Y-3390000D01*
X-24202037Y-3566627D01*
X-24253557Y-3736466D01*
X-24337222Y-3892991D01*
X-24366552Y-3928729D01*
X-24449814Y-4030186D01*
X-24551271Y-4113448D01*
X-24587009Y-4142778D01*
X-24743534Y-4226443D01*
X-24913373Y-4277963D01*
X-24979558Y-4284482D01*
X-25045740Y-4291000D01*
X-25134260Y-4291000D01*
X-25200442Y-4284482D01*
X-25266627Y-4277963D01*
X-25436466Y-4226443D01*
X-25592991Y-4142778D01*
X-25628729Y-4113448D01*
X-25730186Y-4030186D01*
X-25813448Y-3928729D01*
X-25842778Y-3892991D01*
X-25926443Y-3736466D01*
X-25977963Y-3566627D01*
X-25995359Y-3390000D01*
X-25977963Y-3213373D01*
X-25926443Y-3043534D01*
X-25842778Y-2887009D01*
X-25813448Y-2851271D01*
X-25730186Y-2749814D01*
X-25628729Y-2666552D01*
X-25592991Y-2637222D01*
X-25436466Y-2553557D01*
X-25266627Y-2502037D01*
X-25200443Y-2495519D01*
X-25134260Y-2489000D01*
X-25045740Y-2489000D01*
X-24979557Y-2495519D01*
X-24979557Y-2495519D01*
G37*
G36*
X-17359557Y-2495519D02*
G01*
X-17293373Y-2502037D01*
X-17123534Y-2553557D01*
X-16967009Y-2637222D01*
X-16931271Y-2666552D01*
X-16829814Y-2749814D01*
X-16746552Y-2851271D01*
X-16717222Y-2887009D01*
X-16633557Y-3043534D01*
X-16582037Y-3213373D01*
X-16564641Y-3390000D01*
X-16582037Y-3566627D01*
X-16633557Y-3736466D01*
X-16717222Y-3892991D01*
X-16746552Y-3928729D01*
X-16829814Y-4030186D01*
X-16931271Y-4113448D01*
X-16967009Y-4142778D01*
X-17123534Y-4226443D01*
X-17293373Y-4277963D01*
X-17359558Y-4284482D01*
X-17425740Y-4291000D01*
X-17514260Y-4291000D01*
X-17580442Y-4284482D01*
X-17646627Y-4277963D01*
X-17816466Y-4226443D01*
X-17972991Y-4142778D01*
X-18008729Y-4113448D01*
X-18110186Y-4030186D01*
X-18193448Y-3928729D01*
X-18222778Y-3892991D01*
X-18306443Y-3736466D01*
X-18357963Y-3566627D01*
X-18375359Y-3390000D01*
X-18357963Y-3213373D01*
X-18306443Y-3043534D01*
X-18222778Y-2887009D01*
X-18193448Y-2851271D01*
X-18110186Y-2749814D01*
X-18008729Y-2666552D01*
X-17972991Y-2637222D01*
X-17816466Y-2553557D01*
X-17646627Y-2502037D01*
X-17580443Y-2495519D01*
X-17514260Y-2489000D01*
X-17425740Y-2489000D01*
X-17359557Y-2495519D01*
X-17359557Y-2495519D01*
G37*
G36*
X-12589557Y-1645519D02*
G01*
X-12523373Y-1652037D01*
X-12353534Y-1703557D01*
X-12197009Y-1787222D01*
X-12161271Y-1816552D01*
X-12059814Y-1899814D01*
X-11976552Y-2001271D01*
X-11947222Y-2037009D01*
X-11863557Y-2193534D01*
X-11812037Y-2363373D01*
X-11794641Y-2540000D01*
X-11812037Y-2716627D01*
X-11863557Y-2886466D01*
X-11947222Y-3042991D01*
X-11947668Y-3043534D01*
X-12059814Y-3180186D01*
X-12155851Y-3259000D01*
X-12197009Y-3292778D01*
X-12353534Y-3376443D01*
X-12523373Y-3427963D01*
X-12589557Y-3434481D01*
X-12655740Y-3441000D01*
X-12744260Y-3441000D01*
X-12810443Y-3434481D01*
X-12876627Y-3427963D01*
X-13046466Y-3376443D01*
X-13202991Y-3292778D01*
X-13244149Y-3259000D01*
X-13340186Y-3180186D01*
X-13452332Y-3043534D01*
X-13452778Y-3042991D01*
X-13536443Y-2886466D01*
X-13587963Y-2716627D01*
X-13605359Y-2540000D01*
X-13587963Y-2363373D01*
X-13536443Y-2193534D01*
X-13452778Y-2037009D01*
X-13423448Y-2001271D01*
X-13340186Y-1899814D01*
X-13238729Y-1816552D01*
X-13202991Y-1787222D01*
X-13046466Y-1703557D01*
X-12876627Y-1652037D01*
X-12810443Y-1645519D01*
X-12744260Y-1639000D01*
X-12655740Y-1639000D01*
X-12589557Y-1645519D01*
X-12589557Y-1645519D01*
G37*
G36*
X-21104000Y-1883500D02*
G01*
X-21456000Y-1883500D01*
X-21456000Y-1106500D01*
X-21104000Y-1106500D01*
X-21104000Y-1883500D01*
X-21104000Y-1883500D01*
G37*
G36*
X15351000Y-1821000D02*
G01*
X13349000Y-1821000D01*
X13349000Y-719000D01*
X15351000Y-719000D01*
X15351000Y-1821000D01*
X15351000Y-1821000D01*
G37*
G36*
X10271000Y-1821000D02*
G01*
X8269000Y-1821000D01*
X8269000Y-719000D01*
X10271000Y-719000D01*
X10271000Y-1821000D01*
X10271000Y-1821000D01*
G37*
G36*
X6461000Y-1821000D02*
G01*
X4459000Y-1821000D01*
X4459000Y-719000D01*
X6461000Y-719000D01*
X6461000Y-1821000D01*
X6461000Y-1821000D01*
G37*
G36*
X-8269000Y-1821000D02*
G01*
X-10271000Y-1821000D01*
X-10271000Y-719000D01*
X-8269000Y-719000D01*
X-8269000Y-1821000D01*
X-8269000Y-1821000D01*
G37*
G36*
X-4459000Y-1821000D02*
G01*
X-6461000Y-1821000D01*
X-6461000Y-719000D01*
X-4459000Y-719000D01*
X-4459000Y-1821000D01*
X-4459000Y-1821000D01*
G37*
G36*
X-17359557Y44481D02*
G01*
X-17293373Y37963D01*
X-17123534Y-13557D01*
X-16967009Y-97222D01*
X-16931271Y-126552D01*
X-16829814Y-209814D01*
X-16746552Y-311271D01*
X-16717222Y-347009D01*
X-16633557Y-503534D01*
X-16582037Y-673373D01*
X-16564641Y-850000D01*
X-16582037Y-1026627D01*
X-16633557Y-1196466D01*
X-16717222Y-1352991D01*
X-16746552Y-1388729D01*
X-16829814Y-1490186D01*
X-16931271Y-1573448D01*
X-16967009Y-1602778D01*
X-17123534Y-1686443D01*
X-17293373Y-1737963D01*
X-17359557Y-1744481D01*
X-17425740Y-1751000D01*
X-17514260Y-1751000D01*
X-17580443Y-1744481D01*
X-17646627Y-1737963D01*
X-17816466Y-1686443D01*
X-17972991Y-1602778D01*
X-18008729Y-1573448D01*
X-18110186Y-1490186D01*
X-18193448Y-1388729D01*
X-18222778Y-1352991D01*
X-18306443Y-1196466D01*
X-18357963Y-1026627D01*
X-18375359Y-850000D01*
X-18357963Y-673373D01*
X-18306443Y-503534D01*
X-18222778Y-347009D01*
X-18193448Y-311271D01*
X-18110186Y-209814D01*
X-18008729Y-126552D01*
X-17972991Y-97222D01*
X-17816466Y-13557D01*
X-17646627Y37963D01*
X-17580443Y44481D01*
X-17514260Y51000D01*
X-17425740Y51000D01*
X-17359557Y44481D01*
X-17359557Y44481D01*
G37*
G36*
X-24979557Y44481D02*
G01*
X-24913373Y37963D01*
X-24743534Y-13557D01*
X-24587009Y-97222D01*
X-24551271Y-126552D01*
X-24449814Y-209814D01*
X-24366552Y-311271D01*
X-24337222Y-347009D01*
X-24253557Y-503534D01*
X-24202037Y-673373D01*
X-24184641Y-850000D01*
X-24202037Y-1026627D01*
X-24253557Y-1196466D01*
X-24337222Y-1352991D01*
X-24366552Y-1388729D01*
X-24449814Y-1490186D01*
X-24551271Y-1573448D01*
X-24587009Y-1602778D01*
X-24743534Y-1686443D01*
X-24913373Y-1737963D01*
X-24979557Y-1744481D01*
X-25045740Y-1751000D01*
X-25134260Y-1751000D01*
X-25200443Y-1744481D01*
X-25266627Y-1737963D01*
X-25436466Y-1686443D01*
X-25592991Y-1602778D01*
X-25628729Y-1573448D01*
X-25730186Y-1490186D01*
X-25813448Y-1388729D01*
X-25842778Y-1352991D01*
X-25926443Y-1196466D01*
X-25977963Y-1026627D01*
X-25995359Y-850000D01*
X-25977963Y-673373D01*
X-25926443Y-503534D01*
X-25842778Y-347009D01*
X-25813448Y-311271D01*
X-25730186Y-209814D01*
X-25628729Y-126552D01*
X-25592991Y-97222D01*
X-25436466Y-13557D01*
X-25266627Y37963D01*
X-25200443Y44481D01*
X-25134260Y51000D01*
X-25045740Y51000D01*
X-24979557Y44481D01*
X-24979557Y44481D01*
G37*
G36*
X-19726500Y-1256000D02*
G01*
X-20503500Y-1256000D01*
X-20503500Y2096000D01*
X-19726500Y2096000D01*
X-19726500Y-1256000D01*
X-19726500Y-1256000D01*
G37*
G36*
X-22056500Y-1256000D02*
G01*
X-22833500Y-1256000D01*
X-22833500Y2096000D01*
X-22056500Y2096000D01*
X-22056500Y-1256000D01*
X-22056500Y-1256000D01*
G37*
G36*
X-12589558Y894482D02*
G01*
X-12523373Y887963D01*
X-12353534Y836443D01*
X-12197009Y752778D01*
X-12161271Y723448D01*
X-12059814Y640186D01*
X-11976552Y538729D01*
X-11947222Y502991D01*
X-11863557Y346466D01*
X-11812037Y176627D01*
X-11794641Y0D01*
X-11812037Y-176627D01*
X-11863557Y-346466D01*
X-11947222Y-502991D01*
X-11947668Y-503534D01*
X-12059814Y-640186D01*
X-12155851Y-719000D01*
X-12197009Y-752778D01*
X-12353534Y-836443D01*
X-12523373Y-887963D01*
X-12589558Y-894482D01*
X-12655740Y-901000D01*
X-12744260Y-901000D01*
X-12810442Y-894482D01*
X-12876627Y-887963D01*
X-13046466Y-836443D01*
X-13202991Y-752778D01*
X-13244149Y-719000D01*
X-13340186Y-640186D01*
X-13452332Y-503534D01*
X-13452778Y-502991D01*
X-13536443Y-346466D01*
X-13587963Y-176627D01*
X-13605359Y0D01*
X-13587963Y176627D01*
X-13536443Y346466D01*
X-13452778Y502991D01*
X-13423448Y538729D01*
X-13340186Y640186D01*
X-13238729Y723448D01*
X-13202991Y752778D01*
X-13046466Y836443D01*
X-12876627Y887963D01*
X-12810442Y894482D01*
X-12744260Y901000D01*
X-12655740Y901000D01*
X-12589558Y894482D01*
X-12589558Y894482D01*
G37*
G36*
X3161000Y719000D02*
G01*
X1159000Y719000D01*
X1159000Y1821000D01*
X3161000Y1821000D01*
X3161000Y719000D01*
X3161000Y719000D01*
G37*
G36*
X-4969000Y719000D02*
G01*
X-6971000Y719000D01*
X-6971000Y1821000D01*
X-4969000Y1821000D01*
X-4969000Y719000D01*
X-4969000Y719000D01*
G37*
G36*
X-1159000Y719000D02*
G01*
X-3161000Y719000D01*
X-3161000Y1821000D01*
X-1159000Y1821000D01*
X-1159000Y719000D01*
X-1159000Y719000D01*
G37*
G36*
X6971000Y719000D02*
G01*
X4969000Y719000D01*
X4969000Y1821000D01*
X6971000Y1821000D01*
X6971000Y719000D01*
X6971000Y719000D01*
G37*
G36*
X12051000Y719000D02*
G01*
X10049000Y719000D01*
X10049000Y1821000D01*
X12051000Y1821000D01*
X12051000Y719000D01*
X12051000Y719000D01*
G37*
G36*
X-17359558Y2584482D02*
G01*
X-17293373Y2577963D01*
X-17123534Y2526443D01*
X-16967009Y2442778D01*
X-16931271Y2413448D01*
X-16829814Y2330186D01*
X-16746552Y2228729D01*
X-16717222Y2192991D01*
X-16633557Y2036466D01*
X-16582037Y1866627D01*
X-16564641Y1690000D01*
X-16582037Y1513373D01*
X-16633557Y1343534D01*
X-16717222Y1187009D01*
X-16746552Y1151271D01*
X-16829814Y1049814D01*
X-16931271Y966552D01*
X-16967009Y937222D01*
X-17123534Y853557D01*
X-17293373Y802037D01*
X-17359557Y795519D01*
X-17425740Y789000D01*
X-17514260Y789000D01*
X-17580443Y795519D01*
X-17646627Y802037D01*
X-17816466Y853557D01*
X-17972991Y937222D01*
X-18008729Y966552D01*
X-18110186Y1049814D01*
X-18193448Y1151271D01*
X-18222778Y1187009D01*
X-18306443Y1343534D01*
X-18357963Y1513373D01*
X-18375359Y1690000D01*
X-18357963Y1866627D01*
X-18306443Y2036466D01*
X-18222778Y2192991D01*
X-18193448Y2228729D01*
X-18110186Y2330186D01*
X-18008729Y2413448D01*
X-17972991Y2442778D01*
X-17816466Y2526443D01*
X-17646627Y2577963D01*
X-17580443Y2584481D01*
X-17514260Y2591000D01*
X-17425740Y2591000D01*
X-17359558Y2584482D01*
X-17359558Y2584482D01*
G37*
G36*
X-24979558Y2584482D02*
G01*
X-24913373Y2577963D01*
X-24743534Y2526443D01*
X-24587009Y2442778D01*
X-24551271Y2413448D01*
X-24449814Y2330186D01*
X-24366552Y2228729D01*
X-24337222Y2192991D01*
X-24253557Y2036466D01*
X-24202037Y1866627D01*
X-24184641Y1690000D01*
X-24202037Y1513373D01*
X-24253557Y1343534D01*
X-24337222Y1187009D01*
X-24366552Y1151271D01*
X-24449814Y1049814D01*
X-24551271Y966552D01*
X-24587009Y937222D01*
X-24743534Y853557D01*
X-24913373Y802037D01*
X-24979557Y795519D01*
X-25045740Y789000D01*
X-25134260Y789000D01*
X-25200443Y795519D01*
X-25266627Y802037D01*
X-25436466Y853557D01*
X-25592991Y937222D01*
X-25628729Y966552D01*
X-25730186Y1049814D01*
X-25813448Y1151271D01*
X-25842778Y1187009D01*
X-25926443Y1343534D01*
X-25977963Y1513373D01*
X-25995359Y1690000D01*
X-25977963Y1866627D01*
X-25926443Y2036466D01*
X-25842778Y2192991D01*
X-25813448Y2228729D01*
X-25730186Y2330186D01*
X-25628729Y2413448D01*
X-25592991Y2442778D01*
X-25436466Y2526443D01*
X-25266627Y2577963D01*
X-25200443Y2584481D01*
X-25134260Y2591000D01*
X-25045740Y2591000D01*
X-24979558Y2584482D01*
X-24979558Y2584482D01*
G37*
G36*
X-11799000Y1639000D02*
G01*
X-13601000Y1639000D01*
X-13601000Y3441000D01*
X-11799000Y3441000D01*
X-11799000Y1639000D01*
X-11799000Y1639000D01*
G37*
G36*
X-21104000Y1946500D02*
G01*
X-21456000Y1946500D01*
X-21456000Y2723500D01*
X-21104000Y2723500D01*
X-21104000Y1946500D01*
X-21104000Y1946500D01*
G37*
G36*
X6461000Y3259000D02*
G01*
X4459000Y3259000D01*
X4459000Y4361000D01*
X6461000Y4361000D01*
X6461000Y3259000D01*
X6461000Y3259000D01*
G37*
G36*
X15351000Y3259000D02*
G01*
X13349000Y3259000D01*
X13349000Y4361000D01*
X15351000Y4361000D01*
X15351000Y3259000D01*
X15351000Y3259000D01*
G37*
G36*
X-8269000Y3259000D02*
G01*
X-10271000Y3259000D01*
X-10271000Y4361000D01*
X-8269000Y4361000D01*
X-8269000Y3259000D01*
X-8269000Y3259000D01*
G37*
G36*
X10271000Y3259000D02*
G01*
X8269000Y3259000D01*
X8269000Y4361000D01*
X10271000Y4361000D01*
X10271000Y3259000D01*
X10271000Y3259000D01*
G37*
G36*
X-4459000Y3259000D02*
G01*
X-6461000Y3259000D01*
X-6461000Y4361000D01*
X-4459000Y4361000D01*
X-4459000Y3259000D01*
X-4459000Y3259000D01*
G37*
G36*
X-16569000Y3329000D02*
G01*
X-18371000Y3329000D01*
X-18371000Y5131000D01*
X-16569000Y5131000D01*
X-16569000Y3329000D01*
X-16569000Y3329000D01*
G37*
G36*
X-24189000Y3329000D02*
G01*
X-25991000Y3329000D01*
X-25991000Y5131000D01*
X-24189000Y5131000D01*
X-24189000Y3329000D01*
X-24189000Y3329000D01*
G37*
G36*
X-19268062Y4598284D02*
G01*
X-19247443Y4592029D01*
X-19228447Y4581876D01*
X-19211792Y4568208D01*
X-19198124Y4551553D01*
X-19187971Y4532557D01*
X-19181716Y4511938D01*
X-19179000Y4484360D01*
X-19179000Y3975640D01*
X-19181716Y3948062D01*
X-19187971Y3927443D01*
X-19198124Y3908447D01*
X-19211792Y3891792D01*
X-19228447Y3878124D01*
X-19247443Y3867971D01*
X-19268062Y3861716D01*
X-19295640Y3859000D01*
X-19754360Y3859000D01*
X-19781938Y3861716D01*
X-19802557Y3867971D01*
X-19821553Y3878124D01*
X-19838208Y3891792D01*
X-19851876Y3908447D01*
X-19862029Y3927443D01*
X-19868284Y3948062D01*
X-19871000Y3975640D01*
X-19871000Y4484360D01*
X-19868284Y4511938D01*
X-19862029Y4532557D01*
X-19851876Y4551553D01*
X-19838208Y4568208D01*
X-19821553Y4581876D01*
X-19802557Y4592029D01*
X-19781938Y4598284D01*
X-19754360Y4601000D01*
X-19295640Y4601000D01*
X-19268062Y4598284D01*
X-19268062Y4598284D01*
G37*
G36*
X-22778062Y4598284D02*
G01*
X-22757443Y4592029D01*
X-22738447Y4581876D01*
X-22721792Y4568208D01*
X-22708124Y4551553D01*
X-22697971Y4532557D01*
X-22691716Y4511938D01*
X-22689000Y4484360D01*
X-22689000Y3975640D01*
X-22691716Y3948062D01*
X-22697971Y3927443D01*
X-22708124Y3908447D01*
X-22721792Y3891792D01*
X-22738447Y3878124D01*
X-22757443Y3867971D01*
X-22778062Y3861716D01*
X-22805640Y3859000D01*
X-23264360Y3859000D01*
X-23291938Y3861716D01*
X-23312557Y3867971D01*
X-23331553Y3878124D01*
X-23348208Y3891792D01*
X-23361876Y3908447D01*
X-23372029Y3927443D01*
X-23378284Y3948062D01*
X-23381000Y3975640D01*
X-23381000Y4484360D01*
X-23378284Y4511938D01*
X-23372029Y4532557D01*
X-23361876Y4551553D01*
X-23348208Y4568208D01*
X-23331553Y4581876D01*
X-23312557Y4592029D01*
X-23291938Y4598284D01*
X-23264360Y4601000D01*
X-22805640Y4601000D01*
X-22778062Y4598284D01*
X-22778062Y4598284D01*
G37*
G36*
X-20238062Y4598284D02*
G01*
X-20217443Y4592029D01*
X-20198447Y4581876D01*
X-20181792Y4568208D01*
X-20168124Y4551553D01*
X-20157971Y4532557D01*
X-20151716Y4511938D01*
X-20149000Y4484360D01*
X-20149000Y3975640D01*
X-20151716Y3948062D01*
X-20157971Y3927443D01*
X-20168124Y3908447D01*
X-20181792Y3891792D01*
X-20198447Y3878124D01*
X-20217443Y3867971D01*
X-20238062Y3861716D01*
X-20265640Y3859000D01*
X-20724360Y3859000D01*
X-20751938Y3861716D01*
X-20772557Y3867971D01*
X-20791553Y3878124D01*
X-20808208Y3891792D01*
X-20821876Y3908447D01*
X-20832029Y3927443D01*
X-20838284Y3948062D01*
X-20841000Y3975640D01*
X-20841000Y4484360D01*
X-20838284Y4511938D01*
X-20832029Y4532557D01*
X-20821876Y4551553D01*
X-20808208Y4568208D01*
X-20791553Y4581876D01*
X-20772557Y4592029D01*
X-20751938Y4598284D01*
X-20724360Y4601000D01*
X-20265640Y4601000D01*
X-20238062Y4598284D01*
X-20238062Y4598284D01*
G37*
G36*
X-21808062Y4598284D02*
G01*
X-21787443Y4592029D01*
X-21768447Y4581876D01*
X-21751792Y4568208D01*
X-21738124Y4551553D01*
X-21727971Y4532557D01*
X-21721716Y4511938D01*
X-21719000Y4484360D01*
X-21719000Y3975640D01*
X-21721716Y3948062D01*
X-21727971Y3927443D01*
X-21738124Y3908447D01*
X-21751792Y3891792D01*
X-21768447Y3878124D01*
X-21787443Y3867971D01*
X-21808062Y3861716D01*
X-21835640Y3859000D01*
X-22294360Y3859000D01*
X-22321938Y3861716D01*
X-22342557Y3867971D01*
X-22361553Y3878124D01*
X-22378208Y3891792D01*
X-22391876Y3908447D01*
X-22402029Y3927443D01*
X-22408284Y3948062D01*
X-22411000Y3975640D01*
X-22411000Y4484360D01*
X-22408284Y4511938D01*
X-22402029Y4532557D01*
X-22391876Y4551553D01*
X-22378208Y4568208D01*
X-22361553Y4581876D01*
X-22342557Y4592029D01*
X-22321938Y4598284D01*
X-22294360Y4601000D01*
X-21835640Y4601000D01*
X-21808062Y4598284D01*
X-21808062Y4598284D01*
G37*
G36*
X-4969000Y5799000D02*
G01*
X-6971000Y5799000D01*
X-6971000Y6901000D01*
X-4969000Y6901000D01*
X-4969000Y5799000D01*
X-4969000Y5799000D01*
G37*
G36*
X6971000Y5799000D02*
G01*
X4969000Y5799000D01*
X4969000Y6901000D01*
X6971000Y6901000D01*
X6971000Y5799000D01*
X6971000Y5799000D01*
G37*
G36*
X12051000Y5799000D02*
G01*
X10049000Y5799000D01*
X10049000Y6901000D01*
X12051000Y6901000D01*
X12051000Y5799000D01*
X12051000Y5799000D01*
G37*
G36*
X-11958062Y7988284D02*
G01*
X-11937443Y7982029D01*
X-11918447Y7971876D01*
X-11901792Y7958208D01*
X-11888124Y7941553D01*
X-11877971Y7922557D01*
X-11871716Y7901938D01*
X-11869000Y7874360D01*
X-11869000Y7365640D01*
X-11871716Y7338062D01*
X-11877971Y7317443D01*
X-11888124Y7298447D01*
X-11901792Y7281792D01*
X-11918447Y7268124D01*
X-11937443Y7257971D01*
X-11958062Y7251716D01*
X-11985640Y7249000D01*
X-12444360Y7249000D01*
X-12471938Y7251716D01*
X-12492557Y7257971D01*
X-12511553Y7268124D01*
X-12528208Y7281792D01*
X-12541876Y7298447D01*
X-12552029Y7317443D01*
X-12558284Y7338062D01*
X-12561000Y7365640D01*
X-12561000Y7874360D01*
X-12558284Y7901938D01*
X-12552029Y7922557D01*
X-12541876Y7941553D01*
X-12528208Y7958208D01*
X-12511553Y7971876D01*
X-12492557Y7982029D01*
X-12471938Y7988284D01*
X-12444360Y7991000D01*
X-11985640Y7991000D01*
X-11958062Y7988284D01*
X-11958062Y7988284D01*
G37*
G36*
X-12928062Y7988284D02*
G01*
X-12907443Y7982029D01*
X-12888447Y7971876D01*
X-12871792Y7958208D01*
X-12858124Y7941553D01*
X-12847971Y7922557D01*
X-12841716Y7901938D01*
X-12839000Y7874360D01*
X-12839000Y7365640D01*
X-12841716Y7338062D01*
X-12847971Y7317443D01*
X-12858124Y7298447D01*
X-12871792Y7281792D01*
X-12888447Y7268124D01*
X-12907443Y7257971D01*
X-12928062Y7251716D01*
X-12955640Y7249000D01*
X-13414360Y7249000D01*
X-13441938Y7251716D01*
X-13462557Y7257971D01*
X-13481553Y7268124D01*
X-13498208Y7281792D01*
X-13511876Y7298447D01*
X-13522029Y7317443D01*
X-13528284Y7338062D01*
X-13531000Y7365640D01*
X-13531000Y7874360D01*
X-13528284Y7901938D01*
X-13522029Y7922557D01*
X-13511876Y7941553D01*
X-13498208Y7958208D01*
X-13481553Y7971876D01*
X-13462557Y7982029D01*
X-13441938Y7988284D01*
X-13414360Y7991000D01*
X-12955640Y7991000D01*
X-12928062Y7988284D01*
X-12928062Y7988284D01*
G37*
G36*
X15351000Y8339000D02*
G01*
X13349000Y8339000D01*
X13349000Y9441000D01*
X15351000Y9441000D01*
X15351000Y8339000D01*
X15351000Y8339000D01*
G37*
G36*
X10271000Y8339000D02*
G01*
X8269000Y8339000D01*
X8269000Y9441000D01*
X10271000Y9441000D01*
X10271000Y8339000D01*
X10271000Y8339000D01*
G37*
G36*
X-8269000Y8339000D02*
G01*
X-10271000Y8339000D01*
X-10271000Y9441000D01*
X-8269000Y9441000D01*
X-8269000Y8339000D01*
X-8269000Y8339000D01*
G37*
G36*
X-13199000Y8659000D02*
G01*
X-14101000Y8659000D01*
X-14101000Y9661000D01*
X-13199000Y9661000D01*
X-13199000Y8659000D01*
X-13199000Y8659000D01*
G37*
G36*
X-11299000Y8659000D02*
G01*
X-12201000Y8659000D01*
X-12201000Y9661000D01*
X-11299000Y9661000D01*
X-11299000Y8659000D01*
X-11299000Y8659000D01*
G37*
G36*
X-12249000Y10659000D02*
G01*
X-13151000Y10659000D01*
X-13151000Y11661000D01*
X-12249000Y11661000D01*
X-12249000Y10659000D01*
X-12249000Y10659000D01*
G37*
G36*
X3161000Y10879000D02*
G01*
X1159000Y10879000D01*
X1159000Y11981000D01*
X3161000Y11981000D01*
X3161000Y10879000D01*
X3161000Y10879000D01*
G37*
G36*
X-1159000Y10879000D02*
G01*
X-3161000Y10879000D01*
X-3161000Y11981000D01*
X-1159000Y11981000D01*
X-1159000Y10879000D01*
X-1159000Y10879000D01*
G37*
G36*
X6971000Y10879000D02*
G01*
X4969000Y10879000D01*
X4969000Y11981000D01*
X6971000Y11981000D01*
X6971000Y10879000D01*
X6971000Y10879000D01*
G37*
G36*
X-4969000Y10879000D02*
G01*
X-6971000Y10879000D01*
X-6971000Y11981000D01*
X-4969000Y11981000D01*
X-4969000Y10879000D01*
X-4969000Y10879000D01*
G37*
G36*
X12051000Y10879000D02*
G01*
X10049000Y10879000D01*
X10049000Y11981000D01*
X12051000Y11981000D01*
X12051000Y10879000D01*
X12051000Y10879000D01*
G37*
G36*
X-12928062Y13068284D02*
G01*
X-12907443Y13062029D01*
X-12888447Y13051876D01*
X-12871792Y13038208D01*
X-12858124Y13021553D01*
X-12847971Y13002557D01*
X-12841716Y12981938D01*
X-12839000Y12954360D01*
X-12839000Y12445640D01*
X-12841716Y12418062D01*
X-12847971Y12397443D01*
X-12858124Y12378447D01*
X-12871792Y12361792D01*
X-12888447Y12348124D01*
X-12907443Y12337971D01*
X-12928062Y12331716D01*
X-12955640Y12329000D01*
X-13414360Y12329000D01*
X-13441938Y12331716D01*
X-13462557Y12337971D01*
X-13481553Y12348124D01*
X-13498208Y12361792D01*
X-13511876Y12378447D01*
X-13522029Y12397443D01*
X-13528284Y12418062D01*
X-13531000Y12445640D01*
X-13531000Y12954360D01*
X-13528284Y12981938D01*
X-13522029Y13002557D01*
X-13511876Y13021553D01*
X-13498208Y13038208D01*
X-13481553Y13051876D01*
X-13462557Y13062029D01*
X-13441938Y13068284D01*
X-13414360Y13071000D01*
X-12955640Y13071000D01*
X-12928062Y13068284D01*
X-12928062Y13068284D01*
G37*
G36*
X-11958062Y13068284D02*
G01*
X-11937443Y13062029D01*
X-11918447Y13051876D01*
X-11901792Y13038208D01*
X-11888124Y13021553D01*
X-11877971Y13002557D01*
X-11871716Y12981938D01*
X-11869000Y12954360D01*
X-11869000Y12445640D01*
X-11871716Y12418062D01*
X-11877971Y12397443D01*
X-11888124Y12378447D01*
X-11901792Y12361792D01*
X-11918447Y12348124D01*
X-11937443Y12337971D01*
X-11958062Y12331716D01*
X-11985640Y12329000D01*
X-12444360Y12329000D01*
X-12471938Y12331716D01*
X-12492557Y12337971D01*
X-12511553Y12348124D01*
X-12528208Y12361792D01*
X-12541876Y12378447D01*
X-12552029Y12397443D01*
X-12558284Y12418062D01*
X-12561000Y12445640D01*
X-12561000Y12954360D01*
X-12558284Y12981938D01*
X-12552029Y13002557D01*
X-12541876Y13021553D01*
X-12528208Y13038208D01*
X-12511553Y13051876D01*
X-12492557Y13062029D01*
X-12471938Y13068284D01*
X-12444360Y13071000D01*
X-11985640Y13071000D01*
X-11958062Y13068284D01*
X-11958062Y13068284D01*
G37*
G36*
X-4459000Y13419000D02*
G01*
X-6461000Y13419000D01*
X-6461000Y14521000D01*
X-4459000Y14521000D01*
X-4459000Y13419000D01*
X-4459000Y13419000D01*
G37*
G36*
X10271000Y13419000D02*
G01*
X8269000Y13419000D01*
X8269000Y14521000D01*
X10271000Y14521000D01*
X10271000Y13419000D01*
X10271000Y13419000D01*
G37*
G36*
X-8269000Y13419000D02*
G01*
X-10271000Y13419000D01*
X-10271000Y14521000D01*
X-8269000Y14521000D01*
X-8269000Y13419000D01*
X-8269000Y13419000D01*
G37*
G36*
X6461000Y13419000D02*
G01*
X4459000Y13419000D01*
X4459000Y14521000D01*
X6461000Y14521000D01*
X6461000Y13419000D01*
X6461000Y13419000D01*
G37*
G36*
X12810442Y17404482D02*
G01*
X12876627Y17397963D01*
X13046466Y17346443D01*
X13202991Y17262778D01*
X13238729Y17233448D01*
X13340186Y17150186D01*
X13413378Y17061000D01*
X13452778Y17012991D01*
X13536443Y16856466D01*
X13587963Y16686627D01*
X13605359Y16510000D01*
X13587963Y16333373D01*
X13536443Y16163534D01*
X13452778Y16007009D01*
X13423448Y15971271D01*
X13340186Y15869814D01*
X13238729Y15786552D01*
X13202991Y15757222D01*
X13046466Y15673557D01*
X12876627Y15622037D01*
X12810442Y15615518D01*
X12744260Y15609000D01*
X12655740Y15609000D01*
X12589558Y15615518D01*
X12523373Y15622037D01*
X12353534Y15673557D01*
X12197009Y15757222D01*
X12161271Y15786552D01*
X12059814Y15869814D01*
X11976552Y15971271D01*
X11947222Y16007009D01*
X11863557Y16163534D01*
X11812037Y16333373D01*
X11794641Y16510000D01*
X11812037Y16686627D01*
X11863557Y16856466D01*
X11947222Y17012991D01*
X11986622Y17061000D01*
X12059814Y17150186D01*
X12161271Y17233448D01*
X12197009Y17262778D01*
X12353534Y17346443D01*
X12523373Y17397963D01*
X12589558Y17404482D01*
X12655740Y17411000D01*
X12744260Y17411000D01*
X12810442Y17404482D01*
X12810442Y17404482D01*
G37*
G36*
X-12589558Y17404482D02*
G01*
X-12523373Y17397963D01*
X-12353534Y17346443D01*
X-12197009Y17262778D01*
X-12161271Y17233448D01*
X-12059814Y17150186D01*
X-11986622Y17061000D01*
X-11947222Y17012991D01*
X-11863557Y16856466D01*
X-11812037Y16686627D01*
X-11794641Y16510000D01*
X-11812037Y16333373D01*
X-11863557Y16163534D01*
X-11947222Y16007009D01*
X-11976552Y15971271D01*
X-12059814Y15869814D01*
X-12161271Y15786552D01*
X-12197009Y15757222D01*
X-12353534Y15673557D01*
X-12523373Y15622037D01*
X-12589558Y15615518D01*
X-12655740Y15609000D01*
X-12744260Y15609000D01*
X-12810442Y15615518D01*
X-12876627Y15622037D01*
X-13046466Y15673557D01*
X-13202991Y15757222D01*
X-13238729Y15786552D01*
X-13340186Y15869814D01*
X-13423448Y15971271D01*
X-13452778Y16007009D01*
X-13536443Y16163534D01*
X-13587963Y16333373D01*
X-13605359Y16510000D01*
X-13587963Y16686627D01*
X-13536443Y16856466D01*
X-13452778Y17012991D01*
X-13413378Y17061000D01*
X-13340186Y17150186D01*
X-13238729Y17233448D01*
X-13202991Y17262778D01*
X-13046466Y17346443D01*
X-12876627Y17397963D01*
X-12810442Y17404482D01*
X-12744260Y17411000D01*
X-12655740Y17411000D01*
X-12589558Y17404482D01*
X-12589558Y17404482D01*
G37*
G36*
X6971000Y15959000D02*
G01*
X4969000Y15959000D01*
X4969000Y17061000D01*
X6971000Y17061000D01*
X6971000Y15959000D01*
X6971000Y15959000D01*
G37*
G36*
X-1159000Y15959000D02*
G01*
X-3161000Y15959000D01*
X-3161000Y17061000D01*
X-1159000Y17061000D01*
X-1159000Y15959000D01*
X-1159000Y15959000D01*
G37*
G36*
X-4969000Y15959000D02*
G01*
X-6971000Y15959000D01*
X-6971000Y17061000D01*
X-4969000Y17061000D01*
X-4969000Y15959000D01*
X-4969000Y15959000D01*
G37*
G36*
X3161000Y15959000D02*
G01*
X1159000Y15959000D01*
X1159000Y17061000D01*
X3161000Y17061000D01*
X3161000Y15959000D01*
X3161000Y15959000D01*
G37*
G36*
X-12589558Y19944482D02*
G01*
X-12523373Y19937963D01*
X-12353534Y19886443D01*
X-12197009Y19802778D01*
X-12161271Y19773448D01*
X-12059814Y19690186D01*
X-11986622Y19601000D01*
X-11947222Y19552991D01*
X-11863557Y19396466D01*
X-11812037Y19226627D01*
X-11794641Y19050000D01*
X-11812037Y18873373D01*
X-11863557Y18703534D01*
X-11947222Y18547009D01*
X-11976552Y18511271D01*
X-12059814Y18409814D01*
X-12161271Y18326552D01*
X-12197009Y18297222D01*
X-12353534Y18213557D01*
X-12523373Y18162037D01*
X-12589558Y18155518D01*
X-12655740Y18149000D01*
X-12744260Y18149000D01*
X-12810442Y18155518D01*
X-12876627Y18162037D01*
X-13046466Y18213557D01*
X-13202991Y18297222D01*
X-13238729Y18326552D01*
X-13340186Y18409814D01*
X-13423448Y18511271D01*
X-13452778Y18547009D01*
X-13536443Y18703534D01*
X-13587963Y18873373D01*
X-13605359Y19050000D01*
X-13587963Y19226627D01*
X-13536443Y19396466D01*
X-13452778Y19552991D01*
X-13413378Y19601000D01*
X-13340186Y19690186D01*
X-13238729Y19773448D01*
X-13202991Y19802778D01*
X-13046466Y19886443D01*
X-12876627Y19937963D01*
X-12810442Y19944482D01*
X-12744260Y19951000D01*
X-12655740Y19951000D01*
X-12589558Y19944482D01*
X-12589558Y19944482D01*
G37*
G36*
X12810442Y19944482D02*
G01*
X12876627Y19937963D01*
X13046466Y19886443D01*
X13202991Y19802778D01*
X13238729Y19773448D01*
X13340186Y19690186D01*
X13413378Y19601000D01*
X13452778Y19552991D01*
X13536443Y19396466D01*
X13587963Y19226627D01*
X13605359Y19050000D01*
X13587963Y18873373D01*
X13536443Y18703534D01*
X13452778Y18547009D01*
X13423448Y18511271D01*
X13340186Y18409814D01*
X13238729Y18326552D01*
X13202991Y18297222D01*
X13046466Y18213557D01*
X12876627Y18162037D01*
X12810442Y18155518D01*
X12744260Y18149000D01*
X12655740Y18149000D01*
X12589558Y18155518D01*
X12523373Y18162037D01*
X12353534Y18213557D01*
X12197009Y18297222D01*
X12161271Y18326552D01*
X12059814Y18409814D01*
X11976552Y18511271D01*
X11947222Y18547009D01*
X11863557Y18703534D01*
X11812037Y18873373D01*
X11794641Y19050000D01*
X11812037Y19226627D01*
X11863557Y19396466D01*
X11947222Y19552991D01*
X11986622Y19601000D01*
X12059814Y19690186D01*
X12161271Y19773448D01*
X12197009Y19802778D01*
X12353534Y19886443D01*
X12523373Y19937963D01*
X12589558Y19944482D01*
X12655740Y19951000D01*
X12744260Y19951000D01*
X12810442Y19944482D01*
X12810442Y19944482D01*
G37*
G36*
X-8269000Y18499000D02*
G01*
X-10271000Y18499000D01*
X-10271000Y19601000D01*
X-8269000Y19601000D01*
X-8269000Y18499000D01*
X-8269000Y18499000D01*
G37*
G36*
X10271000Y18499000D02*
G01*
X8269000Y18499000D01*
X8269000Y19601000D01*
X10271000Y19601000D01*
X10271000Y18499000D01*
X10271000Y18499000D01*
G37*
G36*
X6461000Y18499000D02*
G01*
X4459000Y18499000D01*
X4459000Y19601000D01*
X6461000Y19601000D01*
X6461000Y18499000D01*
X6461000Y18499000D01*
G37*
G36*
X-4459000Y18499000D02*
G01*
X-6461000Y18499000D01*
X-6461000Y19601000D01*
X-4459000Y19601000D01*
X-4459000Y18499000D01*
X-4459000Y18499000D01*
G37*
G36*
X-12589558Y22484482D02*
G01*
X-12523373Y22477963D01*
X-12353534Y22426443D01*
X-12197009Y22342778D01*
X-12161271Y22313448D01*
X-12059814Y22230186D01*
X-11986622Y22141000D01*
X-11947222Y22092991D01*
X-11863557Y21936466D01*
X-11812037Y21766627D01*
X-11794641Y21590000D01*
X-11812037Y21413373D01*
X-11863557Y21243534D01*
X-11947222Y21087009D01*
X-11976552Y21051271D01*
X-12059814Y20949814D01*
X-12161271Y20866552D01*
X-12197009Y20837222D01*
X-12353534Y20753557D01*
X-12523373Y20702037D01*
X-12589557Y20695519D01*
X-12655740Y20689000D01*
X-12744260Y20689000D01*
X-12810443Y20695519D01*
X-12876627Y20702037D01*
X-13046466Y20753557D01*
X-13202991Y20837222D01*
X-13238729Y20866552D01*
X-13340186Y20949814D01*
X-13423448Y21051271D01*
X-13452778Y21087009D01*
X-13536443Y21243534D01*
X-13587963Y21413373D01*
X-13605359Y21590000D01*
X-13587963Y21766627D01*
X-13536443Y21936466D01*
X-13452778Y22092991D01*
X-13413378Y22141000D01*
X-13340186Y22230186D01*
X-13238729Y22313448D01*
X-13202991Y22342778D01*
X-13046466Y22426443D01*
X-12876627Y22477963D01*
X-12810442Y22484482D01*
X-12744260Y22491000D01*
X-12655740Y22491000D01*
X-12589558Y22484482D01*
X-12589558Y22484482D01*
G37*
G36*
X12810442Y22484482D02*
G01*
X12876627Y22477963D01*
X13046466Y22426443D01*
X13202991Y22342778D01*
X13238729Y22313448D01*
X13340186Y22230186D01*
X13413378Y22141000D01*
X13452778Y22092991D01*
X13536443Y21936466D01*
X13587963Y21766627D01*
X13605359Y21590000D01*
X13587963Y21413373D01*
X13536443Y21243534D01*
X13452778Y21087009D01*
X13423448Y21051271D01*
X13340186Y20949814D01*
X13238729Y20866552D01*
X13202991Y20837222D01*
X13046466Y20753557D01*
X12876627Y20702037D01*
X12810443Y20695519D01*
X12744260Y20689000D01*
X12655740Y20689000D01*
X12589557Y20695519D01*
X12523373Y20702037D01*
X12353534Y20753557D01*
X12197009Y20837222D01*
X12161271Y20866552D01*
X12059814Y20949814D01*
X11976552Y21051271D01*
X11947222Y21087009D01*
X11863557Y21243534D01*
X11812037Y21413373D01*
X11794641Y21590000D01*
X11812037Y21766627D01*
X11863557Y21936466D01*
X11947222Y22092991D01*
X11986622Y22141000D01*
X12059814Y22230186D01*
X12161271Y22313448D01*
X12197009Y22342778D01*
X12353534Y22426443D01*
X12523373Y22477963D01*
X12589558Y22484482D01*
X12655740Y22491000D01*
X12744260Y22491000D01*
X12810442Y22484482D01*
X12810442Y22484482D01*
G37*
G36*
X-1159000Y21039000D02*
G01*
X-3161000Y21039000D01*
X-3161000Y22141000D01*
X-1159000Y22141000D01*
X-1159000Y21039000D01*
X-1159000Y21039000D01*
G37*
G36*
X6971000Y21039000D02*
G01*
X4969000Y21039000D01*
X4969000Y22141000D01*
X6971000Y22141000D01*
X6971000Y21039000D01*
X6971000Y21039000D01*
G37*
G36*
X3161000Y21039000D02*
G01*
X1159000Y21039000D01*
X1159000Y22141000D01*
X3161000Y22141000D01*
X3161000Y21039000D01*
X3161000Y21039000D01*
G37*
G36*
X-4969000Y21039000D02*
G01*
X-6971000Y21039000D01*
X-6971000Y22141000D01*
X-4969000Y22141000D01*
X-4969000Y21039000D01*
X-4969000Y21039000D01*
G37*
G36*
X-12589557Y25024481D02*
G01*
X-12523373Y25017963D01*
X-12353534Y24966443D01*
X-12197009Y24882778D01*
X-12161271Y24853448D01*
X-12059814Y24770186D01*
X-11986622Y24681000D01*
X-11947222Y24632991D01*
X-11863557Y24476466D01*
X-11812037Y24306627D01*
X-11794641Y24130000D01*
X-11812037Y23953373D01*
X-11863557Y23783534D01*
X-11947222Y23627009D01*
X-11976552Y23591271D01*
X-12059814Y23489814D01*
X-12161271Y23406552D01*
X-12197009Y23377222D01*
X-12353534Y23293557D01*
X-12523373Y23242037D01*
X-12589558Y23235518D01*
X-12655740Y23229000D01*
X-12744260Y23229000D01*
X-12810442Y23235518D01*
X-12876627Y23242037D01*
X-13046466Y23293557D01*
X-13202991Y23377222D01*
X-13238729Y23406552D01*
X-13340186Y23489814D01*
X-13423448Y23591271D01*
X-13452778Y23627009D01*
X-13536443Y23783534D01*
X-13587963Y23953373D01*
X-13605359Y24130000D01*
X-13587963Y24306627D01*
X-13536443Y24476466D01*
X-13452778Y24632991D01*
X-13413378Y24681000D01*
X-13340186Y24770186D01*
X-13238729Y24853448D01*
X-13202991Y24882778D01*
X-13046466Y24966443D01*
X-12876627Y25017963D01*
X-12810443Y25024481D01*
X-12744260Y25031000D01*
X-12655740Y25031000D01*
X-12589557Y25024481D01*
X-12589557Y25024481D01*
G37*
G36*
X12810443Y25024481D02*
G01*
X12876627Y25017963D01*
X13046466Y24966443D01*
X13202991Y24882778D01*
X13238729Y24853448D01*
X13340186Y24770186D01*
X13413378Y24681000D01*
X13452778Y24632991D01*
X13536443Y24476466D01*
X13587963Y24306627D01*
X13605359Y24130000D01*
X13587963Y23953373D01*
X13536443Y23783534D01*
X13452778Y23627009D01*
X13423448Y23591271D01*
X13340186Y23489814D01*
X13238729Y23406552D01*
X13202991Y23377222D01*
X13046466Y23293557D01*
X12876627Y23242037D01*
X12810442Y23235518D01*
X12744260Y23229000D01*
X12655740Y23229000D01*
X12589558Y23235518D01*
X12523373Y23242037D01*
X12353534Y23293557D01*
X12197009Y23377222D01*
X12161271Y23406552D01*
X12059814Y23489814D01*
X11976552Y23591271D01*
X11947222Y23627009D01*
X11863557Y23783534D01*
X11812037Y23953373D01*
X11794641Y24130000D01*
X11812037Y24306627D01*
X11863557Y24476466D01*
X11947222Y24632991D01*
X11986622Y24681000D01*
X12059814Y24770186D01*
X12161271Y24853448D01*
X12197009Y24882778D01*
X12353534Y24966443D01*
X12523373Y25017963D01*
X12589557Y25024481D01*
X12655740Y25031000D01*
X12744260Y25031000D01*
X12810443Y25024481D01*
X12810443Y25024481D01*
G37*
G36*
X-8269000Y23579000D02*
G01*
X-10271000Y23579000D01*
X-10271000Y24681000D01*
X-8269000Y24681000D01*
X-8269000Y23579000D01*
X-8269000Y23579000D01*
G37*
G36*
X10271000Y23579000D02*
G01*
X8269000Y23579000D01*
X8269000Y24681000D01*
X10271000Y24681000D01*
X10271000Y23579000D01*
X10271000Y23579000D01*
G37*
G36*
X-4459000Y23579000D02*
G01*
X-6461000Y23579000D01*
X-6461000Y24681000D01*
X-4459000Y24681000D01*
X-4459000Y23579000D01*
X-4459000Y23579000D01*
G37*
G36*
X6461000Y23579000D02*
G01*
X4459000Y23579000D01*
X4459000Y24681000D01*
X6461000Y24681000D01*
X6461000Y23579000D01*
X6461000Y23579000D01*
G37*
G36*
X12810442Y27564482D02*
G01*
X12876627Y27557963D01*
X13046466Y27506443D01*
X13202991Y27422778D01*
X13238729Y27393448D01*
X13340186Y27310186D01*
X13413378Y27221000D01*
X13452778Y27172991D01*
X13536443Y27016466D01*
X13587963Y26846627D01*
X13605359Y26670000D01*
X13587963Y26493373D01*
X13536443Y26323534D01*
X13452778Y26167009D01*
X13423448Y26131271D01*
X13340186Y26029814D01*
X13238729Y25946552D01*
X13202991Y25917222D01*
X13046466Y25833557D01*
X12876627Y25782037D01*
X12810442Y25775518D01*
X12744260Y25769000D01*
X12655740Y25769000D01*
X12589557Y25775519D01*
X12523373Y25782037D01*
X12353534Y25833557D01*
X12197009Y25917222D01*
X12161271Y25946552D01*
X12059814Y26029814D01*
X11976552Y26131271D01*
X11947222Y26167009D01*
X11863557Y26323534D01*
X11812037Y26493373D01*
X11794641Y26670000D01*
X11812037Y26846627D01*
X11863557Y27016466D01*
X11947222Y27172991D01*
X11986622Y27221000D01*
X12059814Y27310186D01*
X12161271Y27393448D01*
X12197009Y27422778D01*
X12353534Y27506443D01*
X12523373Y27557963D01*
X12589558Y27564482D01*
X12655740Y27571000D01*
X12744260Y27571000D01*
X12810442Y27564482D01*
X12810442Y27564482D01*
G37*
G36*
X-12589558Y27564482D02*
G01*
X-12523373Y27557963D01*
X-12353534Y27506443D01*
X-12197009Y27422778D01*
X-12161271Y27393448D01*
X-12059814Y27310186D01*
X-11986622Y27221000D01*
X-11947222Y27172991D01*
X-11863557Y27016466D01*
X-11812037Y26846627D01*
X-11794641Y26670000D01*
X-11812037Y26493373D01*
X-11863557Y26323534D01*
X-11947222Y26167009D01*
X-11976552Y26131271D01*
X-12059814Y26029814D01*
X-12161271Y25946552D01*
X-12197009Y25917222D01*
X-12353534Y25833557D01*
X-12523373Y25782037D01*
X-12589557Y25775519D01*
X-12655740Y25769000D01*
X-12744260Y25769000D01*
X-12810442Y25775518D01*
X-12876627Y25782037D01*
X-13046466Y25833557D01*
X-13202991Y25917222D01*
X-13238729Y25946552D01*
X-13340186Y26029814D01*
X-13423448Y26131271D01*
X-13452778Y26167009D01*
X-13536443Y26323534D01*
X-13587963Y26493373D01*
X-13605359Y26670000D01*
X-13587963Y26846627D01*
X-13536443Y27016466D01*
X-13452778Y27172991D01*
X-13413378Y27221000D01*
X-13340186Y27310186D01*
X-13238729Y27393448D01*
X-13202991Y27422778D01*
X-13046466Y27506443D01*
X-12876627Y27557963D01*
X-12810442Y27564482D01*
X-12744260Y27571000D01*
X-12655740Y27571000D01*
X-12589558Y27564482D01*
X-12589558Y27564482D01*
G37*
G36*
X6971000Y26119000D02*
G01*
X4969000Y26119000D01*
X4969000Y27221000D01*
X6971000Y27221000D01*
X6971000Y26119000D01*
X6971000Y26119000D01*
G37*
G36*
X-1159000Y26119000D02*
G01*
X-3161000Y26119000D01*
X-3161000Y27221000D01*
X-1159000Y27221000D01*
X-1159000Y26119000D01*
X-1159000Y26119000D01*
G37*
G36*
X3161000Y26119000D02*
G01*
X1159000Y26119000D01*
X1159000Y27221000D01*
X3161000Y27221000D01*
X3161000Y26119000D01*
X3161000Y26119000D01*
G37*
G36*
X-4969000Y26119000D02*
G01*
X-6971000Y26119000D01*
X-6971000Y27221000D01*
X-4969000Y27221000D01*
X-4969000Y26119000D01*
X-4969000Y26119000D01*
G37*
G36*
X-11799000Y28309000D02*
G01*
X-13601000Y28309000D01*
X-13601000Y30111000D01*
X-11799000Y30111000D01*
X-11799000Y28309000D01*
X-11799000Y28309000D01*
G37*
G36*
X13601000Y28309000D02*
G01*
X11799000Y28309000D01*
X11799000Y30111000D01*
X13601000Y30111000D01*
X13601000Y28309000D01*
X13601000Y28309000D01*
G37*
G36*
X10271000Y28659000D02*
G01*
X8269000Y28659000D01*
X8269000Y29761000D01*
X10271000Y29761000D01*
X10271000Y28659000D01*
X10271000Y28659000D01*
G37*
G36*
X-8269000Y28659000D02*
G01*
X-10271000Y28659000D01*
X-10271000Y29761000D01*
X-8269000Y29761000D01*
X-8269000Y28659000D01*
X-8269000Y28659000D01*
G37*
M02*
