G04 #@! TF.GenerationSoftware,KiCad,Pcbnew,(5.1.4)-1*
G04 #@! TF.CreationDate,2021-07-20T22:26:21+09:00*
G04 #@! TF.ProjectId,UAV2021_ver3_panelizing,55415632-3032-4315-9f76-6572335f7061,rev?*
G04 #@! TF.SameCoordinates,Original*
G04 #@! TF.FileFunction,Legend,Top*
G04 #@! TF.FilePolarity,Positive*
%FSLAX46Y46*%
G04 Gerber Fmt 4.6, Leading zero omitted, Abs format (unit mm)*
G04 Created by KiCad (PCBNEW (5.1.4)-1) date 2021-07-20 22:26:21*
%MOMM*%
%LPD*%
G04 APERTURE LIST*
%ADD10C,0.120000*%
%ADD11C,0.100000*%
%ADD12C,0.150000*%
%ADD13C,0.254000*%
%ADD14R,2.002000X1.102000*%
%ADD15C,4.502000*%
%ADD16C,0.802000*%
%ADD17R,0.902000X1.002000*%
%ADD18C,0.692000*%
%ADD19O,1.802000X1.802000*%
%ADD20R,1.802000X1.802000*%
%ADD21R,0.352000X0.777000*%
%ADD22R,0.777000X0.352000*%
G04 APERTURE END LIST*
D10*
X-12500000Y34000000D02*
G75*
G03X-12500000Y34000000I-5000000J0D01*
G01*
X2480000Y-10000000D02*
X5140000Y-10000000D01*
X5140000Y-10000000D02*
X5140000Y-10670000D01*
X5140000Y-12190000D02*
X5140000Y-15750000D01*
X5140000Y-17270000D02*
X5140000Y-20830000D01*
X5140000Y-22350000D02*
X5140000Y-25910000D01*
X5140000Y-27430000D02*
X5140000Y-28100000D01*
X2480000Y-28100000D02*
X5140000Y-28100000D01*
X2480000Y-10000000D02*
X2480000Y-13210000D01*
X2480000Y-14730000D02*
X2480000Y-18290000D01*
X2480000Y-19810000D02*
X2480000Y-23370000D01*
X2480000Y-24890000D02*
X2480000Y-28100000D01*
X5140000Y-10670000D02*
X6350000Y-10670000D01*
X-5140000Y-10000000D02*
X-2480000Y-10000000D01*
X-2480000Y-10000000D02*
X-2480000Y-13210000D01*
X-2480000Y-14730000D02*
X-2480000Y-18290000D01*
X-2480000Y-19810000D02*
X-2480000Y-23370000D01*
X-2480000Y-24890000D02*
X-2480000Y-28100000D01*
X-5140000Y-28100000D02*
X-2480000Y-28100000D01*
X-5140000Y-10000000D02*
X-5140000Y-10670000D01*
X-5140000Y-12190000D02*
X-5140000Y-15750000D01*
X-5140000Y-17270000D02*
X-5140000Y-20830000D01*
X-5140000Y-22350000D02*
X-5140000Y-25910000D01*
X-5140000Y-27430000D02*
X-5140000Y-28100000D01*
X-6350000Y-10670000D02*
X-5140000Y-10670000D01*
X-5140000Y5240000D02*
X-2480000Y5240000D01*
X-2480000Y5240000D02*
X-2480000Y2030000D01*
X-2480000Y510000D02*
X-2480000Y-3050000D01*
X-2480000Y-4570000D02*
X-2480000Y-5240000D01*
X-5140000Y-5240000D02*
X-2480000Y-5240000D01*
X-5140000Y5240000D02*
X-5140000Y4570000D01*
X-5140000Y3050000D02*
X-5140000Y-510000D01*
X-5140000Y-2030000D02*
X-5140000Y-5240000D01*
X-6350000Y4570000D02*
X-5140000Y4570000D01*
X1270000Y27430000D02*
X2480000Y27430000D01*
X2480000Y10670000D02*
X2480000Y10000000D01*
X2480000Y15750000D02*
X2480000Y12190000D01*
X2480000Y20830000D02*
X2480000Y17270000D01*
X2480000Y25910000D02*
X2480000Y22350000D01*
X2480000Y28100000D02*
X2480000Y27430000D01*
X2480000Y10000000D02*
X5140000Y10000000D01*
X5140000Y13210000D02*
X5140000Y10000000D01*
X5140000Y18290000D02*
X5140000Y14730000D01*
X5140000Y23370000D02*
X5140000Y19810000D01*
X5140000Y28100000D02*
X5140000Y24890000D01*
X2480000Y28100000D02*
X5140000Y28100000D01*
X-11120000Y10920000D02*
X-12050000Y10920000D01*
X-14280000Y10920000D02*
X-13350000Y10920000D01*
X-14280000Y10920000D02*
X-14280000Y8760000D01*
X-11120000Y10920000D02*
X-11120000Y9460000D01*
X11370000Y12860000D02*
X14030000Y12860000D01*
X14030000Y12860000D02*
X14030000Y9650000D01*
X14030000Y8130000D02*
X14030000Y4570000D01*
X14030000Y3050000D02*
X14030000Y-510000D01*
X14030000Y-2030000D02*
X14030000Y-5590000D01*
X14030000Y-7110000D02*
X14030000Y-10670000D01*
X14030000Y-12190000D02*
X14030000Y-12860000D01*
X11370000Y-12860000D02*
X14030000Y-12860000D01*
X11370000Y12860000D02*
X11370000Y12190000D01*
X11370000Y10670000D02*
X11370000Y7110000D01*
X11370000Y5590000D02*
X11370000Y2030000D01*
X11370000Y510000D02*
X11370000Y-3050000D01*
X11370000Y-4570000D02*
X11370000Y-8130000D01*
X11370000Y-9650000D02*
X11370000Y-12860000D01*
X10160000Y12190000D02*
X11370000Y12190000D01*
X-12700000Y-15180000D02*
X-11370000Y-15180000D01*
X-11370000Y-15180000D02*
X-11370000Y-16510000D01*
X-11370000Y-17780000D02*
X-11370000Y-30540000D01*
X-14030000Y-30540000D02*
X-11370000Y-30540000D01*
X-14030000Y-17780000D02*
X-14030000Y-30540000D01*
X-14030000Y-17780000D02*
X-11370000Y-17780000D01*
X11370000Y-17780000D02*
X14030000Y-17780000D01*
X11370000Y-17780000D02*
X11370000Y-30540000D01*
X11370000Y-30540000D02*
X14030000Y-30540000D01*
X14030000Y-17780000D02*
X14030000Y-30540000D01*
X14030000Y-15180000D02*
X14030000Y-16510000D01*
X12700000Y-15180000D02*
X14030000Y-15180000D01*
X-14030000Y27940000D02*
X-11370000Y27940000D01*
X-14030000Y27940000D02*
X-14030000Y15180000D01*
X-14030000Y15180000D02*
X-11370000Y15180000D01*
X-11370000Y27940000D02*
X-11370000Y15180000D01*
X-11370000Y30540000D02*
X-11370000Y29210000D01*
X-12700000Y30540000D02*
X-11370000Y30540000D01*
X12700000Y30540000D02*
X14030000Y30540000D01*
X14030000Y30540000D02*
X14030000Y29210000D01*
X14030000Y27940000D02*
X14030000Y15180000D01*
X11370000Y15180000D02*
X14030000Y15180000D01*
X11370000Y27940000D02*
X11370000Y15180000D01*
X11370000Y27940000D02*
X14030000Y27940000D01*
X-14030000Y1270000D02*
X-11370000Y1270000D01*
X-14030000Y1270000D02*
X-14030000Y-3870000D01*
X-14030000Y-3870000D02*
X-11370000Y-3870000D01*
X-11370000Y1270000D02*
X-11370000Y-3870000D01*
X-11370000Y3870000D02*
X-11370000Y2540000D01*
X-12700000Y3870000D02*
X-11370000Y3870000D01*
X6290000Y30640000D02*
X8950000Y30640000D01*
X8950000Y30640000D02*
X8950000Y29970000D01*
X8950000Y28450000D02*
X8950000Y24890000D01*
X8950000Y23370000D02*
X8950000Y19810000D01*
X8950000Y18290000D02*
X8950000Y14730000D01*
X8950000Y13210000D02*
X8950000Y9650000D01*
X8950000Y8130000D02*
X8950000Y4570000D01*
X8950000Y3050000D02*
X8950000Y-510000D01*
X8950000Y-2030000D02*
X8950000Y-5590000D01*
X8950000Y-7110000D02*
X8950000Y-10670000D01*
X8950000Y-12190000D02*
X8950000Y-15750000D01*
X8950000Y-17270000D02*
X8950000Y-20830000D01*
X8950000Y-22350000D02*
X8950000Y-25910000D01*
X8950000Y-27430000D02*
X8950000Y-30640000D01*
X6290000Y-30640000D02*
X8950000Y-30640000D01*
X6290000Y30640000D02*
X6290000Y27430000D01*
X6290000Y25910000D02*
X6290000Y22350000D01*
X6290000Y20830000D02*
X6290000Y17270000D01*
X6290000Y15750000D02*
X6290000Y12190000D01*
X6290000Y10670000D02*
X6290000Y7110000D01*
X6290000Y5590000D02*
X6290000Y2030000D01*
X6290000Y510000D02*
X6290000Y-3050000D01*
X6290000Y-4570000D02*
X6290000Y-8130000D01*
X6290000Y-9650000D02*
X6290000Y-13210000D01*
X6290000Y-14730000D02*
X6290000Y-18290000D01*
X6290000Y-19810000D02*
X6290000Y-23370000D01*
X6290000Y-24890000D02*
X6290000Y-28450000D01*
X6290000Y-29970000D02*
X6290000Y-30640000D01*
X8950000Y29970000D02*
X10160000Y29970000D01*
X-2480000Y27430000D02*
X-1270000Y27430000D01*
X-5140000Y13210000D02*
X-5140000Y10000000D01*
X-5140000Y18290000D02*
X-5140000Y14730000D01*
X-5140000Y23370000D02*
X-5140000Y19810000D01*
X-5140000Y28100000D02*
X-5140000Y24890000D01*
X-5140000Y10000000D02*
X-2480000Y10000000D01*
X-2480000Y10670000D02*
X-2480000Y10000000D01*
X-2480000Y15750000D02*
X-2480000Y12190000D01*
X-2480000Y20830000D02*
X-2480000Y17270000D01*
X-2480000Y25910000D02*
X-2480000Y22350000D01*
X-2480000Y28100000D02*
X-2480000Y27430000D01*
X-5140000Y28100000D02*
X-2480000Y28100000D01*
X-10160000Y29970000D02*
X-8950000Y29970000D01*
X-8950000Y-27430000D02*
X-8950000Y-30640000D01*
X-8950000Y-22350000D02*
X-8950000Y-25910000D01*
X-8950000Y-17270000D02*
X-8950000Y-20830000D01*
X-8950000Y-12190000D02*
X-8950000Y-15750000D01*
X-8950000Y-7110000D02*
X-8950000Y-10670000D01*
X-8950000Y-2030000D02*
X-8950000Y-5590000D01*
X-8950000Y3050000D02*
X-8950000Y-510000D01*
X-8950000Y8130000D02*
X-8950000Y4570000D01*
X-8950000Y13210000D02*
X-8950000Y9650000D01*
X-8950000Y18290000D02*
X-8950000Y14730000D01*
X-8950000Y23370000D02*
X-8950000Y19810000D01*
X-8950000Y28450000D02*
X-8950000Y24890000D01*
X-8950000Y30640000D02*
X-8950000Y29970000D01*
X-8950000Y-30640000D02*
X-6290000Y-30640000D01*
X-6290000Y-29970000D02*
X-6290000Y-30640000D01*
X-6290000Y-24890000D02*
X-6290000Y-28450000D01*
X-6290000Y-19810000D02*
X-6290000Y-23370000D01*
X-6290000Y-14730000D02*
X-6290000Y-18290000D01*
X-6290000Y-9650000D02*
X-6290000Y-13210000D01*
X-6290000Y-4570000D02*
X-6290000Y-8130000D01*
X-6290000Y510000D02*
X-6290000Y-3050000D01*
X-6290000Y5590000D02*
X-6290000Y2030000D01*
X-6290000Y10670000D02*
X-6290000Y7110000D01*
X-6290000Y15750000D02*
X-6290000Y12190000D01*
X-6290000Y20830000D02*
X-6290000Y17270000D01*
X-6290000Y25910000D02*
X-6290000Y22350000D01*
X-6290000Y30640000D02*
X-6290000Y27430000D01*
X-8950000Y30640000D02*
X-6290000Y30640000D01*
X2480000Y5240000D02*
X5140000Y5240000D01*
X5140000Y5240000D02*
X5140000Y4570000D01*
X5140000Y3050000D02*
X5140000Y-510000D01*
X5140000Y-2030000D02*
X5140000Y-5240000D01*
X2480000Y-5240000D02*
X5140000Y-5240000D01*
X2480000Y5240000D02*
X2480000Y2030000D01*
X2480000Y510000D02*
X2480000Y-3050000D01*
X2480000Y-4570000D02*
X2480000Y-5240000D01*
X5140000Y4570000D02*
X6350000Y4570000D01*
D11*
X-19180000Y1920000D02*
G75*
G03X-19080000Y1920000I50000J0D01*
G01*
X-19080000Y1920000D02*
G75*
G03X-19180000Y1920000I-50000J0D01*
G01*
X-19080000Y1920000D02*
X-19080000Y1920000D01*
X-19180000Y1920000D02*
X-19180000Y1920000D01*
X-19780000Y-1830000D02*
X-20780000Y-1830000D01*
X-19780000Y-1495000D02*
X-19780000Y-1830000D01*
X-19780000Y2670000D02*
X-19780000Y2335000D01*
X-20780000Y2670000D02*
X-19780000Y2670000D01*
X-22780000Y-1830000D02*
X-21780000Y-1830000D01*
X-22780000Y-1580000D02*
X-22780000Y-1830000D01*
X-21780000Y2670000D02*
X-21780000Y2670000D01*
X-22780000Y2670000D02*
X-21780000Y2670000D01*
X-22780000Y2335000D02*
X-22780000Y2670000D01*
D12*
X3476666Y-8012380D02*
X3476666Y-8726666D01*
X3429047Y-8869523D01*
X3333809Y-8964761D01*
X3190952Y-9012380D01*
X3095714Y-9012380D01*
X4000476Y-9012380D02*
X4190952Y-9012380D01*
X4286190Y-8964761D01*
X4333809Y-8917142D01*
X4429047Y-8774285D01*
X4476666Y-8583809D01*
X4476666Y-8202857D01*
X4429047Y-8107619D01*
X4381428Y-8060000D01*
X4286190Y-8012380D01*
X4095714Y-8012380D01*
X4000476Y-8060000D01*
X3952857Y-8107619D01*
X3905238Y-8202857D01*
X3905238Y-8440952D01*
X3952857Y-8536190D01*
X4000476Y-8583809D01*
X4095714Y-8631428D01*
X4286190Y-8631428D01*
X4381428Y-8583809D01*
X4429047Y-8536190D01*
X4476666Y-8440952D01*
X-4143333Y-8012380D02*
X-4143333Y-8726666D01*
X-4190952Y-8869523D01*
X-4286190Y-8964761D01*
X-4429047Y-9012380D01*
X-4524285Y-9012380D01*
X-3524285Y-8440952D02*
X-3619523Y-8393333D01*
X-3667142Y-8345714D01*
X-3714761Y-8250476D01*
X-3714761Y-8202857D01*
X-3667142Y-8107619D01*
X-3619523Y-8060000D01*
X-3524285Y-8012380D01*
X-3333809Y-8012380D01*
X-3238571Y-8060000D01*
X-3190952Y-8107619D01*
X-3143333Y-8202857D01*
X-3143333Y-8250476D01*
X-3190952Y-8345714D01*
X-3238571Y-8393333D01*
X-3333809Y-8440952D01*
X-3524285Y-8440952D01*
X-3619523Y-8488571D01*
X-3667142Y-8536190D01*
X-3714761Y-8631428D01*
X-3714761Y-8821904D01*
X-3667142Y-8917142D01*
X-3619523Y-8964761D01*
X-3524285Y-9012380D01*
X-3333809Y-9012380D01*
X-3238571Y-8964761D01*
X-3190952Y-8917142D01*
X-3143333Y-8821904D01*
X-3143333Y-8631428D01*
X-3190952Y-8536190D01*
X-3238571Y-8488571D01*
X-3333809Y-8440952D01*
X-4619523Y7227619D02*
X-4619523Y6513333D01*
X-4667142Y6370476D01*
X-4762380Y6275238D01*
X-4905238Y6227619D01*
X-5000476Y6227619D01*
X-3619523Y6227619D02*
X-4190952Y6227619D01*
X-3905238Y6227619D02*
X-3905238Y7227619D01*
X-4000476Y7084761D01*
X-4095714Y6989523D01*
X-4190952Y6941904D01*
X-2762380Y7227619D02*
X-2952857Y7227619D01*
X-3048095Y7180000D01*
X-3095714Y7132380D01*
X-3190952Y6989523D01*
X-3238571Y6799047D01*
X-3238571Y6418095D01*
X-3190952Y6322857D01*
X-3143333Y6275238D01*
X-3048095Y6227619D01*
X-2857619Y6227619D01*
X-2762380Y6275238D01*
X-2714761Y6322857D01*
X-2667142Y6418095D01*
X-2667142Y6656190D01*
X-2714761Y6751428D01*
X-2762380Y6799047D01*
X-2857619Y6846666D01*
X-3048095Y6846666D01*
X-3143333Y6799047D01*
X-3190952Y6751428D01*
X-3238571Y6656190D01*
X3000476Y30087619D02*
X3000476Y29373333D01*
X2952857Y29230476D01*
X2857619Y29135238D01*
X2714761Y29087619D01*
X2619523Y29087619D01*
X4000476Y29087619D02*
X3429047Y29087619D01*
X3714761Y29087619D02*
X3714761Y30087619D01*
X3619523Y29944761D01*
X3524285Y29849523D01*
X3429047Y29801904D01*
X4952857Y29087619D02*
X4381428Y29087619D01*
X4667142Y29087619D02*
X4667142Y30087619D01*
X4571904Y29944761D01*
X4476666Y29849523D01*
X4381428Y29801904D01*
X-4309523Y-29252380D02*
X-4309523Y-29966666D01*
X-4357142Y-30109523D01*
X-4452380Y-30204761D01*
X-4595238Y-30252380D01*
X-4690476Y-30252380D01*
X-3309523Y-30252380D02*
X-3880952Y-30252380D01*
X-3595238Y-30252380D02*
X-3595238Y-29252380D01*
X-3690476Y-29395238D01*
X-3785714Y-29490476D01*
X-3880952Y-29538095D01*
X-2404761Y-29252380D02*
X-2880952Y-29252380D01*
X-2928571Y-29728571D01*
X-2880952Y-29680952D01*
X-2785714Y-29633333D01*
X-2547619Y-29633333D01*
X-2452380Y-29680952D01*
X-2404761Y-29728571D01*
X-2357142Y-29823809D01*
X-2357142Y-30061904D01*
X-2404761Y-30157142D01*
X-2452380Y-30204761D01*
X-2547619Y-30252380D01*
X-2785714Y-30252380D01*
X-2880952Y-30204761D01*
X-2928571Y-30157142D01*
X2690476Y-29252380D02*
X2690476Y-29966666D01*
X2642857Y-30109523D01*
X2547619Y-30204761D01*
X2404761Y-30252380D01*
X2309523Y-30252380D01*
X3690476Y-30252380D02*
X3119047Y-30252380D01*
X3404761Y-30252380D02*
X3404761Y-29252380D01*
X3309523Y-29395238D01*
X3214285Y-29490476D01*
X3119047Y-29538095D01*
X4547619Y-29585714D02*
X4547619Y-30252380D01*
X4309523Y-29204761D02*
X4071428Y-29919047D01*
X4690476Y-29919047D01*
X-14652380Y10064761D02*
X-14700000Y9969523D01*
X-14795238Y9874285D01*
X-14938095Y9731428D01*
X-14985714Y9636190D01*
X-14985714Y9540952D01*
X-14747619Y9588571D02*
X-14795238Y9493333D01*
X-14890476Y9398095D01*
X-15080952Y9350476D01*
X-15414285Y9350476D01*
X-15604761Y9398095D01*
X-15700000Y9493333D01*
X-15747619Y9588571D01*
X-15747619Y9779047D01*
X-15700000Y9874285D01*
X-15604761Y9969523D01*
X-15414285Y10017142D01*
X-15080952Y10017142D01*
X-14890476Y9969523D01*
X-14795238Y9874285D01*
X-14747619Y9779047D01*
X-14747619Y9588571D01*
X-14747619Y10969523D02*
X-14747619Y10398095D01*
X-14747619Y10683809D02*
X-15747619Y10683809D01*
X-15604761Y10588571D01*
X-15509523Y10493333D01*
X-15461904Y10398095D01*
X12366666Y14847619D02*
X12366666Y14133333D01*
X12319047Y13990476D01*
X12223809Y13895238D01*
X12080952Y13847619D01*
X11985714Y13847619D01*
X12747619Y14847619D02*
X13366666Y14847619D01*
X13033333Y14466666D01*
X13176190Y14466666D01*
X13271428Y14419047D01*
X13319047Y14371428D01*
X13366666Y14276190D01*
X13366666Y14038095D01*
X13319047Y13942857D01*
X13271428Y13895238D01*
X13176190Y13847619D01*
X12890476Y13847619D01*
X12795238Y13895238D01*
X12747619Y13942857D01*
X-12866666Y8337619D02*
X-13200000Y8813809D01*
X-13438095Y8337619D02*
X-13438095Y9337619D01*
X-13057142Y9337619D01*
X-12961904Y9290000D01*
X-12914285Y9242380D01*
X-12866666Y9147142D01*
X-12866666Y9004285D01*
X-12914285Y8909047D01*
X-12961904Y8861428D01*
X-13057142Y8813809D01*
X-13438095Y8813809D01*
X-12485714Y9242380D02*
X-12438095Y9290000D01*
X-12342857Y9337619D01*
X-12104761Y9337619D01*
X-12009523Y9290000D01*
X-11961904Y9242380D01*
X-11914285Y9147142D01*
X-11914285Y9051904D01*
X-11961904Y8909047D01*
X-12533333Y8337619D01*
X-11914285Y8337619D01*
X-12866666Y13417619D02*
X-13200000Y13893809D01*
X-13438095Y13417619D02*
X-13438095Y14417619D01*
X-13057142Y14417619D01*
X-12961904Y14370000D01*
X-12914285Y14322380D01*
X-12866666Y14227142D01*
X-12866666Y14084285D01*
X-12914285Y13989047D01*
X-12961904Y13941428D01*
X-13057142Y13893809D01*
X-13438095Y13893809D01*
X-11914285Y13417619D02*
X-12485714Y13417619D01*
X-12200000Y13417619D02*
X-12200000Y14417619D01*
X-12295238Y14274761D01*
X-12390476Y14179523D01*
X-12485714Y14131904D01*
X-13509523Y-13192380D02*
X-13509523Y-13906666D01*
X-13557142Y-14049523D01*
X-13652380Y-14144761D01*
X-13795238Y-14192380D01*
X-13890476Y-14192380D01*
X-12509523Y-14192380D02*
X-13080952Y-14192380D01*
X-12795238Y-14192380D02*
X-12795238Y-13192380D01*
X-12890476Y-13335238D01*
X-12985714Y-13430476D01*
X-13080952Y-13478095D01*
X-12176190Y-13192380D02*
X-11557142Y-13192380D01*
X-11890476Y-13573333D01*
X-11747619Y-13573333D01*
X-11652380Y-13620952D01*
X-11604761Y-13668571D01*
X-11557142Y-13763809D01*
X-11557142Y-14001904D01*
X-11604761Y-14097142D01*
X-11652380Y-14144761D01*
X-11747619Y-14192380D01*
X-12033333Y-14192380D01*
X-12128571Y-14144761D01*
X-12176190Y-14097142D01*
X11890476Y-13192380D02*
X11890476Y-13906666D01*
X11842857Y-14049523D01*
X11747619Y-14144761D01*
X11604761Y-14192380D01*
X11509523Y-14192380D01*
X12890476Y-14192380D02*
X12319047Y-14192380D01*
X12604761Y-14192380D02*
X12604761Y-13192380D01*
X12509523Y-13335238D01*
X12414285Y-13430476D01*
X12319047Y-13478095D01*
X13271428Y-13287619D02*
X13319047Y-13240000D01*
X13414285Y-13192380D01*
X13652380Y-13192380D01*
X13747619Y-13240000D01*
X13795238Y-13287619D01*
X13842857Y-13382857D01*
X13842857Y-13478095D01*
X13795238Y-13620952D01*
X13223809Y-14192380D01*
X13842857Y-14192380D01*
X-13033333Y32527619D02*
X-13033333Y31813333D01*
X-13080952Y31670476D01*
X-13176190Y31575238D01*
X-13319047Y31527619D01*
X-13414285Y31527619D01*
X-12652380Y32527619D02*
X-11985714Y32527619D01*
X-12414285Y31527619D01*
X12366666Y32527619D02*
X12366666Y31813333D01*
X12319047Y31670476D01*
X12223809Y31575238D01*
X12080952Y31527619D01*
X11985714Y31527619D01*
X13271428Y32527619D02*
X13080952Y32527619D01*
X12985714Y32480000D01*
X12938095Y32432380D01*
X12842857Y32289523D01*
X12795238Y32099047D01*
X12795238Y31718095D01*
X12842857Y31622857D01*
X12890476Y31575238D01*
X12985714Y31527619D01*
X13176190Y31527619D01*
X13271428Y31575238D01*
X13319047Y31622857D01*
X13366666Y31718095D01*
X13366666Y31956190D01*
X13319047Y32051428D01*
X13271428Y32099047D01*
X13176190Y32146666D01*
X12985714Y32146666D01*
X12890476Y32099047D01*
X12842857Y32051428D01*
X12795238Y31956190D01*
X-13033333Y5857619D02*
X-13033333Y5143333D01*
X-13080952Y5000476D01*
X-13176190Y4905238D01*
X-13319047Y4857619D01*
X-13414285Y4857619D01*
X-12604761Y5762380D02*
X-12557142Y5810000D01*
X-12461904Y5857619D01*
X-12223809Y5857619D01*
X-12128571Y5810000D01*
X-12080952Y5762380D01*
X-12033333Y5667142D01*
X-12033333Y5571904D01*
X-12080952Y5429047D01*
X-12652380Y4857619D01*
X-12033333Y4857619D01*
X7286666Y32627619D02*
X7286666Y31913333D01*
X7239047Y31770476D01*
X7143809Y31675238D01*
X7000952Y31627619D01*
X6905714Y31627619D01*
X8239047Y32627619D02*
X7762857Y32627619D01*
X7715238Y32151428D01*
X7762857Y32199047D01*
X7858095Y32246666D01*
X8096190Y32246666D01*
X8191428Y32199047D01*
X8239047Y32151428D01*
X8286666Y32056190D01*
X8286666Y31818095D01*
X8239047Y31722857D01*
X8191428Y31675238D01*
X8096190Y31627619D01*
X7858095Y31627619D01*
X7762857Y31675238D01*
X7715238Y31722857D01*
X-4619523Y30087619D02*
X-4619523Y29373333D01*
X-4667142Y29230476D01*
X-4762380Y29135238D01*
X-4905238Y29087619D01*
X-5000476Y29087619D01*
X-3619523Y29087619D02*
X-4190952Y29087619D01*
X-3905238Y29087619D02*
X-3905238Y30087619D01*
X-4000476Y29944761D01*
X-4095714Y29849523D01*
X-4190952Y29801904D01*
X-3000476Y30087619D02*
X-2905238Y30087619D01*
X-2810000Y30040000D01*
X-2762380Y29992380D01*
X-2714761Y29897142D01*
X-2667142Y29706666D01*
X-2667142Y29468571D01*
X-2714761Y29278095D01*
X-2762380Y29182857D01*
X-2810000Y29135238D01*
X-2905238Y29087619D01*
X-3000476Y29087619D01*
X-3095714Y29135238D01*
X-3143333Y29182857D01*
X-3190952Y29278095D01*
X-3238571Y29468571D01*
X-3238571Y29706666D01*
X-3190952Y29897142D01*
X-3143333Y29992380D01*
X-3095714Y30040000D01*
X-3000476Y30087619D01*
X-7953333Y32627619D02*
X-7953333Y31913333D01*
X-8000952Y31770476D01*
X-8096190Y31675238D01*
X-8239047Y31627619D01*
X-8334285Y31627619D01*
X-7048571Y32294285D02*
X-7048571Y31627619D01*
X-7286666Y32675238D02*
X-7524761Y31960952D01*
X-6905714Y31960952D01*
X3000476Y7227619D02*
X3000476Y6513333D01*
X2952857Y6370476D01*
X2857619Y6275238D01*
X2714761Y6227619D01*
X2619523Y6227619D01*
X4000476Y6227619D02*
X3429047Y6227619D01*
X3714761Y6227619D02*
X3714761Y7227619D01*
X3619523Y7084761D01*
X3524285Y6989523D01*
X3429047Y6941904D01*
X4333809Y7227619D02*
X5000476Y7227619D01*
X4571904Y6227619D01*
D13*
X-22519761Y-3774023D02*
X-22519761Y-2504023D01*
X-21189285Y-3653071D02*
X-21249761Y-3713547D01*
X-21431190Y-3774023D01*
X-21552142Y-3774023D01*
X-21733571Y-3713547D01*
X-21854523Y-3592595D01*
X-21915000Y-3471642D01*
X-21975476Y-3229738D01*
X-21975476Y-3048309D01*
X-21915000Y-2806404D01*
X-21854523Y-2685452D01*
X-21733571Y-2564500D01*
X-21552142Y-2504023D01*
X-21431190Y-2504023D01*
X-21249761Y-2564500D01*
X-21189285Y-2624976D01*
X-19979761Y-3774023D02*
X-20705476Y-3774023D01*
X-20342619Y-3774023D02*
X-20342619Y-2504023D01*
X-20463571Y-2685452D01*
X-20584523Y-2806404D01*
X-20705476Y-2866880D01*
D11*
X-20093333Y4813428D02*
X-20117142Y4789619D01*
X-20188571Y4765809D01*
X-20236190Y4765809D01*
X-20307619Y4789619D01*
X-20355238Y4837238D01*
X-20379047Y4884857D01*
X-20402857Y4980095D01*
X-20402857Y5051523D01*
X-20379047Y5146761D01*
X-20355238Y5194380D01*
X-20307619Y5242000D01*
X-20236190Y5265809D01*
X-20188571Y5265809D01*
X-20117142Y5242000D01*
X-20093333Y5218190D01*
X-19902857Y5218190D02*
X-19879047Y5242000D01*
X-19831428Y5265809D01*
X-19712380Y5265809D01*
X-19664761Y5242000D01*
X-19640952Y5218190D01*
X-19617142Y5170571D01*
X-19617142Y5122952D01*
X-19640952Y5051523D01*
X-19926666Y4765809D01*
X-19617142Y4765809D01*
X-22633333Y4813428D02*
X-22657142Y4789619D01*
X-22728571Y4765809D01*
X-22776190Y4765809D01*
X-22847619Y4789619D01*
X-22895238Y4837238D01*
X-22919047Y4884857D01*
X-22942857Y4980095D01*
X-22942857Y5051523D01*
X-22919047Y5146761D01*
X-22895238Y5194380D01*
X-22847619Y5242000D01*
X-22776190Y5265809D01*
X-22728571Y5265809D01*
X-22657142Y5242000D01*
X-22633333Y5218190D01*
X-22157142Y4765809D02*
X-22442857Y4765809D01*
X-22300000Y4765809D02*
X-22300000Y5265809D01*
X-22347619Y5194380D01*
X-22395238Y5146761D01*
X-22442857Y5122952D01*
%LPC*%
D14*
X2160000Y-13970000D03*
X2160000Y-19050000D03*
X2160000Y-24130000D03*
X5460000Y-11430000D03*
X5460000Y-16510000D03*
X5460000Y-21590000D03*
X5460000Y-26670000D03*
X-5460000Y-11430000D03*
X-5460000Y-16510000D03*
X-5460000Y-21590000D03*
X-5460000Y-26670000D03*
X-2160000Y-13970000D03*
X-2160000Y-19050000D03*
X-2160000Y-24130000D03*
X-5460000Y3810000D03*
X-5460000Y-1270000D03*
X-2160000Y1270000D03*
X-2160000Y-3810000D03*
X5460000Y13970000D03*
X5460000Y19050000D03*
X5460000Y24130000D03*
X2160000Y11430000D03*
X2160000Y16510000D03*
X2160000Y21590000D03*
X2160000Y26670000D03*
D15*
X-3500000Y-33000000D03*
D16*
X-1850000Y-33000000D03*
X-2333274Y-34166726D03*
X-3500000Y-34650000D03*
X-4666726Y-34166726D03*
X-5150000Y-33000000D03*
X-4666726Y-31833274D03*
X-3500000Y-31350000D03*
X-2333274Y-31833274D03*
D15*
X3500000Y-33000000D03*
D16*
X5150000Y-33000000D03*
X4666726Y-34166726D03*
X3500000Y-34650000D03*
X2333274Y-34166726D03*
X1850000Y-33000000D03*
X2333274Y-31833274D03*
X3500000Y-31350000D03*
X4666726Y-31833274D03*
D17*
X-13650000Y9160000D03*
X-11750000Y9160000D03*
X-12700000Y11160000D03*
D14*
X11050000Y11430000D03*
X11050000Y6350000D03*
X11050000Y1270000D03*
X11050000Y-3810000D03*
X11050000Y-8890000D03*
X14350000Y8890000D03*
X14350000Y3810000D03*
X14350000Y-1270000D03*
X14350000Y-6350000D03*
X14350000Y-11430000D03*
D11*
G36*
X-12995043Y7990167D02*
G01*
X-12978249Y7987676D01*
X-12961781Y7983551D01*
X-12945796Y7977831D01*
X-12930448Y7970572D01*
X-12915886Y7961844D01*
X-12902250Y7951731D01*
X-12889671Y7940329D01*
X-12878269Y7927750D01*
X-12868156Y7914114D01*
X-12859428Y7899552D01*
X-12852169Y7884204D01*
X-12846449Y7868219D01*
X-12842324Y7851751D01*
X-12839833Y7834957D01*
X-12839000Y7818000D01*
X-12839000Y7422000D01*
X-12839833Y7405043D01*
X-12842324Y7388249D01*
X-12846449Y7371781D01*
X-12852169Y7355796D01*
X-12859428Y7340448D01*
X-12868156Y7325886D01*
X-12878269Y7312250D01*
X-12889671Y7299671D01*
X-12902250Y7288269D01*
X-12915886Y7278156D01*
X-12930448Y7269428D01*
X-12945796Y7262169D01*
X-12961781Y7256449D01*
X-12978249Y7252324D01*
X-12995043Y7249833D01*
X-13012000Y7249000D01*
X-13358000Y7249000D01*
X-13374957Y7249833D01*
X-13391751Y7252324D01*
X-13408219Y7256449D01*
X-13424204Y7262169D01*
X-13439552Y7269428D01*
X-13454114Y7278156D01*
X-13467750Y7288269D01*
X-13480329Y7299671D01*
X-13491731Y7312250D01*
X-13501844Y7325886D01*
X-13510572Y7340448D01*
X-13517831Y7355796D01*
X-13523551Y7371781D01*
X-13527676Y7388249D01*
X-13530167Y7405043D01*
X-13531000Y7422000D01*
X-13531000Y7818000D01*
X-13530167Y7834957D01*
X-13527676Y7851751D01*
X-13523551Y7868219D01*
X-13517831Y7884204D01*
X-13510572Y7899552D01*
X-13501844Y7914114D01*
X-13491731Y7927750D01*
X-13480329Y7940329D01*
X-13467750Y7951731D01*
X-13454114Y7961844D01*
X-13439552Y7970572D01*
X-13424204Y7977831D01*
X-13408219Y7983551D01*
X-13391751Y7987676D01*
X-13374957Y7990167D01*
X-13358000Y7991000D01*
X-13012000Y7991000D01*
X-12995043Y7990167D01*
X-12995043Y7990167D01*
G37*
D18*
X-13185000Y7620000D03*
D11*
G36*
X-12025043Y7990167D02*
G01*
X-12008249Y7987676D01*
X-11991781Y7983551D01*
X-11975796Y7977831D01*
X-11960448Y7970572D01*
X-11945886Y7961844D01*
X-11932250Y7951731D01*
X-11919671Y7940329D01*
X-11908269Y7927750D01*
X-11898156Y7914114D01*
X-11889428Y7899552D01*
X-11882169Y7884204D01*
X-11876449Y7868219D01*
X-11872324Y7851751D01*
X-11869833Y7834957D01*
X-11869000Y7818000D01*
X-11869000Y7422000D01*
X-11869833Y7405043D01*
X-11872324Y7388249D01*
X-11876449Y7371781D01*
X-11882169Y7355796D01*
X-11889428Y7340448D01*
X-11898156Y7325886D01*
X-11908269Y7312250D01*
X-11919671Y7299671D01*
X-11932250Y7288269D01*
X-11945886Y7278156D01*
X-11960448Y7269428D01*
X-11975796Y7262169D01*
X-11991781Y7256449D01*
X-12008249Y7252324D01*
X-12025043Y7249833D01*
X-12042000Y7249000D01*
X-12388000Y7249000D01*
X-12404957Y7249833D01*
X-12421751Y7252324D01*
X-12438219Y7256449D01*
X-12454204Y7262169D01*
X-12469552Y7269428D01*
X-12484114Y7278156D01*
X-12497750Y7288269D01*
X-12510329Y7299671D01*
X-12521731Y7312250D01*
X-12531844Y7325886D01*
X-12540572Y7340448D01*
X-12547831Y7355796D01*
X-12553551Y7371781D01*
X-12557676Y7388249D01*
X-12560167Y7405043D01*
X-12561000Y7422000D01*
X-12561000Y7818000D01*
X-12560167Y7834957D01*
X-12557676Y7851751D01*
X-12553551Y7868219D01*
X-12547831Y7884204D01*
X-12540572Y7899552D01*
X-12531844Y7914114D01*
X-12521731Y7927750D01*
X-12510329Y7940329D01*
X-12497750Y7951731D01*
X-12484114Y7961844D01*
X-12469552Y7970572D01*
X-12454204Y7977831D01*
X-12438219Y7983551D01*
X-12421751Y7987676D01*
X-12404957Y7990167D01*
X-12388000Y7991000D01*
X-12042000Y7991000D01*
X-12025043Y7990167D01*
X-12025043Y7990167D01*
G37*
D18*
X-12215000Y7620000D03*
D11*
G36*
X-12025043Y13070167D02*
G01*
X-12008249Y13067676D01*
X-11991781Y13063551D01*
X-11975796Y13057831D01*
X-11960448Y13050572D01*
X-11945886Y13041844D01*
X-11932250Y13031731D01*
X-11919671Y13020329D01*
X-11908269Y13007750D01*
X-11898156Y12994114D01*
X-11889428Y12979552D01*
X-11882169Y12964204D01*
X-11876449Y12948219D01*
X-11872324Y12931751D01*
X-11869833Y12914957D01*
X-11869000Y12898000D01*
X-11869000Y12502000D01*
X-11869833Y12485043D01*
X-11872324Y12468249D01*
X-11876449Y12451781D01*
X-11882169Y12435796D01*
X-11889428Y12420448D01*
X-11898156Y12405886D01*
X-11908269Y12392250D01*
X-11919671Y12379671D01*
X-11932250Y12368269D01*
X-11945886Y12358156D01*
X-11960448Y12349428D01*
X-11975796Y12342169D01*
X-11991781Y12336449D01*
X-12008249Y12332324D01*
X-12025043Y12329833D01*
X-12042000Y12329000D01*
X-12388000Y12329000D01*
X-12404957Y12329833D01*
X-12421751Y12332324D01*
X-12438219Y12336449D01*
X-12454204Y12342169D01*
X-12469552Y12349428D01*
X-12484114Y12358156D01*
X-12497750Y12368269D01*
X-12510329Y12379671D01*
X-12521731Y12392250D01*
X-12531844Y12405886D01*
X-12540572Y12420448D01*
X-12547831Y12435796D01*
X-12553551Y12451781D01*
X-12557676Y12468249D01*
X-12560167Y12485043D01*
X-12561000Y12502000D01*
X-12561000Y12898000D01*
X-12560167Y12914957D01*
X-12557676Y12931751D01*
X-12553551Y12948219D01*
X-12547831Y12964204D01*
X-12540572Y12979552D01*
X-12531844Y12994114D01*
X-12521731Y13007750D01*
X-12510329Y13020329D01*
X-12497750Y13031731D01*
X-12484114Y13041844D01*
X-12469552Y13050572D01*
X-12454204Y13057831D01*
X-12438219Y13063551D01*
X-12421751Y13067676D01*
X-12404957Y13070167D01*
X-12388000Y13071000D01*
X-12042000Y13071000D01*
X-12025043Y13070167D01*
X-12025043Y13070167D01*
G37*
D18*
X-12215000Y12700000D03*
D11*
G36*
X-12995043Y13070167D02*
G01*
X-12978249Y13067676D01*
X-12961781Y13063551D01*
X-12945796Y13057831D01*
X-12930448Y13050572D01*
X-12915886Y13041844D01*
X-12902250Y13031731D01*
X-12889671Y13020329D01*
X-12878269Y13007750D01*
X-12868156Y12994114D01*
X-12859428Y12979552D01*
X-12852169Y12964204D01*
X-12846449Y12948219D01*
X-12842324Y12931751D01*
X-12839833Y12914957D01*
X-12839000Y12898000D01*
X-12839000Y12502000D01*
X-12839833Y12485043D01*
X-12842324Y12468249D01*
X-12846449Y12451781D01*
X-12852169Y12435796D01*
X-12859428Y12420448D01*
X-12868156Y12405886D01*
X-12878269Y12392250D01*
X-12889671Y12379671D01*
X-12902250Y12368269D01*
X-12915886Y12358156D01*
X-12930448Y12349428D01*
X-12945796Y12342169D01*
X-12961781Y12336449D01*
X-12978249Y12332324D01*
X-12995043Y12329833D01*
X-13012000Y12329000D01*
X-13358000Y12329000D01*
X-13374957Y12329833D01*
X-13391751Y12332324D01*
X-13408219Y12336449D01*
X-13424204Y12342169D01*
X-13439552Y12349428D01*
X-13454114Y12358156D01*
X-13467750Y12368269D01*
X-13480329Y12379671D01*
X-13491731Y12392250D01*
X-13501844Y12405886D01*
X-13510572Y12420448D01*
X-13517831Y12435796D01*
X-13523551Y12451781D01*
X-13527676Y12468249D01*
X-13530167Y12485043D01*
X-13531000Y12502000D01*
X-13531000Y12898000D01*
X-13530167Y12914957D01*
X-13527676Y12931751D01*
X-13523551Y12948219D01*
X-13517831Y12964204D01*
X-13510572Y12979552D01*
X-13501844Y12994114D01*
X-13491731Y13007750D01*
X-13480329Y13020329D01*
X-13467750Y13031731D01*
X-13454114Y13041844D01*
X-13439552Y13050572D01*
X-13424204Y13057831D01*
X-13408219Y13063551D01*
X-13391751Y13067676D01*
X-13374957Y13070167D01*
X-13358000Y13071000D01*
X-13012000Y13071000D01*
X-12995043Y13070167D01*
X-12995043Y13070167D01*
G37*
D18*
X-13185000Y12700000D03*
D19*
X-12700000Y-29210000D03*
X-12700000Y-26670000D03*
X-12700000Y-24130000D03*
X-12700000Y-21590000D03*
X-12700000Y-19050000D03*
D20*
X-12700000Y-16510000D03*
X12700000Y-16510000D03*
D19*
X12700000Y-19050000D03*
X12700000Y-21590000D03*
X12700000Y-24130000D03*
X12700000Y-26670000D03*
X12700000Y-29210000D03*
D20*
X-12700000Y29210000D03*
D19*
X-12700000Y26670000D03*
X-12700000Y24130000D03*
X-12700000Y21590000D03*
X-12700000Y19050000D03*
X-12700000Y16510000D03*
X12700000Y16510000D03*
X12700000Y19050000D03*
X12700000Y21590000D03*
X12700000Y24130000D03*
X12700000Y26670000D03*
D20*
X12700000Y29210000D03*
X-12700000Y2540000D03*
D19*
X-12700000Y0D03*
X-12700000Y-2540000D03*
D14*
X5970000Y26670000D03*
X5970000Y21590000D03*
X5970000Y16510000D03*
X5970000Y11430000D03*
X5970000Y6350000D03*
X5970000Y1270000D03*
X5970000Y-3810000D03*
X5970000Y-8890000D03*
X5970000Y-13970000D03*
X5970000Y-19050000D03*
X5970000Y-24130000D03*
X5970000Y-29210000D03*
X9270000Y29210000D03*
X9270000Y24130000D03*
X9270000Y19050000D03*
X9270000Y13970000D03*
X9270000Y8890000D03*
X9270000Y3810000D03*
X9270000Y-1270000D03*
X9270000Y-6350000D03*
X9270000Y-11430000D03*
X9270000Y-16510000D03*
X9270000Y-21590000D03*
X9270000Y-26670000D03*
X-2160000Y11430000D03*
X-2160000Y16510000D03*
X-2160000Y21590000D03*
X-2160000Y26670000D03*
X-5460000Y13970000D03*
X-5460000Y19050000D03*
X-5460000Y24130000D03*
X-5970000Y-29210000D03*
X-5970000Y-24130000D03*
X-5970000Y-19050000D03*
X-5970000Y-13970000D03*
X-5970000Y-8890000D03*
X-5970000Y-3810000D03*
X-5970000Y1270000D03*
X-5970000Y6350000D03*
X-5970000Y11430000D03*
X-5970000Y16510000D03*
X-5970000Y21590000D03*
X-5970000Y26670000D03*
X-9270000Y-26670000D03*
X-9270000Y-21590000D03*
X-9270000Y-16510000D03*
X-9270000Y-11430000D03*
X-9270000Y-6350000D03*
X-9270000Y-1270000D03*
X-9270000Y3810000D03*
X-9270000Y8890000D03*
X-9270000Y13970000D03*
X-9270000Y19050000D03*
X-9270000Y24130000D03*
X-9270000Y29210000D03*
X2160000Y1270000D03*
X2160000Y-3810000D03*
X5460000Y3810000D03*
X5460000Y-1270000D03*
D19*
X-17470000Y-3390000D03*
X-17470000Y-850000D03*
X-17470000Y1690000D03*
D20*
X-17470000Y4230000D03*
D19*
X-25090000Y-3390000D03*
X-25090000Y-850000D03*
X-25090000Y1690000D03*
D20*
X-25090000Y4230000D03*
D21*
X-21280000Y2335000D03*
D22*
X-22445000Y1920000D03*
X-22445000Y1420000D03*
X-22445000Y920000D03*
X-22445000Y420000D03*
X-22445000Y-80000D03*
X-22445000Y-580000D03*
X-22445000Y-1080000D03*
D21*
X-21280000Y-1495000D03*
D22*
X-20115000Y-1080000D03*
X-20115000Y-580000D03*
X-20115000Y-80000D03*
X-20115000Y420000D03*
X-20115000Y920000D03*
X-20115000Y1420000D03*
X-20115000Y1920000D03*
D11*
G36*
X-19335043Y4600167D02*
G01*
X-19318249Y4597676D01*
X-19301781Y4593551D01*
X-19285796Y4587831D01*
X-19270448Y4580572D01*
X-19255886Y4571844D01*
X-19242250Y4561731D01*
X-19229671Y4550329D01*
X-19218269Y4537750D01*
X-19208156Y4524114D01*
X-19199428Y4509552D01*
X-19192169Y4494204D01*
X-19186449Y4478219D01*
X-19182324Y4461751D01*
X-19179833Y4444957D01*
X-19179000Y4428000D01*
X-19179000Y4032000D01*
X-19179833Y4015043D01*
X-19182324Y3998249D01*
X-19186449Y3981781D01*
X-19192169Y3965796D01*
X-19199428Y3950448D01*
X-19208156Y3935886D01*
X-19218269Y3922250D01*
X-19229671Y3909671D01*
X-19242250Y3898269D01*
X-19255886Y3888156D01*
X-19270448Y3879428D01*
X-19285796Y3872169D01*
X-19301781Y3866449D01*
X-19318249Y3862324D01*
X-19335043Y3859833D01*
X-19352000Y3859000D01*
X-19698000Y3859000D01*
X-19714957Y3859833D01*
X-19731751Y3862324D01*
X-19748219Y3866449D01*
X-19764204Y3872169D01*
X-19779552Y3879428D01*
X-19794114Y3888156D01*
X-19807750Y3898269D01*
X-19820329Y3909671D01*
X-19831731Y3922250D01*
X-19841844Y3935886D01*
X-19850572Y3950448D01*
X-19857831Y3965796D01*
X-19863551Y3981781D01*
X-19867676Y3998249D01*
X-19870167Y4015043D01*
X-19871000Y4032000D01*
X-19871000Y4428000D01*
X-19870167Y4444957D01*
X-19867676Y4461751D01*
X-19863551Y4478219D01*
X-19857831Y4494204D01*
X-19850572Y4509552D01*
X-19841844Y4524114D01*
X-19831731Y4537750D01*
X-19820329Y4550329D01*
X-19807750Y4561731D01*
X-19794114Y4571844D01*
X-19779552Y4580572D01*
X-19764204Y4587831D01*
X-19748219Y4593551D01*
X-19731751Y4597676D01*
X-19714957Y4600167D01*
X-19698000Y4601000D01*
X-19352000Y4601000D01*
X-19335043Y4600167D01*
X-19335043Y4600167D01*
G37*
D18*
X-19525000Y4230000D03*
D11*
G36*
X-20305043Y4600167D02*
G01*
X-20288249Y4597676D01*
X-20271781Y4593551D01*
X-20255796Y4587831D01*
X-20240448Y4580572D01*
X-20225886Y4571844D01*
X-20212250Y4561731D01*
X-20199671Y4550329D01*
X-20188269Y4537750D01*
X-20178156Y4524114D01*
X-20169428Y4509552D01*
X-20162169Y4494204D01*
X-20156449Y4478219D01*
X-20152324Y4461751D01*
X-20149833Y4444957D01*
X-20149000Y4428000D01*
X-20149000Y4032000D01*
X-20149833Y4015043D01*
X-20152324Y3998249D01*
X-20156449Y3981781D01*
X-20162169Y3965796D01*
X-20169428Y3950448D01*
X-20178156Y3935886D01*
X-20188269Y3922250D01*
X-20199671Y3909671D01*
X-20212250Y3898269D01*
X-20225886Y3888156D01*
X-20240448Y3879428D01*
X-20255796Y3872169D01*
X-20271781Y3866449D01*
X-20288249Y3862324D01*
X-20305043Y3859833D01*
X-20322000Y3859000D01*
X-20668000Y3859000D01*
X-20684957Y3859833D01*
X-20701751Y3862324D01*
X-20718219Y3866449D01*
X-20734204Y3872169D01*
X-20749552Y3879428D01*
X-20764114Y3888156D01*
X-20777750Y3898269D01*
X-20790329Y3909671D01*
X-20801731Y3922250D01*
X-20811844Y3935886D01*
X-20820572Y3950448D01*
X-20827831Y3965796D01*
X-20833551Y3981781D01*
X-20837676Y3998249D01*
X-20840167Y4015043D01*
X-20841000Y4032000D01*
X-20841000Y4428000D01*
X-20840167Y4444957D01*
X-20837676Y4461751D01*
X-20833551Y4478219D01*
X-20827831Y4494204D01*
X-20820572Y4509552D01*
X-20811844Y4524114D01*
X-20801731Y4537750D01*
X-20790329Y4550329D01*
X-20777750Y4561731D01*
X-20764114Y4571844D01*
X-20749552Y4580572D01*
X-20734204Y4587831D01*
X-20718219Y4593551D01*
X-20701751Y4597676D01*
X-20684957Y4600167D01*
X-20668000Y4601000D01*
X-20322000Y4601000D01*
X-20305043Y4600167D01*
X-20305043Y4600167D01*
G37*
D18*
X-20495000Y4230000D03*
D11*
G36*
X-21875043Y4600167D02*
G01*
X-21858249Y4597676D01*
X-21841781Y4593551D01*
X-21825796Y4587831D01*
X-21810448Y4580572D01*
X-21795886Y4571844D01*
X-21782250Y4561731D01*
X-21769671Y4550329D01*
X-21758269Y4537750D01*
X-21748156Y4524114D01*
X-21739428Y4509552D01*
X-21732169Y4494204D01*
X-21726449Y4478219D01*
X-21722324Y4461751D01*
X-21719833Y4444957D01*
X-21719000Y4428000D01*
X-21719000Y4032000D01*
X-21719833Y4015043D01*
X-21722324Y3998249D01*
X-21726449Y3981781D01*
X-21732169Y3965796D01*
X-21739428Y3950448D01*
X-21748156Y3935886D01*
X-21758269Y3922250D01*
X-21769671Y3909671D01*
X-21782250Y3898269D01*
X-21795886Y3888156D01*
X-21810448Y3879428D01*
X-21825796Y3872169D01*
X-21841781Y3866449D01*
X-21858249Y3862324D01*
X-21875043Y3859833D01*
X-21892000Y3859000D01*
X-22238000Y3859000D01*
X-22254957Y3859833D01*
X-22271751Y3862324D01*
X-22288219Y3866449D01*
X-22304204Y3872169D01*
X-22319552Y3879428D01*
X-22334114Y3888156D01*
X-22347750Y3898269D01*
X-22360329Y3909671D01*
X-22371731Y3922250D01*
X-22381844Y3935886D01*
X-22390572Y3950448D01*
X-22397831Y3965796D01*
X-22403551Y3981781D01*
X-22407676Y3998249D01*
X-22410167Y4015043D01*
X-22411000Y4032000D01*
X-22411000Y4428000D01*
X-22410167Y4444957D01*
X-22407676Y4461751D01*
X-22403551Y4478219D01*
X-22397831Y4494204D01*
X-22390572Y4509552D01*
X-22381844Y4524114D01*
X-22371731Y4537750D01*
X-22360329Y4550329D01*
X-22347750Y4561731D01*
X-22334114Y4571844D01*
X-22319552Y4580572D01*
X-22304204Y4587831D01*
X-22288219Y4593551D01*
X-22271751Y4597676D01*
X-22254957Y4600167D01*
X-22238000Y4601000D01*
X-21892000Y4601000D01*
X-21875043Y4600167D01*
X-21875043Y4600167D01*
G37*
D18*
X-22065000Y4230000D03*
D11*
G36*
X-22845043Y4600167D02*
G01*
X-22828249Y4597676D01*
X-22811781Y4593551D01*
X-22795796Y4587831D01*
X-22780448Y4580572D01*
X-22765886Y4571844D01*
X-22752250Y4561731D01*
X-22739671Y4550329D01*
X-22728269Y4537750D01*
X-22718156Y4524114D01*
X-22709428Y4509552D01*
X-22702169Y4494204D01*
X-22696449Y4478219D01*
X-22692324Y4461751D01*
X-22689833Y4444957D01*
X-22689000Y4428000D01*
X-22689000Y4032000D01*
X-22689833Y4015043D01*
X-22692324Y3998249D01*
X-22696449Y3981781D01*
X-22702169Y3965796D01*
X-22709428Y3950448D01*
X-22718156Y3935886D01*
X-22728269Y3922250D01*
X-22739671Y3909671D01*
X-22752250Y3898269D01*
X-22765886Y3888156D01*
X-22780448Y3879428D01*
X-22795796Y3872169D01*
X-22811781Y3866449D01*
X-22828249Y3862324D01*
X-22845043Y3859833D01*
X-22862000Y3859000D01*
X-23208000Y3859000D01*
X-23224957Y3859833D01*
X-23241751Y3862324D01*
X-23258219Y3866449D01*
X-23274204Y3872169D01*
X-23289552Y3879428D01*
X-23304114Y3888156D01*
X-23317750Y3898269D01*
X-23330329Y3909671D01*
X-23341731Y3922250D01*
X-23351844Y3935886D01*
X-23360572Y3950448D01*
X-23367831Y3965796D01*
X-23373551Y3981781D01*
X-23377676Y3998249D01*
X-23380167Y4015043D01*
X-23381000Y4032000D01*
X-23381000Y4428000D01*
X-23380167Y4444957D01*
X-23377676Y4461751D01*
X-23373551Y4478219D01*
X-23367831Y4494204D01*
X-23360572Y4509552D01*
X-23351844Y4524114D01*
X-23341731Y4537750D01*
X-23330329Y4550329D01*
X-23317750Y4561731D01*
X-23304114Y4571844D01*
X-23289552Y4580572D01*
X-23274204Y4587831D01*
X-23258219Y4593551D01*
X-23241751Y4597676D01*
X-23224957Y4600167D01*
X-23208000Y4601000D01*
X-22862000Y4601000D01*
X-22845043Y4600167D01*
X-22845043Y4600167D01*
G37*
D18*
X-23035000Y4230000D03*
M02*
