G04 #@! TF.GenerationSoftware,KiCad,Pcbnew,(5.1.4)-1*
G04 #@! TF.CreationDate,2021-07-20T22:26:21+09:00*
G04 #@! TF.ProjectId,UAV2021_ver3_panelizing,55415632-3032-4315-9f76-6572335f7061,rev?*
G04 #@! TF.SameCoordinates,Original*
G04 #@! TF.FileFunction,Copper,L1,Top*
G04 #@! TF.FilePolarity,Positive*
%FSLAX46Y46*%
G04 Gerber Fmt 4.6, Leading zero omitted, Abs format (unit mm)*
G04 Created by KiCad (PCBNEW (5.1.4)-1) date 2021-07-20 22:26:21*
%MOMM*%
%LPD*%
G04 APERTURE LIST*
%ADD10R,1.900000X1.000000*%
%ADD11C,4.400000*%
%ADD12C,0.700000*%
%ADD13R,0.800000X0.900000*%
%ADD14C,0.100000*%
%ADD15C,0.590000*%
%ADD16O,1.700000X1.700000*%
%ADD17R,1.700000X1.700000*%
%ADD18R,0.250000X0.675000*%
%ADD19R,0.675000X0.250000*%
%ADD20C,0.800000*%
%ADD21C,0.800000*%
%ADD22C,0.250000*%
%ADD23C,0.500000*%
%ADD24C,0.300000*%
%ADD25C,1.000000*%
%ADD26C,0.254000*%
G04 APERTURE END LIST*
D10*
X2160000Y-13970000D03*
X2160000Y-19050000D03*
X2160000Y-24130000D03*
X5460000Y-11430000D03*
X5460000Y-16510000D03*
X5460000Y-21590000D03*
X5460000Y-26670000D03*
X-5460000Y-11430000D03*
X-5460000Y-16510000D03*
X-5460000Y-21590000D03*
X-5460000Y-26670000D03*
X-2160000Y-13970000D03*
X-2160000Y-19050000D03*
X-2160000Y-24130000D03*
X-5460000Y3810000D03*
X-5460000Y-1270000D03*
X-2160000Y1270000D03*
X-2160000Y-3810000D03*
X5460000Y13970000D03*
X5460000Y19050000D03*
X5460000Y24130000D03*
X2160000Y11430000D03*
X2160000Y16510000D03*
X2160000Y21590000D03*
X2160000Y26670000D03*
D11*
X-3500000Y-33000000D03*
D12*
X-1850000Y-33000000D03*
X-2333274Y-34166726D03*
X-3500000Y-34650000D03*
X-4666726Y-34166726D03*
X-5150000Y-33000000D03*
X-4666726Y-31833274D03*
X-3500000Y-31350000D03*
X-2333274Y-31833274D03*
D11*
X3500000Y-33000000D03*
D12*
X5150000Y-33000000D03*
X4666726Y-34166726D03*
X3500000Y-34650000D03*
X2333274Y-34166726D03*
X1850000Y-33000000D03*
X2333274Y-31833274D03*
X3500000Y-31350000D03*
X4666726Y-31833274D03*
D13*
X-13650000Y9160000D03*
X-11750000Y9160000D03*
X-12700000Y11160000D03*
D10*
X11050000Y11430000D03*
X11050000Y6350000D03*
X11050000Y1270000D03*
X11050000Y-3810000D03*
X11050000Y-8890000D03*
X14350000Y8890000D03*
X14350000Y3810000D03*
X14350000Y-1270000D03*
X14350000Y-6350000D03*
X14350000Y-11430000D03*
D14*
G36*
X-13023042Y7939290D02*
G01*
X-13008724Y7937166D01*
X-12994683Y7933649D01*
X-12981054Y7928772D01*
X-12967969Y7922583D01*
X-12955553Y7915142D01*
X-12943927Y7906519D01*
X-12933202Y7896798D01*
X-12923481Y7886073D01*
X-12914858Y7874447D01*
X-12907417Y7862031D01*
X-12901228Y7848946D01*
X-12896351Y7835317D01*
X-12892834Y7821276D01*
X-12890710Y7806958D01*
X-12890000Y7792500D01*
X-12890000Y7447500D01*
X-12890710Y7433042D01*
X-12892834Y7418724D01*
X-12896351Y7404683D01*
X-12901228Y7391054D01*
X-12907417Y7377969D01*
X-12914858Y7365553D01*
X-12923481Y7353927D01*
X-12933202Y7343202D01*
X-12943927Y7333481D01*
X-12955553Y7324858D01*
X-12967969Y7317417D01*
X-12981054Y7311228D01*
X-12994683Y7306351D01*
X-13008724Y7302834D01*
X-13023042Y7300710D01*
X-13037500Y7300000D01*
X-13332500Y7300000D01*
X-13346958Y7300710D01*
X-13361276Y7302834D01*
X-13375317Y7306351D01*
X-13388946Y7311228D01*
X-13402031Y7317417D01*
X-13414447Y7324858D01*
X-13426073Y7333481D01*
X-13436798Y7343202D01*
X-13446519Y7353927D01*
X-13455142Y7365553D01*
X-13462583Y7377969D01*
X-13468772Y7391054D01*
X-13473649Y7404683D01*
X-13477166Y7418724D01*
X-13479290Y7433042D01*
X-13480000Y7447500D01*
X-13480000Y7792500D01*
X-13479290Y7806958D01*
X-13477166Y7821276D01*
X-13473649Y7835317D01*
X-13468772Y7848946D01*
X-13462583Y7862031D01*
X-13455142Y7874447D01*
X-13446519Y7886073D01*
X-13436798Y7896798D01*
X-13426073Y7906519D01*
X-13414447Y7915142D01*
X-13402031Y7922583D01*
X-13388946Y7928772D01*
X-13375317Y7933649D01*
X-13361276Y7937166D01*
X-13346958Y7939290D01*
X-13332500Y7940000D01*
X-13037500Y7940000D01*
X-13023042Y7939290D01*
X-13023042Y7939290D01*
G37*
D15*
X-13185000Y7620000D03*
D14*
G36*
X-12053042Y7939290D02*
G01*
X-12038724Y7937166D01*
X-12024683Y7933649D01*
X-12011054Y7928772D01*
X-11997969Y7922583D01*
X-11985553Y7915142D01*
X-11973927Y7906519D01*
X-11963202Y7896798D01*
X-11953481Y7886073D01*
X-11944858Y7874447D01*
X-11937417Y7862031D01*
X-11931228Y7848946D01*
X-11926351Y7835317D01*
X-11922834Y7821276D01*
X-11920710Y7806958D01*
X-11920000Y7792500D01*
X-11920000Y7447500D01*
X-11920710Y7433042D01*
X-11922834Y7418724D01*
X-11926351Y7404683D01*
X-11931228Y7391054D01*
X-11937417Y7377969D01*
X-11944858Y7365553D01*
X-11953481Y7353927D01*
X-11963202Y7343202D01*
X-11973927Y7333481D01*
X-11985553Y7324858D01*
X-11997969Y7317417D01*
X-12011054Y7311228D01*
X-12024683Y7306351D01*
X-12038724Y7302834D01*
X-12053042Y7300710D01*
X-12067500Y7300000D01*
X-12362500Y7300000D01*
X-12376958Y7300710D01*
X-12391276Y7302834D01*
X-12405317Y7306351D01*
X-12418946Y7311228D01*
X-12432031Y7317417D01*
X-12444447Y7324858D01*
X-12456073Y7333481D01*
X-12466798Y7343202D01*
X-12476519Y7353927D01*
X-12485142Y7365553D01*
X-12492583Y7377969D01*
X-12498772Y7391054D01*
X-12503649Y7404683D01*
X-12507166Y7418724D01*
X-12509290Y7433042D01*
X-12510000Y7447500D01*
X-12510000Y7792500D01*
X-12509290Y7806958D01*
X-12507166Y7821276D01*
X-12503649Y7835317D01*
X-12498772Y7848946D01*
X-12492583Y7862031D01*
X-12485142Y7874447D01*
X-12476519Y7886073D01*
X-12466798Y7896798D01*
X-12456073Y7906519D01*
X-12444447Y7915142D01*
X-12432031Y7922583D01*
X-12418946Y7928772D01*
X-12405317Y7933649D01*
X-12391276Y7937166D01*
X-12376958Y7939290D01*
X-12362500Y7940000D01*
X-12067500Y7940000D01*
X-12053042Y7939290D01*
X-12053042Y7939290D01*
G37*
D15*
X-12215000Y7620000D03*
D14*
G36*
X-12053042Y13019290D02*
G01*
X-12038724Y13017166D01*
X-12024683Y13013649D01*
X-12011054Y13008772D01*
X-11997969Y13002583D01*
X-11985553Y12995142D01*
X-11973927Y12986519D01*
X-11963202Y12976798D01*
X-11953481Y12966073D01*
X-11944858Y12954447D01*
X-11937417Y12942031D01*
X-11931228Y12928946D01*
X-11926351Y12915317D01*
X-11922834Y12901276D01*
X-11920710Y12886958D01*
X-11920000Y12872500D01*
X-11920000Y12527500D01*
X-11920710Y12513042D01*
X-11922834Y12498724D01*
X-11926351Y12484683D01*
X-11931228Y12471054D01*
X-11937417Y12457969D01*
X-11944858Y12445553D01*
X-11953481Y12433927D01*
X-11963202Y12423202D01*
X-11973927Y12413481D01*
X-11985553Y12404858D01*
X-11997969Y12397417D01*
X-12011054Y12391228D01*
X-12024683Y12386351D01*
X-12038724Y12382834D01*
X-12053042Y12380710D01*
X-12067500Y12380000D01*
X-12362500Y12380000D01*
X-12376958Y12380710D01*
X-12391276Y12382834D01*
X-12405317Y12386351D01*
X-12418946Y12391228D01*
X-12432031Y12397417D01*
X-12444447Y12404858D01*
X-12456073Y12413481D01*
X-12466798Y12423202D01*
X-12476519Y12433927D01*
X-12485142Y12445553D01*
X-12492583Y12457969D01*
X-12498772Y12471054D01*
X-12503649Y12484683D01*
X-12507166Y12498724D01*
X-12509290Y12513042D01*
X-12510000Y12527500D01*
X-12510000Y12872500D01*
X-12509290Y12886958D01*
X-12507166Y12901276D01*
X-12503649Y12915317D01*
X-12498772Y12928946D01*
X-12492583Y12942031D01*
X-12485142Y12954447D01*
X-12476519Y12966073D01*
X-12466798Y12976798D01*
X-12456073Y12986519D01*
X-12444447Y12995142D01*
X-12432031Y13002583D01*
X-12418946Y13008772D01*
X-12405317Y13013649D01*
X-12391276Y13017166D01*
X-12376958Y13019290D01*
X-12362500Y13020000D01*
X-12067500Y13020000D01*
X-12053042Y13019290D01*
X-12053042Y13019290D01*
G37*
D15*
X-12215000Y12700000D03*
D14*
G36*
X-13023042Y13019290D02*
G01*
X-13008724Y13017166D01*
X-12994683Y13013649D01*
X-12981054Y13008772D01*
X-12967969Y13002583D01*
X-12955553Y12995142D01*
X-12943927Y12986519D01*
X-12933202Y12976798D01*
X-12923481Y12966073D01*
X-12914858Y12954447D01*
X-12907417Y12942031D01*
X-12901228Y12928946D01*
X-12896351Y12915317D01*
X-12892834Y12901276D01*
X-12890710Y12886958D01*
X-12890000Y12872500D01*
X-12890000Y12527500D01*
X-12890710Y12513042D01*
X-12892834Y12498724D01*
X-12896351Y12484683D01*
X-12901228Y12471054D01*
X-12907417Y12457969D01*
X-12914858Y12445553D01*
X-12923481Y12433927D01*
X-12933202Y12423202D01*
X-12943927Y12413481D01*
X-12955553Y12404858D01*
X-12967969Y12397417D01*
X-12981054Y12391228D01*
X-12994683Y12386351D01*
X-13008724Y12382834D01*
X-13023042Y12380710D01*
X-13037500Y12380000D01*
X-13332500Y12380000D01*
X-13346958Y12380710D01*
X-13361276Y12382834D01*
X-13375317Y12386351D01*
X-13388946Y12391228D01*
X-13402031Y12397417D01*
X-13414447Y12404858D01*
X-13426073Y12413481D01*
X-13436798Y12423202D01*
X-13446519Y12433927D01*
X-13455142Y12445553D01*
X-13462583Y12457969D01*
X-13468772Y12471054D01*
X-13473649Y12484683D01*
X-13477166Y12498724D01*
X-13479290Y12513042D01*
X-13480000Y12527500D01*
X-13480000Y12872500D01*
X-13479290Y12886958D01*
X-13477166Y12901276D01*
X-13473649Y12915317D01*
X-13468772Y12928946D01*
X-13462583Y12942031D01*
X-13455142Y12954447D01*
X-13446519Y12966073D01*
X-13436798Y12976798D01*
X-13426073Y12986519D01*
X-13414447Y12995142D01*
X-13402031Y13002583D01*
X-13388946Y13008772D01*
X-13375317Y13013649D01*
X-13361276Y13017166D01*
X-13346958Y13019290D01*
X-13332500Y13020000D01*
X-13037500Y13020000D01*
X-13023042Y13019290D01*
X-13023042Y13019290D01*
G37*
D15*
X-13185000Y12700000D03*
D16*
X-12700000Y-29210000D03*
X-12700000Y-26670000D03*
X-12700000Y-24130000D03*
X-12700000Y-21590000D03*
X-12700000Y-19050000D03*
D17*
X-12700000Y-16510000D03*
X12700000Y-16510000D03*
D16*
X12700000Y-19050000D03*
X12700000Y-21590000D03*
X12700000Y-24130000D03*
X12700000Y-26670000D03*
X12700000Y-29210000D03*
D17*
X-12700000Y29210000D03*
D16*
X-12700000Y26670000D03*
X-12700000Y24130000D03*
X-12700000Y21590000D03*
X-12700000Y19050000D03*
X-12700000Y16510000D03*
X12700000Y16510000D03*
X12700000Y19050000D03*
X12700000Y21590000D03*
X12700000Y24130000D03*
X12700000Y26670000D03*
D17*
X12700000Y29210000D03*
X-12700000Y2540000D03*
D16*
X-12700000Y0D03*
X-12700000Y-2540000D03*
D10*
X5970000Y26670000D03*
X5970000Y21590000D03*
X5970000Y16510000D03*
X5970000Y11430000D03*
X5970000Y6350000D03*
X5970000Y1270000D03*
X5970000Y-3810000D03*
X5970000Y-8890000D03*
X5970000Y-13970000D03*
X5970000Y-19050000D03*
X5970000Y-24130000D03*
X5970000Y-29210000D03*
X9270000Y29210000D03*
X9270000Y24130000D03*
X9270000Y19050000D03*
X9270000Y13970000D03*
X9270000Y8890000D03*
X9270000Y3810000D03*
X9270000Y-1270000D03*
X9270000Y-6350000D03*
X9270000Y-11430000D03*
X9270000Y-16510000D03*
X9270000Y-21590000D03*
X9270000Y-26670000D03*
X-2160000Y11430000D03*
X-2160000Y16510000D03*
X-2160000Y21590000D03*
X-2160000Y26670000D03*
X-5460000Y13970000D03*
X-5460000Y19050000D03*
X-5460000Y24130000D03*
X-5970000Y-29210000D03*
X-5970000Y-24130000D03*
X-5970000Y-19050000D03*
X-5970000Y-13970000D03*
X-5970000Y-8890000D03*
X-5970000Y-3810000D03*
X-5970000Y1270000D03*
X-5970000Y6350000D03*
X-5970000Y11430000D03*
X-5970000Y16510000D03*
X-5970000Y21590000D03*
X-5970000Y26670000D03*
X-9270000Y-26670000D03*
X-9270000Y-21590000D03*
X-9270000Y-16510000D03*
X-9270000Y-11430000D03*
X-9270000Y-6350000D03*
X-9270000Y-1270000D03*
X-9270000Y3810000D03*
X-9270000Y8890000D03*
X-9270000Y13970000D03*
X-9270000Y19050000D03*
X-9270000Y24130000D03*
X-9270000Y29210000D03*
X2160000Y1270000D03*
X2160000Y-3810000D03*
X5460000Y3810000D03*
X5460000Y-1270000D03*
D16*
X-17470000Y-3390000D03*
X-17470000Y-850000D03*
X-17470000Y1690000D03*
D17*
X-17470000Y4230000D03*
D16*
X-25090000Y-3390000D03*
X-25090000Y-850000D03*
X-25090000Y1690000D03*
D17*
X-25090000Y4230000D03*
D18*
X-21280000Y2335000D03*
D19*
X-22445000Y1920000D03*
X-22445000Y1420000D03*
X-22445000Y920000D03*
X-22445000Y420000D03*
X-22445000Y-80000D03*
X-22445000Y-580000D03*
X-22445000Y-1080000D03*
D18*
X-21280000Y-1495000D03*
D19*
X-20115000Y-1080000D03*
X-20115000Y-580000D03*
X-20115000Y-80000D03*
X-20115000Y420000D03*
X-20115000Y920000D03*
X-20115000Y1420000D03*
X-20115000Y1920000D03*
D14*
G36*
X-19363042Y4549290D02*
G01*
X-19348724Y4547166D01*
X-19334683Y4543649D01*
X-19321054Y4538772D01*
X-19307969Y4532583D01*
X-19295553Y4525142D01*
X-19283927Y4516519D01*
X-19273202Y4506798D01*
X-19263481Y4496073D01*
X-19254858Y4484447D01*
X-19247417Y4472031D01*
X-19241228Y4458946D01*
X-19236351Y4445317D01*
X-19232834Y4431276D01*
X-19230710Y4416958D01*
X-19230000Y4402500D01*
X-19230000Y4057500D01*
X-19230710Y4043042D01*
X-19232834Y4028724D01*
X-19236351Y4014683D01*
X-19241228Y4001054D01*
X-19247417Y3987969D01*
X-19254858Y3975553D01*
X-19263481Y3963927D01*
X-19273202Y3953202D01*
X-19283927Y3943481D01*
X-19295553Y3934858D01*
X-19307969Y3927417D01*
X-19321054Y3921228D01*
X-19334683Y3916351D01*
X-19348724Y3912834D01*
X-19363042Y3910710D01*
X-19377500Y3910000D01*
X-19672500Y3910000D01*
X-19686958Y3910710D01*
X-19701276Y3912834D01*
X-19715317Y3916351D01*
X-19728946Y3921228D01*
X-19742031Y3927417D01*
X-19754447Y3934858D01*
X-19766073Y3943481D01*
X-19776798Y3953202D01*
X-19786519Y3963927D01*
X-19795142Y3975553D01*
X-19802583Y3987969D01*
X-19808772Y4001054D01*
X-19813649Y4014683D01*
X-19817166Y4028724D01*
X-19819290Y4043042D01*
X-19820000Y4057500D01*
X-19820000Y4402500D01*
X-19819290Y4416958D01*
X-19817166Y4431276D01*
X-19813649Y4445317D01*
X-19808772Y4458946D01*
X-19802583Y4472031D01*
X-19795142Y4484447D01*
X-19786519Y4496073D01*
X-19776798Y4506798D01*
X-19766073Y4516519D01*
X-19754447Y4525142D01*
X-19742031Y4532583D01*
X-19728946Y4538772D01*
X-19715317Y4543649D01*
X-19701276Y4547166D01*
X-19686958Y4549290D01*
X-19672500Y4550000D01*
X-19377500Y4550000D01*
X-19363042Y4549290D01*
X-19363042Y4549290D01*
G37*
D15*
X-19525000Y4230000D03*
D14*
G36*
X-20333042Y4549290D02*
G01*
X-20318724Y4547166D01*
X-20304683Y4543649D01*
X-20291054Y4538772D01*
X-20277969Y4532583D01*
X-20265553Y4525142D01*
X-20253927Y4516519D01*
X-20243202Y4506798D01*
X-20233481Y4496073D01*
X-20224858Y4484447D01*
X-20217417Y4472031D01*
X-20211228Y4458946D01*
X-20206351Y4445317D01*
X-20202834Y4431276D01*
X-20200710Y4416958D01*
X-20200000Y4402500D01*
X-20200000Y4057500D01*
X-20200710Y4043042D01*
X-20202834Y4028724D01*
X-20206351Y4014683D01*
X-20211228Y4001054D01*
X-20217417Y3987969D01*
X-20224858Y3975553D01*
X-20233481Y3963927D01*
X-20243202Y3953202D01*
X-20253927Y3943481D01*
X-20265553Y3934858D01*
X-20277969Y3927417D01*
X-20291054Y3921228D01*
X-20304683Y3916351D01*
X-20318724Y3912834D01*
X-20333042Y3910710D01*
X-20347500Y3910000D01*
X-20642500Y3910000D01*
X-20656958Y3910710D01*
X-20671276Y3912834D01*
X-20685317Y3916351D01*
X-20698946Y3921228D01*
X-20712031Y3927417D01*
X-20724447Y3934858D01*
X-20736073Y3943481D01*
X-20746798Y3953202D01*
X-20756519Y3963927D01*
X-20765142Y3975553D01*
X-20772583Y3987969D01*
X-20778772Y4001054D01*
X-20783649Y4014683D01*
X-20787166Y4028724D01*
X-20789290Y4043042D01*
X-20790000Y4057500D01*
X-20790000Y4402500D01*
X-20789290Y4416958D01*
X-20787166Y4431276D01*
X-20783649Y4445317D01*
X-20778772Y4458946D01*
X-20772583Y4472031D01*
X-20765142Y4484447D01*
X-20756519Y4496073D01*
X-20746798Y4506798D01*
X-20736073Y4516519D01*
X-20724447Y4525142D01*
X-20712031Y4532583D01*
X-20698946Y4538772D01*
X-20685317Y4543649D01*
X-20671276Y4547166D01*
X-20656958Y4549290D01*
X-20642500Y4550000D01*
X-20347500Y4550000D01*
X-20333042Y4549290D01*
X-20333042Y4549290D01*
G37*
D15*
X-20495000Y4230000D03*
D14*
G36*
X-21903042Y4549290D02*
G01*
X-21888724Y4547166D01*
X-21874683Y4543649D01*
X-21861054Y4538772D01*
X-21847969Y4532583D01*
X-21835553Y4525142D01*
X-21823927Y4516519D01*
X-21813202Y4506798D01*
X-21803481Y4496073D01*
X-21794858Y4484447D01*
X-21787417Y4472031D01*
X-21781228Y4458946D01*
X-21776351Y4445317D01*
X-21772834Y4431276D01*
X-21770710Y4416958D01*
X-21770000Y4402500D01*
X-21770000Y4057500D01*
X-21770710Y4043042D01*
X-21772834Y4028724D01*
X-21776351Y4014683D01*
X-21781228Y4001054D01*
X-21787417Y3987969D01*
X-21794858Y3975553D01*
X-21803481Y3963927D01*
X-21813202Y3953202D01*
X-21823927Y3943481D01*
X-21835553Y3934858D01*
X-21847969Y3927417D01*
X-21861054Y3921228D01*
X-21874683Y3916351D01*
X-21888724Y3912834D01*
X-21903042Y3910710D01*
X-21917500Y3910000D01*
X-22212500Y3910000D01*
X-22226958Y3910710D01*
X-22241276Y3912834D01*
X-22255317Y3916351D01*
X-22268946Y3921228D01*
X-22282031Y3927417D01*
X-22294447Y3934858D01*
X-22306073Y3943481D01*
X-22316798Y3953202D01*
X-22326519Y3963927D01*
X-22335142Y3975553D01*
X-22342583Y3987969D01*
X-22348772Y4001054D01*
X-22353649Y4014683D01*
X-22357166Y4028724D01*
X-22359290Y4043042D01*
X-22360000Y4057500D01*
X-22360000Y4402500D01*
X-22359290Y4416958D01*
X-22357166Y4431276D01*
X-22353649Y4445317D01*
X-22348772Y4458946D01*
X-22342583Y4472031D01*
X-22335142Y4484447D01*
X-22326519Y4496073D01*
X-22316798Y4506798D01*
X-22306073Y4516519D01*
X-22294447Y4525142D01*
X-22282031Y4532583D01*
X-22268946Y4538772D01*
X-22255317Y4543649D01*
X-22241276Y4547166D01*
X-22226958Y4549290D01*
X-22212500Y4550000D01*
X-21917500Y4550000D01*
X-21903042Y4549290D01*
X-21903042Y4549290D01*
G37*
D15*
X-22065000Y4230000D03*
D14*
G36*
X-22873042Y4549290D02*
G01*
X-22858724Y4547166D01*
X-22844683Y4543649D01*
X-22831054Y4538772D01*
X-22817969Y4532583D01*
X-22805553Y4525142D01*
X-22793927Y4516519D01*
X-22783202Y4506798D01*
X-22773481Y4496073D01*
X-22764858Y4484447D01*
X-22757417Y4472031D01*
X-22751228Y4458946D01*
X-22746351Y4445317D01*
X-22742834Y4431276D01*
X-22740710Y4416958D01*
X-22740000Y4402500D01*
X-22740000Y4057500D01*
X-22740710Y4043042D01*
X-22742834Y4028724D01*
X-22746351Y4014683D01*
X-22751228Y4001054D01*
X-22757417Y3987969D01*
X-22764858Y3975553D01*
X-22773481Y3963927D01*
X-22783202Y3953202D01*
X-22793927Y3943481D01*
X-22805553Y3934858D01*
X-22817969Y3927417D01*
X-22831054Y3921228D01*
X-22844683Y3916351D01*
X-22858724Y3912834D01*
X-22873042Y3910710D01*
X-22887500Y3910000D01*
X-23182500Y3910000D01*
X-23196958Y3910710D01*
X-23211276Y3912834D01*
X-23225317Y3916351D01*
X-23238946Y3921228D01*
X-23252031Y3927417D01*
X-23264447Y3934858D01*
X-23276073Y3943481D01*
X-23286798Y3953202D01*
X-23296519Y3963927D01*
X-23305142Y3975553D01*
X-23312583Y3987969D01*
X-23318772Y4001054D01*
X-23323649Y4014683D01*
X-23327166Y4028724D01*
X-23329290Y4043042D01*
X-23330000Y4057500D01*
X-23330000Y4402500D01*
X-23329290Y4416958D01*
X-23327166Y4431276D01*
X-23323649Y4445317D01*
X-23318772Y4458946D01*
X-23312583Y4472031D01*
X-23305142Y4484447D01*
X-23296519Y4496073D01*
X-23286798Y4506798D01*
X-23276073Y4516519D01*
X-23264447Y4525142D01*
X-23252031Y4532583D01*
X-23238946Y4538772D01*
X-23225317Y4543649D01*
X-23211276Y4547166D01*
X-23196958Y4549290D01*
X-23182500Y4550000D01*
X-22887500Y4550000D01*
X-22873042Y4549290D01*
X-22873042Y4549290D01*
G37*
D15*
X-23035000Y4230000D03*
D20*
X-12700000Y-5080000D03*
X-12700000Y-7620000D03*
X-12700000Y-10160000D03*
X-12700000Y-12700000D03*
X-6350000Y-6350000D03*
X-3810000Y-6350000D03*
X3810000Y-6350000D03*
X6350000Y-6350000D03*
X-12700000Y10109998D03*
X0Y22860000D03*
X-3175000Y20320000D03*
X-6350000Y8890000D03*
X-3810000Y8890000D03*
X-1270000Y8890000D03*
X-1270000Y6350000D03*
X-3810000Y6350000D03*
X-8890000Y6350000D03*
X-8890000Y11430000D03*
X2159000Y13208000D03*
X2159000Y9652000D03*
X12700000Y13970000D03*
X12065000Y9525000D03*
X-1905000Y29845000D03*
X0Y29845000D03*
X1905000Y29845000D03*
X-8890000Y22225000D03*
X-7620000Y23495000D03*
X-8890000Y17780000D03*
X9525000Y26670000D03*
X5080000Y8255000D03*
X-9525000Y-8890000D03*
X-9525000Y-12700000D03*
X-2540000Y-11430000D03*
X8890000Y-13970000D03*
X11430000Y-13970000D03*
X13970000Y-13970000D03*
X-18740000Y420000D03*
X-19908400Y2858400D03*
X-19756000Y-2374000D03*
X-19756000Y-3771000D03*
X-21280000Y4357000D03*
X9270000Y24130000D03*
X-23035000Y4230000D03*
X-9270000Y3810000D03*
X5460000Y-1270000D03*
X-2160000Y-3810000D03*
X5970000Y-3810000D03*
X14350000Y-1270000D03*
X-5460000Y-1270000D03*
X14350000Y3810000D03*
X-1905000Y3810000D03*
X-5970000Y1270000D03*
X2160000Y1270000D03*
X-5970000Y6350000D03*
X11050000Y6350000D03*
X-5460000Y19050000D03*
X-2160000Y16510000D03*
X2160000Y-19050000D03*
X5460000Y-16510000D03*
X5970000Y1270000D03*
X3620000Y3620000D03*
X-2160000Y21590000D03*
X-5460000Y24130000D03*
X2160000Y-24130000D03*
X5460000Y-21590000D03*
X8890000Y16510000D03*
X5970000Y16510000D03*
X9525000Y21590000D03*
X5969999Y21589999D03*
X500000Y27885000D03*
X-500000Y27885000D03*
X5970000Y11430000D03*
X8890000Y6475014D03*
X-22550000Y2325012D03*
X-22550000Y3325015D03*
D21*
X-2610000Y11430000D02*
X-2160000Y11430000D01*
D22*
X-11750000Y9160000D02*
X-11750002Y9160000D01*
X-11750002Y9160000D02*
X-12700000Y10109998D01*
X-20115000Y1420000D02*
X-19649264Y1420000D01*
X-19649264Y1420000D02*
X-19375000Y1694264D01*
X-19375000Y1694264D02*
X-19375000Y2325000D01*
X-20495000Y3445000D02*
X-20495000Y4230000D01*
X-19375000Y2325000D02*
X-19908400Y2858400D01*
X-19527500Y-580000D02*
X-19375000Y-732500D01*
X-20115000Y-580000D02*
X-19527500Y-580000D01*
X-19527500Y-1080000D02*
X-20115000Y-1080000D01*
X-19375000Y-927500D02*
X-19527500Y-1080000D01*
X-19375000Y-732500D02*
X-19375000Y-927500D01*
X-20115000Y420000D02*
X-18740000Y420000D01*
X-19908400Y2858400D02*
X-20495000Y3445000D01*
X-21407000Y4230000D02*
X-21280000Y4357000D01*
X-22065000Y4230000D02*
X-21407000Y4230000D01*
X-18740000Y-2120000D02*
X-20010000Y-2120000D01*
X-19375000Y-732500D02*
X-18740000Y-1367500D01*
X-18740000Y-1367500D02*
X-18740000Y-2120000D01*
X-19375000Y-927500D02*
X-19375000Y-1485000D01*
X-19375000Y-1485000D02*
X-20010000Y-2120000D01*
X-21280000Y4357000D02*
X-21280000Y3468000D01*
X-20670400Y2858400D02*
X-19908400Y2858400D01*
X-21280000Y3468000D02*
X-20670400Y2858400D01*
X-21303000Y3468000D02*
X-21280000Y3468000D01*
X-22065000Y4230000D02*
X-21303000Y3468000D01*
D23*
X9270000Y24130000D02*
X8820000Y24130000D01*
X-13519168Y13034168D02*
X-13185000Y12700000D01*
X-14000001Y13515001D02*
X-13519168Y13034168D01*
X-14000001Y22829999D02*
X-14000001Y13515001D01*
X-12700000Y24130000D02*
X-14000001Y22829999D01*
X-6730000Y2540000D02*
X-5460000Y3810000D01*
X-10899999Y12550007D02*
X-10899999Y4340001D01*
X-14000001Y13515001D02*
X-11864993Y13515001D01*
X-11864993Y13515001D02*
X-10899999Y12550007D01*
X-10899999Y4340001D02*
X-12700000Y2540000D01*
X-6730000Y2540000D02*
X-12700000Y2540000D01*
X-9270000Y-5350000D02*
X-9270000Y-6350000D01*
X-10795000Y-3825000D02*
X-9270000Y-5350000D01*
X-12700000Y2540000D02*
X-10795000Y635000D01*
X-10795000Y635000D02*
X-10795000Y-3825000D01*
X-3610000Y-13970000D02*
X-2160000Y-13970000D01*
X-4880000Y-12700000D02*
X-3610000Y-13970000D01*
X-7035001Y-12115001D02*
X-6450002Y-12700000D01*
X-6450002Y-12700000D02*
X-4880000Y-12700000D01*
X-7620000Y-11530002D02*
X-7035001Y-12115001D01*
X-7620000Y-7550000D02*
X-7620000Y-11530002D01*
X-9270000Y-6350000D02*
X-8820000Y-6350000D01*
X-8820000Y-6350000D02*
X-7620000Y-7550000D01*
X-5910000Y-26670000D02*
X-5460000Y-26670000D01*
X-9750001Y-30510001D02*
X-5910000Y-26670000D01*
X-13324001Y-30510001D02*
X-9750001Y-30510001D01*
X-14000001Y-29834001D02*
X-13324001Y-30510001D01*
X-14000001Y-22890001D02*
X-14000001Y-29834001D01*
X-12700000Y-21590000D02*
X-14000001Y-22890001D01*
X14350000Y19940000D02*
X14350000Y8890000D01*
X12700000Y21590000D02*
X14350000Y19940000D01*
X-10670001Y-15750001D02*
X-7035001Y-12115001D01*
X-10670001Y-18925001D02*
X-10670001Y-15750001D01*
X-12700000Y-21590000D02*
X-12700000Y-20955000D01*
X-12700000Y-20955000D02*
X-10670001Y-18925001D01*
X8820000Y24130000D02*
X7550000Y25400000D01*
X7550000Y25400000D02*
X4880000Y25400000D01*
X4880000Y25400000D02*
X3610000Y26670000D01*
X3610000Y26670000D02*
X2160000Y26670000D01*
X4469998Y25400000D02*
X4880000Y25400000D01*
X3810000Y24740002D02*
X4469998Y25400000D01*
X3810000Y15875000D02*
X3810000Y24740002D01*
X5460000Y13970000D02*
X5460000Y14225000D01*
X5460000Y14225000D02*
X3810000Y15875000D01*
X-25090000Y4230000D02*
X-23670000Y4230000D01*
X-23670000Y4230000D02*
X-23035000Y4230000D01*
D24*
X-18740000Y3445000D02*
X-19525000Y4230000D01*
X-18740000Y1657500D02*
X-18740000Y3445000D01*
X-20115000Y920000D02*
X-19477500Y920000D01*
X-19477500Y920000D02*
X-18740000Y1657500D01*
X-23820000Y3445000D02*
X-23035000Y4230000D01*
X-23820000Y502769D02*
X-23820000Y3445000D01*
X-22445000Y-80000D02*
X-23237231Y-80000D01*
X-23237231Y-80000D02*
X-23820000Y502769D01*
X-23035000Y4650000D02*
X-23035000Y4230000D01*
X-22560010Y5124990D02*
X-23035000Y4650000D01*
X-19999990Y5124990D02*
X-22560010Y5124990D01*
X-19525000Y4230000D02*
X-19525000Y4650000D01*
X-19525000Y4650000D02*
X-19999990Y5124990D01*
D22*
X11050000Y520000D02*
X11050000Y1270000D01*
X11050000Y-1525002D02*
X11050000Y520000D01*
X8765002Y-3810000D02*
X11050000Y-1525002D01*
X5970000Y-3810000D02*
X8765002Y-3810000D01*
X-9270000Y-1270000D02*
X-5460000Y-1270000D01*
X-2160000Y520000D02*
X-2160000Y1270000D01*
X-2160000Y-450000D02*
X-2160000Y520000D01*
X-5520000Y-3810000D02*
X-2160000Y-450000D01*
X-5970000Y-3810000D02*
X-5520000Y-3810000D01*
X-1905000Y1525000D02*
X-2160000Y1270000D01*
X-1905000Y3810000D02*
X-1905000Y1525000D01*
X-13549999Y849999D02*
X-12700000Y0D01*
X-13875001Y1175001D02*
X-13549999Y849999D01*
X-13875001Y3650001D02*
X-13875001Y1175001D01*
X-12215000Y7620000D02*
X-12215000Y5310002D01*
X-12215000Y5310002D02*
X-13875001Y3650001D01*
X-13650000Y8085000D02*
X-13185000Y7620000D01*
X-13650000Y9160000D02*
X-13650000Y8085000D01*
D25*
X-3510000Y13970000D02*
X-5460000Y13970000D01*
X-1989998Y13970000D02*
X-3510000Y13970000D01*
X0Y11980002D02*
X-1989998Y13970000D01*
X3500000Y-33000000D02*
X0Y-29500000D01*
X1710000Y-13970000D02*
X2160000Y-13970000D01*
X0Y-15680000D02*
X1710000Y-13970000D01*
X0Y-16510000D02*
X0Y-15680000D01*
X0Y-16510000D02*
X0Y11980002D01*
X0Y-29500000D02*
X0Y-16510000D01*
D21*
X-5910000Y19050000D02*
X-5460000Y19050000D01*
X-12700000Y-19050000D02*
X-12459998Y-19050000D01*
D22*
X-5970000Y-14720000D02*
X-5970000Y-13970000D01*
X-7620000Y-16370000D02*
X-5970000Y-14720000D01*
X-7620000Y-17904998D02*
X-7620000Y-16370000D01*
X-10795000Y-21079998D02*
X-7620000Y-17904998D01*
X-12700000Y-26670000D02*
X-10795000Y-24765000D01*
X-10795000Y-24765000D02*
X-10795000Y-21079998D01*
X-7170000Y16510000D02*
X-5970000Y16510000D01*
X-8889295Y16510000D02*
X-7170000Y16510000D01*
X-10795000Y18415705D02*
X-8889295Y16510000D01*
X-10795000Y20320000D02*
X-10795000Y18415705D01*
X-12700000Y21590000D02*
X-12065000Y21590000D01*
X-12065000Y21590000D02*
X-10795000Y20320000D01*
X-9525000Y-16765000D02*
X-9270000Y-16510000D01*
X-9525000Y-19050000D02*
X-9525000Y-16765000D01*
X-11430000Y-20955000D02*
X-9525000Y-19050000D01*
X-12700000Y-24130000D02*
X-11430000Y-22860000D01*
X-11430000Y-22860000D02*
X-11430000Y-20955000D01*
X7994999Y5085001D02*
X9270000Y3810000D01*
X5460000Y24130000D02*
X7994999Y21595001D01*
X7994999Y21595001D02*
X7994999Y5085001D01*
X9270000Y-520000D02*
X9270000Y-1270000D01*
X884999Y20314999D02*
X884999Y4830001D01*
X2160000Y21590000D02*
X884999Y20314999D01*
X884999Y4830001D02*
X3175000Y2540000D01*
X3175000Y2540000D02*
X6735002Y2540000D01*
X6735002Y2540000D02*
X9270000Y5002D01*
X9270000Y5002D02*
X9270000Y-520000D01*
X7245001Y7625001D02*
X5970000Y6350000D01*
X7245001Y18464999D02*
X7245001Y7625001D01*
X5460000Y19050000D02*
X6660000Y19050000D01*
X6660000Y19050000D02*
X7245001Y18464999D01*
X3620000Y15050000D02*
X3620000Y3620000D01*
X2160000Y16510000D02*
X3620000Y15050000D01*
X-9270000Y15620000D02*
X-9270000Y13970000D01*
X-12700000Y19050000D02*
X-9270000Y15620000D01*
D21*
X5910000Y-21590000D02*
X5460000Y-21590000D01*
D22*
X-2160000Y-19800000D02*
X-2160000Y-19050000D01*
X-2160000Y-21520000D02*
X-2160000Y-19800000D01*
X-4770000Y-24130000D02*
X-2160000Y-21520000D01*
X-5970000Y-24130000D02*
X-4770000Y-24130000D01*
X-5970000Y-21080000D02*
X-5460000Y-21590000D01*
X-5970000Y-19050000D02*
X-5970000Y-21080000D01*
X-3360000Y-24130000D02*
X-2160000Y-24130000D01*
X-4630000Y-25400000D02*
X-3360000Y-24130000D01*
X-6800000Y-25400000D02*
X-4630000Y-25400000D01*
X-9270000Y-26670000D02*
X-8070000Y-26670000D01*
X-8070000Y-26670000D02*
X-6800000Y-25400000D01*
X-5460000Y-16504998D02*
X-5460000Y-16510000D01*
X-9270000Y-21590000D02*
X-9270000Y-20314998D01*
X-9270000Y-20314998D02*
X-5460000Y-16504998D01*
X10795000Y24765000D02*
X10795000Y23557499D01*
X12700000Y26670000D02*
X10795000Y24765000D01*
X10795000Y23557499D02*
X10795000Y18415000D01*
X10795000Y18415000D02*
X8890000Y16510000D01*
X11430000Y-21590000D02*
X12700000Y-21590000D01*
X7620000Y-17780000D02*
X11430000Y-21590000D01*
X7620000Y-16370000D02*
X7620000Y-17780000D01*
X5970000Y-13970000D02*
X5970000Y-14720000D01*
X5970000Y-14720000D02*
X7620000Y-16370000D01*
X11430000Y16130000D02*
X9270000Y13970000D01*
X12700000Y24130000D02*
X11430000Y22860000D01*
X11430000Y22860000D02*
X11430000Y16130000D01*
X11430000Y-19050000D02*
X12700000Y-19050000D01*
X9270000Y-16510000D02*
X9270000Y-16890000D01*
X9270000Y-16890000D02*
X11430000Y-19050000D01*
X9525000Y19305000D02*
X9270000Y19050000D01*
X9525000Y21590000D02*
X9525000Y19305000D01*
X500000Y26369428D02*
X500000Y27885000D01*
X-4279428Y21590000D02*
X500000Y26369428D01*
X-5970000Y21590000D02*
X-4279428Y21590000D01*
X-9270000Y20325002D02*
X-9270000Y19050000D01*
X-7180001Y22415001D02*
X-9270000Y20325002D01*
X-4254999Y22415001D02*
X-7180001Y22415001D01*
X-500000Y27885000D02*
X-500000Y26170000D01*
X-500000Y26170000D02*
X-4254999Y22415001D01*
X12325001Y-6864999D02*
X12325001Y3040013D01*
X12325001Y3040013D02*
X9289999Y6075015D01*
X9289999Y6075015D02*
X8890000Y6475014D01*
X11050000Y-8140000D02*
X12325001Y-6864999D01*
X11050000Y-8890000D02*
X11050000Y-8140000D01*
X10470000Y8890000D02*
X9270000Y8890000D01*
X10545002Y8890000D02*
X10470000Y8890000D01*
X13074999Y6360003D02*
X10545002Y8890000D01*
X13074999Y-10154999D02*
X13074999Y6360003D01*
X14350000Y-11430000D02*
X13074999Y-10154999D01*
X-12700000Y11210000D02*
X-12700000Y11160000D01*
X-14575009Y13085009D02*
X-12700000Y11210000D01*
X-14575009Y23993993D02*
X-14575009Y13085009D01*
X-13264001Y25305001D02*
X-14575009Y23993993D01*
X-8534999Y25305001D02*
X-13264001Y25305001D01*
X-7170000Y26670000D02*
X-8534999Y25305001D01*
X-5970000Y26670000D02*
X-7170000Y26670000D01*
X-12215000Y11645000D02*
X-12700000Y11160000D01*
X-12215000Y12700000D02*
X-12215000Y11645000D01*
X-24860000Y1920000D02*
X-25090000Y1690000D01*
X-25090000Y870000D02*
X-25090000Y1690000D01*
X-22445000Y-580000D02*
X-23640000Y-580000D01*
X-23640000Y-580000D02*
X-25090000Y870000D01*
X-22445000Y2295000D02*
X-22475012Y2325012D01*
X-22475012Y2325012D02*
X-22550000Y2325012D01*
X-22445000Y1920000D02*
X-22445000Y2295000D01*
X-22721492Y3325015D02*
X-22550000Y3325015D01*
X-23275001Y2771506D02*
X-22721492Y3325015D01*
X-23275001Y1662501D02*
X-23275001Y2771506D01*
X-22445000Y1420000D02*
X-23032500Y1420000D01*
X-23032500Y1420000D02*
X-23275001Y1662501D01*
X-24860000Y-1080000D02*
X-25090000Y-850000D01*
X-22445000Y-1080000D02*
X-24860000Y-1080000D01*
X-21280000Y-1707500D02*
X-21280000Y-1495000D01*
X-22962500Y-3390000D02*
X-21280000Y-1707500D01*
X-25090000Y-3390000D02*
X-22962500Y-3390000D01*
X-18621090Y-850000D02*
X-17470000Y-850000D01*
X-20115000Y-80000D02*
X-19391090Y-80000D01*
X-19391090Y-80000D02*
X-18621090Y-850000D01*
D26*
G36*
X-3640537Y15655506D02*
G01*
X-3561185Y15558815D01*
X-3464494Y15479463D01*
X-3354180Y15420498D01*
X-3234482Y15384188D01*
X-3110000Y15371928D01*
X-1581534Y15371928D01*
X124999Y13665395D01*
X125000Y4867334D01*
X121323Y4830001D01*
X125000Y4792668D01*
X135997Y4681015D01*
X147663Y4642557D01*
X179453Y4537755D01*
X250025Y4405725D01*
X295757Y4350001D01*
X344999Y4290000D01*
X373997Y4266202D01*
X1143000Y3497198D01*
X1143000Y2401473D01*
X1085518Y2395812D01*
X965820Y2359502D01*
X855506Y2300537D01*
X758815Y2221185D01*
X679463Y2124494D01*
X620498Y2014180D01*
X584188Y1894482D01*
X571928Y1770000D01*
X571928Y770000D01*
X584188Y645518D01*
X620498Y525820D01*
X679463Y415506D01*
X758815Y318815D01*
X855506Y239463D01*
X965820Y180498D01*
X1085518Y144188D01*
X1143000Y138527D01*
X1143000Y-2678527D01*
X1085518Y-2684188D01*
X965820Y-2720498D01*
X855506Y-2779463D01*
X758815Y-2858815D01*
X679463Y-2955506D01*
X620498Y-3065820D01*
X584188Y-3185518D01*
X571928Y-3310000D01*
X571928Y-4310000D01*
X584188Y-4434482D01*
X620498Y-4554180D01*
X679463Y-4664494D01*
X758815Y-4761185D01*
X855506Y-4840537D01*
X965820Y-4899502D01*
X1085518Y-4935812D01*
X1143000Y-4941473D01*
X1143000Y-11430000D01*
X1145440Y-11454776D01*
X1152667Y-11478601D01*
X1164403Y-11500557D01*
X1180197Y-11519803D01*
X2495165Y-12834771D01*
X2445750Y-12835000D01*
X2287000Y-12993750D01*
X2287000Y-13843000D01*
X2307000Y-13843000D01*
X2307000Y-14097000D01*
X2287000Y-14097000D01*
X2287000Y-14946250D01*
X2445750Y-15105000D01*
X2495165Y-15105229D01*
X1180197Y-16420197D01*
X1164403Y-16439443D01*
X1152667Y-16461399D01*
X1145440Y-16485224D01*
X1143000Y-16510000D01*
X1143000Y-17918527D01*
X1085518Y-17924188D01*
X965820Y-17960498D01*
X855506Y-18019463D01*
X758815Y-18098815D01*
X679463Y-18195506D01*
X620498Y-18305820D01*
X584188Y-18425518D01*
X571928Y-18550000D01*
X571928Y-19550000D01*
X584188Y-19674482D01*
X620498Y-19794180D01*
X679463Y-19904494D01*
X758815Y-20001185D01*
X855506Y-20080537D01*
X965820Y-20139502D01*
X1085518Y-20175812D01*
X1143000Y-20181473D01*
X1143000Y-22998527D01*
X1085518Y-23004188D01*
X965820Y-23040498D01*
X855506Y-23099463D01*
X758815Y-23178815D01*
X679463Y-23275506D01*
X620498Y-23385820D01*
X584188Y-23505518D01*
X571928Y-23630000D01*
X571928Y-24630000D01*
X584188Y-24754482D01*
X620498Y-24874180D01*
X679463Y-24984494D01*
X758815Y-25081185D01*
X855506Y-25160537D01*
X965820Y-25219502D01*
X1085518Y-25255812D01*
X1143000Y-25261473D01*
X1143000Y-26670000D01*
X1145440Y-26694776D01*
X1152667Y-26718601D01*
X1164403Y-26740557D01*
X1180197Y-26759803D01*
X4510401Y-30090007D01*
X4568815Y-30161185D01*
X4639993Y-30219599D01*
X4952057Y-30531663D01*
X4951543Y-30560461D01*
X4576123Y-30362359D01*
X4040867Y-30203099D01*
X3484826Y-30151322D01*
X2929368Y-30209019D01*
X2395839Y-30373972D01*
X1929976Y-30622982D01*
X1689830Y-31010225D01*
X3500000Y-32820395D01*
X3514143Y-32806253D01*
X3693748Y-32985858D01*
X3679605Y-33000000D01*
X3693748Y-33014143D01*
X3514143Y-33193748D01*
X3500000Y-33179605D01*
X3485858Y-33193748D01*
X3306253Y-33014143D01*
X3320395Y-33000000D01*
X1510225Y-31189830D01*
X1122982Y-31429976D01*
X862359Y-31923877D01*
X703099Y-32459133D01*
X651322Y-33015174D01*
X709019Y-33570632D01*
X873972Y-34104161D01*
X1122982Y-34570024D01*
X1490600Y-34798000D01*
X52606Y-34798000D01*
X-816273Y-33929121D01*
X-773948Y-33826939D01*
X-665000Y-33279223D01*
X-665000Y-32720777D01*
X-773948Y-32173061D01*
X-987656Y-31657124D01*
X-1143000Y-31424635D01*
X-1143000Y-25261473D01*
X-1085518Y-25255812D01*
X-965820Y-25219502D01*
X-855506Y-25160537D01*
X-758815Y-25081185D01*
X-679463Y-24984494D01*
X-620498Y-24874180D01*
X-584188Y-24754482D01*
X-571928Y-24630000D01*
X-571928Y-23630000D01*
X-584188Y-23505518D01*
X-620498Y-23385820D01*
X-679463Y-23275506D01*
X-758815Y-23178815D01*
X-855506Y-23099463D01*
X-965820Y-23040498D01*
X-1085518Y-23004188D01*
X-1143000Y-22998527D01*
X-1143000Y-20181473D01*
X-1085518Y-20175812D01*
X-965820Y-20139502D01*
X-855506Y-20080537D01*
X-758815Y-20001185D01*
X-679463Y-19904494D01*
X-620498Y-19794180D01*
X-584188Y-19674482D01*
X-571928Y-19550000D01*
X-571928Y-18550000D01*
X-584188Y-18425518D01*
X-620498Y-18305820D01*
X-679463Y-18195506D01*
X-758815Y-18098815D01*
X-855506Y-18019463D01*
X-965820Y-17960498D01*
X-1085518Y-17924188D01*
X-1143000Y-17918527D01*
X-1143000Y-15101473D01*
X-1085518Y-15095812D01*
X-965820Y-15059502D01*
X-855506Y-15000537D01*
X-758815Y-14921185D01*
X-679463Y-14824494D01*
X-620498Y-14714180D01*
X-584188Y-14594482D01*
X-571928Y-14470000D01*
X571928Y-14470000D01*
X584188Y-14594482D01*
X620498Y-14714180D01*
X679463Y-14824494D01*
X758815Y-14921185D01*
X855506Y-15000537D01*
X965820Y-15059502D01*
X1085518Y-15095812D01*
X1210000Y-15108072D01*
X1874250Y-15105000D01*
X2033000Y-14946250D01*
X2033000Y-14097000D01*
X733750Y-14097000D01*
X575000Y-14255750D01*
X571928Y-14470000D01*
X-571928Y-14470000D01*
X-571928Y-13470000D01*
X571928Y-13470000D01*
X575000Y-13684250D01*
X733750Y-13843000D01*
X2033000Y-13843000D01*
X2033000Y-12993750D01*
X1874250Y-12835000D01*
X1210000Y-12831928D01*
X1085518Y-12844188D01*
X965820Y-12880498D01*
X855506Y-12939463D01*
X758815Y-13018815D01*
X679463Y-13115506D01*
X620498Y-13225820D01*
X584188Y-13345518D01*
X571928Y-13470000D01*
X-571928Y-13470000D01*
X-584188Y-13345518D01*
X-620498Y-13225820D01*
X-679463Y-13115506D01*
X-758815Y-13018815D01*
X-855506Y-12939463D01*
X-965820Y-12880498D01*
X-1085518Y-12844188D01*
X-1143000Y-12838527D01*
X-1143000Y-4941473D01*
X-1085518Y-4935812D01*
X-965820Y-4899502D01*
X-855506Y-4840537D01*
X-758815Y-4761185D01*
X-679463Y-4664494D01*
X-620498Y-4554180D01*
X-584188Y-4434482D01*
X-571928Y-4310000D01*
X-571928Y-3310000D01*
X-584188Y-3185518D01*
X-620498Y-3065820D01*
X-679463Y-2955506D01*
X-758815Y-2858815D01*
X-855506Y-2779463D01*
X-965820Y-2720498D01*
X-1085518Y-2684188D01*
X-1143000Y-2678527D01*
X-1143000Y138527D01*
X-1085518Y144188D01*
X-965820Y180498D01*
X-855506Y239463D01*
X-758815Y318815D01*
X-679463Y415506D01*
X-620498Y525820D01*
X-584188Y645518D01*
X-571928Y770000D01*
X-571928Y1770000D01*
X-584188Y1894482D01*
X-620498Y2014180D01*
X-679463Y2124494D01*
X-758815Y2221185D01*
X-855506Y2300537D01*
X-965820Y2359502D01*
X-1085518Y2395812D01*
X-1143000Y2401473D01*
X-1143000Y3108289D01*
X-1101063Y3150226D01*
X-987795Y3319744D01*
X-909774Y3508102D01*
X-870000Y3708061D01*
X-870000Y3911939D01*
X-909774Y4111898D01*
X-987795Y4300256D01*
X-1101063Y4469774D01*
X-1143000Y4511711D01*
X-1143000Y5319985D01*
X-968102Y5354774D01*
X-779744Y5432795D01*
X-610226Y5546063D01*
X-466063Y5690226D01*
X-352795Y5859744D01*
X-274774Y6048102D01*
X-235000Y6248061D01*
X-235000Y6451939D01*
X-274774Y6651898D01*
X-352795Y6840256D01*
X-466063Y7009774D01*
X-610226Y7153937D01*
X-779744Y7267205D01*
X-968102Y7345226D01*
X-1143000Y7380015D01*
X-1143000Y7859985D01*
X-968102Y7894774D01*
X-779744Y7972795D01*
X-610226Y8086063D01*
X-466063Y8230226D01*
X-352795Y8399744D01*
X-274774Y8588102D01*
X-235000Y8788061D01*
X-235000Y8991939D01*
X-274774Y9191898D01*
X-352795Y9380256D01*
X-466063Y9549774D01*
X-610226Y9693937D01*
X-779744Y9807205D01*
X-968102Y9885226D01*
X-1143000Y9920015D01*
X-1143000Y10298527D01*
X-1085518Y10304188D01*
X-965820Y10340498D01*
X-855506Y10399463D01*
X-758815Y10478815D01*
X-679463Y10575506D01*
X-620498Y10685820D01*
X-584188Y10805518D01*
X-571928Y10930000D01*
X-571928Y11930000D01*
X-584188Y12054482D01*
X-620498Y12174180D01*
X-679463Y12284494D01*
X-758815Y12381185D01*
X-855506Y12460537D01*
X-965820Y12519502D01*
X-1085518Y12555812D01*
X-1210000Y12568072D01*
X-3110000Y12568072D01*
X-3234482Y12555812D01*
X-3354180Y12519502D01*
X-3464494Y12460537D01*
X-3561185Y12381185D01*
X-3640537Y12284494D01*
X-3689977Y12192000D01*
X-4440023Y12192000D01*
X-4489463Y12284494D01*
X-4568815Y12381185D01*
X-4665506Y12460537D01*
X-4775820Y12519502D01*
X-4895518Y12555812D01*
X-5020000Y12568072D01*
X-5588000Y12568072D01*
X-5588000Y12992750D01*
X-5587000Y12993750D01*
X-5587000Y13843000D01*
X-5333000Y13843000D01*
X-5333000Y12993750D01*
X-5174250Y12835000D01*
X-4510000Y12831928D01*
X-4385518Y12844188D01*
X-4265820Y12880498D01*
X-4155506Y12939463D01*
X-4058815Y13018815D01*
X-3979463Y13115506D01*
X-3920498Y13225820D01*
X-3884188Y13345518D01*
X-3871928Y13470000D01*
X-3875000Y13684250D01*
X-4033750Y13843000D01*
X-5333000Y13843000D01*
X-5587000Y13843000D01*
X-5588000Y13843000D01*
X-5588000Y14097000D01*
X-5587000Y14097000D01*
X-5587000Y14946250D01*
X-5333000Y14946250D01*
X-5333000Y14097000D01*
X-4033750Y14097000D01*
X-3875000Y14255750D01*
X-3871928Y14470000D01*
X-3884188Y14594482D01*
X-3920498Y14714180D01*
X-3979463Y14824494D01*
X-4058815Y14921185D01*
X-4155506Y15000537D01*
X-4265820Y15059502D01*
X-4385518Y15095812D01*
X-4510000Y15108072D01*
X-5174250Y15105000D01*
X-5333000Y14946250D01*
X-5587000Y14946250D01*
X-5588000Y14947250D01*
X-5588000Y15371928D01*
X-5020000Y15371928D01*
X-4895518Y15384188D01*
X-4775820Y15420498D01*
X-4665506Y15479463D01*
X-4568815Y15558815D01*
X-4489463Y15655506D01*
X-4440023Y15748000D01*
X-3689977Y15748000D01*
X-3640537Y15655506D01*
X-3640537Y15655506D01*
G37*
X-3640537Y15655506D02*
X-3561185Y15558815D01*
X-3464494Y15479463D01*
X-3354180Y15420498D01*
X-3234482Y15384188D01*
X-3110000Y15371928D01*
X-1581534Y15371928D01*
X124999Y13665395D01*
X125000Y4867334D01*
X121323Y4830001D01*
X125000Y4792668D01*
X135997Y4681015D01*
X147663Y4642557D01*
X179453Y4537755D01*
X250025Y4405725D01*
X295757Y4350001D01*
X344999Y4290000D01*
X373997Y4266202D01*
X1143000Y3497198D01*
X1143000Y2401473D01*
X1085518Y2395812D01*
X965820Y2359502D01*
X855506Y2300537D01*
X758815Y2221185D01*
X679463Y2124494D01*
X620498Y2014180D01*
X584188Y1894482D01*
X571928Y1770000D01*
X571928Y770000D01*
X584188Y645518D01*
X620498Y525820D01*
X679463Y415506D01*
X758815Y318815D01*
X855506Y239463D01*
X965820Y180498D01*
X1085518Y144188D01*
X1143000Y138527D01*
X1143000Y-2678527D01*
X1085518Y-2684188D01*
X965820Y-2720498D01*
X855506Y-2779463D01*
X758815Y-2858815D01*
X679463Y-2955506D01*
X620498Y-3065820D01*
X584188Y-3185518D01*
X571928Y-3310000D01*
X571928Y-4310000D01*
X584188Y-4434482D01*
X620498Y-4554180D01*
X679463Y-4664494D01*
X758815Y-4761185D01*
X855506Y-4840537D01*
X965820Y-4899502D01*
X1085518Y-4935812D01*
X1143000Y-4941473D01*
X1143000Y-11430000D01*
X1145440Y-11454776D01*
X1152667Y-11478601D01*
X1164403Y-11500557D01*
X1180197Y-11519803D01*
X2495165Y-12834771D01*
X2445750Y-12835000D01*
X2287000Y-12993750D01*
X2287000Y-13843000D01*
X2307000Y-13843000D01*
X2307000Y-14097000D01*
X2287000Y-14097000D01*
X2287000Y-14946250D01*
X2445750Y-15105000D01*
X2495165Y-15105229D01*
X1180197Y-16420197D01*
X1164403Y-16439443D01*
X1152667Y-16461399D01*
X1145440Y-16485224D01*
X1143000Y-16510000D01*
X1143000Y-17918527D01*
X1085518Y-17924188D01*
X965820Y-17960498D01*
X855506Y-18019463D01*
X758815Y-18098815D01*
X679463Y-18195506D01*
X620498Y-18305820D01*
X584188Y-18425518D01*
X571928Y-18550000D01*
X571928Y-19550000D01*
X584188Y-19674482D01*
X620498Y-19794180D01*
X679463Y-19904494D01*
X758815Y-20001185D01*
X855506Y-20080537D01*
X965820Y-20139502D01*
X1085518Y-20175812D01*
X1143000Y-20181473D01*
X1143000Y-22998527D01*
X1085518Y-23004188D01*
X965820Y-23040498D01*
X855506Y-23099463D01*
X758815Y-23178815D01*
X679463Y-23275506D01*
X620498Y-23385820D01*
X584188Y-23505518D01*
X571928Y-23630000D01*
X571928Y-24630000D01*
X584188Y-24754482D01*
X620498Y-24874180D01*
X679463Y-24984494D01*
X758815Y-25081185D01*
X855506Y-25160537D01*
X965820Y-25219502D01*
X1085518Y-25255812D01*
X1143000Y-25261473D01*
X1143000Y-26670000D01*
X1145440Y-26694776D01*
X1152667Y-26718601D01*
X1164403Y-26740557D01*
X1180197Y-26759803D01*
X4510401Y-30090007D01*
X4568815Y-30161185D01*
X4639993Y-30219599D01*
X4952057Y-30531663D01*
X4951543Y-30560461D01*
X4576123Y-30362359D01*
X4040867Y-30203099D01*
X3484826Y-30151322D01*
X2929368Y-30209019D01*
X2395839Y-30373972D01*
X1929976Y-30622982D01*
X1689830Y-31010225D01*
X3500000Y-32820395D01*
X3514143Y-32806253D01*
X3693748Y-32985858D01*
X3679605Y-33000000D01*
X3693748Y-33014143D01*
X3514143Y-33193748D01*
X3500000Y-33179605D01*
X3485858Y-33193748D01*
X3306253Y-33014143D01*
X3320395Y-33000000D01*
X1510225Y-31189830D01*
X1122982Y-31429976D01*
X862359Y-31923877D01*
X703099Y-32459133D01*
X651322Y-33015174D01*
X709019Y-33570632D01*
X873972Y-34104161D01*
X1122982Y-34570024D01*
X1490600Y-34798000D01*
X52606Y-34798000D01*
X-816273Y-33929121D01*
X-773948Y-33826939D01*
X-665000Y-33279223D01*
X-665000Y-32720777D01*
X-773948Y-32173061D01*
X-987656Y-31657124D01*
X-1143000Y-31424635D01*
X-1143000Y-25261473D01*
X-1085518Y-25255812D01*
X-965820Y-25219502D01*
X-855506Y-25160537D01*
X-758815Y-25081185D01*
X-679463Y-24984494D01*
X-620498Y-24874180D01*
X-584188Y-24754482D01*
X-571928Y-24630000D01*
X-571928Y-23630000D01*
X-584188Y-23505518D01*
X-620498Y-23385820D01*
X-679463Y-23275506D01*
X-758815Y-23178815D01*
X-855506Y-23099463D01*
X-965820Y-23040498D01*
X-1085518Y-23004188D01*
X-1143000Y-22998527D01*
X-1143000Y-20181473D01*
X-1085518Y-20175812D01*
X-965820Y-20139502D01*
X-855506Y-20080537D01*
X-758815Y-20001185D01*
X-679463Y-19904494D01*
X-620498Y-19794180D01*
X-584188Y-19674482D01*
X-571928Y-19550000D01*
X-571928Y-18550000D01*
X-584188Y-18425518D01*
X-620498Y-18305820D01*
X-679463Y-18195506D01*
X-758815Y-18098815D01*
X-855506Y-18019463D01*
X-965820Y-17960498D01*
X-1085518Y-17924188D01*
X-1143000Y-17918527D01*
X-1143000Y-15101473D01*
X-1085518Y-15095812D01*
X-965820Y-15059502D01*
X-855506Y-15000537D01*
X-758815Y-14921185D01*
X-679463Y-14824494D01*
X-620498Y-14714180D01*
X-584188Y-14594482D01*
X-571928Y-14470000D01*
X571928Y-14470000D01*
X584188Y-14594482D01*
X620498Y-14714180D01*
X679463Y-14824494D01*
X758815Y-14921185D01*
X855506Y-15000537D01*
X965820Y-15059502D01*
X1085518Y-15095812D01*
X1210000Y-15108072D01*
X1874250Y-15105000D01*
X2033000Y-14946250D01*
X2033000Y-14097000D01*
X733750Y-14097000D01*
X575000Y-14255750D01*
X571928Y-14470000D01*
X-571928Y-14470000D01*
X-571928Y-13470000D01*
X571928Y-13470000D01*
X575000Y-13684250D01*
X733750Y-13843000D01*
X2033000Y-13843000D01*
X2033000Y-12993750D01*
X1874250Y-12835000D01*
X1210000Y-12831928D01*
X1085518Y-12844188D01*
X965820Y-12880498D01*
X855506Y-12939463D01*
X758815Y-13018815D01*
X679463Y-13115506D01*
X620498Y-13225820D01*
X584188Y-13345518D01*
X571928Y-13470000D01*
X-571928Y-13470000D01*
X-584188Y-13345518D01*
X-620498Y-13225820D01*
X-679463Y-13115506D01*
X-758815Y-13018815D01*
X-855506Y-12939463D01*
X-965820Y-12880498D01*
X-1085518Y-12844188D01*
X-1143000Y-12838527D01*
X-1143000Y-4941473D01*
X-1085518Y-4935812D01*
X-965820Y-4899502D01*
X-855506Y-4840537D01*
X-758815Y-4761185D01*
X-679463Y-4664494D01*
X-620498Y-4554180D01*
X-584188Y-4434482D01*
X-571928Y-4310000D01*
X-571928Y-3310000D01*
X-584188Y-3185518D01*
X-620498Y-3065820D01*
X-679463Y-2955506D01*
X-758815Y-2858815D01*
X-855506Y-2779463D01*
X-965820Y-2720498D01*
X-1085518Y-2684188D01*
X-1143000Y-2678527D01*
X-1143000Y138527D01*
X-1085518Y144188D01*
X-965820Y180498D01*
X-855506Y239463D01*
X-758815Y318815D01*
X-679463Y415506D01*
X-620498Y525820D01*
X-584188Y645518D01*
X-571928Y770000D01*
X-571928Y1770000D01*
X-584188Y1894482D01*
X-620498Y2014180D01*
X-679463Y2124494D01*
X-758815Y2221185D01*
X-855506Y2300537D01*
X-965820Y2359502D01*
X-1085518Y2395812D01*
X-1143000Y2401473D01*
X-1143000Y3108289D01*
X-1101063Y3150226D01*
X-987795Y3319744D01*
X-909774Y3508102D01*
X-870000Y3708061D01*
X-870000Y3911939D01*
X-909774Y4111898D01*
X-987795Y4300256D01*
X-1101063Y4469774D01*
X-1143000Y4511711D01*
X-1143000Y5319985D01*
X-968102Y5354774D01*
X-779744Y5432795D01*
X-610226Y5546063D01*
X-466063Y5690226D01*
X-352795Y5859744D01*
X-274774Y6048102D01*
X-235000Y6248061D01*
X-235000Y6451939D01*
X-274774Y6651898D01*
X-352795Y6840256D01*
X-466063Y7009774D01*
X-610226Y7153937D01*
X-779744Y7267205D01*
X-968102Y7345226D01*
X-1143000Y7380015D01*
X-1143000Y7859985D01*
X-968102Y7894774D01*
X-779744Y7972795D01*
X-610226Y8086063D01*
X-466063Y8230226D01*
X-352795Y8399744D01*
X-274774Y8588102D01*
X-235000Y8788061D01*
X-235000Y8991939D01*
X-274774Y9191898D01*
X-352795Y9380256D01*
X-466063Y9549774D01*
X-610226Y9693937D01*
X-779744Y9807205D01*
X-968102Y9885226D01*
X-1143000Y9920015D01*
X-1143000Y10298527D01*
X-1085518Y10304188D01*
X-965820Y10340498D01*
X-855506Y10399463D01*
X-758815Y10478815D01*
X-679463Y10575506D01*
X-620498Y10685820D01*
X-584188Y10805518D01*
X-571928Y10930000D01*
X-571928Y11930000D01*
X-584188Y12054482D01*
X-620498Y12174180D01*
X-679463Y12284494D01*
X-758815Y12381185D01*
X-855506Y12460537D01*
X-965820Y12519502D01*
X-1085518Y12555812D01*
X-1210000Y12568072D01*
X-3110000Y12568072D01*
X-3234482Y12555812D01*
X-3354180Y12519502D01*
X-3464494Y12460537D01*
X-3561185Y12381185D01*
X-3640537Y12284494D01*
X-3689977Y12192000D01*
X-4440023Y12192000D01*
X-4489463Y12284494D01*
X-4568815Y12381185D01*
X-4665506Y12460537D01*
X-4775820Y12519502D01*
X-4895518Y12555812D01*
X-5020000Y12568072D01*
X-5588000Y12568072D01*
X-5588000Y12992750D01*
X-5587000Y12993750D01*
X-5587000Y13843000D01*
X-5333000Y13843000D01*
X-5333000Y12993750D01*
X-5174250Y12835000D01*
X-4510000Y12831928D01*
X-4385518Y12844188D01*
X-4265820Y12880498D01*
X-4155506Y12939463D01*
X-4058815Y13018815D01*
X-3979463Y13115506D01*
X-3920498Y13225820D01*
X-3884188Y13345518D01*
X-3871928Y13470000D01*
X-3875000Y13684250D01*
X-4033750Y13843000D01*
X-5333000Y13843000D01*
X-5587000Y13843000D01*
X-5588000Y13843000D01*
X-5588000Y14097000D01*
X-5587000Y14097000D01*
X-5587000Y14946250D01*
X-5333000Y14946250D01*
X-5333000Y14097000D01*
X-4033750Y14097000D01*
X-3875000Y14255750D01*
X-3871928Y14470000D01*
X-3884188Y14594482D01*
X-3920498Y14714180D01*
X-3979463Y14824494D01*
X-4058815Y14921185D01*
X-4155506Y15000537D01*
X-4265820Y15059502D01*
X-4385518Y15095812D01*
X-4510000Y15108072D01*
X-5174250Y15105000D01*
X-5333000Y14946250D01*
X-5587000Y14946250D01*
X-5588000Y14947250D01*
X-5588000Y15371928D01*
X-5020000Y15371928D01*
X-4895518Y15384188D01*
X-4775820Y15420498D01*
X-4665506Y15479463D01*
X-4568815Y15558815D01*
X-4489463Y15655506D01*
X-4440023Y15748000D01*
X-3689977Y15748000D01*
X-3640537Y15655506D01*
G36*
X-12573000Y-29083000D02*
G01*
X-12192000Y-29083000D01*
X-12192000Y-29337000D01*
X-12573000Y-29337000D01*
X-12573000Y-29357000D01*
X-12827000Y-29357000D01*
X-12827000Y-29337000D01*
X-12847000Y-29337000D01*
X-12847000Y-29083000D01*
X-12827000Y-29083000D01*
X-12827000Y-29063000D01*
X-12573000Y-29063000D01*
X-12573000Y-29083000D01*
X-12573000Y-29083000D01*
G37*
X-12573000Y-29083000D02*
X-12192000Y-29083000D01*
X-12192000Y-29337000D01*
X-12573000Y-29337000D01*
X-12573000Y-29357000D01*
X-12827000Y-29357000D01*
X-12827000Y-29337000D01*
X-12847000Y-29337000D01*
X-12847000Y-29083000D01*
X-12827000Y-29083000D01*
X-12827000Y-29063000D01*
X-12573000Y-29063000D01*
X-12573000Y-29083000D01*
G36*
X4381928Y1770000D02*
G01*
X4381928Y770000D01*
X4394188Y645518D01*
X4430498Y525820D01*
X4489463Y415506D01*
X4568815Y318815D01*
X4665506Y239463D01*
X4775820Y180498D01*
X4895518Y144188D01*
X5020000Y131928D01*
X6920000Y131928D01*
X7044482Y144188D01*
X7164180Y180498D01*
X7274494Y239463D01*
X7371185Y318815D01*
X7450537Y415506D01*
X7509502Y525820D01*
X7545812Y645518D01*
X7546607Y653593D01*
X8332128Y-131928D01*
X8320000Y-131928D01*
X8195518Y-144188D01*
X8075820Y-180498D01*
X7965506Y-239463D01*
X7868815Y-318815D01*
X7789463Y-415506D01*
X7730498Y-525820D01*
X7694188Y-645518D01*
X7681928Y-770000D01*
X7681928Y-1770000D01*
X7694188Y-1894482D01*
X7730498Y-2014180D01*
X7789463Y-2124494D01*
X7868815Y-2221185D01*
X7965506Y-2300537D01*
X8075820Y-2359502D01*
X8195518Y-2395812D01*
X8320000Y-2408072D01*
X9092129Y-2408072D01*
X8450201Y-3050000D01*
X7501046Y-3050000D01*
X7450537Y-2955506D01*
X7371185Y-2858815D01*
X7274494Y-2779463D01*
X7164180Y-2720498D01*
X7044482Y-2684188D01*
X6920000Y-2671928D01*
X5020000Y-2671928D01*
X4895518Y-2684188D01*
X4775820Y-2720498D01*
X4665506Y-2779463D01*
X4568815Y-2858815D01*
X4489463Y-2955506D01*
X4430498Y-3065820D01*
X4394188Y-3185518D01*
X4381928Y-3310000D01*
X4381928Y-4310000D01*
X4394188Y-4434482D01*
X4430498Y-4554180D01*
X4489463Y-4664494D01*
X4568815Y-4761185D01*
X4665506Y-4840537D01*
X4775820Y-4899502D01*
X4895518Y-4935812D01*
X5020000Y-4948072D01*
X6920000Y-4948072D01*
X7044482Y-4935812D01*
X7164180Y-4899502D01*
X7274494Y-4840537D01*
X7371185Y-4761185D01*
X7450537Y-4664494D01*
X7501046Y-4570000D01*
X8727680Y-4570000D01*
X8765002Y-4573676D01*
X8802324Y-4570000D01*
X8802335Y-4570000D01*
X8913988Y-4559003D01*
X9057249Y-4515546D01*
X9189278Y-4444974D01*
X9305003Y-4350001D01*
X9328806Y-4320997D01*
X9461928Y-4187875D01*
X9461928Y-4310000D01*
X9474188Y-4434482D01*
X9510498Y-4554180D01*
X9569463Y-4664494D01*
X9648815Y-4761185D01*
X9745506Y-4840537D01*
X9855820Y-4899502D01*
X9975518Y-4935812D01*
X10100000Y-4948072D01*
X11565001Y-4948072D01*
X11565001Y-6550197D01*
X10538998Y-7576201D01*
X10510000Y-7599999D01*
X10486202Y-7628997D01*
X10486201Y-7628998D01*
X10415026Y-7715724D01*
X10395674Y-7751928D01*
X10100000Y-7751928D01*
X9975518Y-7764188D01*
X9855820Y-7800498D01*
X9745506Y-7859463D01*
X9648815Y-7938815D01*
X9569463Y-8035506D01*
X9510498Y-8145820D01*
X9474188Y-8265518D01*
X9461928Y-8390000D01*
X9461928Y-9390000D01*
X9474188Y-9514482D01*
X9510498Y-9634180D01*
X9569463Y-9744494D01*
X9648815Y-9841185D01*
X9745506Y-9920537D01*
X9855820Y-9979502D01*
X9975518Y-10015812D01*
X10100000Y-10028072D01*
X12000000Y-10028072D01*
X12124482Y-10015812D01*
X12244180Y-9979502D01*
X12314999Y-9941648D01*
X12314999Y-10117677D01*
X12311323Y-10154999D01*
X12314999Y-10192321D01*
X12314999Y-10192331D01*
X12325996Y-10303984D01*
X12354959Y-10399463D01*
X12369453Y-10447245D01*
X12440025Y-10579275D01*
X12479870Y-10627825D01*
X12534998Y-10695000D01*
X12564002Y-10718803D01*
X12763118Y-10917919D01*
X12761928Y-10930000D01*
X12761928Y-11930000D01*
X12774188Y-12054482D01*
X12810498Y-12174180D01*
X12869463Y-12284494D01*
X12948815Y-12381185D01*
X13045506Y-12460537D01*
X13155820Y-12519502D01*
X13275518Y-12555812D01*
X13400000Y-12568072D01*
X14890099Y-12568072D01*
X14891113Y-12675507D01*
X14556236Y-13010384D01*
X14531052Y-13031052D01*
X14510386Y-13056234D01*
X14448575Y-13131550D01*
X14396272Y-13229403D01*
X14387290Y-13246208D01*
X14349550Y-13370618D01*
X14340000Y-13467582D01*
X14340000Y-13467591D01*
X14336808Y-13500000D01*
X14340000Y-13532409D01*
X14340000Y-17018000D01*
X14186210Y-17018000D01*
X14185000Y-16795750D01*
X14026250Y-16637000D01*
X12827000Y-16637000D01*
X12827000Y-16657000D01*
X12573000Y-16657000D01*
X12573000Y-16637000D01*
X11373750Y-16637000D01*
X11215000Y-16795750D01*
X11213790Y-17018000D01*
X10857284Y-17018000D01*
X10858072Y-17010000D01*
X10858072Y-16010000D01*
X10845812Y-15885518D01*
X10809502Y-15765820D01*
X10752940Y-15660000D01*
X11211928Y-15660000D01*
X11215000Y-16224250D01*
X11373750Y-16383000D01*
X12573000Y-16383000D01*
X12573000Y-15183750D01*
X12827000Y-15183750D01*
X12827000Y-16383000D01*
X14026250Y-16383000D01*
X14185000Y-16224250D01*
X14188072Y-15660000D01*
X14175812Y-15535518D01*
X14139502Y-15415820D01*
X14080537Y-15305506D01*
X14001185Y-15208815D01*
X13904494Y-15129463D01*
X13794180Y-15070498D01*
X13674482Y-15034188D01*
X13550000Y-15021928D01*
X12985750Y-15025000D01*
X12827000Y-15183750D01*
X12573000Y-15183750D01*
X12414250Y-15025000D01*
X11850000Y-15021928D01*
X11725518Y-15034188D01*
X11605820Y-15070498D01*
X11495506Y-15129463D01*
X11398815Y-15208815D01*
X11319463Y-15305506D01*
X11260498Y-15415820D01*
X11224188Y-15535518D01*
X11211928Y-15660000D01*
X10752940Y-15660000D01*
X10750537Y-15655506D01*
X10671185Y-15558815D01*
X10574494Y-15479463D01*
X10464180Y-15420498D01*
X10344482Y-15384188D01*
X10220000Y-15371928D01*
X8320000Y-15371928D01*
X8195518Y-15384188D01*
X8075820Y-15420498D01*
X7965506Y-15479463D01*
X7876945Y-15552143D01*
X7302420Y-14977618D01*
X7371185Y-14921185D01*
X7450537Y-14824494D01*
X7509502Y-14714180D01*
X7545812Y-14594482D01*
X7558072Y-14470000D01*
X7558072Y-13470000D01*
X7545812Y-13345518D01*
X7509502Y-13225820D01*
X7450537Y-13115506D01*
X7371185Y-13018815D01*
X7274494Y-12939463D01*
X7164180Y-12880498D01*
X7044482Y-12844188D01*
X6920000Y-12831928D01*
X5020000Y-12831928D01*
X4895518Y-12844188D01*
X4775820Y-12880498D01*
X4665506Y-12939463D01*
X4568815Y-13018815D01*
X4489463Y-13115506D01*
X4440023Y-13208000D01*
X3810000Y-13208000D01*
X3797235Y-13209257D01*
X3761664Y-13091996D01*
X3702983Y-12982213D01*
X3624013Y-12885987D01*
X2668026Y-11930000D01*
X3871928Y-11930000D01*
X3884188Y-12054482D01*
X3920498Y-12174180D01*
X3979463Y-12284494D01*
X4058815Y-12381185D01*
X4155506Y-12460537D01*
X4265820Y-12519502D01*
X4385518Y-12555812D01*
X4510000Y-12568072D01*
X5174250Y-12565000D01*
X5333000Y-12406250D01*
X5333000Y-11557000D01*
X5587000Y-11557000D01*
X5587000Y-12406250D01*
X5745750Y-12565000D01*
X6410000Y-12568072D01*
X6534482Y-12555812D01*
X6654180Y-12519502D01*
X6764494Y-12460537D01*
X6861185Y-12381185D01*
X6940537Y-12284494D01*
X6999502Y-12174180D01*
X7035812Y-12054482D01*
X7048072Y-11930000D01*
X7045000Y-11715750D01*
X6886250Y-11557000D01*
X5587000Y-11557000D01*
X5333000Y-11557000D01*
X4033750Y-11557000D01*
X3875000Y-11715750D01*
X3871928Y-11930000D01*
X2668026Y-11930000D01*
X1905000Y-11166974D01*
X1905000Y-10930000D01*
X3871928Y-10930000D01*
X3875000Y-11144250D01*
X4033750Y-11303000D01*
X5333000Y-11303000D01*
X5333000Y-10453750D01*
X5587000Y-10453750D01*
X5587000Y-11303000D01*
X6886250Y-11303000D01*
X7045000Y-11144250D01*
X7048072Y-10930000D01*
X7681928Y-10930000D01*
X7681928Y-11930000D01*
X7694188Y-12054482D01*
X7730498Y-12174180D01*
X7789463Y-12284494D01*
X7868815Y-12381185D01*
X7965506Y-12460537D01*
X8075820Y-12519502D01*
X8195518Y-12555812D01*
X8320000Y-12568072D01*
X10220000Y-12568072D01*
X10344482Y-12555812D01*
X10464180Y-12519502D01*
X10574494Y-12460537D01*
X10671185Y-12381185D01*
X10750537Y-12284494D01*
X10809502Y-12174180D01*
X10845812Y-12054482D01*
X10858072Y-11930000D01*
X10858072Y-10930000D01*
X10845812Y-10805518D01*
X10809502Y-10685820D01*
X10750537Y-10575506D01*
X10671185Y-10478815D01*
X10574494Y-10399463D01*
X10464180Y-10340498D01*
X10344482Y-10304188D01*
X10220000Y-10291928D01*
X8320000Y-10291928D01*
X8195518Y-10304188D01*
X8075820Y-10340498D01*
X7965506Y-10399463D01*
X7868815Y-10478815D01*
X7789463Y-10575506D01*
X7730498Y-10685820D01*
X7694188Y-10805518D01*
X7681928Y-10930000D01*
X7048072Y-10930000D01*
X7035812Y-10805518D01*
X6999502Y-10685820D01*
X6940537Y-10575506D01*
X6861185Y-10478815D01*
X6764494Y-10399463D01*
X6654180Y-10340498D01*
X6534482Y-10304188D01*
X6410000Y-10291928D01*
X5745750Y-10295000D01*
X5587000Y-10453750D01*
X5333000Y-10453750D01*
X5174250Y-10295000D01*
X4510000Y-10291928D01*
X4385518Y-10304188D01*
X4265820Y-10340498D01*
X4155506Y-10399463D01*
X4058815Y-10478815D01*
X3979463Y-10575506D01*
X3920498Y-10685820D01*
X3884188Y-10805518D01*
X3871928Y-10930000D01*
X1905000Y-10930000D01*
X1905000Y-8390000D01*
X4381928Y-8390000D01*
X4381928Y-9390000D01*
X4394188Y-9514482D01*
X4430498Y-9634180D01*
X4489463Y-9744494D01*
X4568815Y-9841185D01*
X4665506Y-9920537D01*
X4775820Y-9979502D01*
X4895518Y-10015812D01*
X5020000Y-10028072D01*
X6920000Y-10028072D01*
X7044482Y-10015812D01*
X7164180Y-9979502D01*
X7274494Y-9920537D01*
X7371185Y-9841185D01*
X7450537Y-9744494D01*
X7509502Y-9634180D01*
X7545812Y-9514482D01*
X7558072Y-9390000D01*
X7558072Y-8390000D01*
X7545812Y-8265518D01*
X7509502Y-8145820D01*
X7450537Y-8035506D01*
X7371185Y-7938815D01*
X7274494Y-7859463D01*
X7164180Y-7800498D01*
X7044482Y-7764188D01*
X6920000Y-7751928D01*
X5020000Y-7751928D01*
X4895518Y-7764188D01*
X4775820Y-7800498D01*
X4665506Y-7859463D01*
X4568815Y-7938815D01*
X4489463Y-8035506D01*
X4430498Y-8145820D01*
X4394188Y-8265518D01*
X4381928Y-8390000D01*
X1905000Y-8390000D01*
X1905000Y-6850000D01*
X7681928Y-6850000D01*
X7694188Y-6974482D01*
X7730498Y-7094180D01*
X7789463Y-7204494D01*
X7868815Y-7301185D01*
X7965506Y-7380537D01*
X8075820Y-7439502D01*
X8195518Y-7475812D01*
X8320000Y-7488072D01*
X8984250Y-7485000D01*
X9143000Y-7326250D01*
X9143000Y-6477000D01*
X9397000Y-6477000D01*
X9397000Y-7326250D01*
X9555750Y-7485000D01*
X10220000Y-7488072D01*
X10344482Y-7475812D01*
X10464180Y-7439502D01*
X10574494Y-7380537D01*
X10671185Y-7301185D01*
X10750537Y-7204494D01*
X10809502Y-7094180D01*
X10845812Y-6974482D01*
X10858072Y-6850000D01*
X10855000Y-6635750D01*
X10696250Y-6477000D01*
X9397000Y-6477000D01*
X9143000Y-6477000D01*
X7843750Y-6477000D01*
X7685000Y-6635750D01*
X7681928Y-6850000D01*
X1905000Y-6850000D01*
X1905000Y-5850000D01*
X7681928Y-5850000D01*
X7685000Y-6064250D01*
X7843750Y-6223000D01*
X9143000Y-6223000D01*
X9143000Y-5373750D01*
X9397000Y-5373750D01*
X9397000Y-6223000D01*
X10696250Y-6223000D01*
X10855000Y-6064250D01*
X10858072Y-5850000D01*
X10845812Y-5725518D01*
X10809502Y-5605820D01*
X10750537Y-5495506D01*
X10671185Y-5398815D01*
X10574494Y-5319463D01*
X10464180Y-5260498D01*
X10344482Y-5224188D01*
X10220000Y-5211928D01*
X9555750Y-5215000D01*
X9397000Y-5373750D01*
X9143000Y-5373750D01*
X8984250Y-5215000D01*
X8320000Y-5211928D01*
X8195518Y-5224188D01*
X8075820Y-5260498D01*
X7965506Y-5319463D01*
X7868815Y-5398815D01*
X7789463Y-5495506D01*
X7730498Y-5605820D01*
X7694188Y-5725518D01*
X7681928Y-5850000D01*
X1905000Y-5850000D01*
X1905000Y-4948072D01*
X3110000Y-4948072D01*
X3234482Y-4935812D01*
X3354180Y-4899502D01*
X3464494Y-4840537D01*
X3561185Y-4761185D01*
X3640537Y-4664494D01*
X3699502Y-4554180D01*
X3735812Y-4434482D01*
X3748072Y-4310000D01*
X3748072Y-3310000D01*
X3735812Y-3185518D01*
X3699502Y-3065820D01*
X3640537Y-2955506D01*
X3561185Y-2858815D01*
X3464494Y-2779463D01*
X3354180Y-2720498D01*
X3234482Y-2684188D01*
X3110000Y-2671928D01*
X1905000Y-2671928D01*
X1905000Y-770000D01*
X3871928Y-770000D01*
X3871928Y-1770000D01*
X3884188Y-1894482D01*
X3920498Y-2014180D01*
X3979463Y-2124494D01*
X4058815Y-2221185D01*
X4155506Y-2300537D01*
X4265820Y-2359502D01*
X4385518Y-2395812D01*
X4510000Y-2408072D01*
X6410000Y-2408072D01*
X6534482Y-2395812D01*
X6654180Y-2359502D01*
X6764494Y-2300537D01*
X6861185Y-2221185D01*
X6940537Y-2124494D01*
X6999502Y-2014180D01*
X7035812Y-1894482D01*
X7048072Y-1770000D01*
X7048072Y-770000D01*
X7035812Y-645518D01*
X6999502Y-525820D01*
X6940537Y-415506D01*
X6861185Y-318815D01*
X6764494Y-239463D01*
X6654180Y-180498D01*
X6534482Y-144188D01*
X6410000Y-131928D01*
X4510000Y-131928D01*
X4385518Y-144188D01*
X4265820Y-180498D01*
X4155506Y-239463D01*
X4058815Y-318815D01*
X3979463Y-415506D01*
X3920498Y-525820D01*
X3884188Y-645518D01*
X3871928Y-770000D01*
X1905000Y-770000D01*
X1905000Y131928D01*
X3110000Y131928D01*
X3234482Y144188D01*
X3354180Y180498D01*
X3464494Y239463D01*
X3561185Y318815D01*
X3640537Y415506D01*
X3699502Y525820D01*
X3735812Y645518D01*
X3748072Y770000D01*
X3748072Y1770000D01*
X3747087Y1780000D01*
X4382913Y1780000D01*
X4381928Y1770000D01*
X4381928Y1770000D01*
G37*
X4381928Y1770000D02*
X4381928Y770000D01*
X4394188Y645518D01*
X4430498Y525820D01*
X4489463Y415506D01*
X4568815Y318815D01*
X4665506Y239463D01*
X4775820Y180498D01*
X4895518Y144188D01*
X5020000Y131928D01*
X6920000Y131928D01*
X7044482Y144188D01*
X7164180Y180498D01*
X7274494Y239463D01*
X7371185Y318815D01*
X7450537Y415506D01*
X7509502Y525820D01*
X7545812Y645518D01*
X7546607Y653593D01*
X8332128Y-131928D01*
X8320000Y-131928D01*
X8195518Y-144188D01*
X8075820Y-180498D01*
X7965506Y-239463D01*
X7868815Y-318815D01*
X7789463Y-415506D01*
X7730498Y-525820D01*
X7694188Y-645518D01*
X7681928Y-770000D01*
X7681928Y-1770000D01*
X7694188Y-1894482D01*
X7730498Y-2014180D01*
X7789463Y-2124494D01*
X7868815Y-2221185D01*
X7965506Y-2300537D01*
X8075820Y-2359502D01*
X8195518Y-2395812D01*
X8320000Y-2408072D01*
X9092129Y-2408072D01*
X8450201Y-3050000D01*
X7501046Y-3050000D01*
X7450537Y-2955506D01*
X7371185Y-2858815D01*
X7274494Y-2779463D01*
X7164180Y-2720498D01*
X7044482Y-2684188D01*
X6920000Y-2671928D01*
X5020000Y-2671928D01*
X4895518Y-2684188D01*
X4775820Y-2720498D01*
X4665506Y-2779463D01*
X4568815Y-2858815D01*
X4489463Y-2955506D01*
X4430498Y-3065820D01*
X4394188Y-3185518D01*
X4381928Y-3310000D01*
X4381928Y-4310000D01*
X4394188Y-4434482D01*
X4430498Y-4554180D01*
X4489463Y-4664494D01*
X4568815Y-4761185D01*
X4665506Y-4840537D01*
X4775820Y-4899502D01*
X4895518Y-4935812D01*
X5020000Y-4948072D01*
X6920000Y-4948072D01*
X7044482Y-4935812D01*
X7164180Y-4899502D01*
X7274494Y-4840537D01*
X7371185Y-4761185D01*
X7450537Y-4664494D01*
X7501046Y-4570000D01*
X8727680Y-4570000D01*
X8765002Y-4573676D01*
X8802324Y-4570000D01*
X8802335Y-4570000D01*
X8913988Y-4559003D01*
X9057249Y-4515546D01*
X9189278Y-4444974D01*
X9305003Y-4350001D01*
X9328806Y-4320997D01*
X9461928Y-4187875D01*
X9461928Y-4310000D01*
X9474188Y-4434482D01*
X9510498Y-4554180D01*
X9569463Y-4664494D01*
X9648815Y-4761185D01*
X9745506Y-4840537D01*
X9855820Y-4899502D01*
X9975518Y-4935812D01*
X10100000Y-4948072D01*
X11565001Y-4948072D01*
X11565001Y-6550197D01*
X10538998Y-7576201D01*
X10510000Y-7599999D01*
X10486202Y-7628997D01*
X10486201Y-7628998D01*
X10415026Y-7715724D01*
X10395674Y-7751928D01*
X10100000Y-7751928D01*
X9975518Y-7764188D01*
X9855820Y-7800498D01*
X9745506Y-7859463D01*
X9648815Y-7938815D01*
X9569463Y-8035506D01*
X9510498Y-8145820D01*
X9474188Y-8265518D01*
X9461928Y-8390000D01*
X9461928Y-9390000D01*
X9474188Y-9514482D01*
X9510498Y-9634180D01*
X9569463Y-9744494D01*
X9648815Y-9841185D01*
X9745506Y-9920537D01*
X9855820Y-9979502D01*
X9975518Y-10015812D01*
X10100000Y-10028072D01*
X12000000Y-10028072D01*
X12124482Y-10015812D01*
X12244180Y-9979502D01*
X12314999Y-9941648D01*
X12314999Y-10117677D01*
X12311323Y-10154999D01*
X12314999Y-10192321D01*
X12314999Y-10192331D01*
X12325996Y-10303984D01*
X12354959Y-10399463D01*
X12369453Y-10447245D01*
X12440025Y-10579275D01*
X12479870Y-10627825D01*
X12534998Y-10695000D01*
X12564002Y-10718803D01*
X12763118Y-10917919D01*
X12761928Y-10930000D01*
X12761928Y-11930000D01*
X12774188Y-12054482D01*
X12810498Y-12174180D01*
X12869463Y-12284494D01*
X12948815Y-12381185D01*
X13045506Y-12460537D01*
X13155820Y-12519502D01*
X13275518Y-12555812D01*
X13400000Y-12568072D01*
X14890099Y-12568072D01*
X14891113Y-12675507D01*
X14556236Y-13010384D01*
X14531052Y-13031052D01*
X14510386Y-13056234D01*
X14448575Y-13131550D01*
X14396272Y-13229403D01*
X14387290Y-13246208D01*
X14349550Y-13370618D01*
X14340000Y-13467582D01*
X14340000Y-13467591D01*
X14336808Y-13500000D01*
X14340000Y-13532409D01*
X14340000Y-17018000D01*
X14186210Y-17018000D01*
X14185000Y-16795750D01*
X14026250Y-16637000D01*
X12827000Y-16637000D01*
X12827000Y-16657000D01*
X12573000Y-16657000D01*
X12573000Y-16637000D01*
X11373750Y-16637000D01*
X11215000Y-16795750D01*
X11213790Y-17018000D01*
X10857284Y-17018000D01*
X10858072Y-17010000D01*
X10858072Y-16010000D01*
X10845812Y-15885518D01*
X10809502Y-15765820D01*
X10752940Y-15660000D01*
X11211928Y-15660000D01*
X11215000Y-16224250D01*
X11373750Y-16383000D01*
X12573000Y-16383000D01*
X12573000Y-15183750D01*
X12827000Y-15183750D01*
X12827000Y-16383000D01*
X14026250Y-16383000D01*
X14185000Y-16224250D01*
X14188072Y-15660000D01*
X14175812Y-15535518D01*
X14139502Y-15415820D01*
X14080537Y-15305506D01*
X14001185Y-15208815D01*
X13904494Y-15129463D01*
X13794180Y-15070498D01*
X13674482Y-15034188D01*
X13550000Y-15021928D01*
X12985750Y-15025000D01*
X12827000Y-15183750D01*
X12573000Y-15183750D01*
X12414250Y-15025000D01*
X11850000Y-15021928D01*
X11725518Y-15034188D01*
X11605820Y-15070498D01*
X11495506Y-15129463D01*
X11398815Y-15208815D01*
X11319463Y-15305506D01*
X11260498Y-15415820D01*
X11224188Y-15535518D01*
X11211928Y-15660000D01*
X10752940Y-15660000D01*
X10750537Y-15655506D01*
X10671185Y-15558815D01*
X10574494Y-15479463D01*
X10464180Y-15420498D01*
X10344482Y-15384188D01*
X10220000Y-15371928D01*
X8320000Y-15371928D01*
X8195518Y-15384188D01*
X8075820Y-15420498D01*
X7965506Y-15479463D01*
X7876945Y-15552143D01*
X7302420Y-14977618D01*
X7371185Y-14921185D01*
X7450537Y-14824494D01*
X7509502Y-14714180D01*
X7545812Y-14594482D01*
X7558072Y-14470000D01*
X7558072Y-13470000D01*
X7545812Y-13345518D01*
X7509502Y-13225820D01*
X7450537Y-13115506D01*
X7371185Y-13018815D01*
X7274494Y-12939463D01*
X7164180Y-12880498D01*
X7044482Y-12844188D01*
X6920000Y-12831928D01*
X5020000Y-12831928D01*
X4895518Y-12844188D01*
X4775820Y-12880498D01*
X4665506Y-12939463D01*
X4568815Y-13018815D01*
X4489463Y-13115506D01*
X4440023Y-13208000D01*
X3810000Y-13208000D01*
X3797235Y-13209257D01*
X3761664Y-13091996D01*
X3702983Y-12982213D01*
X3624013Y-12885987D01*
X2668026Y-11930000D01*
X3871928Y-11930000D01*
X3884188Y-12054482D01*
X3920498Y-12174180D01*
X3979463Y-12284494D01*
X4058815Y-12381185D01*
X4155506Y-12460537D01*
X4265820Y-12519502D01*
X4385518Y-12555812D01*
X4510000Y-12568072D01*
X5174250Y-12565000D01*
X5333000Y-12406250D01*
X5333000Y-11557000D01*
X5587000Y-11557000D01*
X5587000Y-12406250D01*
X5745750Y-12565000D01*
X6410000Y-12568072D01*
X6534482Y-12555812D01*
X6654180Y-12519502D01*
X6764494Y-12460537D01*
X6861185Y-12381185D01*
X6940537Y-12284494D01*
X6999502Y-12174180D01*
X7035812Y-12054482D01*
X7048072Y-11930000D01*
X7045000Y-11715750D01*
X6886250Y-11557000D01*
X5587000Y-11557000D01*
X5333000Y-11557000D01*
X4033750Y-11557000D01*
X3875000Y-11715750D01*
X3871928Y-11930000D01*
X2668026Y-11930000D01*
X1905000Y-11166974D01*
X1905000Y-10930000D01*
X3871928Y-10930000D01*
X3875000Y-11144250D01*
X4033750Y-11303000D01*
X5333000Y-11303000D01*
X5333000Y-10453750D01*
X5587000Y-10453750D01*
X5587000Y-11303000D01*
X6886250Y-11303000D01*
X7045000Y-11144250D01*
X7048072Y-10930000D01*
X7681928Y-10930000D01*
X7681928Y-11930000D01*
X7694188Y-12054482D01*
X7730498Y-12174180D01*
X7789463Y-12284494D01*
X7868815Y-12381185D01*
X7965506Y-12460537D01*
X8075820Y-12519502D01*
X8195518Y-12555812D01*
X8320000Y-12568072D01*
X10220000Y-12568072D01*
X10344482Y-12555812D01*
X10464180Y-12519502D01*
X10574494Y-12460537D01*
X10671185Y-12381185D01*
X10750537Y-12284494D01*
X10809502Y-12174180D01*
X10845812Y-12054482D01*
X10858072Y-11930000D01*
X10858072Y-10930000D01*
X10845812Y-10805518D01*
X10809502Y-10685820D01*
X10750537Y-10575506D01*
X10671185Y-10478815D01*
X10574494Y-10399463D01*
X10464180Y-10340498D01*
X10344482Y-10304188D01*
X10220000Y-10291928D01*
X8320000Y-10291928D01*
X8195518Y-10304188D01*
X8075820Y-10340498D01*
X7965506Y-10399463D01*
X7868815Y-10478815D01*
X7789463Y-10575506D01*
X7730498Y-10685820D01*
X7694188Y-10805518D01*
X7681928Y-10930000D01*
X7048072Y-10930000D01*
X7035812Y-10805518D01*
X6999502Y-10685820D01*
X6940537Y-10575506D01*
X6861185Y-10478815D01*
X6764494Y-10399463D01*
X6654180Y-10340498D01*
X6534482Y-10304188D01*
X6410000Y-10291928D01*
X5745750Y-10295000D01*
X5587000Y-10453750D01*
X5333000Y-10453750D01*
X5174250Y-10295000D01*
X4510000Y-10291928D01*
X4385518Y-10304188D01*
X4265820Y-10340498D01*
X4155506Y-10399463D01*
X4058815Y-10478815D01*
X3979463Y-10575506D01*
X3920498Y-10685820D01*
X3884188Y-10805518D01*
X3871928Y-10930000D01*
X1905000Y-10930000D01*
X1905000Y-8390000D01*
X4381928Y-8390000D01*
X4381928Y-9390000D01*
X4394188Y-9514482D01*
X4430498Y-9634180D01*
X4489463Y-9744494D01*
X4568815Y-9841185D01*
X4665506Y-9920537D01*
X4775820Y-9979502D01*
X4895518Y-10015812D01*
X5020000Y-10028072D01*
X6920000Y-10028072D01*
X7044482Y-10015812D01*
X7164180Y-9979502D01*
X7274494Y-9920537D01*
X7371185Y-9841185D01*
X7450537Y-9744494D01*
X7509502Y-9634180D01*
X7545812Y-9514482D01*
X7558072Y-9390000D01*
X7558072Y-8390000D01*
X7545812Y-8265518D01*
X7509502Y-8145820D01*
X7450537Y-8035506D01*
X7371185Y-7938815D01*
X7274494Y-7859463D01*
X7164180Y-7800498D01*
X7044482Y-7764188D01*
X6920000Y-7751928D01*
X5020000Y-7751928D01*
X4895518Y-7764188D01*
X4775820Y-7800498D01*
X4665506Y-7859463D01*
X4568815Y-7938815D01*
X4489463Y-8035506D01*
X4430498Y-8145820D01*
X4394188Y-8265518D01*
X4381928Y-8390000D01*
X1905000Y-8390000D01*
X1905000Y-6850000D01*
X7681928Y-6850000D01*
X7694188Y-6974482D01*
X7730498Y-7094180D01*
X7789463Y-7204494D01*
X7868815Y-7301185D01*
X7965506Y-7380537D01*
X8075820Y-7439502D01*
X8195518Y-7475812D01*
X8320000Y-7488072D01*
X8984250Y-7485000D01*
X9143000Y-7326250D01*
X9143000Y-6477000D01*
X9397000Y-6477000D01*
X9397000Y-7326250D01*
X9555750Y-7485000D01*
X10220000Y-7488072D01*
X10344482Y-7475812D01*
X10464180Y-7439502D01*
X10574494Y-7380537D01*
X10671185Y-7301185D01*
X10750537Y-7204494D01*
X10809502Y-7094180D01*
X10845812Y-6974482D01*
X10858072Y-6850000D01*
X10855000Y-6635750D01*
X10696250Y-6477000D01*
X9397000Y-6477000D01*
X9143000Y-6477000D01*
X7843750Y-6477000D01*
X7685000Y-6635750D01*
X7681928Y-6850000D01*
X1905000Y-6850000D01*
X1905000Y-5850000D01*
X7681928Y-5850000D01*
X7685000Y-6064250D01*
X7843750Y-6223000D01*
X9143000Y-6223000D01*
X9143000Y-5373750D01*
X9397000Y-5373750D01*
X9397000Y-6223000D01*
X10696250Y-6223000D01*
X10855000Y-6064250D01*
X10858072Y-5850000D01*
X10845812Y-5725518D01*
X10809502Y-5605820D01*
X10750537Y-5495506D01*
X10671185Y-5398815D01*
X10574494Y-5319463D01*
X10464180Y-5260498D01*
X10344482Y-5224188D01*
X10220000Y-5211928D01*
X9555750Y-5215000D01*
X9397000Y-5373750D01*
X9143000Y-5373750D01*
X8984250Y-5215000D01*
X8320000Y-5211928D01*
X8195518Y-5224188D01*
X8075820Y-5260498D01*
X7965506Y-5319463D01*
X7868815Y-5398815D01*
X7789463Y-5495506D01*
X7730498Y-5605820D01*
X7694188Y-5725518D01*
X7681928Y-5850000D01*
X1905000Y-5850000D01*
X1905000Y-4948072D01*
X3110000Y-4948072D01*
X3234482Y-4935812D01*
X3354180Y-4899502D01*
X3464494Y-4840537D01*
X3561185Y-4761185D01*
X3640537Y-4664494D01*
X3699502Y-4554180D01*
X3735812Y-4434482D01*
X3748072Y-4310000D01*
X3748072Y-3310000D01*
X3735812Y-3185518D01*
X3699502Y-3065820D01*
X3640537Y-2955506D01*
X3561185Y-2858815D01*
X3464494Y-2779463D01*
X3354180Y-2720498D01*
X3234482Y-2684188D01*
X3110000Y-2671928D01*
X1905000Y-2671928D01*
X1905000Y-770000D01*
X3871928Y-770000D01*
X3871928Y-1770000D01*
X3884188Y-1894482D01*
X3920498Y-2014180D01*
X3979463Y-2124494D01*
X4058815Y-2221185D01*
X4155506Y-2300537D01*
X4265820Y-2359502D01*
X4385518Y-2395812D01*
X4510000Y-2408072D01*
X6410000Y-2408072D01*
X6534482Y-2395812D01*
X6654180Y-2359502D01*
X6764494Y-2300537D01*
X6861185Y-2221185D01*
X6940537Y-2124494D01*
X6999502Y-2014180D01*
X7035812Y-1894482D01*
X7048072Y-1770000D01*
X7048072Y-770000D01*
X7035812Y-645518D01*
X6999502Y-525820D01*
X6940537Y-415506D01*
X6861185Y-318815D01*
X6764494Y-239463D01*
X6654180Y-180498D01*
X6534482Y-144188D01*
X6410000Y-131928D01*
X4510000Y-131928D01*
X4385518Y-144188D01*
X4265820Y-180498D01*
X4155506Y-239463D01*
X4058815Y-318815D01*
X3979463Y-415506D01*
X3920498Y-525820D01*
X3884188Y-645518D01*
X3871928Y-770000D01*
X1905000Y-770000D01*
X1905000Y131928D01*
X3110000Y131928D01*
X3234482Y144188D01*
X3354180Y180498D01*
X3464494Y239463D01*
X3561185Y318815D01*
X3640537Y415506D01*
X3699502Y525820D01*
X3735812Y645518D01*
X3748072Y770000D01*
X3748072Y1770000D01*
X3747087Y1780000D01*
X4382913Y1780000D01*
X4381928Y1770000D01*
G36*
X-12573000Y-2413000D02*
G01*
X-12553000Y-2413000D01*
X-12553000Y-2667000D01*
X-12573000Y-2667000D01*
X-12573000Y-3860814D01*
X-12343109Y-3981481D01*
X-12068748Y-3884157D01*
X-11818645Y-3735178D01*
X-11679999Y-3610205D01*
X-11679999Y-3781521D01*
X-11684281Y-3825000D01*
X-11667195Y-3998490D01*
X-11616588Y-4165313D01*
X-11534410Y-4319059D01*
X-11451532Y-4420046D01*
X-11451529Y-4420049D01*
X-11423816Y-4453817D01*
X-11390049Y-4481529D01*
X-10559911Y-5311668D01*
X-10574494Y-5319463D01*
X-10671185Y-5398815D01*
X-10750537Y-5495506D01*
X-10809502Y-5605820D01*
X-10845812Y-5725518D01*
X-10858072Y-5850000D01*
X-10858072Y-6850000D01*
X-10845812Y-6974482D01*
X-10809502Y-7094180D01*
X-10750537Y-7204494D01*
X-10671185Y-7301185D01*
X-10574494Y-7380537D01*
X-10464180Y-7439502D01*
X-10344482Y-7475812D01*
X-10220000Y-7488072D01*
X-8933506Y-7488072D01*
X-8505000Y-7916579D01*
X-8504999Y-10291928D01*
X-10220000Y-10291928D01*
X-10344482Y-10304188D01*
X-10464180Y-10340498D01*
X-10574494Y-10399463D01*
X-10671185Y-10478815D01*
X-10750537Y-10575506D01*
X-10809502Y-10685820D01*
X-10845812Y-10805518D01*
X-10858072Y-10930000D01*
X-10858072Y-11930000D01*
X-10845812Y-12054482D01*
X-10809502Y-12174180D01*
X-10750537Y-12284494D01*
X-10671185Y-12381185D01*
X-10574494Y-12460537D01*
X-10464180Y-12519502D01*
X-10344482Y-12555812D01*
X-10220000Y-12568072D01*
X-8739651Y-12568072D01*
X-11265050Y-15093472D01*
X-11298817Y-15121184D01*
X-11326530Y-15154952D01*
X-11326533Y-15154955D01*
X-11384775Y-15225923D01*
X-11398815Y-15208815D01*
X-11495506Y-15129463D01*
X-11605820Y-15070498D01*
X-11725518Y-15034188D01*
X-11850000Y-15021928D01*
X-13550000Y-15021928D01*
X-13674482Y-15034188D01*
X-13794180Y-15070498D01*
X-13904494Y-15129463D01*
X-14001185Y-15208815D01*
X-14040526Y-15256752D01*
X-14159297Y-2667002D01*
X-14020156Y-2667002D01*
X-14141476Y-2896890D01*
X-14096825Y-3044099D01*
X-13971641Y-3306920D01*
X-13797588Y-3540269D01*
X-13581355Y-3735178D01*
X-13331252Y-3884157D01*
X-13056891Y-3981481D01*
X-12827000Y-3860814D01*
X-12827000Y-2667000D01*
X-12847000Y-2667000D01*
X-12847000Y-2413000D01*
X-12827000Y-2413000D01*
X-12827000Y-2393000D01*
X-12573000Y-2393000D01*
X-12573000Y-2413000D01*
X-12573000Y-2413000D01*
G37*
X-12573000Y-2413000D02*
X-12553000Y-2413000D01*
X-12553000Y-2667000D01*
X-12573000Y-2667000D01*
X-12573000Y-3860814D01*
X-12343109Y-3981481D01*
X-12068748Y-3884157D01*
X-11818645Y-3735178D01*
X-11679999Y-3610205D01*
X-11679999Y-3781521D01*
X-11684281Y-3825000D01*
X-11667195Y-3998490D01*
X-11616588Y-4165313D01*
X-11534410Y-4319059D01*
X-11451532Y-4420046D01*
X-11451529Y-4420049D01*
X-11423816Y-4453817D01*
X-11390049Y-4481529D01*
X-10559911Y-5311668D01*
X-10574494Y-5319463D01*
X-10671185Y-5398815D01*
X-10750537Y-5495506D01*
X-10809502Y-5605820D01*
X-10845812Y-5725518D01*
X-10858072Y-5850000D01*
X-10858072Y-6850000D01*
X-10845812Y-6974482D01*
X-10809502Y-7094180D01*
X-10750537Y-7204494D01*
X-10671185Y-7301185D01*
X-10574494Y-7380537D01*
X-10464180Y-7439502D01*
X-10344482Y-7475812D01*
X-10220000Y-7488072D01*
X-8933506Y-7488072D01*
X-8505000Y-7916579D01*
X-8504999Y-10291928D01*
X-10220000Y-10291928D01*
X-10344482Y-10304188D01*
X-10464180Y-10340498D01*
X-10574494Y-10399463D01*
X-10671185Y-10478815D01*
X-10750537Y-10575506D01*
X-10809502Y-10685820D01*
X-10845812Y-10805518D01*
X-10858072Y-10930000D01*
X-10858072Y-11930000D01*
X-10845812Y-12054482D01*
X-10809502Y-12174180D01*
X-10750537Y-12284494D01*
X-10671185Y-12381185D01*
X-10574494Y-12460537D01*
X-10464180Y-12519502D01*
X-10344482Y-12555812D01*
X-10220000Y-12568072D01*
X-8739651Y-12568072D01*
X-11265050Y-15093472D01*
X-11298817Y-15121184D01*
X-11326530Y-15154952D01*
X-11326533Y-15154955D01*
X-11384775Y-15225923D01*
X-11398815Y-15208815D01*
X-11495506Y-15129463D01*
X-11605820Y-15070498D01*
X-11725518Y-15034188D01*
X-11850000Y-15021928D01*
X-13550000Y-15021928D01*
X-13674482Y-15034188D01*
X-13794180Y-15070498D01*
X-13904494Y-15129463D01*
X-14001185Y-15208815D01*
X-14040526Y-15256752D01*
X-14159297Y-2667002D01*
X-14020156Y-2667002D01*
X-14141476Y-2896890D01*
X-14096825Y-3044099D01*
X-13971641Y-3306920D01*
X-13797588Y-3540269D01*
X-13581355Y-3735178D01*
X-13331252Y-3884157D01*
X-13056891Y-3981481D01*
X-12827000Y-3860814D01*
X-12827000Y-2667000D01*
X-12847000Y-2667000D01*
X-12847000Y-2413000D01*
X-12827000Y-2413000D01*
X-12827000Y-2393000D01*
X-12573000Y-2393000D01*
X-12573000Y-2413000D01*
G36*
X-3699502Y-3065820D02*
G01*
X-3735812Y-3185518D01*
X-3748072Y-3310000D01*
X-3748072Y-4310000D01*
X-3735812Y-4434482D01*
X-3699502Y-4554180D01*
X-3640537Y-4664494D01*
X-3561185Y-4761185D01*
X-3464494Y-4840537D01*
X-3354180Y-4899502D01*
X-3234482Y-4935812D01*
X-3110000Y-4948072D01*
X-1905000Y-4948072D01*
X-1905000Y-12831928D01*
X-3110000Y-12831928D01*
X-3234482Y-12844188D01*
X-3354180Y-12880498D01*
X-3415270Y-12913152D01*
X-4008521Y-12319901D01*
X-3979463Y-12284494D01*
X-3920498Y-12174180D01*
X-3884188Y-12054482D01*
X-3871928Y-11930000D01*
X-3875000Y-11715750D01*
X-4033750Y-11557000D01*
X-5333000Y-11557000D01*
X-5333000Y-11577000D01*
X-5587000Y-11577000D01*
X-5587000Y-11557000D01*
X-5607000Y-11557000D01*
X-5607000Y-11303000D01*
X-5587000Y-11303000D01*
X-5587000Y-10453750D01*
X-5333000Y-10453750D01*
X-5333000Y-11303000D01*
X-4033750Y-11303000D01*
X-3875000Y-11144250D01*
X-3871928Y-10930000D01*
X-3884188Y-10805518D01*
X-3920498Y-10685820D01*
X-3979463Y-10575506D01*
X-4058815Y-10478815D01*
X-4155506Y-10399463D01*
X-4265820Y-10340498D01*
X-4385518Y-10304188D01*
X-4510000Y-10291928D01*
X-5174250Y-10295000D01*
X-5333000Y-10453750D01*
X-5587000Y-10453750D01*
X-5745750Y-10295000D01*
X-6410000Y-10291928D01*
X-6534482Y-10304188D01*
X-6654180Y-10340498D01*
X-6735000Y-10383698D01*
X-6735000Y-10028072D01*
X-5020000Y-10028072D01*
X-4895518Y-10015812D01*
X-4775820Y-9979502D01*
X-4665506Y-9920537D01*
X-4568815Y-9841185D01*
X-4489463Y-9744494D01*
X-4430498Y-9634180D01*
X-4394188Y-9514482D01*
X-4381928Y-9390000D01*
X-4381928Y-8390000D01*
X-4394188Y-8265518D01*
X-4430498Y-8145820D01*
X-4489463Y-8035506D01*
X-4568815Y-7938815D01*
X-4665506Y-7859463D01*
X-4775820Y-7800498D01*
X-4895518Y-7764188D01*
X-5020000Y-7751928D01*
X-6735000Y-7751928D01*
X-6735000Y-7593465D01*
X-6730719Y-7549999D01*
X-6735000Y-7506533D01*
X-6735000Y-7506523D01*
X-6747805Y-7376510D01*
X-6798411Y-7209687D01*
X-6880589Y-7055941D01*
X-6915022Y-7013985D01*
X-6963468Y-6954953D01*
X-6963470Y-6954951D01*
X-6991183Y-6921183D01*
X-7024950Y-6893471D01*
X-7681928Y-6236494D01*
X-7681928Y-5850000D01*
X-7694188Y-5725518D01*
X-7730498Y-5605820D01*
X-7789463Y-5495506D01*
X-7819410Y-5459016D01*
X-7226555Y-4866161D01*
X-7164180Y-4899502D01*
X-7044482Y-4935812D01*
X-6920000Y-4948072D01*
X-5020000Y-4948072D01*
X-4895518Y-4935812D01*
X-4775820Y-4899502D01*
X-4665506Y-4840537D01*
X-4568815Y-4761185D01*
X-4489463Y-4664494D01*
X-4430498Y-4554180D01*
X-4394188Y-4434482D01*
X-4381928Y-4310000D01*
X-4381928Y-3746729D01*
X-3697760Y-3062562D01*
X-3699502Y-3065820D01*
X-3699502Y-3065820D01*
G37*
X-3699502Y-3065820D02*
X-3735812Y-3185518D01*
X-3748072Y-3310000D01*
X-3748072Y-4310000D01*
X-3735812Y-4434482D01*
X-3699502Y-4554180D01*
X-3640537Y-4664494D01*
X-3561185Y-4761185D01*
X-3464494Y-4840537D01*
X-3354180Y-4899502D01*
X-3234482Y-4935812D01*
X-3110000Y-4948072D01*
X-1905000Y-4948072D01*
X-1905000Y-12831928D01*
X-3110000Y-12831928D01*
X-3234482Y-12844188D01*
X-3354180Y-12880498D01*
X-3415270Y-12913152D01*
X-4008521Y-12319901D01*
X-3979463Y-12284494D01*
X-3920498Y-12174180D01*
X-3884188Y-12054482D01*
X-3871928Y-11930000D01*
X-3875000Y-11715750D01*
X-4033750Y-11557000D01*
X-5333000Y-11557000D01*
X-5333000Y-11577000D01*
X-5587000Y-11577000D01*
X-5587000Y-11557000D01*
X-5607000Y-11557000D01*
X-5607000Y-11303000D01*
X-5587000Y-11303000D01*
X-5587000Y-10453750D01*
X-5333000Y-10453750D01*
X-5333000Y-11303000D01*
X-4033750Y-11303000D01*
X-3875000Y-11144250D01*
X-3871928Y-10930000D01*
X-3884188Y-10805518D01*
X-3920498Y-10685820D01*
X-3979463Y-10575506D01*
X-4058815Y-10478815D01*
X-4155506Y-10399463D01*
X-4265820Y-10340498D01*
X-4385518Y-10304188D01*
X-4510000Y-10291928D01*
X-5174250Y-10295000D01*
X-5333000Y-10453750D01*
X-5587000Y-10453750D01*
X-5745750Y-10295000D01*
X-6410000Y-10291928D01*
X-6534482Y-10304188D01*
X-6654180Y-10340498D01*
X-6735000Y-10383698D01*
X-6735000Y-10028072D01*
X-5020000Y-10028072D01*
X-4895518Y-10015812D01*
X-4775820Y-9979502D01*
X-4665506Y-9920537D01*
X-4568815Y-9841185D01*
X-4489463Y-9744494D01*
X-4430498Y-9634180D01*
X-4394188Y-9514482D01*
X-4381928Y-9390000D01*
X-4381928Y-8390000D01*
X-4394188Y-8265518D01*
X-4430498Y-8145820D01*
X-4489463Y-8035506D01*
X-4568815Y-7938815D01*
X-4665506Y-7859463D01*
X-4775820Y-7800498D01*
X-4895518Y-7764188D01*
X-5020000Y-7751928D01*
X-6735000Y-7751928D01*
X-6735000Y-7593465D01*
X-6730719Y-7549999D01*
X-6735000Y-7506533D01*
X-6735000Y-7506523D01*
X-6747805Y-7376510D01*
X-6798411Y-7209687D01*
X-6880589Y-7055941D01*
X-6915022Y-7013985D01*
X-6963468Y-6954953D01*
X-6963470Y-6954951D01*
X-6991183Y-6921183D01*
X-7024950Y-6893471D01*
X-7681928Y-6236494D01*
X-7681928Y-5850000D01*
X-7694188Y-5725518D01*
X-7730498Y-5605820D01*
X-7789463Y-5495506D01*
X-7819410Y-5459016D01*
X-7226555Y-4866161D01*
X-7164180Y-4899502D01*
X-7044482Y-4935812D01*
X-6920000Y-4948072D01*
X-5020000Y-4948072D01*
X-4895518Y-4935812D01*
X-4775820Y-4899502D01*
X-4665506Y-4840537D01*
X-4568815Y-4761185D01*
X-4489463Y-4664494D01*
X-4430498Y-4554180D01*
X-4394188Y-4434482D01*
X-4381928Y-4310000D01*
X-4381928Y-3746729D01*
X-3697760Y-3062562D01*
X-3699502Y-3065820D01*
G36*
X6485002Y7939804D02*
G01*
X6033271Y7488072D01*
X5020000Y7488072D01*
X4895518Y7475812D01*
X4775820Y7439502D01*
X4665506Y7380537D01*
X4568815Y7301185D01*
X4489463Y7204494D01*
X4430498Y7094180D01*
X4394188Y6974482D01*
X4381928Y6850000D01*
X4381928Y5850000D01*
X4394188Y5725518D01*
X4430498Y5605820D01*
X4489463Y5495506D01*
X4568815Y5398815D01*
X4665506Y5319463D01*
X4775820Y5260498D01*
X4895518Y5224188D01*
X5020000Y5211928D01*
X6920000Y5211928D01*
X7044482Y5224188D01*
X7164180Y5260498D01*
X7235000Y5298353D01*
X7235000Y5122334D01*
X7231323Y5085001D01*
X7235000Y5047668D01*
X7244810Y4948072D01*
X7245997Y4936016D01*
X7289453Y4792755D01*
X7360025Y4660725D01*
X7431200Y4573999D01*
X7454999Y4545000D01*
X7483997Y4521202D01*
X7683118Y4322081D01*
X7681928Y4310000D01*
X7681928Y3797534D01*
X7094170Y3209776D01*
X7041000Y3238196D01*
X7048072Y3310000D01*
X7045000Y3524250D01*
X6886250Y3683000D01*
X5587000Y3683000D01*
X5587000Y3663000D01*
X5333000Y3663000D01*
X5333000Y3683000D01*
X5313000Y3683000D01*
X5313000Y3937000D01*
X5333000Y3937000D01*
X5333000Y4786250D01*
X5587000Y4786250D01*
X5587000Y3937000D01*
X6886250Y3937000D01*
X7045000Y4095750D01*
X7048072Y4310000D01*
X7035812Y4434482D01*
X6999502Y4554180D01*
X6940537Y4664494D01*
X6861185Y4761185D01*
X6764494Y4840537D01*
X6654180Y4899502D01*
X6534482Y4935812D01*
X6410000Y4948072D01*
X5745750Y4945000D01*
X5587000Y4786250D01*
X5333000Y4786250D01*
X5174250Y4945000D01*
X4510000Y4948072D01*
X4385518Y4935812D01*
X4380000Y4934138D01*
X4380000Y10033000D01*
X6485002Y10033000D01*
X6485002Y7939804D01*
X6485002Y7939804D01*
G37*
X6485002Y7939804D02*
X6033271Y7488072D01*
X5020000Y7488072D01*
X4895518Y7475812D01*
X4775820Y7439502D01*
X4665506Y7380537D01*
X4568815Y7301185D01*
X4489463Y7204494D01*
X4430498Y7094180D01*
X4394188Y6974482D01*
X4381928Y6850000D01*
X4381928Y5850000D01*
X4394188Y5725518D01*
X4430498Y5605820D01*
X4489463Y5495506D01*
X4568815Y5398815D01*
X4665506Y5319463D01*
X4775820Y5260498D01*
X4895518Y5224188D01*
X5020000Y5211928D01*
X6920000Y5211928D01*
X7044482Y5224188D01*
X7164180Y5260498D01*
X7235000Y5298353D01*
X7235000Y5122334D01*
X7231323Y5085001D01*
X7235000Y5047668D01*
X7244810Y4948072D01*
X7245997Y4936016D01*
X7289453Y4792755D01*
X7360025Y4660725D01*
X7431200Y4573999D01*
X7454999Y4545000D01*
X7483997Y4521202D01*
X7683118Y4322081D01*
X7681928Y4310000D01*
X7681928Y3797534D01*
X7094170Y3209776D01*
X7041000Y3238196D01*
X7048072Y3310000D01*
X7045000Y3524250D01*
X6886250Y3683000D01*
X5587000Y3683000D01*
X5587000Y3663000D01*
X5333000Y3663000D01*
X5333000Y3683000D01*
X5313000Y3683000D01*
X5313000Y3937000D01*
X5333000Y3937000D01*
X5333000Y4786250D01*
X5587000Y4786250D01*
X5587000Y3937000D01*
X6886250Y3937000D01*
X7045000Y4095750D01*
X7048072Y4310000D01*
X7035812Y4434482D01*
X6999502Y4554180D01*
X6940537Y4664494D01*
X6861185Y4761185D01*
X6764494Y4840537D01*
X6654180Y4899502D01*
X6534482Y4935812D01*
X6410000Y4948072D01*
X5745750Y4945000D01*
X5587000Y4786250D01*
X5333000Y4786250D01*
X5174250Y4945000D01*
X4510000Y4948072D01*
X4385518Y4935812D01*
X4380000Y4934138D01*
X4380000Y10033000D01*
X6485002Y10033000D01*
X6485002Y7939804D01*
G36*
X-7556237Y11948631D02*
G01*
X-7558072Y11930000D01*
X-7558072Y10930000D01*
X-7545812Y10805518D01*
X-7509502Y10685820D01*
X-7450537Y10575506D01*
X-7371185Y10478815D01*
X-7274494Y10399463D01*
X-7164180Y10340498D01*
X-7044482Y10304188D01*
X-6920000Y10291928D01*
X-5020000Y10291928D01*
X-4895518Y10304188D01*
X-4775820Y10340498D01*
X-4665506Y10399463D01*
X-4568815Y10478815D01*
X-4489463Y10575506D01*
X-4430498Y10685820D01*
X-4394188Y10805518D01*
X-4381928Y10930000D01*
X-4381928Y11430000D01*
X-3745000Y11430000D01*
X-3745000Y11302998D01*
X-3586252Y11302998D01*
X-3745000Y11144250D01*
X-3748072Y10930000D01*
X-3735812Y10805518D01*
X-3699502Y10685820D01*
X-3640537Y10575506D01*
X-3561185Y10478815D01*
X-3464494Y10399463D01*
X-3354180Y10340498D01*
X-3234482Y10304188D01*
X-3110000Y10291928D01*
X-2445750Y10295000D01*
X-2287000Y10453750D01*
X-2287000Y11303000D01*
X-2307000Y11303000D01*
X-2307000Y11430000D01*
X-2013000Y11430000D01*
X-2013000Y11303000D01*
X-2033000Y11303000D01*
X-2033000Y10453750D01*
X-1905000Y10325750D01*
X-1905000Y4845000D01*
X-2006939Y4845000D01*
X-2206898Y4805226D01*
X-2395256Y4727205D01*
X-2437468Y4699000D01*
X-4007781Y4699000D01*
X-4058815Y4761185D01*
X-4155506Y4840537D01*
X-4265820Y4899502D01*
X-4385518Y4935812D01*
X-4510000Y4948072D01*
X-6410000Y4948072D01*
X-6534482Y4935812D01*
X-6654180Y4899502D01*
X-6764494Y4840537D01*
X-6861185Y4761185D01*
X-6912219Y4699000D01*
X-7817781Y4699000D01*
X-7868815Y4761185D01*
X-7965506Y4840537D01*
X-8075820Y4899502D01*
X-8195518Y4935812D01*
X-8320000Y4948072D01*
X-10014999Y4948072D01*
X-10014999Y6850000D01*
X-7558072Y6850000D01*
X-7558072Y5850000D01*
X-7545812Y5725518D01*
X-7509502Y5605820D01*
X-7450537Y5495506D01*
X-7371185Y5398815D01*
X-7274494Y5319463D01*
X-7164180Y5260498D01*
X-7044482Y5224188D01*
X-6920000Y5211928D01*
X-5020000Y5211928D01*
X-4895518Y5224188D01*
X-4775820Y5260498D01*
X-4665506Y5319463D01*
X-4568815Y5398815D01*
X-4489463Y5495506D01*
X-4430498Y5605820D01*
X-4394188Y5725518D01*
X-4381928Y5850000D01*
X-4381928Y6850000D01*
X-4394188Y6974482D01*
X-4430498Y7094180D01*
X-4489463Y7204494D01*
X-4568815Y7301185D01*
X-4665506Y7380537D01*
X-4775820Y7439502D01*
X-4895518Y7475812D01*
X-5020000Y7488072D01*
X-6920000Y7488072D01*
X-7044482Y7475812D01*
X-7164180Y7439502D01*
X-7274494Y7380537D01*
X-7371185Y7301185D01*
X-7450537Y7204494D01*
X-7509502Y7094180D01*
X-7545812Y6974482D01*
X-7558072Y6850000D01*
X-10014999Y6850000D01*
X-10014999Y7751928D01*
X-8320000Y7751928D01*
X-8195518Y7764188D01*
X-8075820Y7800498D01*
X-7965506Y7859463D01*
X-7868815Y7938815D01*
X-7789463Y8035506D01*
X-7730498Y8145820D01*
X-7694188Y8265518D01*
X-7681928Y8390000D01*
X-7681928Y9390000D01*
X-7694188Y9514482D01*
X-7730498Y9634180D01*
X-7789463Y9744494D01*
X-7868815Y9841185D01*
X-7965506Y9920537D01*
X-8075820Y9979502D01*
X-8195518Y10015812D01*
X-8320000Y10028072D01*
X-10014999Y10028072D01*
X-10014999Y12506538D01*
X-10010718Y12550007D01*
X-10014999Y12593476D01*
X-10014999Y12593484D01*
X-10027804Y12723497D01*
X-10060697Y12831928D01*
X-8439534Y12831928D01*
X-7556237Y11948631D01*
X-7556237Y11948631D01*
G37*
X-7556237Y11948631D02*
X-7558072Y11930000D01*
X-7558072Y10930000D01*
X-7545812Y10805518D01*
X-7509502Y10685820D01*
X-7450537Y10575506D01*
X-7371185Y10478815D01*
X-7274494Y10399463D01*
X-7164180Y10340498D01*
X-7044482Y10304188D01*
X-6920000Y10291928D01*
X-5020000Y10291928D01*
X-4895518Y10304188D01*
X-4775820Y10340498D01*
X-4665506Y10399463D01*
X-4568815Y10478815D01*
X-4489463Y10575506D01*
X-4430498Y10685820D01*
X-4394188Y10805518D01*
X-4381928Y10930000D01*
X-4381928Y11430000D01*
X-3745000Y11430000D01*
X-3745000Y11302998D01*
X-3586252Y11302998D01*
X-3745000Y11144250D01*
X-3748072Y10930000D01*
X-3735812Y10805518D01*
X-3699502Y10685820D01*
X-3640537Y10575506D01*
X-3561185Y10478815D01*
X-3464494Y10399463D01*
X-3354180Y10340498D01*
X-3234482Y10304188D01*
X-3110000Y10291928D01*
X-2445750Y10295000D01*
X-2287000Y10453750D01*
X-2287000Y11303000D01*
X-2307000Y11303000D01*
X-2307000Y11430000D01*
X-2013000Y11430000D01*
X-2013000Y11303000D01*
X-2033000Y11303000D01*
X-2033000Y10453750D01*
X-1905000Y10325750D01*
X-1905000Y4845000D01*
X-2006939Y4845000D01*
X-2206898Y4805226D01*
X-2395256Y4727205D01*
X-2437468Y4699000D01*
X-4007781Y4699000D01*
X-4058815Y4761185D01*
X-4155506Y4840537D01*
X-4265820Y4899502D01*
X-4385518Y4935812D01*
X-4510000Y4948072D01*
X-6410000Y4948072D01*
X-6534482Y4935812D01*
X-6654180Y4899502D01*
X-6764494Y4840537D01*
X-6861185Y4761185D01*
X-6912219Y4699000D01*
X-7817781Y4699000D01*
X-7868815Y4761185D01*
X-7965506Y4840537D01*
X-8075820Y4899502D01*
X-8195518Y4935812D01*
X-8320000Y4948072D01*
X-10014999Y4948072D01*
X-10014999Y6850000D01*
X-7558072Y6850000D01*
X-7558072Y5850000D01*
X-7545812Y5725518D01*
X-7509502Y5605820D01*
X-7450537Y5495506D01*
X-7371185Y5398815D01*
X-7274494Y5319463D01*
X-7164180Y5260498D01*
X-7044482Y5224188D01*
X-6920000Y5211928D01*
X-5020000Y5211928D01*
X-4895518Y5224188D01*
X-4775820Y5260498D01*
X-4665506Y5319463D01*
X-4568815Y5398815D01*
X-4489463Y5495506D01*
X-4430498Y5605820D01*
X-4394188Y5725518D01*
X-4381928Y5850000D01*
X-4381928Y6850000D01*
X-4394188Y6974482D01*
X-4430498Y7094180D01*
X-4489463Y7204494D01*
X-4568815Y7301185D01*
X-4665506Y7380537D01*
X-4775820Y7439502D01*
X-4895518Y7475812D01*
X-5020000Y7488072D01*
X-6920000Y7488072D01*
X-7044482Y7475812D01*
X-7164180Y7439502D01*
X-7274494Y7380537D01*
X-7371185Y7301185D01*
X-7450537Y7204494D01*
X-7509502Y7094180D01*
X-7545812Y6974482D01*
X-7558072Y6850000D01*
X-10014999Y6850000D01*
X-10014999Y7751928D01*
X-8320000Y7751928D01*
X-8195518Y7764188D01*
X-8075820Y7800498D01*
X-7965506Y7859463D01*
X-7868815Y7938815D01*
X-7789463Y8035506D01*
X-7730498Y8145820D01*
X-7694188Y8265518D01*
X-7681928Y8390000D01*
X-7681928Y9390000D01*
X-7694188Y9514482D01*
X-7730498Y9634180D01*
X-7789463Y9744494D01*
X-7868815Y9841185D01*
X-7965506Y9920537D01*
X-8075820Y9979502D01*
X-8195518Y10015812D01*
X-8320000Y10028072D01*
X-10014999Y10028072D01*
X-10014999Y12506538D01*
X-10010718Y12550007D01*
X-10014999Y12593476D01*
X-10014999Y12593484D01*
X-10027804Y12723497D01*
X-10060697Y12831928D01*
X-8439534Y12831928D01*
X-7556237Y11948631D01*
G36*
X-11784999Y9013000D02*
G01*
X-11877000Y9013000D01*
X-11877000Y9033000D01*
X-11897000Y9033000D01*
X-11897000Y9287000D01*
X-11877000Y9287000D01*
X-11877000Y9307000D01*
X-11784999Y9307000D01*
X-11784999Y9013000D01*
X-11784999Y9013000D01*
G37*
X-11784999Y9013000D02*
X-11877000Y9013000D01*
X-11877000Y9033000D01*
X-11897000Y9033000D01*
X-11897000Y9287000D01*
X-11877000Y9287000D01*
X-11877000Y9307000D01*
X-11784999Y9307000D01*
X-11784999Y9013000D01*
G36*
X11870986Y15269294D02*
G01*
X12128966Y15131401D01*
X12408889Y15046487D01*
X12627050Y15025000D01*
X12772950Y15025000D01*
X12991111Y15046487D01*
X13271034Y15131401D01*
X13465000Y15235078D01*
X13465001Y10028072D01*
X13400000Y10028072D01*
X13275518Y10015812D01*
X13155820Y9979502D01*
X13045506Y9920537D01*
X12948815Y9841185D01*
X12869463Y9744494D01*
X12810498Y9634180D01*
X12774188Y9514482D01*
X12761928Y9390000D01*
X12761928Y9017000D01*
X11492803Y9017000D01*
X11108806Y9400997D01*
X11085003Y9430001D01*
X10969278Y9524974D01*
X10837249Y9595546D01*
X10819597Y9600901D01*
X10809502Y9634180D01*
X10750537Y9744494D01*
X10671185Y9841185D01*
X10574494Y9920537D01*
X10464180Y9979502D01*
X10344482Y10015812D01*
X10220000Y10028072D01*
X8754999Y10028072D01*
X8754999Y10930000D01*
X9461928Y10930000D01*
X9474188Y10805518D01*
X9510498Y10685820D01*
X9569463Y10575506D01*
X9648815Y10478815D01*
X9745506Y10399463D01*
X9855820Y10340498D01*
X9975518Y10304188D01*
X10100000Y10291928D01*
X10764250Y10295000D01*
X10923000Y10453750D01*
X10923000Y11303000D01*
X11177000Y11303000D01*
X11177000Y10453750D01*
X11335750Y10295000D01*
X12000000Y10291928D01*
X12124482Y10304188D01*
X12244180Y10340498D01*
X12354494Y10399463D01*
X12451185Y10478815D01*
X12530537Y10575506D01*
X12589502Y10685820D01*
X12625812Y10805518D01*
X12638072Y10930000D01*
X12635000Y11144250D01*
X12476250Y11303000D01*
X11177000Y11303000D01*
X10923000Y11303000D01*
X9623750Y11303000D01*
X9465000Y11144250D01*
X9461928Y10930000D01*
X8754999Y10930000D01*
X8754999Y11930000D01*
X9461928Y11930000D01*
X9465000Y11715750D01*
X9623750Y11557000D01*
X10923000Y11557000D01*
X10923000Y12406250D01*
X11177000Y12406250D01*
X11177000Y11557000D01*
X12476250Y11557000D01*
X12635000Y11715750D01*
X12638072Y11930000D01*
X12625812Y12054482D01*
X12589502Y12174180D01*
X12530537Y12284494D01*
X12451185Y12381185D01*
X12354494Y12460537D01*
X12244180Y12519502D01*
X12124482Y12555812D01*
X12000000Y12568072D01*
X11335750Y12565000D01*
X11177000Y12406250D01*
X10923000Y12406250D01*
X10764250Y12565000D01*
X10100000Y12568072D01*
X9975518Y12555812D01*
X9855820Y12519502D01*
X9745506Y12460537D01*
X9648815Y12381185D01*
X9569463Y12284494D01*
X9510498Y12174180D01*
X9474188Y12054482D01*
X9461928Y11930000D01*
X8754999Y11930000D01*
X8754999Y12831928D01*
X10220000Y12831928D01*
X10344482Y12844188D01*
X10464180Y12880498D01*
X10574494Y12939463D01*
X10671185Y13018815D01*
X10750537Y13115506D01*
X10809502Y13225820D01*
X10845812Y13345518D01*
X10858072Y13470000D01*
X10858072Y14470000D01*
X10856882Y14482081D01*
X11746368Y15371566D01*
X11870986Y15269294D01*
X11870986Y15269294D01*
G37*
X11870986Y15269294D02*
X12128966Y15131401D01*
X12408889Y15046487D01*
X12627050Y15025000D01*
X12772950Y15025000D01*
X12991111Y15046487D01*
X13271034Y15131401D01*
X13465000Y15235078D01*
X13465001Y10028072D01*
X13400000Y10028072D01*
X13275518Y10015812D01*
X13155820Y9979502D01*
X13045506Y9920537D01*
X12948815Y9841185D01*
X12869463Y9744494D01*
X12810498Y9634180D01*
X12774188Y9514482D01*
X12761928Y9390000D01*
X12761928Y9017000D01*
X11492803Y9017000D01*
X11108806Y9400997D01*
X11085003Y9430001D01*
X10969278Y9524974D01*
X10837249Y9595546D01*
X10819597Y9600901D01*
X10809502Y9634180D01*
X10750537Y9744494D01*
X10671185Y9841185D01*
X10574494Y9920537D01*
X10464180Y9979502D01*
X10344482Y10015812D01*
X10220000Y10028072D01*
X8754999Y10028072D01*
X8754999Y10930000D01*
X9461928Y10930000D01*
X9474188Y10805518D01*
X9510498Y10685820D01*
X9569463Y10575506D01*
X9648815Y10478815D01*
X9745506Y10399463D01*
X9855820Y10340498D01*
X9975518Y10304188D01*
X10100000Y10291928D01*
X10764250Y10295000D01*
X10923000Y10453750D01*
X10923000Y11303000D01*
X11177000Y11303000D01*
X11177000Y10453750D01*
X11335750Y10295000D01*
X12000000Y10291928D01*
X12124482Y10304188D01*
X12244180Y10340498D01*
X12354494Y10399463D01*
X12451185Y10478815D01*
X12530537Y10575506D01*
X12589502Y10685820D01*
X12625812Y10805518D01*
X12638072Y10930000D01*
X12635000Y11144250D01*
X12476250Y11303000D01*
X11177000Y11303000D01*
X10923000Y11303000D01*
X9623750Y11303000D01*
X9465000Y11144250D01*
X9461928Y10930000D01*
X8754999Y10930000D01*
X8754999Y11930000D01*
X9461928Y11930000D01*
X9465000Y11715750D01*
X9623750Y11557000D01*
X10923000Y11557000D01*
X10923000Y12406250D01*
X11177000Y12406250D01*
X11177000Y11557000D01*
X12476250Y11557000D01*
X12635000Y11715750D01*
X12638072Y11930000D01*
X12625812Y12054482D01*
X12589502Y12174180D01*
X12530537Y12284494D01*
X12451185Y12381185D01*
X12354494Y12460537D01*
X12244180Y12519502D01*
X12124482Y12555812D01*
X12000000Y12568072D01*
X11335750Y12565000D01*
X11177000Y12406250D01*
X10923000Y12406250D01*
X10764250Y12565000D01*
X10100000Y12568072D01*
X9975518Y12555812D01*
X9855820Y12519502D01*
X9745506Y12460537D01*
X9648815Y12381185D01*
X9569463Y12284494D01*
X9510498Y12174180D01*
X9474188Y12054482D01*
X9461928Y11930000D01*
X8754999Y11930000D01*
X8754999Y12831928D01*
X10220000Y12831928D01*
X10344482Y12844188D01*
X10464180Y12880498D01*
X10574494Y12939463D01*
X10671185Y13018815D01*
X10750537Y13115506D01*
X10809502Y13225820D01*
X10845812Y13345518D01*
X10858072Y13470000D01*
X10858072Y14470000D01*
X10856882Y14482081D01*
X11746368Y15371566D01*
X11870986Y15269294D01*
G36*
X2860000Y12566916D02*
G01*
X2445750Y12565000D01*
X2287000Y12406250D01*
X2287000Y11557000D01*
X2307000Y11557000D01*
X2307000Y11303000D01*
X2287000Y11303000D01*
X2287000Y10453750D01*
X2445750Y10295000D01*
X2860000Y10293084D01*
X2860001Y9017000D01*
X1905000Y9017000D01*
X1905000Y10325750D01*
X2033000Y10453750D01*
X2033000Y11303000D01*
X2013000Y11303000D01*
X2013000Y11557000D01*
X2033000Y11557000D01*
X2033000Y12406250D01*
X1905000Y12534250D01*
X1905000Y12700000D01*
X1892799Y12823882D01*
X1856664Y12943004D01*
X1797983Y13052787D01*
X1719013Y13149013D01*
X1644999Y13223027D01*
X1644999Y13843000D01*
X2860000Y13843000D01*
X2860000Y12566916D01*
X2860000Y12566916D01*
G37*
X2860000Y12566916D02*
X2445750Y12565000D01*
X2287000Y12406250D01*
X2287000Y11557000D01*
X2307000Y11557000D01*
X2307000Y11303000D01*
X2287000Y11303000D01*
X2287000Y10453750D01*
X2445750Y10295000D01*
X2860000Y10293084D01*
X2860001Y9017000D01*
X1905000Y9017000D01*
X1905000Y10325750D01*
X2033000Y10453750D01*
X2033000Y11303000D01*
X2013000Y11303000D01*
X2013000Y11557000D01*
X2033000Y11557000D01*
X2033000Y12406250D01*
X1905000Y12534250D01*
X1905000Y12700000D01*
X1892799Y12823882D01*
X1856664Y12943004D01*
X1797983Y13052787D01*
X1719013Y13149013D01*
X1644999Y13223027D01*
X1644999Y13843000D01*
X2860000Y13843000D01*
X2860000Y12566916D01*
G36*
X-12601185Y10061185D02*
G01*
X-12680537Y9964494D01*
X-12700000Y9928082D01*
X-12719463Y9964494D01*
X-12798815Y10061185D01*
X-12811905Y10071928D01*
X-12588095Y10071928D01*
X-12601185Y10061185D01*
X-12601185Y10061185D01*
G37*
X-12601185Y10061185D02*
X-12680537Y9964494D01*
X-12700000Y9928082D01*
X-12719463Y9964494D01*
X-12798815Y10061185D01*
X-12811905Y10071928D01*
X-12588095Y10071928D01*
X-12601185Y10061185D01*
G36*
X-12573000Y16637000D02*
G01*
X-12553000Y16637000D01*
X-12553000Y16383000D01*
X-12573000Y16383000D01*
X-12573000Y16002000D01*
X-12827000Y16002000D01*
X-12827000Y16383000D01*
X-12847000Y16383000D01*
X-12847000Y16637000D01*
X-12827000Y16637000D01*
X-12827000Y16657000D01*
X-12573000Y16657000D01*
X-12573000Y16637000D01*
X-12573000Y16637000D01*
G37*
X-12573000Y16637000D02*
X-12553000Y16637000D01*
X-12553000Y16383000D01*
X-12573000Y16383000D01*
X-12573000Y16002000D01*
X-12827000Y16002000D01*
X-12827000Y16383000D01*
X-12847000Y16383000D01*
X-12847000Y16637000D01*
X-12827000Y16637000D01*
X-12827000Y16657000D01*
X-12573000Y16657000D01*
X-12573000Y16637000D01*
G36*
X508000Y22225000D02*
G01*
X510440Y22200224D01*
X517667Y22176399D01*
X529403Y22154443D01*
X545197Y22135197D01*
X564443Y22119403D01*
X574305Y22114132D01*
X571928Y22090000D01*
X571928Y21090000D01*
X573118Y21077919D01*
X374002Y20878803D01*
X344998Y20855000D01*
X289870Y20787825D01*
X250025Y20739275D01*
X214490Y20672794D01*
X179453Y20607245D01*
X135996Y20463984D01*
X124999Y20352331D01*
X124999Y20352321D01*
X121323Y20314999D01*
X124999Y20277677D01*
X124999Y17399000D01*
X-707781Y17399000D01*
X-758815Y17461185D01*
X-855506Y17540537D01*
X-965820Y17599502D01*
X-1085518Y17635812D01*
X-1210000Y17648072D01*
X-3110000Y17648072D01*
X-3234482Y17635812D01*
X-3354180Y17599502D01*
X-3464494Y17540537D01*
X-3561185Y17461185D01*
X-3612219Y17399000D01*
X-4517781Y17399000D01*
X-4568815Y17461185D01*
X-4665506Y17540537D01*
X-4775820Y17599502D01*
X-4895518Y17635812D01*
X-5020000Y17648072D01*
X-6920000Y17648072D01*
X-7044482Y17635812D01*
X-7164180Y17599502D01*
X-7274494Y17540537D01*
X-7371185Y17461185D01*
X-7450537Y17364494D01*
X-7501046Y17270000D01*
X-8574493Y17270000D01*
X-9216421Y17911928D01*
X-8320000Y17911928D01*
X-8195518Y17924188D01*
X-8075820Y17960498D01*
X-7965506Y18019463D01*
X-7868815Y18098815D01*
X-7789463Y18195506D01*
X-7730498Y18305820D01*
X-7694188Y18425518D01*
X-7681928Y18550000D01*
X-7681928Y19550000D01*
X-7048072Y19550000D01*
X-7048072Y18550000D01*
X-7035812Y18425518D01*
X-6999502Y18305820D01*
X-6940537Y18195506D01*
X-6861185Y18098815D01*
X-6764494Y18019463D01*
X-6654180Y17960498D01*
X-6534482Y17924188D01*
X-6410000Y17911928D01*
X-4510000Y17911928D01*
X-4385518Y17924188D01*
X-4265820Y17960498D01*
X-4155506Y18019463D01*
X-4058815Y18098815D01*
X-3979463Y18195506D01*
X-3920498Y18305820D01*
X-3884188Y18425518D01*
X-3871928Y18550000D01*
X-3871928Y19550000D01*
X-3884188Y19674482D01*
X-3920498Y19794180D01*
X-3979463Y19904494D01*
X-4058815Y20001185D01*
X-4155506Y20080537D01*
X-4265820Y20139502D01*
X-4385518Y20175812D01*
X-4510000Y20188072D01*
X-6410000Y20188072D01*
X-6534482Y20175812D01*
X-6654180Y20139502D01*
X-6764494Y20080537D01*
X-6861185Y20001185D01*
X-6940537Y19904494D01*
X-6999502Y19794180D01*
X-7035812Y19674482D01*
X-7048072Y19550000D01*
X-7681928Y19550000D01*
X-7694188Y19674482D01*
X-7730498Y19794180D01*
X-7789463Y19904494D01*
X-7868815Y20001185D01*
X-7965506Y20080537D01*
X-8075820Y20139502D01*
X-8195518Y20175812D01*
X-8320000Y20188072D01*
X-8332129Y20188072D01*
X-7546607Y20973593D01*
X-7545812Y20965518D01*
X-7509502Y20845820D01*
X-7450537Y20735506D01*
X-7371185Y20638815D01*
X-7274494Y20559463D01*
X-7164180Y20500498D01*
X-7044482Y20464188D01*
X-6920000Y20451928D01*
X-5020000Y20451928D01*
X-4895518Y20464188D01*
X-4775820Y20500498D01*
X-4665506Y20559463D01*
X-4568815Y20638815D01*
X-4489463Y20735506D01*
X-4438954Y20830000D01*
X-4316750Y20830000D01*
X-4279428Y20826324D01*
X-4242106Y20830000D01*
X-4242095Y20830000D01*
X-4130442Y20840997D01*
X-3987181Y20884454D01*
X-3855152Y20955026D01*
X-3743780Y21046426D01*
X-3735812Y20965518D01*
X-3699502Y20845820D01*
X-3640537Y20735506D01*
X-3561185Y20638815D01*
X-3464494Y20559463D01*
X-3354180Y20500498D01*
X-3234482Y20464188D01*
X-3110000Y20451928D01*
X-1210000Y20451928D01*
X-1085518Y20464188D01*
X-965820Y20500498D01*
X-855506Y20559463D01*
X-758815Y20638815D01*
X-679463Y20735506D01*
X-620498Y20845820D01*
X-584188Y20965518D01*
X-571928Y21090000D01*
X-571928Y22090000D01*
X-584188Y22214482D01*
X-620498Y22334180D01*
X-679463Y22444494D01*
X-758815Y22541185D01*
X-855506Y22620537D01*
X-965820Y22679502D01*
X-1085518Y22715812D01*
X-1210000Y22728072D01*
X-2066555Y22728072D01*
X-1426627Y23368000D01*
X508000Y23368000D01*
X508000Y22225000D01*
X508000Y22225000D01*
G37*
X508000Y22225000D02*
X510440Y22200224D01*
X517667Y22176399D01*
X529403Y22154443D01*
X545197Y22135197D01*
X564443Y22119403D01*
X574305Y22114132D01*
X571928Y22090000D01*
X571928Y21090000D01*
X573118Y21077919D01*
X374002Y20878803D01*
X344998Y20855000D01*
X289870Y20787825D01*
X250025Y20739275D01*
X214490Y20672794D01*
X179453Y20607245D01*
X135996Y20463984D01*
X124999Y20352331D01*
X124999Y20352321D01*
X121323Y20314999D01*
X124999Y20277677D01*
X124999Y17399000D01*
X-707781Y17399000D01*
X-758815Y17461185D01*
X-855506Y17540537D01*
X-965820Y17599502D01*
X-1085518Y17635812D01*
X-1210000Y17648072D01*
X-3110000Y17648072D01*
X-3234482Y17635812D01*
X-3354180Y17599502D01*
X-3464494Y17540537D01*
X-3561185Y17461185D01*
X-3612219Y17399000D01*
X-4517781Y17399000D01*
X-4568815Y17461185D01*
X-4665506Y17540537D01*
X-4775820Y17599502D01*
X-4895518Y17635812D01*
X-5020000Y17648072D01*
X-6920000Y17648072D01*
X-7044482Y17635812D01*
X-7164180Y17599502D01*
X-7274494Y17540537D01*
X-7371185Y17461185D01*
X-7450537Y17364494D01*
X-7501046Y17270000D01*
X-8574493Y17270000D01*
X-9216421Y17911928D01*
X-8320000Y17911928D01*
X-8195518Y17924188D01*
X-8075820Y17960498D01*
X-7965506Y18019463D01*
X-7868815Y18098815D01*
X-7789463Y18195506D01*
X-7730498Y18305820D01*
X-7694188Y18425518D01*
X-7681928Y18550000D01*
X-7681928Y19550000D01*
X-7048072Y19550000D01*
X-7048072Y18550000D01*
X-7035812Y18425518D01*
X-6999502Y18305820D01*
X-6940537Y18195506D01*
X-6861185Y18098815D01*
X-6764494Y18019463D01*
X-6654180Y17960498D01*
X-6534482Y17924188D01*
X-6410000Y17911928D01*
X-4510000Y17911928D01*
X-4385518Y17924188D01*
X-4265820Y17960498D01*
X-4155506Y18019463D01*
X-4058815Y18098815D01*
X-3979463Y18195506D01*
X-3920498Y18305820D01*
X-3884188Y18425518D01*
X-3871928Y18550000D01*
X-3871928Y19550000D01*
X-3884188Y19674482D01*
X-3920498Y19794180D01*
X-3979463Y19904494D01*
X-4058815Y20001185D01*
X-4155506Y20080537D01*
X-4265820Y20139502D01*
X-4385518Y20175812D01*
X-4510000Y20188072D01*
X-6410000Y20188072D01*
X-6534482Y20175812D01*
X-6654180Y20139502D01*
X-6764494Y20080537D01*
X-6861185Y20001185D01*
X-6940537Y19904494D01*
X-6999502Y19794180D01*
X-7035812Y19674482D01*
X-7048072Y19550000D01*
X-7681928Y19550000D01*
X-7694188Y19674482D01*
X-7730498Y19794180D01*
X-7789463Y19904494D01*
X-7868815Y20001185D01*
X-7965506Y20080537D01*
X-8075820Y20139502D01*
X-8195518Y20175812D01*
X-8320000Y20188072D01*
X-8332129Y20188072D01*
X-7546607Y20973593D01*
X-7545812Y20965518D01*
X-7509502Y20845820D01*
X-7450537Y20735506D01*
X-7371185Y20638815D01*
X-7274494Y20559463D01*
X-7164180Y20500498D01*
X-7044482Y20464188D01*
X-6920000Y20451928D01*
X-5020000Y20451928D01*
X-4895518Y20464188D01*
X-4775820Y20500498D01*
X-4665506Y20559463D01*
X-4568815Y20638815D01*
X-4489463Y20735506D01*
X-4438954Y20830000D01*
X-4316750Y20830000D01*
X-4279428Y20826324D01*
X-4242106Y20830000D01*
X-4242095Y20830000D01*
X-4130442Y20840997D01*
X-3987181Y20884454D01*
X-3855152Y20955026D01*
X-3743780Y21046426D01*
X-3735812Y20965518D01*
X-3699502Y20845820D01*
X-3640537Y20735506D01*
X-3561185Y20638815D01*
X-3464494Y20559463D01*
X-3354180Y20500498D01*
X-3234482Y20464188D01*
X-3110000Y20451928D01*
X-1210000Y20451928D01*
X-1085518Y20464188D01*
X-965820Y20500498D01*
X-855506Y20559463D01*
X-758815Y20638815D01*
X-679463Y20735506D01*
X-620498Y20845820D01*
X-584188Y20965518D01*
X-571928Y21090000D01*
X-571928Y22090000D01*
X-584188Y22214482D01*
X-620498Y22334180D01*
X-679463Y22444494D01*
X-758815Y22541185D01*
X-855506Y22620537D01*
X-965820Y22679502D01*
X-1085518Y22715812D01*
X-1210000Y22728072D01*
X-2066555Y22728072D01*
X-1426627Y23368000D01*
X508000Y23368000D01*
X508000Y22225000D01*
G36*
X-7368451Y30948575D02*
G01*
X-7269254Y30895554D01*
X-7253793Y30887290D01*
X-7129383Y30849550D01*
X-7032419Y30840000D01*
X-7032410Y30840000D01*
X-7000001Y30836808D01*
X-6967592Y30840000D01*
X6967591Y30840000D01*
X7000000Y30836808D01*
X7032409Y30840000D01*
X7032419Y30840000D01*
X7129383Y30849550D01*
X7253793Y30887290D01*
X7368450Y30948575D01*
X7416489Y30988000D01*
X14479193Y30988000D01*
X14500759Y28702000D01*
X14186210Y28702000D01*
X14185000Y28924250D01*
X14026250Y29083000D01*
X12827000Y29083000D01*
X12827000Y29063000D01*
X12573000Y29063000D01*
X12573000Y29083000D01*
X11373750Y29083000D01*
X11215000Y28924250D01*
X11211928Y28360000D01*
X11224188Y28235518D01*
X11260498Y28115820D01*
X11319463Y28005506D01*
X11398815Y27908815D01*
X11495506Y27829463D01*
X11605820Y27770498D01*
X11674687Y27749607D01*
X11644866Y27725134D01*
X11459294Y27499014D01*
X11321401Y27241034D01*
X11236487Y26961111D01*
X11207815Y26670000D01*
X11236487Y26378889D01*
X11259203Y26304005D01*
X10284003Y25328804D01*
X10254999Y25305001D01*
X10224342Y25267644D01*
X10220000Y25268072D01*
X8933507Y25268072D01*
X8206534Y25995044D01*
X8178817Y26028817D01*
X8044059Y26139411D01*
X7890313Y26221589D01*
X7723490Y26272195D01*
X7593477Y26285000D01*
X7593469Y26285000D01*
X7556371Y26288654D01*
X7555000Y26384250D01*
X7396250Y26543000D01*
X6097000Y26543000D01*
X6097000Y26523000D01*
X5843000Y26523000D01*
X5843000Y26543000D01*
X5823000Y26543000D01*
X5823000Y26797000D01*
X5843000Y26797000D01*
X5843000Y27646250D01*
X6097000Y27646250D01*
X6097000Y26797000D01*
X7396250Y26797000D01*
X7555000Y26955750D01*
X7558072Y27170000D01*
X7545812Y27294482D01*
X7509502Y27414180D01*
X7450537Y27524494D01*
X7371185Y27621185D01*
X7274494Y27700537D01*
X7164180Y27759502D01*
X7044482Y27795812D01*
X6920000Y27808072D01*
X6255750Y27805000D01*
X6097000Y27646250D01*
X5843000Y27646250D01*
X5684250Y27805000D01*
X5020000Y27808072D01*
X4895518Y27795812D01*
X4775820Y27759502D01*
X4665506Y27700537D01*
X4568815Y27621185D01*
X4489463Y27524494D01*
X4430498Y27414180D01*
X4394188Y27294482D01*
X4381928Y27170000D01*
X4382224Y27149354D01*
X4266534Y27265044D01*
X4238817Y27298817D01*
X4104059Y27409411D01*
X3950313Y27491589D01*
X3783490Y27542195D01*
X3653477Y27555000D01*
X3653469Y27555000D01*
X3612163Y27559068D01*
X3561185Y27621185D01*
X3464494Y27700537D01*
X3354180Y27759502D01*
X3234482Y27795812D01*
X3110000Y27808072D01*
X1535000Y27808072D01*
X1535000Y27986939D01*
X1495226Y28186898D01*
X1417205Y28375256D01*
X1303937Y28544774D01*
X1159774Y28688937D01*
X990256Y28802205D01*
X801898Y28880226D01*
X601939Y28920000D01*
X398061Y28920000D01*
X198102Y28880226D01*
X9744Y28802205D01*
X0Y28795694D01*
X-9744Y28802205D01*
X-198102Y28880226D01*
X-398061Y28920000D01*
X-601939Y28920000D01*
X-801898Y28880226D01*
X-990256Y28802205D01*
X-1159774Y28688937D01*
X-1303937Y28544774D01*
X-1417205Y28375256D01*
X-1495226Y28186898D01*
X-1535000Y27986939D01*
X-1535000Y27808072D01*
X-3110000Y27808072D01*
X-3234482Y27795812D01*
X-3354180Y27759502D01*
X-3464494Y27700537D01*
X-3561185Y27621185D01*
X-3640537Y27524494D01*
X-3699502Y27414180D01*
X-3735812Y27294482D01*
X-3748072Y27170000D01*
X-3748072Y26170000D01*
X-3735812Y26045518D01*
X-3699502Y25925820D01*
X-3640537Y25815506D01*
X-3610590Y25779016D01*
X-4203445Y25186161D01*
X-4265820Y25219502D01*
X-4385518Y25255812D01*
X-4510000Y25268072D01*
X-6410000Y25268072D01*
X-6534482Y25255812D01*
X-6654180Y25219502D01*
X-6764494Y25160537D01*
X-6861185Y25081185D01*
X-6940537Y24984494D01*
X-6999502Y24874180D01*
X-7035812Y24754482D01*
X-7048072Y24630000D01*
X-7048072Y23630000D01*
X-7035812Y23505518D01*
X-6999502Y23385820D01*
X-6940537Y23275506D01*
X-6861185Y23178815D01*
X-6856538Y23175001D01*
X-7142678Y23175001D01*
X-7180001Y23178677D01*
X-7217324Y23175001D01*
X-7217334Y23175001D01*
X-7328987Y23164004D01*
X-7435975Y23131550D01*
X-7472248Y23120547D01*
X-7604278Y23049975D01*
X-7660922Y23003488D01*
X-7720002Y22955002D01*
X-7743800Y22926004D01*
X-9398000Y21271803D01*
X-9398000Y22991928D01*
X-8320000Y22991928D01*
X-8195518Y23004188D01*
X-8075820Y23040498D01*
X-7965506Y23099463D01*
X-7868815Y23178815D01*
X-7789463Y23275506D01*
X-7730498Y23385820D01*
X-7694188Y23505518D01*
X-7681928Y23630000D01*
X-7681928Y24630000D01*
X-7694188Y24754482D01*
X-7730498Y24874180D01*
X-7786412Y24978787D01*
X-7177553Y25587646D01*
X-7164180Y25580498D01*
X-7044482Y25544188D01*
X-6920000Y25531928D01*
X-5020000Y25531928D01*
X-4895518Y25544188D01*
X-4775820Y25580498D01*
X-4665506Y25639463D01*
X-4568815Y25718815D01*
X-4489463Y25815506D01*
X-4430498Y25925820D01*
X-4394188Y26045518D01*
X-4381928Y26170000D01*
X-4381928Y27170000D01*
X-4394188Y27294482D01*
X-4430498Y27414180D01*
X-4489463Y27524494D01*
X-4568815Y27621185D01*
X-4665506Y27700537D01*
X-4775820Y27759502D01*
X-4895518Y27795812D01*
X-5020000Y27808072D01*
X-6858000Y27808072D01*
X-6858000Y27940000D01*
X-6860440Y27964776D01*
X-6867667Y27988601D01*
X-6879403Y28010557D01*
X-6895197Y28029803D01*
X-6914443Y28045597D01*
X-6936399Y28057333D01*
X-6960224Y28064560D01*
X-6985000Y28067000D01*
X-11286593Y28067000D01*
X-11260498Y28115820D01*
X-11224188Y28235518D01*
X-11211928Y28360000D01*
X-11211928Y28710000D01*
X-10858072Y28710000D01*
X-10845812Y28585518D01*
X-10809502Y28465820D01*
X-10750537Y28355506D01*
X-10671185Y28258815D01*
X-10574494Y28179463D01*
X-10464180Y28120498D01*
X-10344482Y28084188D01*
X-10220000Y28071928D01*
X-9555750Y28075000D01*
X-9397000Y28233750D01*
X-9397000Y29083000D01*
X-9143000Y29083000D01*
X-9143000Y28233750D01*
X-8984250Y28075000D01*
X-8320000Y28071928D01*
X-8195518Y28084188D01*
X-8075820Y28120498D01*
X-7965506Y28179463D01*
X-7868815Y28258815D01*
X-7789463Y28355506D01*
X-7730498Y28465820D01*
X-7694188Y28585518D01*
X-7681928Y28710000D01*
X-7685000Y28924250D01*
X-7843750Y29083000D01*
X-9143000Y29083000D01*
X-9397000Y29083000D01*
X-10696250Y29083000D01*
X-10855000Y28924250D01*
X-10858072Y28710000D01*
X-11211928Y28710000D01*
X-11211928Y29710000D01*
X-10858072Y29710000D01*
X-10855000Y29495750D01*
X-10696250Y29337000D01*
X-9397000Y29337000D01*
X-9397000Y30186250D01*
X-9143000Y30186250D01*
X-9143000Y29337000D01*
X-7843750Y29337000D01*
X-7685000Y29495750D01*
X-7681928Y29710000D01*
X7681928Y29710000D01*
X7681928Y28710000D01*
X7694188Y28585518D01*
X7730498Y28465820D01*
X7789463Y28355506D01*
X7868815Y28258815D01*
X7965506Y28179463D01*
X8075820Y28120498D01*
X8195518Y28084188D01*
X8320000Y28071928D01*
X10220000Y28071928D01*
X10344482Y28084188D01*
X10464180Y28120498D01*
X10574494Y28179463D01*
X10671185Y28258815D01*
X10750537Y28355506D01*
X10809502Y28465820D01*
X10845812Y28585518D01*
X10858072Y28710000D01*
X10858072Y29710000D01*
X10845812Y29834482D01*
X10809502Y29954180D01*
X10752940Y30060000D01*
X11211928Y30060000D01*
X11215000Y29495750D01*
X11373750Y29337000D01*
X12573000Y29337000D01*
X12573000Y30536250D01*
X12827000Y30536250D01*
X12827000Y29337000D01*
X14026250Y29337000D01*
X14185000Y29495750D01*
X14188072Y30060000D01*
X14175812Y30184482D01*
X14139502Y30304180D01*
X14080537Y30414494D01*
X14001185Y30511185D01*
X13904494Y30590537D01*
X13794180Y30649502D01*
X13674482Y30685812D01*
X13550000Y30698072D01*
X12985750Y30695000D01*
X12827000Y30536250D01*
X12573000Y30536250D01*
X12414250Y30695000D01*
X11850000Y30698072D01*
X11725518Y30685812D01*
X11605820Y30649502D01*
X11495506Y30590537D01*
X11398815Y30511185D01*
X11319463Y30414494D01*
X11260498Y30304180D01*
X11224188Y30184482D01*
X11211928Y30060000D01*
X10752940Y30060000D01*
X10750537Y30064494D01*
X10671185Y30161185D01*
X10574494Y30240537D01*
X10464180Y30299502D01*
X10344482Y30335812D01*
X10220000Y30348072D01*
X8320000Y30348072D01*
X8195518Y30335812D01*
X8075820Y30299502D01*
X7965506Y30240537D01*
X7868815Y30161185D01*
X7789463Y30064494D01*
X7730498Y29954180D01*
X7694188Y29834482D01*
X7681928Y29710000D01*
X-7681928Y29710000D01*
X-7694188Y29834482D01*
X-7730498Y29954180D01*
X-7789463Y30064494D01*
X-7868815Y30161185D01*
X-7965506Y30240537D01*
X-8075820Y30299502D01*
X-8195518Y30335812D01*
X-8320000Y30348072D01*
X-8984250Y30345000D01*
X-9143000Y30186250D01*
X-9397000Y30186250D01*
X-9555750Y30345000D01*
X-10220000Y30348072D01*
X-10344482Y30335812D01*
X-10464180Y30299502D01*
X-10574494Y30240537D01*
X-10671185Y30161185D01*
X-10750537Y30064494D01*
X-10809502Y29954180D01*
X-10845812Y29834482D01*
X-10858072Y29710000D01*
X-11211928Y29710000D01*
X-11211928Y30060000D01*
X-11224188Y30184482D01*
X-11260498Y30304180D01*
X-11303000Y30383694D01*
X-11303000Y30988000D01*
X-7416490Y30988000D01*
X-7368451Y30948575D01*
X-7368451Y30948575D01*
G37*
X-7368451Y30948575D02*
X-7269254Y30895554D01*
X-7253793Y30887290D01*
X-7129383Y30849550D01*
X-7032419Y30840000D01*
X-7032410Y30840000D01*
X-7000001Y30836808D01*
X-6967592Y30840000D01*
X6967591Y30840000D01*
X7000000Y30836808D01*
X7032409Y30840000D01*
X7032419Y30840000D01*
X7129383Y30849550D01*
X7253793Y30887290D01*
X7368450Y30948575D01*
X7416489Y30988000D01*
X14479193Y30988000D01*
X14500759Y28702000D01*
X14186210Y28702000D01*
X14185000Y28924250D01*
X14026250Y29083000D01*
X12827000Y29083000D01*
X12827000Y29063000D01*
X12573000Y29063000D01*
X12573000Y29083000D01*
X11373750Y29083000D01*
X11215000Y28924250D01*
X11211928Y28360000D01*
X11224188Y28235518D01*
X11260498Y28115820D01*
X11319463Y28005506D01*
X11398815Y27908815D01*
X11495506Y27829463D01*
X11605820Y27770498D01*
X11674687Y27749607D01*
X11644866Y27725134D01*
X11459294Y27499014D01*
X11321401Y27241034D01*
X11236487Y26961111D01*
X11207815Y26670000D01*
X11236487Y26378889D01*
X11259203Y26304005D01*
X10284003Y25328804D01*
X10254999Y25305001D01*
X10224342Y25267644D01*
X10220000Y25268072D01*
X8933507Y25268072D01*
X8206534Y25995044D01*
X8178817Y26028817D01*
X8044059Y26139411D01*
X7890313Y26221589D01*
X7723490Y26272195D01*
X7593477Y26285000D01*
X7593469Y26285000D01*
X7556371Y26288654D01*
X7555000Y26384250D01*
X7396250Y26543000D01*
X6097000Y26543000D01*
X6097000Y26523000D01*
X5843000Y26523000D01*
X5843000Y26543000D01*
X5823000Y26543000D01*
X5823000Y26797000D01*
X5843000Y26797000D01*
X5843000Y27646250D01*
X6097000Y27646250D01*
X6097000Y26797000D01*
X7396250Y26797000D01*
X7555000Y26955750D01*
X7558072Y27170000D01*
X7545812Y27294482D01*
X7509502Y27414180D01*
X7450537Y27524494D01*
X7371185Y27621185D01*
X7274494Y27700537D01*
X7164180Y27759502D01*
X7044482Y27795812D01*
X6920000Y27808072D01*
X6255750Y27805000D01*
X6097000Y27646250D01*
X5843000Y27646250D01*
X5684250Y27805000D01*
X5020000Y27808072D01*
X4895518Y27795812D01*
X4775820Y27759502D01*
X4665506Y27700537D01*
X4568815Y27621185D01*
X4489463Y27524494D01*
X4430498Y27414180D01*
X4394188Y27294482D01*
X4381928Y27170000D01*
X4382224Y27149354D01*
X4266534Y27265044D01*
X4238817Y27298817D01*
X4104059Y27409411D01*
X3950313Y27491589D01*
X3783490Y27542195D01*
X3653477Y27555000D01*
X3653469Y27555000D01*
X3612163Y27559068D01*
X3561185Y27621185D01*
X3464494Y27700537D01*
X3354180Y27759502D01*
X3234482Y27795812D01*
X3110000Y27808072D01*
X1535000Y27808072D01*
X1535000Y27986939D01*
X1495226Y28186898D01*
X1417205Y28375256D01*
X1303937Y28544774D01*
X1159774Y28688937D01*
X990256Y28802205D01*
X801898Y28880226D01*
X601939Y28920000D01*
X398061Y28920000D01*
X198102Y28880226D01*
X9744Y28802205D01*
X0Y28795694D01*
X-9744Y28802205D01*
X-198102Y28880226D01*
X-398061Y28920000D01*
X-601939Y28920000D01*
X-801898Y28880226D01*
X-990256Y28802205D01*
X-1159774Y28688937D01*
X-1303937Y28544774D01*
X-1417205Y28375256D01*
X-1495226Y28186898D01*
X-1535000Y27986939D01*
X-1535000Y27808072D01*
X-3110000Y27808072D01*
X-3234482Y27795812D01*
X-3354180Y27759502D01*
X-3464494Y27700537D01*
X-3561185Y27621185D01*
X-3640537Y27524494D01*
X-3699502Y27414180D01*
X-3735812Y27294482D01*
X-3748072Y27170000D01*
X-3748072Y26170000D01*
X-3735812Y26045518D01*
X-3699502Y25925820D01*
X-3640537Y25815506D01*
X-3610590Y25779016D01*
X-4203445Y25186161D01*
X-4265820Y25219502D01*
X-4385518Y25255812D01*
X-4510000Y25268072D01*
X-6410000Y25268072D01*
X-6534482Y25255812D01*
X-6654180Y25219502D01*
X-6764494Y25160537D01*
X-6861185Y25081185D01*
X-6940537Y24984494D01*
X-6999502Y24874180D01*
X-7035812Y24754482D01*
X-7048072Y24630000D01*
X-7048072Y23630000D01*
X-7035812Y23505518D01*
X-6999502Y23385820D01*
X-6940537Y23275506D01*
X-6861185Y23178815D01*
X-6856538Y23175001D01*
X-7142678Y23175001D01*
X-7180001Y23178677D01*
X-7217324Y23175001D01*
X-7217334Y23175001D01*
X-7328987Y23164004D01*
X-7435975Y23131550D01*
X-7472248Y23120547D01*
X-7604278Y23049975D01*
X-7660922Y23003488D01*
X-7720002Y22955002D01*
X-7743800Y22926004D01*
X-9398000Y21271803D01*
X-9398000Y22991928D01*
X-8320000Y22991928D01*
X-8195518Y23004188D01*
X-8075820Y23040498D01*
X-7965506Y23099463D01*
X-7868815Y23178815D01*
X-7789463Y23275506D01*
X-7730498Y23385820D01*
X-7694188Y23505518D01*
X-7681928Y23630000D01*
X-7681928Y24630000D01*
X-7694188Y24754482D01*
X-7730498Y24874180D01*
X-7786412Y24978787D01*
X-7177553Y25587646D01*
X-7164180Y25580498D01*
X-7044482Y25544188D01*
X-6920000Y25531928D01*
X-5020000Y25531928D01*
X-4895518Y25544188D01*
X-4775820Y25580498D01*
X-4665506Y25639463D01*
X-4568815Y25718815D01*
X-4489463Y25815506D01*
X-4430498Y25925820D01*
X-4394188Y26045518D01*
X-4381928Y26170000D01*
X-4381928Y27170000D01*
X-4394188Y27294482D01*
X-4430498Y27414180D01*
X-4489463Y27524494D01*
X-4568815Y27621185D01*
X-4665506Y27700537D01*
X-4775820Y27759502D01*
X-4895518Y27795812D01*
X-5020000Y27808072D01*
X-6858000Y27808072D01*
X-6858000Y27940000D01*
X-6860440Y27964776D01*
X-6867667Y27988601D01*
X-6879403Y28010557D01*
X-6895197Y28029803D01*
X-6914443Y28045597D01*
X-6936399Y28057333D01*
X-6960224Y28064560D01*
X-6985000Y28067000D01*
X-11286593Y28067000D01*
X-11260498Y28115820D01*
X-11224188Y28235518D01*
X-11211928Y28360000D01*
X-11211928Y28710000D01*
X-10858072Y28710000D01*
X-10845812Y28585518D01*
X-10809502Y28465820D01*
X-10750537Y28355506D01*
X-10671185Y28258815D01*
X-10574494Y28179463D01*
X-10464180Y28120498D01*
X-10344482Y28084188D01*
X-10220000Y28071928D01*
X-9555750Y28075000D01*
X-9397000Y28233750D01*
X-9397000Y29083000D01*
X-9143000Y29083000D01*
X-9143000Y28233750D01*
X-8984250Y28075000D01*
X-8320000Y28071928D01*
X-8195518Y28084188D01*
X-8075820Y28120498D01*
X-7965506Y28179463D01*
X-7868815Y28258815D01*
X-7789463Y28355506D01*
X-7730498Y28465820D01*
X-7694188Y28585518D01*
X-7681928Y28710000D01*
X-7685000Y28924250D01*
X-7843750Y29083000D01*
X-9143000Y29083000D01*
X-9397000Y29083000D01*
X-10696250Y29083000D01*
X-10855000Y28924250D01*
X-10858072Y28710000D01*
X-11211928Y28710000D01*
X-11211928Y29710000D01*
X-10858072Y29710000D01*
X-10855000Y29495750D01*
X-10696250Y29337000D01*
X-9397000Y29337000D01*
X-9397000Y30186250D01*
X-9143000Y30186250D01*
X-9143000Y29337000D01*
X-7843750Y29337000D01*
X-7685000Y29495750D01*
X-7681928Y29710000D01*
X7681928Y29710000D01*
X7681928Y28710000D01*
X7694188Y28585518D01*
X7730498Y28465820D01*
X7789463Y28355506D01*
X7868815Y28258815D01*
X7965506Y28179463D01*
X8075820Y28120498D01*
X8195518Y28084188D01*
X8320000Y28071928D01*
X10220000Y28071928D01*
X10344482Y28084188D01*
X10464180Y28120498D01*
X10574494Y28179463D01*
X10671185Y28258815D01*
X10750537Y28355506D01*
X10809502Y28465820D01*
X10845812Y28585518D01*
X10858072Y28710000D01*
X10858072Y29710000D01*
X10845812Y29834482D01*
X10809502Y29954180D01*
X10752940Y30060000D01*
X11211928Y30060000D01*
X11215000Y29495750D01*
X11373750Y29337000D01*
X12573000Y29337000D01*
X12573000Y30536250D01*
X12827000Y30536250D01*
X12827000Y29337000D01*
X14026250Y29337000D01*
X14185000Y29495750D01*
X14188072Y30060000D01*
X14175812Y30184482D01*
X14139502Y30304180D01*
X14080537Y30414494D01*
X14001185Y30511185D01*
X13904494Y30590537D01*
X13794180Y30649502D01*
X13674482Y30685812D01*
X13550000Y30698072D01*
X12985750Y30695000D01*
X12827000Y30536250D01*
X12573000Y30536250D01*
X12414250Y30695000D01*
X11850000Y30698072D01*
X11725518Y30685812D01*
X11605820Y30649502D01*
X11495506Y30590537D01*
X11398815Y30511185D01*
X11319463Y30414494D01*
X11260498Y30304180D01*
X11224188Y30184482D01*
X11211928Y30060000D01*
X10752940Y30060000D01*
X10750537Y30064494D01*
X10671185Y30161185D01*
X10574494Y30240537D01*
X10464180Y30299502D01*
X10344482Y30335812D01*
X10220000Y30348072D01*
X8320000Y30348072D01*
X8195518Y30335812D01*
X8075820Y30299502D01*
X7965506Y30240537D01*
X7868815Y30161185D01*
X7789463Y30064494D01*
X7730498Y29954180D01*
X7694188Y29834482D01*
X7681928Y29710000D01*
X-7681928Y29710000D01*
X-7694188Y29834482D01*
X-7730498Y29954180D01*
X-7789463Y30064494D01*
X-7868815Y30161185D01*
X-7965506Y30240537D01*
X-8075820Y30299502D01*
X-8195518Y30335812D01*
X-8320000Y30348072D01*
X-8984250Y30345000D01*
X-9143000Y30186250D01*
X-9397000Y30186250D01*
X-9555750Y30345000D01*
X-10220000Y30348072D01*
X-10344482Y30335812D01*
X-10464180Y30299502D01*
X-10574494Y30240537D01*
X-10671185Y30161185D01*
X-10750537Y30064494D01*
X-10809502Y29954180D01*
X-10845812Y29834482D01*
X-10858072Y29710000D01*
X-11211928Y29710000D01*
X-11211928Y30060000D01*
X-11224188Y30184482D01*
X-11260498Y30304180D01*
X-11303000Y30383694D01*
X-11303000Y30988000D01*
X-7416490Y30988000D01*
X-7368451Y30948575D01*
G36*
X-19030583Y-1221153D02*
G01*
X-19013301Y-1242211D01*
X-18929248Y-1311191D01*
X-18833353Y-1362448D01*
X-18740000Y-1390766D01*
X-18740000Y-3256202D01*
X-18753178Y-3390000D01*
X-18740000Y-3523798D01*
X-18740000Y-4208000D01*
X-20708500Y-4208000D01*
X-20708500Y-1213369D01*
X-20701443Y-1209597D01*
X-20682197Y-1193803D01*
X-20428197Y-939803D01*
X-20412403Y-920557D01*
X-20400667Y-898601D01*
X-20393440Y-874776D01*
X-20391000Y-850000D01*
X-20391000Y-634066D01*
X-19777500Y-634066D01*
X-19756522Y-632000D01*
X-19619734Y-632000D01*
X-19030583Y-1221153D01*
X-19030583Y-1221153D01*
G37*
X-19030583Y-1221153D02*
X-19013301Y-1242211D01*
X-18929248Y-1311191D01*
X-18833353Y-1362448D01*
X-18740000Y-1390766D01*
X-18740000Y-3256202D01*
X-18753178Y-3390000D01*
X-18740000Y-3523798D01*
X-18740000Y-4208000D01*
X-20708500Y-4208000D01*
X-20708500Y-1213369D01*
X-20701443Y-1209597D01*
X-20682197Y-1193803D01*
X-20428197Y-939803D01*
X-20412403Y-920557D01*
X-20400667Y-898601D01*
X-20393440Y-874776D01*
X-20391000Y-850000D01*
X-20391000Y-634066D01*
X-19777500Y-634066D01*
X-19756522Y-632000D01*
X-19619734Y-632000D01*
X-19030583Y-1221153D01*
G36*
X-18536924Y977104D02*
G01*
X-18377344Y782656D01*
X-18359000Y767601D01*
X-18359000Y72399D01*
X-18377344Y57344D01*
X-18536924Y-137104D01*
X-18542642Y-147802D01*
X-18981590Y291144D01*
X-18998879Y312211D01*
X-19082932Y381191D01*
X-19172226Y428920D01*
X-19155385Y437921D01*
X-19067526Y510026D01*
X-19049461Y532038D01*
X-18560426Y1021073D01*
X-18536924Y977104D01*
X-18536924Y977104D01*
G37*
X-18536924Y977104D02*
X-18377344Y782656D01*
X-18359000Y767601D01*
X-18359000Y72399D01*
X-18377344Y57344D01*
X-18536924Y-137104D01*
X-18542642Y-147802D01*
X-18981590Y291144D01*
X-18998879Y312211D01*
X-19082932Y381191D01*
X-19172226Y428920D01*
X-19155385Y437921D01*
X-19067526Y510026D01*
X-19049461Y532038D01*
X-18560426Y1021073D01*
X-18536924Y977104D01*
G36*
X-20230538Y4539537D02*
G01*
X-20237987Y4514982D01*
X-20249066Y4402500D01*
X-20249066Y4057500D01*
X-20237987Y3945018D01*
X-20205178Y3836858D01*
X-20151897Y3737177D01*
X-20080194Y3649806D01*
X-19992823Y3578103D01*
X-19893142Y3524822D01*
X-19784982Y3492013D01*
X-19672500Y3480934D01*
X-19591935Y3480934D01*
X-19316999Y3205998D01*
X-19317000Y1896501D01*
X-19348434Y1865067D01*
X-19348434Y2045000D01*
X-19356678Y2128707D01*
X-19381095Y2209196D01*
X-19420745Y2283376D01*
X-19474105Y2348395D01*
X-19539124Y2401755D01*
X-19613304Y2441405D01*
X-19693793Y2465822D01*
X-19777500Y2474066D01*
X-20452500Y2474066D01*
X-20536207Y2465822D01*
X-20616696Y2441405D01*
X-20690876Y2401755D01*
X-20725934Y2372983D01*
X-20725934Y2672500D01*
X-20734178Y2756207D01*
X-20758595Y2836696D01*
X-20798245Y2910876D01*
X-20851605Y2975895D01*
X-20916624Y3029255D01*
X-20990804Y3068905D01*
X-21071293Y3093322D01*
X-21155000Y3101566D01*
X-21405000Y3101566D01*
X-21488707Y3093322D01*
X-21569196Y3068905D01*
X-21643376Y3029255D01*
X-21708395Y2975895D01*
X-21721440Y2960000D01*
X-21806057Y2960000D01*
X-21754782Y3083788D01*
X-21723000Y3243563D01*
X-21723000Y3406467D01*
X-21754782Y3566242D01*
X-21817123Y3716746D01*
X-21907628Y3852196D01*
X-22022819Y3967387D01*
X-22158269Y4057892D01*
X-22220875Y4083824D01*
X-22208000Y4148548D01*
X-22208000Y4311452D01*
X-22239782Y4471227D01*
X-22271578Y4547990D01*
X-20238991Y4547990D01*
X-20230538Y4539537D01*
X-20230538Y4539537D01*
G37*
X-20230538Y4539537D02*
X-20237987Y4514982D01*
X-20249066Y4402500D01*
X-20249066Y4057500D01*
X-20237987Y3945018D01*
X-20205178Y3836858D01*
X-20151897Y3737177D01*
X-20080194Y3649806D01*
X-19992823Y3578103D01*
X-19893142Y3524822D01*
X-19784982Y3492013D01*
X-19672500Y3480934D01*
X-19591935Y3480934D01*
X-19316999Y3205998D01*
X-19317000Y1896501D01*
X-19348434Y1865067D01*
X-19348434Y2045000D01*
X-19356678Y2128707D01*
X-19381095Y2209196D01*
X-19420745Y2283376D01*
X-19474105Y2348395D01*
X-19539124Y2401755D01*
X-19613304Y2441405D01*
X-19693793Y2465822D01*
X-19777500Y2474066D01*
X-20452500Y2474066D01*
X-20536207Y2465822D01*
X-20616696Y2441405D01*
X-20690876Y2401755D01*
X-20725934Y2372983D01*
X-20725934Y2672500D01*
X-20734178Y2756207D01*
X-20758595Y2836696D01*
X-20798245Y2910876D01*
X-20851605Y2975895D01*
X-20916624Y3029255D01*
X-20990804Y3068905D01*
X-21071293Y3093322D01*
X-21155000Y3101566D01*
X-21405000Y3101566D01*
X-21488707Y3093322D01*
X-21569196Y3068905D01*
X-21643376Y3029255D01*
X-21708395Y2975895D01*
X-21721440Y2960000D01*
X-21806057Y2960000D01*
X-21754782Y3083788D01*
X-21723000Y3243563D01*
X-21723000Y3406467D01*
X-21754782Y3566242D01*
X-21817123Y3716746D01*
X-21907628Y3852196D01*
X-22022819Y3967387D01*
X-22158269Y4057892D01*
X-22220875Y4083824D01*
X-22208000Y4148548D01*
X-22208000Y4311452D01*
X-22239782Y4471227D01*
X-22271578Y4547990D01*
X-20238991Y4547990D01*
X-20230538Y4539537D01*
M02*
